<!-- Generated by IcoMoon.io -->
<svg version="1.1" xmlns="http://www.w3.org/2000/svg" width="720" height="512" viewBox="0 0 720 512">
<path fill="#000" d="M668.428 33.020c-19.756-22.209-45.651 5.175-62.273 17.954-37.476-45.865-78.636-17.975-123.145-3.315-37.801-24.595-52.998-32.581-98.673-15.333-11.647 4.514-24.674 13.272-37.51 10.73 0 0 0.012-0.023 0.012-0.023-16.945-14.313-34.194-32.906-58.017-33.219-34.922 1.792-65.173 21.818-92.547 41.833-34.821-41.239-72.756-39.358-106.681 1.959-30.162-37.274-71.714-20.933-68.365 27.037 0.695 11.57 5.489 19.365 10.393 25.996 3.539 8.4 9.072 17.786 10.382 19.567-1.154 0.1-4.166 1.478-7.571 3.338-42.594 16.017-26.366 70.819-6.587 102.425 9.039 14.762 4.895 9.442-4.748 20.294-28.863 26.881-28.235 69.553-11.536 102.873 5.242 11.39 9.99 5.925 3.483 18.447-5.734 13.048-11.066 26.555-12.835 40.791-3.315 32.704 14.604 67.268 52.114 55.81 13.597 55.441 63.795 17.988 95.75 3.181 0.179 0.37 0.404 0.717 0.638 1.086 22.747 40.332 67.166 27.384 87.876-8.176 30.128 38.103 62.944 48.497 100.353 12.197 21.325 21.269 54.556 23.979 82.377 16.050 14.202-6.866 27.967-15.926 41.99-23.52 11.447 13.933 25.391 28.639 44.229 31.002 24.115 1.59 50.389-7.067 63.683-28.135 22.982 30.957 100.274 27.933 85.188-22.837 33.321 12.276 46.626-21.717 43.244-49.314-1.524-19.219-10.069-35.628-21.225-50.793 51.745-4.435 25.972-69.374 6.81-95.649 3.875-1.949 7.661-4.132 11.076-6.787 0.077-0.078 0.135-0.145 0.212-0.224 19.891-15.198 26.858-41.126 21.706-66.372-3.361-18.2-15.58-27.496-24.283-42.438 13.878-9.341 25.615-24.55 25.928-41.9 1.467-15.826-10.472-26.388-22.916-33.399 33.409-26.511-9.442-59.002-28.538-31.136zM56.34 127.427c9.598-0.896 24.417-0.145 28.056 10.572-4.076 12.13-23.498-5.018-28.056-10.573zM650.742 244.804c5.354-4.256 16.968 7.28 21.337 10.551-7.649 2.912-23.498-0.044-21.337-10.551zM692.149 58.097c-2.397 3.136-1.49 7.19 1.613 9.474 23.498 15.523 25.021 52.574-1.030 66.316-2.722 1.601-6.708 1.613-8.188 4.85-2.734 6.911 9.789 13.272 12.847 19.029 8.658 14.067 15.423 30.408 16.385 47.030 0.37 16.117-12.174 28.19-24.068 37.308-3.449 3.338-9.207 4.895-11.917 8.847-5.589-6.484-12.689-12.276-21.191-14.011-8.759-2.061-20.407 5.622-15.020 15.176 7.022 11.928 23.431 12.353 34.855 7.044 1.176 1.031 2.33 2.106 3.427 3.203 5.141 10.327 14.481 19.208 17.886 30.498 7.392 16.677 5.969 44.184-14.135 50.77-20.608 1.635-10.572 7.538-6.956 21.068 5.634 17.159 16.98 32.75 17.451 51.329 0.157 14.975-12.231 29.457-27.799 28.538-5.544 0.257-19.689-8.164-19.22 2.318 2.879 13.709 8.557 23.454-5.208 33.421-21.908 18.772-40.634 6.171-58.711-10.226-8.053-8.568-14.863-5.544-19.623 4.166-23.755 29.703-73.081 29.086-91.964-5.589-0.247-0.571-0.526-1.086-0.817-1.557-0.212-0.851-0.336-1.736-0.336-2.666 6.832-4.839 13.362-12.286 13.99-21.012-0.447-35.247-33.656-17.428-19.846 18.548-0.863 0.683-1.748 1.344-2.644 2.005-11.223 2.979-27.821 21.425-38.517 22.401-90.351 19.084-70.74-29.188-97.351-9.352-8.188 6.955-16.083 15.512-26.993 17.853-34.396 6.608-51.733-42.774-63.628-34.642-14.627 24.125-60.592 49.74-75.791 16.094 0.1-0.224 0.212-0.437 0.325-0.705-0.112-3.113-2.7-5.488-3.606-8.389 5.119-3.517 10.113-7.841 12.321-13.832 3.506-18.85-30.408-11.591-21.728 11.985-11.839 4.156-29.882 25.57-46.57 25.38-9.128 0.84-20.597 4.962-28.291-1.814-8.052-7.459-3.662-27.496-17.147-25.894-54.5 19.108-49.84-60.38-30.744-90.239 14.045-20.082-12.768-9.957-14.594-46.067-12.118-67.962 43.411-68.488 28.806-91.226-17.316-30.196-31.573-55.227-14.022-89.859 5.186-9.319 16.957-10.954 23.307-13.395 11.648 10.091 38.338 22.905 45.069 5.331-0.885-18.782-26.937-18.57-40.465-14.761-4.066-4.928-8.367-9.734-11.794-15.165-2.912-3.73-3.405-9.039-6.059-12.835-3.226-9.15-6.497-18.603-4.346-28.302 2.822-12.589 10.921-31.864 26.947-26.029 10.841 3.225 18.805 11.48 27.070 18.705 14.045 10.26 23.061-31.55 56.27-29.927 40.992 1.176 45.82 33.578 63.763 25.301 37.666-28.415 78.244-53.425 122.921-21.337 21.481 19.41 21.359 20.362 48.9 8.847 36.557-12.735 67.346-22.075 97.856 9.083 0.548 0.538 1.108 1.008 1.68 1.4-9.868 5.253-12.903 19.096 1.926 19.443 9.017-0.504 13.675-8.254 7.705-15.725 3.707-2.273 10.416-2.777 12.801-6.104 0.012-0.023 0.033-0.056 0.045-0.068 3.271-1.557 6.452-3.091 9.442-3.898 29.322-13.541 69.037-23.935 92.277 5.611 2.341 2.767 5.208 5.958 9.263 4.873 7.571-2.218 10.001-11.367 16.621-15.322 9.979-6.048 27.273-14.818 36.311-3.349 2.465 2.117 7.739 1.333 7.885-2.431 20.91-17.998 39.211 0.392 22.356 22.479zM469.49 457.337c-0.503-7.582-2.901-16.7 1.243-23.531 3.618-1.624 5.488 4.245 5.499 7.022 0.594 6.272-2.543 12.041-6.743 16.51zM154.901 461.861c-0.638-4.156 0.717-9.778 5.163-11.2 0.212 0.156 0.426 0.426 0.493 0.695-0.336 4.065-2.655 7.818-5.656 10.505zM481.811 57.907c0.56 1.21 0.773 2.542 0.807 3.864-1.837 8.333-13.675 1.4-0.807-3.864zM497.894 50.235c0.012-0.012 0.012-0.033 0.012-0.044 0.022-0.012 0.033-0.033 0.045-0.056 0.012 0.012-0.055 0.1-0.055 0.1z"></path>
</svg>
