<!-- Generated by IcoMoon.io -->
<svg version="1.1" xmlns="http://www.w3.org/2000/svg" width="18" height="32" viewBox="0 0 18 32">
<path d="M17.278 1.003c0.094 0.144-6.926 4.881-7.041 4.957s-7.283 4.574-7.376 4.43c-0.093-0.143 6.923-4.877 7.036-4.952s7.286-4.579 7.38-4.435z"></path>
<path d="M16.976 18.128c0.007 0.172-7.189 0.611-7.306 0.616s-7.319 0.166-7.326-0.006c-0.008-0.173 7.184-0.611 7.3-0.616s7.324-0.166 7.331 0.006z"></path>
<path d="M9.103 30.993c-0.083 0.151-4.629-2.153-4.701-2.193s-4.483-2.587-4.402-2.738c0.082-0.15 4.624 2.151 4.698 2.191s4.485 2.588 4.404 2.74z"></path>
</svg>
