<!-- Generated by IcoMoon.io -->
<svg version="1.1" xmlns="http://www.w3.org/2000/svg" width="32" height="32" viewBox="0 0 32 32">
<path d="M31.971 16.687c-0.703-0.606-1.55-0.878-2.41-1.027-1.011-0.176-2.038-0.257-3.058-0.34-2.121-0.173-4.247-0.235-6.373-0.212-4.27 0.047-8.532 0.44-12.772 0.998-2.349 0.309-4.695 0.782-7.065 0.685 0.727-1.013 1.711-1.751 2.821-2.064-0.208 0.164-0.417 0.329-0.626 0.493-0.037 0.028 0.050 0.191 0.083 0.166 0.34-0.258 0.682-0.512 1.021-0.771 0.040-0.030-0.12-0.148-0.154-0.142-1.367 0.26-2.62 1.105-3.433 2.392-0.018 0.028 0.031 0.041 0.043 0.043 2.061 0.292 4.179-0.157 6.225-0.416 2.118-0.269 4.239-0.501 6.364-0.677 4.27-0.352 8.559-0.469 12.834-0.175 1.166 0.080 2.333 0.182 3.493 0.338 0.94 0.127 1.908 0.333 2.708 0.934-0.356 0.28-0.745 0.442-1.203 0.401-0.046-0.004-0.277 0.078-0.149 0.102 0.523 0.098 1.135 0.027 1.572-0.344 0.059-0.050 0.158-0.317 0.080-0.385z"></path>
<path d="M26.456 17.359c-0.734-0.225-1.548-0.239-2.303-0.3-0.819-0.067-1.639-0.108-2.459-0.127-1.713-0.040-3.423 0.028-5.134 0.135-0.924 0.057-1.848 0.16-2.766 0.292-0.043 0.006 0.044 0.175 0.092 0.167 1.571-0.229 3.148-0.407 4.731-0.469 1.667-0.066 3.337-0.007 5.001 0.127 0.944 0.076 1.885 0.19 2.829 0.267 0.11 0.009 0.107-0.063 0.010-0.093z"></path>
</svg>
