<?xml version="1.0" encoding="UTF-8" standalone="no"?>
<!-- Created with Inkscape (http://www.inkscape.org/) -->

<svg
   width="210mm"
   height="215mm"
   viewBox="0 0 210 215"
   version="1.1"
   id="svg648"
   inkscape:version="1.2.2 (b0a84865, 2022-12-01)"
   sodipodi:docname="autokommt.svg"
   xmlns:inkscape="http://www.inkscape.org/namespaces/inkscape"
   xmlns:sodipodi="http://sodipodi.sourceforge.net/DTD/sodipodi-0.dtd"
   xmlns="http://www.w3.org/2000/svg"
   xmlns:svg="http://www.w3.org/2000/svg">
  <sodipodi:namedview
     id="namedview650"
     pagecolor="#ffffff"
     bordercolor="#000000"
     borderopacity="0.25"
     inkscape:showpageshadow="2"
     inkscape:pageopacity="0.0"
     inkscape:pagecheckerboard="0"
     inkscape:deskcolor="#d1d1d1"
     inkscape:document-units="mm"
     showgrid="false"
     inkscape:zoom="0.2102413"
     inkscape:cx="394.78447"
     inkscape:cy="561.25984"
     inkscape:window-width="1344"
     inkscape:window-height="456"
     inkscape:window-x="0"
     inkscape:window-y="44"
     inkscape:window-maximized="0"
     inkscape:current-layer="layer1" />
  <defs
     id="defs645">
    <clipPath
       id="aec15a4bf8">
      <path
         d="M 72.230469,435.22656 H 464.48047 v 324 H 72.230469 Z m 0,0"
         clip-rule="nonzero"
         id="path17" />
    </clipPath>
  </defs>
  <g
     inkscape:label="Ebene 1"
     inkscape:groupmode="layer"
     id="layer1">
    <g
       clip-path="url(#aec15a4bf8)"
       id="g432"
       style="display:inline"
       transform="matrix(0.53245242,0,0,0.53245242,-37.209122,-209.12707)">
      <path
         fill="#000000"
         d="m 242.14844,435.87891 c -28.40625,1.39843 -56.50391,4.875 -69.95313,8.65234 -9.32422,2.62109 -16.27344,6.68359 -22.11328,12.92578 -6.67969,7.13672 -8.66406,12.53906 -20.41406,55.51563 -2.81641,10.30078 -5.27734,18.73046 -5.46484,18.73046 -0.19141,0 -2.16797,-1.55468 -4.39454,-3.45312 l -4.04687,-3.45313 0.34766,-0.86718 c 0.1914,-0.48047 0.47265,-2.19922 0.6289,-3.82032 l 0.28125,-2.94921 -1.30078,-2.81641 c -2.19531,-4.75391 -5.75,-7.4375 -10.68359,-8.05859 l -2.5625,-0.32032 -2.476566,0.76172 c -1.363282,0.42188 -3.414063,1.50781 -4.558594,2.41406 l -2.082031,1.64844 -1.425781,2.91406 -1.425782,2.91016 0.0039,2.96094 0.0078,2.96094 1.402344,2.7539 1.402343,2.75 2.476563,1.8125 2.480469,1.8125 2.691405,0.57031 c 2.86719,0.60547 4.52734,0.41016 7.63281,-0.89843 l 1.9336,-0.8125 5.14062,4.57422 c 2.82422,2.51562 5.19922,4.73046 5.27344,4.92578 0.0781,0.19531 -0.55859,0.61718 -1.41016,0.9375 l -1.54297,0.58203 -0.83593,2.8789 -0.83985,2.875 -2.99218,1.59766 c -7.21875,3.85156 -15.019535,10.61328 -20.00391,17.33594 -4.796875,6.47656 -9.109375,16.83984 -10.808594,25.99219 l -0.875,4.71484 -0.261719,15.09375 -0.261718,15.08984 0.617187,8.48828 c 0.597656,8.17969 2.824219,27.32422 3.488281,29.96485 l 0.320313,1.28515 -1.492188,0.64063 c -5.039062,2.15625 -8.882812,6.66016 -10.769531,12.61719 l -1.035156,3.27343 0.21875,3.69532 0.222656,3.69922 1.316406,2.875 c 1.824219,3.98437 4.144532,6.4414 7.808594,8.26953 l 3.121094,1.5625 7.65625,1.23437 0.613281,14.48047 c 0.96875,22.98828 1.773437,27.53125 5.824219,32.77344 l 2.062495,2.66797 2.78516,1.67578 c 1.53516,0.91797 3.87109,1.9414 5.19531,2.26562 l 2.40625,0.59375 20.34375,-0.34375 2.67578,-1.41015 c 1.47657,-0.77735 3.38282,-2.00391 4.23828,-2.72266 2.14454,-1.80469 4.67188,-6.76172 5.35938,-10.50391 l 0.57031,-3.10546 v -22.69922 l 11.13672,-0.47657 c 15.85938,-0.67578 21.49219,-0.5625 36.29297,0.72266 15.85937,1.375 34.01953,2.53906 50.57812,3.24219 l 12.31641,0.52344 3.66797,0.78515 3.67187,0.78516 h 14.14844 l 3.27344,-0.76953 3.27344,-0.77344 13.76172,-0.54297 c 16.4414,-0.64844 34.01562,-1.75 50.44921,-3.16016 6.62891,-0.57031 13.70704,-1.15234 15.72266,-1.30078 2.01953,-0.14453 9.32813,0.0352 16.24609,0.39844 l 12.58204,0.66406 0.28906,13.35938 0.29297,13.36328 1.16797,2.95703 c 0.64062,1.62891 2.10937,4.03125 3.26562,5.34375 l 2.09766,2.38281 2.99218,1.46875 2.9961,1.46875 h 23.0625 l 2.96484,-1.45312 c 5.72656,-2.8125 9.27344,-7.625 10.66406,-14.46094 0.76954,-3.78516 1.60157,-15.13281 2.14063,-29.25391 l 0.34766,-9.01562 2.42187,-0.33203 c 8.90625,-1.22266 14.30469,-4.99219 16.83984,-11.76563 l 1.17579,-3.14453 -0.23438,-4.58203 -0.23047,-4.58594 -1.42969,-2.98047 c -0.78515,-1.64062 -2.48046,-4.15234 -3.76562,-5.58203 l -2.33594,-2.60156 -2.35547,-0.96484 -2.35156,-0.96875 -0.004,-1.3711 c 0,-0.75 0.22266,-2.55468 0.5,-4.00781 0.92579,-4.89062 2.58985,-21.79297 3.20704,-32.60937 l 0.60937,-10.74219 -0.34766,-8.90625 c -0.1914,-4.89844 -0.71484,-11.73438 -1.16406,-15.19141 l -0.8164,-6.28125 -1.57813,-4.72265 c -1.83203,-5.46485 -4.89062,-11.75391 -7.90234,-16.2461 -4.26172,-6.35547 -14.96875,-15.55859 -22.00782,-18.91406 l -1.82421,-0.86719 -1.28907,-4.30469 -1.68359,-1.58984 -1.6875,-1.58984 4.71484,-4.17969 c 2.59375,-2.30078 5.02735,-4.36719 5.40235,-4.59375 l 0.68359,-0.41406 1.45313,0.74218 c 0.80078,0.41016 2.44921,0.91016 3.66406,1.10938 l 2.20703,0.36719 5.57031,-1.61719 2.14844,-1.83984 c 1.17969,-1.01172 2.6875,-2.96485 3.34375,-4.33985 l 1.19531,-2.5039 -0.0156,-3.25 -0.0156,-3.2461 -1.5625,-2.77734 c -0.85937,-1.52735 -2.53515,-3.52735 -3.72265,-4.44141 l -2.16407,-1.66015 -2.82422,-0.63282 -2.82812,-0.63281 -2.73047,0.65234 -2.72656,0.65625 -2.17969,1.66016 c -2.92187,2.22656 -4.37109,4.5 -5.09375,7.99609 l -0.60547,2.90235 1.1875,4.71094 -0.58984,0.71093 c -0.32813,0.39453 -2.23438,2.05469 -4.23828,3.69532 l -3.64844,2.98437 -0.41016,-0.47266 c -0.22656,-0.26171 -3.28906,-10.66015 -6.80859,-23.11328 -9.78906,-34.64062 -12.97656,-43.26172 -18.28906,-49.49609 -8.3711,-9.82031 -18.86328,-14.55859 -39.17188,-17.6875 -31.67578,-4.87891 -71.98828,-6.87109 -105.60937,-5.21484 m 1.83593,4.44921 c -1.4414,0.10157 -6.75,0.4336 -11.79296,0.73438 -24.66407,1.46875 -51.85157,5.18359 -61.32422,8.375 -1.8711,0.62891 -5.4375,2.19141 -7.92188,3.47266 l -4.51172,2.32812 -3.1875,2.88281 c -1.7539,1.58594 -4.13281,4.33203 -5.29297,6.10157 l -2.10546,3.22265 -2.10157,5.92578 c -3.19922,9.01172 -19.10546,64.91797 -18.66796,65.625 0.13281,0.21485 5.49999,-0.62109 11.92578,-1.85937 29.30859,-5.65625 64.96093,-10.45703 92.66015,-12.48438 44.70313,-3.26953 85.11328,-0.85156 143.8711,8.61719 9.36328,1.50781 30.87109,5.49219 32.89062,6.09375 l 0.91797,0.26953 v -0.91406 c 0,-0.50391 -0.84766,-3.87891 -1.88281,-7.50391 -13.90625,-48.74609 -17.6211,-60.28906 -21.4336,-66.5625 -1.03515,-1.70312 -3.52343,-4.61718 -5.53125,-6.47656 l -3.65234,-3.37891 -4.0625,-2.09765 c -2.23047,-1.15625 -6.30078,-2.8086 -9.03906,-3.67188 -8.60547,-2.71875 -28.17578,-5.55859 -51.84766,-7.52343 l -12.87891,-1.07032 -26.20703,-0.14453 c -14.41406,-0.082 -27.38281,-0.0664 -28.82422,0.0391 m -0.78906,2.87891 c -29.28906,1.50391 -58.88672,4.875 -71.27734,8.10938 -2.73828,0.71875 -6.86719,2.23437 -9.17188,3.3789 l -4.19531,2.07422 -3.01172,2.75391 c -1.65625,1.51562 -3.84375,4.17187 -4.86719,5.89843 l -1.85546,3.14454 -2.56641,7.91796 c -4.48047,13.82422 -10.49219,40.14454 -10.49609,45.9375 0,1.66407 0.32031,3.79688 0.71484,4.73829 0.94531,2.26171 3.53125,4.375 6.25,5.10937 l 2.20703,0.59766 3.40625,-0.33985 c 1.87109,-0.1875 7.53516,-1.03125 12.57813,-1.875 34.08984,-5.69922 60.51562,-8.41406 91.8789,-9.4414 l 16.66797,-0.54297 15.30078,0.54687 c 31.53125,1.125 48.31641,2.92969 95.4961,10.25782 l 8.91015,1.38281 2.35938,-0.22656 c 1.29687,-0.125 3.25,-0.64844 4.33984,-1.16797 l 1.98438,-0.94141 1.26562,-2.16016 c 0.69531,-1.1875 1.41406,-3.10156 1.59766,-4.2539 l 0.33203,-2.09375 -1.67188,-8.1211 c -2.65625,-12.89843 -6.08593,-26.23046 -9.23047,-35.8789 l -2.91015,-8.92188 -2.01172,-3.4375 c -3.28516,-5.61328 -9.93359,-10.89453 -16.39453,-13.02343 -12.54297,-4.12891 -42.12891,-7.8125 -76.07422,-9.46485 -12.42969,-0.60547 -37.40625,-0.58203 -49.55469,0.043 m -2.09375,5.75781 c -21.67578,1.07032 -57.28515,5.08985 -66.60156,7.51563 -7.5625,1.96875 -13.64844,5.34765 -17.00781,9.44531 -2.41407,2.94531 -3.87891,6.65625 -7.08203,17.95313 -3.28125,11.5625 -5.27735,19.77734 -7.07813,29.1289 l -1.39453,7.24219 0.34375,1.82031 0.33984,1.82422 1.67578,1.01953 c 0.92188,0.5625 2.4375,1.02344 3.36719,1.02344 0.9336,0 8.00781,-0.93359 15.72656,-2.07813 15.39454,-2.28515 26.25,-3.72656 37.875,-5.03125 8.05469,-0.90234 9.79688,-1.35937 6.82032,-1.79296 l -1.82813,-0.26563 -0.1875,-0.98437 c -0.30078,-1.57032 0.85547,-1.87891 6.98828,-1.8711 6.92578,0.008 13.12891,0.7461 14.64844,1.74219 l 1.11328,0.73047 6.00781,-0.44922 c 3.30469,-0.24609 14.61719,-0.59766 25.14063,-0.78125 l 19.12891,-0.33203 21.21875,1.08594 9.17968,-9.16407 3.82813,-2.26953 c 2.10547,-1.24609 5.8789,-2.96875 8.38672,-3.82422 l 4.55859,-1.55859 12.57813,-0.5 3.76171,0.80078 c 8.35938,1.77734 14.26172,5.05469 20.91407,11.61328 l 4.78125,4.71485 2.27343,3.92968 c 1.25,2.16016 2.32813,4.01172 2.39844,4.10938 0.25,0.36719 13.14844,2.16797 15.57031,2.17187 l 2.53125,0.008 3.0625,-3.0625 v -2.17188 c 0,-7.23047 -10.6875,-47.06641 -14.11718,-52.60937 -2.79297,-4.51954 -9.41797,-8.92579 -16.89844,-11.23047 -11.73438,-3.6211 -60.875,-8.46094 -85.99219,-8.46875 l -6.68359,-0.004 v 6.28516 c 0,3.46093 0.0586,6.30078 0.13281,6.3125 0.0703,0.0117 3.25391,0.22265 7.07031,0.46875 l 6.94141,0.44922 3.89844,2.02343 1.19922,2.26563 1.19921,2.26953 v 1.90234 c 0,1.04688 -0.53125,2.94922 -1.17968,4.23047 l -1.17969,2.32422 -1.67188,0.96094 -1.67187,0.95703 -5.14063,0.55078 -5.14062,0.54688 -9.82422,-0.28907 -9.82422,-0.29297 -2.27734,-1.00781 -2.28125,-1.00781 -2.52344,-3.53906 0.004,-3.14063 0.004,-3.14453 2.36719,-3.82031 3.91406,-1.88281 6.41016,-0.22657 6.40625,-0.22265 1.10937,-1.33594 -0.29687,-11.375 -9.17188,-0.0586 c -5.04687,-0.0312 -13.0664,0.13281 -17.82031,0.36718 m 15.625,16.65235 c -1.35156,0.20312 -2.94531,0.8125 -3.53906,1.34765 l -1.08203,0.97657 v 2.3125 c 0,4.73828 1.04687,5.19921 12.84375,5.66796 l 8.38281,0.33204 5.41016,-0.53125 5.40625,-0.53125 2.42187,-1.58594 0.66406,-3.53906 -0.55468,-1.59375 -0.5586,-1.59375 -1.41406,-0.69532 -1.41406,-0.6914 -12.05469,-0.1211 c -6.63281,-0.0703 -13.16406,0.043 -14.51172,0.2461 m 69.76172,40.65234 c -5.57812,1.41797 -13.31641,5.71484 -16.36719,9.08203 l -0.91406,1.00781 2.73438,0.32422 c 3.07031,0.36328 3.5,0.20313 2.54687,-0.94922 l -0.66406,-0.79687 1.30469,-1.57031 h 2.53125 c 3.23437,0 14.58593,2.29297 16.66406,3.36718 0.875,0.45313 1.78515,1.17188 2.02344,1.59766 l 0.42968,0.77344 12.82813,1.59765 c 7.05469,0.88282 13.11328,1.70313 13.46484,1.82422 1.51563,0.53125 1.05078,-0.91797 -1.17969,-3.65234 -4.75,-5.83203 -9.01171,-8.92969 -15.70312,-11.41797 l -4.19531,-1.55859 -6.28907,-0.1875 -6.28906,-0.1836 -2.92578,0.74219 m -226.636717,4.69531 c -6.007812,2.67969 -7.347656,10.59375 -2.554687,15.07422 4.140624,3.8711 9.601564,3.3086 13.281254,-1.36328 1.9375,-2.46484 2.32812,-3.81641 1.98046,-6.88281 l -0.26171,-2.32422 -1.44532,-1.89453 c -0.79297,-1.03906 -2.23047,-2.21875 -3.1914,-2.6211 -2.1875,-0.91406 -5.75,-0.91015 -7.808597,0.0117 m 328.999997,0.36719 -2.24219,1.10938 -2.59375,4.42187 v 4.24219 l 1.70313,2.51172 c 2.16406,3.18359 3.85937,4.42187 6.56641,4.78515 2.92968,0.39063 4.47656,-0.082 6.73828,-2.07031 4.3789,-3.84375 4.53906,-9.69922 0.37109,-13.55859 -2.14844,-1.98828 -3.48437,-2.55078 -6.03906,-2.55078 h -2.26172 l -2.24219,1.10937 m -215.28906,5.73438 c -0.61719,1 0.17187,1.14843 3.79687,0.72656 l 3.5625,-0.41406 -2.09765,-0.40625 c -3.01172,-0.57813 -4.86328,-0.54688 -5.26172,0.0937 m 107.20312,-0.0625 c 0,0.78515 0.53907,0.92578 4.98047,1.32031 l 4.19141,0.375 -0.52344,-0.52735 c -0.51172,-0.51953 -5.8125,-1.66406 -7.69531,-1.66406 -0.52344,0 -0.95313,0.22266 -0.95313,0.4961 m -74.6875,9.80078 c -33.82812,1.9414 -71.52734,6.82031 -111.11328,14.375 -13.4414,2.5664 -12.78906,2.37109 -13.41406,4.01953 l -0.51562,1.35156 0.58984,0.36328 c 0.32422,0.19922 2.28125,0.5 4.34375,0.66406 7.49219,0.60157 15.21094,4.27344 21.06641,10.02344 8.35156,8.19531 11.55078,17.78516 14.15625,42.40625 0.42187,3.99219 0.76562,8.98828 0.76562,11.10156 0,2.11329 0.21094,3.97266 0.46875,4.13282 0.25781,0.16015 6.33203,-0.40235 13.49609,-1.25 14.39454,-1.70313 26.51172,-2.88672 37.66016,-3.67578 6.55859,-0.46485 11.71094,-0.74219 35.25,-1.90235 3.53125,-0.17578 6.54688,-0.51562 6.69531,-0.76172 0.26172,-0.41797 6.4336,-2.45312 11.88282,-3.91797 l 2.46484,-0.66406 6.44531,2.02344 c 3.54688,1.11328 6.82031,2.24219 7.27344,2.51172 0.45312,0.26953 3.99219,0.64062 7.86328,0.82031 32.37109,1.51953 52.34766,3.13672 75.14453,6.07813 l 7.83594,1.01562 0.41016,-0.64844 c 0.22656,-0.35156 0.41796,-1.9414 0.42578,-3.52343 0.0351,-7.52735 1.90234,-23.5 3.67968,-31.48438 1.46094,-6.5625 2.875,-10.60937 5.10547,-14.625 l 1.89063,-3.40625 4.22656,-4.21484 4.23047,-4.21094 4.48828,-2.21484 c 4.60547,-2.26954 10.07422,-3.74219 13.95313,-3.75782 2.53125,-0.0117 2.98437,-0.46093 2.30078,-2.26562 l -0.49219,-1.28906 -2.52734,-0.58204 c -11.10938,-2.55859 -51.55079,-9.27343 -69.61329,-11.55859 -20.98437,-2.65234 -42.95312,-4.53906 -59.42578,-5.09766 l -10.16406,-0.34765 0.36719,1.78906 c 0.20312,0.98438 0.49609,6.33984 0.65234,11.90234 l 0.28516,10.11719 -0.6211,4.29297 c -0.67187,4.66016 -2.1289,8.58594 -3.35156,9.05469 -0.42578,0.16406 -1.25781,0.0391 -1.84375,-0.27735 l -1.07422,-0.57031 -0.76953,-2.60547 c -0.42578,-1.42968 -1.05469,-5.01562 -1.39844,-7.96484 l -0.625,-5.36719 0.3125,-8.66015 c 0.17188,-4.76172 0.46875,-9.30469 0.65625,-10.09766 l 0.33985,-1.44141 -8.57813,0.0937 c -4.71875,0.0508 -9.75781,0.16407 -11.19922,0.2461 m -129.19531,4.89062 c 4.26563,4.00781 6.28907,5.45313 6.28907,4.49219 0,-0.30859 -4.92188,-4.92969 -7.77735,-7.30859 -4.41406,-3.66407 -3.42969,-1.8086 1.48828,2.8164 m 151.7461,-3.52734 c -0.20313,0.64844 -0.4961,5.22265 -0.64844,10.16797 l -0.28125,8.99218 0.64844,5.28516 c 0.98437,8.03906 1.73437,6.83594 2.63671,-4.24219 l 0.46875,-5.78515 -0.49609,-6.6211 c -0.51172,-6.88672 -0.875,-8.97656 -1.55469,-8.97656 -0.22265,0 -0.5664,0.53125 -0.77343,1.17969 m 152.6875,0.71094 c -4.19532,3.48828 -7.83594,7.12109 -7.66016,7.64453 0.15234,0.44922 10.88672,-8.7461 10.88672,-9.32422 0,-0.62891 -1.20313,0 -3.22656,1.67969 M 119.24232,550.7969 c -2.70313,0.86719 -8.16797,4 -11.62891,6.66016 -4.57422,3.52344 -11.808591,11.44922 -10.449217,11.44922 0.105469,0 1.253907,-0.58984 2.542969,-1.3125 3.585938,-2.00391 7.917968,-3.32813 12.136718,-3.71094 l 3.82422,-0.34765 4.35547,0.88281 c 11.85156,2.40234 20.95703,10.92578 23.92968,22.41015 l 0.85547,3.29688 0.0391,4.45312 c 0.0508,5.36719 -0.75782,8.96875 -3.14063,14.00782 l -1.78906,3.78515 -7.08594,7.17969 -3.38672,1.86328 c -1.86328,1.02735 -4.6875,2.30078 -6.27343,2.83594 l -2.88282,0.97266 -12.05468,-0.0312 -3.40625,-1.20704 c -7.296879,-2.57812 -12.984379,-7.25 -16.949223,-13.92578 l -2.179687,-3.67187 -0.164063,9.94531 c -0.234375,14.46875 1.285156,33.80078 3.703125,47.14063 l 0.664063,3.66015 2.089844,0.3711 c 1.152343,0.20312 9.601561,0.38281 18.777341,0.39843 l 16.6836,0.0312 -0.21485,-0.65625 -0.21875,-0.65234 -9.65234,-0.26172 -9.65625,-0.26172 -2,-0.99609 c -2.58985,-1.28516 -5.01953,-3.73047 -6.015627,-6.0625 l -0.792968,-1.85156 -0.01953,-3.19922 -0.01562,-3.19922 2.882815,-5.89063 1.93359,-1.60156 c 1.0625,-0.87891 3.10938,-1.94531 4.55079,-2.36328 l 2.62109,-0.76172 10.48437,-0.52344 c 5.76563,-0.28515 10.76172,-0.52343 11.10938,-0.52734 0.34375,-0.004 1.47656,-1.62891 2.51953,-3.61328 4.76172,-9.0586 12.35937,-15.60156 21.64453,-18.64063 l 2.77734,-0.91015 -0.28515,-3.48828 c -1.5,-18.42188 -2.70313,-27.44532 -4.73047,-35.4336 -2.6875,-10.58984 -9.01172,-18.96094 -17.65234,-23.36719 -2.51172,-1.28125 -8.82813,-2.9375 -12.5,-3.27734 l -2.88282,-0.26953 -2.09765,0.67187 m 292.16406,-0.21875 c -12.33594,1.46094 -22.28906,9.16407 -26.78516,20.74219 -2.88281,7.42188 -5.89843,26.90625 -6.26953,40.5 l -0.10547,3.87891 3.375,1.13672 c 9.66797,3.2539 17.39063,9.96875 22.60547,19.66015 l 1.26563,2.35938 4.9375,0.36719 c 2.71875,0.19921 7.88672,0.57812 11.49218,0.83593 l 6.55079,0.47657 2.68359,1.35937 c 2.96094,1.50391 5.05078,3.6875 6.29687,6.58594 l 0.82032,1.90234 0.0586,3.40235 0.0625,3.40625 -1.11328,2.09765 c -1.4375,2.69531 -4.09375,5.23047 -6.56641,6.26172 l -1.94531,0.8125 H 410.3908 v 1.62109 l 17.79297,-0.15625 17.79688,-0.15625 0.57812,-0.57812 c 1.50782,-1.51172 3.97266,-23.14844 4.80078,-42.125 0.33594,-7.63672 0.4336,-14.80469 0.21875,-15.93359 l -0.38671,-2.04688 -1.61329,2.83594 c -0.88671,1.55859 -3.28515,4.49219 -5.33203,6.51953 l -3.71875,3.69141 -3.72656,1.93359 c -2.05469,1.0625 -5.35547,2.31641 -7.33984,2.78125 l -3.60938,0.85156 -4.45312,-0.26562 -4.45703,-0.26953 -3.44141,-1.08594 -3.44141,-1.08985 -4.14062,-2.76562 -4.13672,-2.76172 -2.53906,-3.14062 c -3.22266,-3.98829 -5.27735,-8.32032 -6.42578,-13.55079 l -0.90235,-4.12109 0.35547,-4 0.35547,-3.99609 1.46484,-4.27735 1.46875,-4.28125 2.44532,-3.42578 2.44921,-3.42969 3.125,-2.40234 c 4.02735,-3.09766 8.80469,-5.3125 13.67579,-6.34375 l 3.8789,-0.82031 3.67188,0.34765 c 4.02734,0.37891 10.55078,2.36329 13.26172,4.03516 0.94921,0.58594 1.84765,0.94922 1.99218,0.80859 0.51172,-0.51562 -5.95312,-7.34375 -10.04687,-10.61328 -4.48828,-3.58984 -11.0586,-7.32422 -13.59375,-7.73047 -0.86719,-0.13671 -3.1211,-0.0664 -5.01172,0.15625 m -304.52734,17.51172 c -9.003913,2.48438 -16.371101,9.96485 -19.117194,19.41407 l -0.914063,3.14453 0.01172,4.45312 0.01172,4.45703 1.136718,3.32032 c 3.273438,9.53515 10.808594,16.49609 20.281249,18.73046 l 3.61719,0.85157 4.19141,-0.29297 c 7.375,-0.51172 13.1914,-3.3125 18.48046,-8.90625 9.66797,-10.21485 9.82813,-26.0625 0.375,-36.86719 -3.08203,-3.51953 -7.89843,-6.69531 -12.14843,-8.00781 l -3.41016,-1.05469 -5.05469,0.0469 c -2.78125,0.0273 -6.13671,0.34765 -7.46093,0.71093 m 308.7539,0.004 c -1.29687,0.36719 -3.77344,1.33594 -5.5039,2.15625 l -3.14454,1.48437 -3.46093,3.4336 c -5.03516,4.98828 -7.60547,10.62109 -8.14844,17.83984 l -0.29297,3.92969 0.83984,3.57031 c 0.46094,1.96094 1.48829,4.90625 2.28125,6.53516 l 1.44141,2.96875 3.35156,3.55859 3.34766,3.5625 4.25,2.08594 c 8.80078,4.32422 17.23828,4.19531 25.47656,-0.39453 6.35938,-3.53906 11.27735,-9.83594 13.38281,-17.13281 l 0.89844,-3.10938 -0.2539,-5.27734 -0.25782,-5.27344 -1.07422,-2.76953 c -3.16406,-8.14453 -9.71484,-14.33985 -17.85937,-16.88672 l -3.33203,-1.04297 -4.79297,0.0469 c -2.63281,0.0273 -5.85156,0.34765 -7.14844,0.71484 m -306.60937,2.58594 c -13.167972,2.92187 -21.957035,16.98437 -18.617191,29.79687 0.425781,1.63281 1.296875,4.10156 1.9375,5.48047 l 1.160156,2.50781 3.4375,3.44532 3.433595,3.44921 6.8125,3.3125 3.71094,0.51172 3.71094,0.51563 3.36328,-0.51953 3.36718,-0.51953 3.83204,-1.86719 3.83593,-1.8711 2.71485,-2.73828 c 6.03906,-6.08593 8.53125,-15.3164 6.37109,-23.60937 -1.73047,-6.63672 -5.44922,-11.57031 -11.42969,-15.15235 l -3.0664,-1.83593 -3.58985,-0.81641 c -4.1914,-0.95312 -6.99218,-0.97656 -10.98437,-0.0898 m 309.49218,-0.1836 c -12.1875,2.5 -20.21875,12.25391 -20.16796,24.5 0.0195,3.94141 0.75,6.95703 2.66796,10.97266 l 1.57422,3.29687 5.92969,5.78907 3.51953,1.76172 3.51953,1.75781 3.58985,0.60547 3.59375,0.60547 3.65234,-0.5625 3.64844,-0.5625 7.47656,-3.64063 3.10938,-3.32422 c 3.34765,-3.57812 4.97656,-6.52344 6.19921,-11.21875 2.07422,-7.96484 -0.52734,-16.92187 -6.72265,-23.14844 l -2.71485,-2.72656 -3.67187,-1.78906 -3.67578,-1.78906 -3.40625,-0.53125 c -3.86719,-0.60157 -5.15625,-0.60157 -8.1211,0.004 m -293.24609,24.36328 v 16.52344 l 0.9961,-0.53125 c 1.54687,-0.82812 5.1289,-5.125 6.31249,-7.57031 0.58985,-1.21484 1.34375,-3.56641 1.67579,-5.22266 l 0.60546,-3.01562 -0.6289,-3.53906 -0.63281,-3.53907 -1.57032,-2.74218 c -1.52734,-2.67969 -5.3789,-6.88672 -6.29687,-6.88672 h -0.46094 v 16.52343 m 283.23438,-14.14062 -2.38672,2.38672 -1.64844,3.50781 -1.64844,3.51172 0.008,4.71484 0.004,4.71875 1.38281,2.9961 c 1.45313,3.14062 5.8125,8.26562 7.03516,8.26562 h 0.71094 v -32.48437 h -0.53516 c -0.29687,0 -1.61328,1.07422 -2.92187,2.38281 m 25.83203,-2.04688 c -0.19922,0.19922 -0.35938,7.51563 -0.35938,16.25782 v 15.89062 h 0.74219 c 1.14062,0 5.01953,-4.65625 6.45312,-7.74609 2.44532,-5.27735 2.41407,-11.13672 -0.0937,-16.71875 l -1.41406,-3.15625 -2.48437,-2.44531 c -1.36328,-1.34375 -2.64453,-2.28125 -2.84375,-2.08204 m -334.605472,2.41407 c -2.746094,2.8164 -4.609375,6.55078 -5.367188,10.7539 l -0.589843,3.28125 0.546874,2.96875 c 0.742188,4.01172 2.285157,7.02735 5.234376,10.23438 L 102.01953,611 l 0.61719,-0.38281 0.62109,-0.37891 v -31.37891 h -0.67968 c -0.3711,0 -1.65235,1.00391 -2.847661,2.22657 m 164.300781,26.75 c -1.94531,0.59765 -3.53906,1.24609 -3.53906,1.44922 0,0.19921 0.66797,0.64062 1.48828,0.97656 0.8164,0.33984 2.7539,1.90234 4.30469,3.46875 1.55078,1.57031 3.0039,2.85547 3.23046,2.85547 0.22657,0 1.25782,-0.9336 2.28907,-2.07422 1.02734,-1.14063 2.91406,-2.73047 4.1875,-3.53516 1.27734,-0.80469 2.32031,-1.60547 2.32031,-1.77734 0,-0.50391 -7.63672,-2.57422 -9.25781,-2.50781 -0.81641,0.0351 -3.07813,0.55078 -5.02344,1.14453 m -21.35938,4.07031 c -20.72656,0.8125 -38.87109,2.23437 -63.41796,4.97266 -16.73829,1.86718 -19.98438,2.42968 -25.15625,4.36718 -5.46875,2.05078 -13.47657,9.65235 -15.9375,15.13282 -0.55079,1.22265 -0.90235,2.29687 -0.78516,2.38671 0.11719,0.0898 2.76562,0.0312 5.88281,-0.13671 l 5.67188,-0.29688 0.58593,-1.05078 c 0.32032,-0.57422 1.75782,-2.29297 3.19922,-3.81641 l 2.61328,-2.76562 3.70704,-1.82813 3.71093,-1.82422 7.07422,-1.01171 c 18.42578,-2.63282 49.02735,-4.95313 77.69922,-5.88282 l 19.26172,-0.6289 v -0.45313 c 0,-0.24609 -1.20313,-1.72656 -2.67578,-3.28125 l -2.67578,-2.82812 -2.77735,-0.8086 c -1.52734,-0.4414 -3.44922,-0.76953 -4.26953,-0.72656 -0.82031,0.0469 -6.08984,0.26172 -11.71094,0.48047 m 37.49219,0.46875 -2.60156,0.88281 -2.76953,2.82422 c -1.52344,1.55078 -2.76953,3.00781 -2.76953,3.23438 0,0.22656 3.00781,0.41796 6.68359,0.42578 27.58984,0.043 87.98828,4.72265 97.94141,7.58984 1.47656,0.42188 4.07031,1.70703 5.76562,2.84766 l 3.08203,2.08203 2.28516,3.16406 2.28906,3.16797 3.73828,0.004 c 2.0586,0.004 4.625,0.15234 5.70703,0.33203 l 1.96485,0.32422 v -0.78907 c 0,-1.24609 -4.88281,-8.30468 -7.40235,-10.69531 -5.41406,-5.13672 -11.54687,-7.95703 -19.64843,-9.03906 -28.03125,-3.73438 -57.50782,-6.17188 -85.10938,-7.03516 l -6.55469,-0.20312 -2.60156,0.88281 m -27.79687,21.52734 c -16.70313,0.46875 -30.88282,1.26953 -46.38282,2.62891 -12.51171,1.09375 -36.23828,3.44922 -39.30859,3.90234 -1.97266,0.29297 -11.52344,0.81641 -38,2.08594 -9.22265,0.44141 -17.47656,0.94531 -18.34375,1.12109 -2.0625,0.41797 -5.5039,2.17188 -5.5039,2.8086 v 0.5 l 1.34375,-0.51172 c 0.74218,-0.28125 5.07031,-0.51172 9.62109,-0.51172 h 8.26953 l 2.30859,1.5625 2.30469,1.5625 16.43359,0.0117 16.4336,0.008 1.64844,-1.38672 c 4.39062,-3.70312 9.57421,-3.625 13.5664,0.19922 l 1.4375,1.3711 8.25781,-0.61719 c 18.14454,-1.35547 41.07422,-2.67969 56.74219,-3.27735 l 16.51172,-0.6289 20.70313,0.32031 c 22.9375,0.35547 32.28906,0.78516 59.94531,2.75781 l 18.80078,1.34375 1.63672,-1.58203 c 2.94922,-2.83984 6.30859,-3.41015 10.02734,-1.70703 1.15235,0.53125 2.54297,1.46875 3.09375,2.08594 l 1,1.12109 h 33.82422 l 1.71094,-1.4414 1.71094,-1.4375 17.1875,-0.33594 1.61328,0.5625 c 2.2539,0.78515 2.41406,0.29297 0.32031,-0.99219 -2.91797,-1.79297 -4.74219,-2.02734 -22.46484,-2.89453 -32.04297,-1.56641 -32.98829,-1.63672 -56.07813,-4.17188 -10.72266,-1.17578 -30.08594,-2.82421 -40.37109,-3.43359 -9.33985,-0.55078 -41.19141,-1.60937 -44.53907,-1.47656 -1.00781,0.0391 -7.96484,0.24609 -15.46093,0.45312 m 15.28125,14.55469 -0.86719,0.95703 v 15.33985 l 1.01562,0.54296 c 1.375,0.73438 1.91407,0.6836 2.87891,-0.28125 L 271.5,664.19141 v -15.0625 l -1.16797,-0.8125 c -1.46875,-1.03125 -1.62891,-1.02344 -2.68359,0.14062 m 37.45312,0.94531 -1.10937,0.77735 v 13.63281 l 0.54297,1.01172 0.54296,1.01562 h 1.23047 c 0.67188,0 1.4961,-0.32812 1.82813,-0.72656 l 0.60547,-0.72656 -0.14844,-7.46875 -0.14453,-7.46485 -1.11719,-0.41406 -1.12109,-0.41406 -1.10938,0.77734 m -138.03515,0.23828 c -0.50782,0.29297 -1.39454,1.45704 -1.96875,2.58204 l -1.04297,2.04687 v 50.91797 l 0.79687,1.53516 c 0.92578,1.79687 3.22656,3.1289 5.39453,3.1289 h 1.52735 l 1.44531,-1.13672 c 0.79687,-0.625 1.76953,-1.91406 2.16797,-2.86328 l 0.72265,-1.73047 v -49.32031 l -0.72265,-1.72656 c -0.39844,-0.95313 -1.3711,-2.24219 -2.16797,-2.86719 l -1.44531,-1.13672 -1.89453,0.0156 c -1.03907,0.0117 -2.3086,0.25781 -2.8125,0.55468 m 64.59765,0.74219 c -0.5664,1.48828 -0.71094,11.82422 -0.1914,13.75781 l 0.32031,1.1836 1.2539,0.3164 1.25391,0.3125 1.58594,-1.3125 -0.14453,-7.65625 -0.14453,-7.65234 -1.70313,-0.16406 -1.70703,-0.16406 -0.52344,1.3789 m 131.76563,0.46875 -1.78125,1.78125 -0.0937,14.07031 c -0.0469,7.73829 -0.13672,18.78516 -0.19532,24.54688 -0.0586,5.76562 0.0156,11.53906 0.16797,12.83594 l 0.27735,2.35937 3.40625,3.40625 h 3.89843 l 2.03516,-2.03515 2.03125,-2.03516 V 654.207 l -0.79297,-1.67578 c -0.96484,-2.02734 -3.23437,-3.46094 -5.49609,-3.46094 h -1.67578 l -1.78125,1.78125 m -257.61328,1.30078 -2.03516,2.03516 v 1.13672 c 0,1.41015 1.15234,3.6914 2.4375,4.82031 l 0.96875,0.85156 7.73828,0.3711 7.73828,0.36718 1.82813,-1.82421 1.82422,-1.82813 v -4.39844 l -3.5625,-3.5625 h -14.90235 l -2.03515,2.03125 m 307.25,-0.51172 -1.62891,1.51954 v 5.19921 l 1.38281,1.38282 1.38281,1.3789 h 15.66016 l 1.50391,-1.5039 c 0.82812,-0.82813 1.66406,-2.12891 1.85547,-2.89063 l 0.34765,-1.38672 -0.67187,-1.625 c -0.3711,-0.89453 -1.39844,-2.0664 -2.28907,-2.60937 l -1.61328,-0.98438 h -14.30078 l -1.6289,1.51953 m -214.75,0.34375 -0.87891,1.33594 0.33203,6.91406 0.33203,6.91016 0.89453,0.65625 c 1.11719,0.81641 1.32813,0.81641 2.44922,-0.004 l 0.90235,-0.65625 0.11328,-7.5 0.11718,-7.5 -1.01953,-0.75 c -1.45703,-1.07421 -2.24218,-0.92968 -3.24218,0.59375 m 139.51953,-0.51953 -0.82422,0.82422 v 14.4336 l 1.05078,0.95312 1.05078,0.94922 1.30859,-0.59766 1.3086,-0.59375 v -15.70703 l -1.01172,-0.54297 c -1.37891,-0.73437 -1.91406,-0.68359 -2.88281,0.28125 m -198.6211,1.05469 c -0.17578,0.45703 -0.3164,2.88672 -0.3164,5.39844 v 4.5664 l 0.6289,0.62891 c 0.34375,0.34766 1.1211,0.62891 1.72657,0.62891 0.60546,0 1.38671,-0.28125 1.73046,-0.62891 l 0.62891,-0.62891 v -4.5664 c 0,-2.51172 -0.14062,-4.94141 -0.31641,-5.39844 l -0.32031,-0.82812 h -3.44531 l -0.31641,0.82812 m 255.58203,-0.22266 -0.65625,0.65235 v 9.53515 l 0.62891,0.62891 c 0.34766,0.34766 1.28516,0.62891 2.08984,0.62891 h 1.45704 l 0.29296,-1.17969 c 0.16407,-0.64844 0.22657,-3.30078 0.14063,-5.89453 l -0.15234,-4.71485 -1.57422,-0.15625 c -0.86719,-0.082 -1.8711,0.14063 -2.22657,0.5 m -264.15625,14.71875 0.21875,0.65625 14.5,0.14063 14.50391,0.13672 v -1.58594 h -29.44141 l 0.21875,0.65234 m 246.73047,0.13282 v 0.78515 h 29.35157 v -1.57031 h -29.35157 v 0.78516 m -147.8164,4.22656 -0.50782,1.34375 0.008,15.55469 c 0.004,8.55468 0.20312,15.86328 0.44531,16.24218 l 0.4375,0.69532 40.29687,-0.0547 c 22.16016,-0.0312 40.46875,-0.23047 40.67969,-0.44141 0.52735,-0.52734 0.76953,-33.21484 0.25,-34.03125 l -0.41797,-0.65234 h -80.67968 l -0.51172,1.34375 m -144.902346,0.5 c -2.53125,1.34766 -4.921875,3.96094 -6.410156,7 l -1.386719,2.83203 v 3.22266 c 0,1.77343 0.324219,4.39062 0.726562,5.8164 l 0.726563,2.59766 2.386718,2.38281 2.382813,2.38672 3.175781,0.89063 c 1.746094,0.48828 5.636719,1.13281 8.648438,1.42968 l 5.472656,0.53907 29.61328,-0.14454 29.60938,-0.14843 0.14062,-14.23828 0.14063,-14.24219 -35.25391,-0.24219 c -19.39062,-0.13281 -35.964844,-0.39062 -36.828125,-0.57812 l -1.574219,-0.33985 -1.570312,0.83594 m 360.589846,-0.25781 c -2.01563,0.20703 -18.11719,0.40625 -35.77735,0.44531 l -32.10937,0.0625 0.13672,14.27734 0.14062,14.27735 28.30078,0.15625 28.30469,0.15234 6.875,-0.55469 c 3.78125,-0.30468 8.10156,-0.91797 9.59766,-1.36328 l 2.71875,-0.80469 2.10547,-1.90234 c 1.15625,-1.04297 2.59375,-2.85547 3.19921,-4.03125 l 1.09766,-2.12891 0.46094,-7.85937 -1.31641,-2.96094 c -2.01562,-4.54687 -6.41015,-8.48047 -9.17969,-8.22265 -0.48828,0.0469 -2.53515,0.25 -4.55468,0.45703 m -128.94922,0.53515 c -0.57031,0.92188 -0.875,13.00782 -0.52344,20.54688 l 0.39063,8.25781 20.51562,-0.13672 20.51563,-0.14062 0.28125,-28.55469 -18.22266,-0.0937 c -10.02344,-0.0508 -19.23438,-0.12891 -20.47266,-0.17578 -1.23828,-0.043 -2.35547,0.0898 -2.48437,0.29687 m -136.39063,14.2461 0.13672,14.28125 44.70313,0.27343 0.35547,-7.99609 c 0.19531,-4.39453 0.27734,-10.82422 0.18359,-14.28125 l -0.16797,-6.28906 -45.35156,-0.27344 0.14062,14.28516"
         fill-opacity="1"
         fill-rule="evenodd"
         id="path430" />
    </g>
  </g>
</svg>
