<!-- Generated by IcoMoon.io -->
<svg version="1.1" xmlns="http://www.w3.org/2000/svg" width="25" height="32" viewBox="0 0 25 32">
<path d="M14.853 20.755c0-0.015 0-0.030 0-0.045 0.010-0.146-0.076-0.359 0.131-0.404 0.223-0.051 0.274 0.157 0.325 0.323 0.010 0.025 0.020 0.056 0.025 0.081 0.061 0.349 0.086 0.697-0.244 0.94-0.259 0.192-0.806 0.141-1.1-0.086-0.056-0.040-0.106-0.095-0.142-0.157-0.050-0.075-0.050-0.167 0.020-0.238 0.071-0.075 0.152-0.075 0.229-0.005 0.101 0.096 0.229 0.116 0.355 0.126 0.35 0.025 0.411-0.030 0.411-0.369 0-0.055 0-0.115-0.010-0.172z"></path>
<path d="M1.363 20.933c0.269-0.188 0.431-0.4 0.619-0.637-0.36-0.101-0.284-0.329-0.229-0.582 0.538-2.462 1.253-4.873 1.872-7.314 0.101-0.399 0.162-0.814 0.31-1.208 0.471 0.273 0.461 0.273 0.334 0.763-0.674 2.588-1.364 5.171-1.987 7.774-0.016 0.056-0.026 0.106-0.041 0.188 0.157-0.015 0.203-0.131 0.269-0.208 2.262-2.639 4.387-5.378 6.481-8.148 0.152-0.198 0.137-0.344 0.030-0.541-0.39-0.713-0.654-1.472-0.72-2.29-0.035-0.404-0.015-0.804 0.071-1.203 0.035-0.167 0.096-0.334 0.172-0.486 0.279-0.521 0.842-0.591 1.262-0.177 0.193 0.187 0.295 0.424 0.366 0.677 0.146 0.516 0.228 1.041 0.254 1.572 0.005 0.157 0 0.313 0 0.486 0.279-0.167 1.298-1.4 1.663-2.007-0.223-0.080-0.365-0.252-0.492-0.439-1.182-1.708-2.464-3.336-3.829-4.898-0.218-0.248-0.436-0.501-0.71-0.688-0.086-0.060-0.188-0.105-0.117-0.232 0.076-0.131 0.177-0.238 0.35-0.157 0.198 0.096 0.376 0.218 0.522 0.379 0.872 0.935 1.79 1.84 2.536 2.891 0.664 0.941 1.43 1.81 1.892 2.866 0.131-0.015 0.152-0.111 0.203-0.172 0.264-0.318 0.345-0.334 0.735-0.167 0.345 0.146 0.7 0.263 1.045 0.409 0.147 0.065 0.239 0.020 0.345-0.076 0.218-0.207 0.452-0.404 0.67-0.611 1.141-1.077 2.449-1.911 3.85-2.613 0.162-0.081 0.334-0.162 0.476-0.319-0.385-0.348-0.786-0.657-1.288-0.768-1.328-0.283-2.622-0.682-3.91-1.097-1.623-0.521-3.291-0.865-4.94-1.264-0.7-0.172-1.43-0.182-2.155-0.151-0.776 0.030-1.252 0.394-1.466 1.153-0.599 2.148-1.085 4.322-1.617 6.486-0.548 2.218-1.096 4.437-1.649 6.657-0.096 0.374-0.223 0.743-0.344 1.113-0.031 0.096-0.071 0.187-0.122 0.278-0.035 0.061-0.076 0.131-0.162 0.116-0.091-0.015-0.091-0.101-0.096-0.172 0-0.203 0.036-0.399 0.081-0.597 0.908-3.831 1.724-7.689 2.759-11.49 0.239-0.875 0.431-1.759 0.751-2.608 0.060-0.162 0.116-0.323 0.188-0.48 0.198-0.435 0.537-0.698 1.004-0.809 0.786-0.187 1.583-0.151 2.369-0.035 1.481 0.223 2.957 0.511 4.402 0.91 1.252 0.344 2.51 0.662 3.748 1.046 1.070 0.334 2.109 0.763 3.058 1.375 0.132 0.085 0.192 0.207 0.239 0.343 0.111 0.354 0.101 0.708 0.015 1.066-0.157 0.642-0.35 1.279-0.558 1.906-0.31 0.915-0.482 1.865-0.736 2.795-0.121 0.445-0.234 0.89-0.39 1.324-0.081 0.228-0.016 0.344 0.157 0.465 0.452 0.308 0.933 0.576 1.431 0.804 0.877 0.404 1.734 0.845 2.49 1.461 0.461 0.379 0.857 0.809 1.181 1.309 0.096 0.147 0.203 0.279 0.335 0.394 0.477 0.425 0.497 0.678 0.081 1.173-0.335 0.394-0.639 0.814-0.969 1.219-0.933 1.137-1.76 2.351-2.622 3.538-0.066 0.090-0.142 0.177-0.167 0.328 0.756 0.283 1.435-0.095 2.16-0.227 0.076 0.167-0.036 0.278-0.127 0.373-0.491 0.552-1.131 0.713-1.841 0.668-0.126-0.011-0.264-0.021-0.38-0.071-0.244-0.106-0.386-0.035-0.543 0.172-0.578 0.758-1.181 1.487-1.739 2.26-0.136 0.192-0.136 0.318-0.020 0.531 0.391 0.732 0.913 1.359 1.456 1.971 0.040 0.045 0.086 0.080 0.116 0.126 0.046 0.075 0.066 0.162 0.010 0.243-0.050 0.075-0.131 0.105-0.228 0.095-0.188-0.020-0.315-0.136-0.436-0.258-0.527-0.511-1.071-1.010-1.374-1.703-0.020-0.050-0.051-0.106-0.142-0.126-0.121 0.071-0.198 0.213-0.289 0.334-0.857 1.143-1.811 2.204-2.881 3.154-0.603 0.541-1.115 1.163-1.587 1.82-0.193 0.268-0.39 0.536-0.604 0.789-0.279 0.339-0.486 0.384-0.857 0.146-0.314-0.202-0.629-0.409-0.973-0.556-0.634-0.268-1.171-0.662-1.683-1.113-0.366-0.323-0.776-0.596-1.212-0.824-0.543-0.283-1.005-0.677-1.4-1.143-0.461-0.541-0.969-1.026-1.607-1.359-0.076-0.040-0.152-0.086-0.218-0.141-0.846-0.718-1.74-1.375-2.617-2.053-0.355-0.273-0.665-0.602-1.035-0.844-0.335-0.223-0.36-0.491-0.284-0.82 0.106-0.45 0.309-0.864 0.517-1.278 0.086-0.172 0.167-0.304 0.005-0.491-0.096-0.116-0.046-0.309-0.020-0.465 0.126-0.91 0.218-1.83 0.421-2.73 0.045-0.212 0.106-0.419 0.167-0.621 0.026-0.081 0.066-0.162 0.117-0.233 0.045-0.071 0.111-0.146 0.213-0.111 0.107 0.035 0.096 0.131 0.076 0.218-0.101 0.419-0.126 0.854-0.177 1.278-0.091 0.768-0.182 1.537-0.279 2.366zM14.316 14.259c0-0.576 0-1.152-0.061-1.724-0.066-0.586-0.122-1.173-0.269-1.749-0.132-0.501-0.223-1.011-0.259-1.527-0.041-0.576-0.32-1.071-0.538-1.582-0.101-0.243-0.319-0.218-0.552-0.070-0.446 0.278-0.68 0.702-0.857 1.152-0.279 0.713-0.745 1.289-1.212 1.876-1.607 2.011-3.23 4.018-4.812 6.050-0.63 0.804-1.314 1.562-1.902 2.396-0.406 0.577-0.898 1.087-1.354 1.628-0.315 0.374-0.644 0.737-0.948 1.122-0.279 0.354-0.476 0.753-0.604 1.189-0.045 0.151-0.020 0.237 0.157 0.273 0.274 0.055 0.542 0.080 0.816 0.020 0.619-0.131 1.253-0.223 1.862-0.404 1.222-0.359 2.459-0.485 3.723-0.409 0.32 0.020 0.634 0.015 0.948-0.031 0.897-0.136 1.801-0.232 2.688-0.429 0.421-0.091 0.857-0.126 1.227-0.389 0.121-0.086 0.177-0.167 0.172-0.313-0.025-0.506 0.172-0.956 0.391-1.395 0.172-0.349 0.441-0.597 0.796-0.758 0.304-0.136 0.309-0.141 0.254-0.47-0.137-0.779-0.147-1.567 0.121-2.305 0.254-0.687 0.274-1.365 0.218-2.068 0-0.030 0-0.055 0-0.086zM12.089 30.875c0.116-0.056 0.157-0.152 0.213-0.233 0.467-0.657 0.984-1.279 1.557-1.85 1.015-1.006 1.948-2.083 2.855-3.185 0.137-0.167 0.274-0.338 0.411-0.501 0.096-0.11 0.071-0.197-0.020-0.298-0.259-0.278-0.558-0.424-0.948-0.439-0.629-0.030-0.872-0.263-0.979-0.88-0.040-0.228-0.060-0.455-0.080-0.682-0.016-0.146-0.076-0.192-0.229-0.162-0.229 0.040-0.396 0.116-0.507 0.343-0.279 0.567-0.573 1.128-0.872 1.683-0.218 0.409-0.477 0.794-0.857 1.071-0.416 0.299-0.877 0.369-1.354 0.157-0.461-0.208-0.557-0.632-0.573-1.082-0.025-0.647 0.152-1.248 0.441-1.825 0.066-0.126 0.172-0.232 0.177-0.389-0.101-0.050-0.203-0.030-0.3-0.010-0.72 0.162-1.455 0.208-2.181 0.324-0.664 0.106-1.323 0.095-1.983 0.090-0.42 0-0.836 0-1.252 0.041-0.756 0.070-1.456 0.343-2.191 0.501-0.543 0.115-1.086 0.247-1.628 0.373 0 0.162 0.121 0.213 0.203 0.274 0.943 0.712 1.862 1.456 2.845 2.108 0.619 0.414 1.192 0.854 1.668 1.421 0.31 0.363 0.655 0.692 1.076 0.93 0.609 0.343 1.161 0.758 1.678 1.213 0.69 0.602 1.527 0.935 2.323 1.39-0.005-0.405-0.096-0.748-0.218-1.087-0.36-1-0.725-2.001-1.070-3.008-0.35-1.021-0.588-2.073-0.832-3.124-0.040-0.167-0.075-0.338 0-0.511 0.061-0.126 0.198-0.146 0.27-0.025 0.075 0.136 0.131 0.288 0.177 0.44 0.634 2.33 1.562 4.565 2.186 6.93zM23.693 15.478c0.020-0.141-0.056-0.223-0.117-0.293-0.609-0.738-1.292-1.395-2.155-1.841-0.731-0.378-1.466-0.737-2.202-1.112-0.471-0.238-0.887-0.541-1.192-0.975-0.811-1.163-1.912-2.022-3.017-2.882-0.325-0.252-0.711-0.409-1.177-0.576 0.32 0.789 0.446 1.547 0.634 2.295 0.188 0.742 0.3 1.491 0.381 2.249 0.081 0.763 0.086 1.532 0.146 2.356 0.31-0.203 0.538-0.379 0.822-0.455 0.481-0.126 0.857 0.061 1.045 0.521 0.076 0.193 0.086 0.394 0.081 0.592-0.010 0.379-0.127 0.732-0.234 1.092-0.045 0.146-0.131 0.283-0.111 0.48 0.67-0.273 1.338-0.434 2.023-0.521 1.227-0.146 2.47-0.263 3.636-0.718 0.122-0.045 0.249-0.065 0.381-0.090 0.35-0.066 0.7-0.111 1.050-0.126zM16.152 20.953c0.126-0.015 0.198-0.015 0.264-0.036 0.917-0.258 1.821-0.232 2.718 0.116 0.172 0.066 0.36 0.106 0.537 0.172 0.381 0.141 0.361 0.065 0.553-0.198 0.927-1.248 1.811-2.527 2.819-3.715 0.167-0.198 0.305-0.42 0.472-0.622 0.167-0.208 0.35-0.404 0.547-0.637-0.715-0.091-1.349 0.040-1.958 0.268-0.669 0.243-1.354 0.389-2.053 0.496-0.842 0.126-1.694 0.157-2.531 0.338-0.28 0.061-0.563 0.147-0.847 0.162-0.224 0.010-0.33 0.085-0.411 0.288-0.218 0.516-0.436 1.036-0.751 1.506-0.213 0.319-0.213 0.339 0.041 0.617 0.309 0.349 0.588 0.713 0.599 1.249zM19.97 4.044c-0.203 0.268-0.391 0.43-0.624 0.546s-0.462 0.238-0.695 0.354c-1.319 0.647-2.515 1.461-3.596 2.452-0.071 0.065-0.167 0.111-0.188 0.253 1.328 0.804 2.383 1.936 3.504 3.043 0.162-0.687 0.325-1.344 0.467-2.001 0.264-1.208 0.634-2.391 0.989-3.574 0.096-0.323 0.182-0.646 0.132-1.076zM19.534 21.974c-0.3-0.111-0.553-0.177-0.776-0.299-0.675-0.359-1.374-0.364-2.099-0.197-0.345 0.080-0.68 0.126-0.792 0.536-0.015 0.050-0.060 0.106-0.106 0.131-0.284 0.172-0.309 0.409-0.208 0.692 0.045 0.136 0.060 0.283 0.091 0.419 0.106 0.465 0.141 0.511 0.624 0.557 0.451 0.040 0.837 0.197 1.151 0.521 0.051 0.050 0.107 0.090 0.188 0.157 0.639-0.835 1.262-1.653 1.927-2.517zM13.895 22.788c-0.436-0.086-0.786-0.238-1.050-0.546-0.036-0.046-0.092-0.091-0.147-0.061-0.249 0.157-0.583 0.146-0.776 0.429-0.467 0.683-0.741 1.421-0.715 2.255 0.015 0.616 0.456 0.859 1.009 0.561 0.208-0.111 0.36-0.283 0.497-0.47 0.497-0.657 0.746-1.446 1.182-2.163zM14.899 19.466c-1.131-0.020-1.962 1.001-1.698 2.048 0.086 0.344 0.314 0.551 0.654 0.607 0.431 0.070 0.862 0.020 1.263-0.167 0.299-0.136 0.461-0.374 0.512-0.692 0.086-0.511 0.020-1.031-0.716-1.339-0.126-0.056-0.238-0.106-0.238-0.263 0-0.151 0.182-0.061 0.223-0.192zM9.421 10.964c0.355-0.364 0.639-0.667 0.527-1.193-0.076-0.359-0.020-0.743-0.040-1.117s-0.097-0.743-0.239-1.092c-0.086-0.212-0.162-0.475-0.451-0.444-0.275 0.030-0.285 0.308-0.31 0.511-0.147 1.137-0.010 2.234 0.512 3.336zM15.355 18.213c0.496-0.86 0.958-1.678 1.060-2.639 0.015-0.157 0.020-0.319 0-0.47-0.046-0.308-0.208-0.384-0.487-0.243-0.259 0.131-0.456 0.339-0.649 0.556-0.198 0.218-0.275 0.445-0.249 0.743 0.055 0.672 0.081 1.344 0.335 2.058zM14.447 17.323c-0.096 0.551-0.121 1.011-0.076 1.471 0.010 0.121 0.076 0.172 0.198 0.167 0.127-0.005 0.172-0.065 0.172-0.187 0-0.47-0.070-0.925-0.294-1.451z"></path>
</svg>
