<?xml version="1.0" encoding="UTF-8" standalone="no"?>
<!-- Created with Inkscape (http://www.inkscape.org/) -->

<svg
   width="295mm"
   height="195mm"
   viewBox="0 0 295 195"
   version="1.1"
   id="svg251"
   inkscape:version="1.2.2 (b0a84865, 2022-12-01)"
   sodipodi:docname="border1.svg"
   xmlns:inkscape="http://www.inkscape.org/namespaces/inkscape"
   xmlns:sodipodi="http://sodipodi.sourceforge.net/DTD/sodipodi-0.dtd"
   xmlns="http://www.w3.org/2000/svg"
   xmlns:svg="http://www.w3.org/2000/svg">
  <sodipodi:namedview
     id="namedview253"
     pagecolor="#ffffff"
     bordercolor="#000000"
     borderopacity="0.25"
     inkscape:showpageshadow="2"
     inkscape:pageopacity="0.0"
     inkscape:pagecheckerboard="0"
     inkscape:deskcolor="#d1d1d1"
     inkscape:document-units="mm"
     showgrid="false"
     inkscape:zoom="0.44177894"
     inkscape:cx="443.6608"
     inkscape:cy="104.12447"
     inkscape:window-width="1344"
     inkscape:window-height="456"
     inkscape:window-x="0"
     inkscape:window-y="25"
     inkscape:window-maximized="0"
     inkscape:current-layer="layer1" />
  <defs
     id="defs248">
    <clipPath
       id="6e6bb55a46">
      <path
         d="m 891,218 h 448 V 515 H 891 Z m 0,0"
         clip-rule="nonzero"
         id="path11" />
    </clipPath>
    <clipPath
       id="a8cfbc5f00">
      <path
         d="m 1346.7734,211.41797 -6.125,317.9414 -455.16793,-8.76953 6.125,-317.9414 z m 0,0"
         clip-rule="nonzero"
         id="path14" />
    </clipPath>
    <clipPath
       id="719b87b2c0">
      <path
         d="m 1346.7734,211.41797 -6.125,317.9414 -455.16793,-8.76953 6.125,-317.9414 z m 0,0"
         clip-rule="nonzero"
         id="path17" />
    </clipPath>
  </defs>
  <g
     inkscape:label="Ebene 1"
     inkscape:groupmode="layer"
     id="layer1"
     transform="matrix(1.8587996,0,0,1.8587996,-91.942488,-174.26114)">
    <g
       clip-path="url(#6e6bb55a46)"
       id="g54"
       transform="matrix(0.35277777,0,0,0.35277777,-264.87265,16.550188)">
      <g
         clip-path="url(#a8cfbc5f00)"
         id="g52"
         style="fill:#000000">
        <g
           clip-path="url(#719b87b2c0)"
           id="g50"
           style="fill:#000000">
          <path
             fill="#280f91"
             d="m 909.21094,512.42578 c -9.89844,1.42188 -13.47266,-6.47266 -7.28125,-13.86328 6.4414,-11.69141 -9.91016,-17.94141 -10.89844,-28.23828 0.33594,-5.29297 5.80859,-7.63281 9.30859,-10.76563 17.33985,-13.92578 9.625,-20.23437 -1.51953,-33.91797 -3.91406,-7.22265 4.63672,-11.4375 6.94922,-17.33593 2.03125,-10.11328 -14.57422,-18.44922 -8.26953,-27.76953 4.93359,-6.22266 13.23047,-10.39454 15.67969,-18.32813 0.89843,-12.36719 -23.32813,-20.75 -9.42969,-31.21094 8.48437,-6.58593 8.32031,-10.1914 2.13672,-18.48828 -2.82813,-5.35547 -11.44922,-11.47265 -6.3086,-17.78125 6.03125,-5.40234 9.94922,-9.69531 5.19922,-17.69531 -1.14062,-4.55469 -7.69922,-9.23828 -3.13672,-13.73828 3.86329,-3.64453 9.80469,-7.76172 7.37891,-13.79688 -3.02344,-8.93359 -11.27734,-23.80468 2.59375,-27.625 5.52734,-0.95312 10.65234,2.51953 16.05469,2.4336 17.82422,-8.9375 13.9375,-6.28125 29.71094,3.28906 9.49218,-7.52734 14.52734,-0.87891 23.68359,2.35547 12.55078,-4.21094 16.23437,-12.28125 29.8125,-2.98047 13.7969,9.08594 3.0469,-21.92578 38.4453,3.64453 15.1289,-0.17969 10.707,-16.73047 33.0117,-1.54687 7.3985,8.13281 11.3594,-7.32422 18.9258,-5.01954 14.0469,6.70313 14.1875,11.6211 30.2266,3.20704 8.6054,-1.55079 15.3711,6.02343 23.2461,7.76562 5.0937,-0.57812 6.8359,-6.88672 10.7031,-9.51562 13.7734,-8.60938 26.6328,15.17578 39.5391,4.90234 12.2343,-10.4375 25.3515,10.75781 39.0039,5.60156 4.2851,-1.29297 8.4257,-4.05469 13.0859,-2.6875 36.5195,16.58985 20.4063,-8.60156 46.9023,-2.5 16.1797,5.00781 10.2071,29.58203 27.75,32.35547 13.3946,2.10938 2.8477,22.16406 -0.1679,28.34766 -5.6602,11.625 -9.9883,24.89453 -2.0469,36.71875 3.8633,5.74609 6.4844,12.45703 2.4414,18.875 -13.6445,23.61718 1.6211,12.67578 1.4414,40.73828 2.5625,15.33594 -21.8281,24.87109 -10.3633,33.61719 16.0821,13.34375 7.9532,18.21093 -0.023,33.10937 14.3164,14.74219 11.5469,20.07031 -3.7578,32.58594 0.9101,2.08203 3.1289,3.32812 4.7109,4.88672 10.8633,8.53125 -6.8945,15.5625 -13.3515,19.54687 -18.4922,6.16797 -31.3399,-2.61328 -47.8555,-8.55859 -7.2617,-1.0625 -13.8203,3.57812 -20.5195,5.68359 -27.4961,11.83985 -20.9414,-13.63672 -46.3399,2.49219 -11.8086,8.57422 -23.1211,-0.082 -35.293,-1.44922 -27.3906,2.64063 -23.0039,9.76172 -50.2812,-3.74609 -16.2227,-1.40625 -34.0117,18.17187 -48.0508,1.18359 -0.7422,-1.01172 -1.9961,-1.25 -3.0742,-0.64844 -11.2383,3.36719 -23.6289,10.63672 -35.4258,6.52735 -1.6055,-0.7461 -3.4219,-1.32422 -4.8476,-2.39844 -1.2579,-0.94922 -1.9532,-2.45313 -3.2461,-3.34766 -1.2266,-0.84765 -2.8243,-0.91406 -4.3047,-0.73437 -3.2188,0.38281 -6.5938,0.55859 -9.6914,1.59375 -3.81644,1.26562 -7.69144,2.40625 -11.69925,2.92578 -0.51563,0.0703 -1.04297,0.125 -1.55859,0.16797 -0.27344,0.0234 -0.54297,0.043 -0.82422,0.0547 -2.8086,0.17578 -5.66407,0.0117 -8.41016,-0.62891 -1.31641,-0.30859 -2.59375,-0.75 -3.82031,-1.29688 -1.17578,-0.51953 -2.3086,-1.40234 -3.64453,-1.42578 -0.57032,-0.0117 -1.125,0.14844 -1.67188,0.32032 -2.48437,0.75781 -4.90234,1.71484 -7.34375,2.60937 -2.05859,0.74609 -4.18359,1.60156 -6.35937,1.95703 -4.75782,0.77735 -8.82813,-0.6875 -12.88282,-2.94531 -1.82421,-1.01953 -3.67968,-1.95313 -5.52343,-2.92969 -0.70703,-0.375 -5.16407,-3.32031 -5.72266,-3.02344 2.22656,-1.0664 4.91797,-0.33593 7.09375,0.82422 2.18359,1.16407 4.17188,2.74219 6.51953,3.5 7.2461,2.33203 14.46485,-3.80078 22.0586,-4.36718 8.04687,-0.59766 15.55078,5.12109 23.60546,4.59765 7.2461,-0.46875 13.64063,-5.94531 20.89843,-5.64062 6.8516,0.29297 10.8438,6.28906 17.2344,7.39843 6.3476,1.09766 13.0195,-2.72656 18.2266,-5.83984 17.0078,-8.98828 18.8906,7.85547 31.1523,5.41406 9.1211,-2.91797 18.0352,-6.7539 27.6445,-7.76172 14.8438,-0.375 15.3399,12.35547 36.4258,6.85157 32.8789,-9.10938 21.4649,2.52343 42.3828,1.44922 11.4961,-1.83985 23.6524,-13.91016 34.7696,-5.40625 4.1093,2.3125 9.0156,5.10156 13.7343,2.89453 15.8477,-9.21875 32.7422,-10.39844 49.3633,-1.69141 6.3867,4.23047 13.6172,3.1875 20.8359,2.29297 6.4766,-0.30078 11.1133,-5.24219 15.8086,-9.14063 1.125,-1.11718 3.2305,-3.18359 1.5079,-4.44921 -2.3946,-2.4961 -8.379,-4.57422 -7.1836,-8.85938 3.2812,-6.58594 11.7734,-10.19531 14.0273,-17.28906 -0.7969,-3.73438 -4.6133,-5.9961 -6.6797,-9.0586 -6.9726,-8.57421 5.2227,-18.11718 3.5,-27.76953 -1.2305,-11.80078 -19.2344,-10.7539 -5.6523,-25.42187 4.9258,-5.32422 10.8984,-14.39844 9.2226,-22.21485 -1.8711,-8.67578 -11.5742,-16.2539 -8.0664,-25.6914 1.8828,-5.0586 5.5547,-9.38281 6.7696,-14.69922 2.8281,-11.42578 -8.6563,-20.58594 -8.4922,-32.40625 0.4492,-13.53516 11.0586,-24.25781 14.0781,-37.26563 1.668,-9.5664 -10.1563,-10.40625 -14.543,-16.5625 -5.957,-5.83203 -7.6211,-14.40625 -11.8867,-21.2539 -10.6328,-7.26953 -19.5937,7.54687 -30.5312,6.11328 -7.6758,-0.35547 -14.5977,-4.47656 -22.0547,-5.71484 -19.4453,10.8789 -23.7422,-0.44141 -41.2696,-5.32813 -3.2773,-0.26953 -5.8632,1.88672 -8.6836,3.13672 -10.5859,5.35937 -21.039,-2.57813 -30.7343,-6.3125 -1.5118,-0.53516 -2.9414,-0.93359 -4.1797,0.37109 -11.2969,16.30469 -18.75,9.64453 -32.8438,2 -2.1093,-0.7539 -3.6054,0.84766 -5.2265,1.8711 -16.0196,11.01953 -19.1094,-2.2461 -32.6602,-4.27344 -4.5976,1.125 -7.5195,6.24219 -12.4844,6.66406 -7.8515,0.31641 -13.4765,-7.32812 -21.0078,-8.07812 -17.0234,13.125 -17.5156,10.09375 -33.3594,-2.50782 -5.1367,-3.8789 -7.625,5.55469 -11.8515,7.39844 -6.6524,3.95313 -12.6992,-3.32812 -18.6836,-5.45312 -0.6836,-0.26563 -1.49611,-0.30078 -2.06642,0.23437 -3.19141,3.0586 -6.80859,5.8125 -10.98047,7.36719 -7.54297,3.25781 -13.05078,-5.34375 -19.97265,-6.21094 -4.01563,2.1836 -7.53907,7.54688 -12.91016,3.63281 -3.97266,-3.125 -7.91406,-8.98046 -13.40234,-8.64453 -4.69532,1.89844 -7.9336,6.63282 -13.60938,5.89063 -6.88281,-1.6875 -19.75,-6.69531 -20.14844,4.67578 1.59766,5.72266 5.76563,10.64453 5.84375,16.83203 0.58203,5.50391 -3.26172,9.75391 -5.90625,14.13672 -1.17187,4.36328 2.11328,8.61719 2.91797,12.82812 2.23438,8.40235 -3.80078,15.21875 -7.66797,21.94532 1.9336,9.98828 17.0586,16.66797 10.32422,28.97656 -1.41015,5.14062 -10.94531,10.82812 -6.8125,15.96484 31.89844,37.22657 -9.40234,26.08203 -4.98828,43.50782 3.07422,5.22656 8.03516,9.60156 9.26563,15.75781 0.47265,8.33203 -12.86719,14.7539 -5.23047,23.13281 4.41406,6.60938 13.1289,13.48047 10.35547,22.25391 -3.78907,10.24218 -23.49219,12.92968 -18.79688,26.17578 3.28516,4.54687 9.14063,7.82812 9.81641,13.92187 0.8125,5.76953 -5.46485,13.19141 -2.58594,18.3125 0.89062,1.59375 5.99609,1.10157 7.41016,0.92188 2.71875,-0.32813 5.35937,-1.10938 8.03125,-1.71875 2.65234,-0.59766 5.42187,-1.14453 8.15625,-0.77344 1.3789,0.1875 2.46484,0.75391 3.75,1.19531 0.96875,0.33203 2.58984,0.3125 3.25,1.23828 -0.16407,0.0391 -0.36329,0.0547 -0.51954,0.13282 -0.375,1.23437 -2.18359,1.20703 -2.82421,0.26172 -8.125,-3.32032 -14.69532,3.39843 -22.48047,4.17187 z m 0,0"
             fill-opacity="1"
             fill-rule="nonzero"
             id="path48"
             style="fill:#000000" />
        </g>
      </g>
    </g>
  </g>
</svg>
