<!-- Generated by IcoMoon.io -->
<svg version="1.1" xmlns="http://www.w3.org/2000/svg" width="23" height="32" viewBox="0 0 23 32">
<path d="M12.382 1.595c0.082-0.152 0.38-0.073 0.728 0.193 0.304 0.232 0.772 0.69 0.755 0.74-0.008 0.025-0.040 0.061-0.071 0.080-0.058 0.037-0.118 0.001-0.483-0.284-0.089-0.070-0.237-0.166-0.328-0.214-0.258-0.135-0.507-0.297-0.577-0.373-0.050-0.057-0.055-0.085-0.025-0.143zM11.809 1.807c-0.262 0.182-0.33 0.273-0.352 0.463-0.021 0.188 0.056 0.325 0.184 0.325 0.097 0 0.154-0.104 0.154-0.281 0-0.109 0.113-0.24 0.274-0.317 0.109-0.052 0.133-0.179 0.052-0.269-0.033-0.037-0.070-0.066-0.082-0.066s-0.116 0.065-0.23 0.145zM12.702 2.084c-0.071 0.071-0.049 0.116 0.217 0.436 0.26 0.311 0.364 0.384 0.433 0.302 0.067-0.080-0.074-0.304-0.389-0.615-0.179-0.177-0.197-0.186-0.261-0.123zM12.253 2.155c-0.060 0.075-0.107 0.363-0.066 0.405 0.067 0.067 0.13 0.038 0.179-0.080 0.087-0.207-0.002-0.462-0.113-0.325zM18.895 2.446c-0.169 0.186-0.182 0.193-0.242 0.139-0.224-0.204-0.561-0.015-0.561 0.314 0 0.102-0.051 0.123-0.182 0.077-0.178-0.064-0.455 0.046-0.588 0.231-0.144 0.202-0.166 0.418-0.056 0.571 0.076 0.106 0.082 0.145 0.076 0.513-0.005 0.324-0.023 0.452-0.098 0.687-0.106 0.333-0.097 0.42 0.061 0.585 0.212 0.22 0.387 0.088 0.299-0.226-0.029-0.103-0.035-0.29-0.019-0.606 0.013-0.251 0.026-0.542 0.031-0.646l0.008-0.189 0.199-0.049c0.109-0.026 0.22-0.040 0.245-0.031 0.028 0.011 0.055 0.101 0.069 0.23 0.034 0.324 0.163 0.52 0.343 0.52 0.11 0 0.317-0.182 0.406-0.356 0.034-0.067 0.065-0.089 0.103-0.073 0.136 0.058 0.244 0.053 0.344-0.018 0.057-0.041 0.112-0.059 0.123-0.041 0.019 0.029 0.030 0.182 0.068 0.913 0.017 0.328 0.077 0.44 0.234 0.44 0.145 0 0.345-0.21 0.439-0.462 0.241-0.643 0.217-1.99-0.040-2.265-0.143-0.153-0.239-0.182-0.459-0.138-0.197 0.040-0.199 0.040-0.278-0.061-0.155-0.198-0.22-0.256-0.283-0.256-0.035 0-0.145 0.088-0.242 0.196zM12.453 2.829c0 0.067 0.393 0.434 0.533 0.498 0.075 0.034 0.101 0.031 0.159-0.022 0.038-0.034 0.069-0.081 0.069-0.103 0-0.044-0.143-0.191-0.188-0.191-0.015 0-0.118-0.055-0.227-0.121-0.221-0.134-0.346-0.156-0.346-0.061zM13.92 2.884c-0.143 0.055-0.478 0.259-0.623 0.382-0.121 0.101-0.151 0.217-0.076 0.292 0.056 0.056 0.199 0.053 0.221-0.006 0.031-0.080 0.558-0.437 0.645-0.437 0.292 0 0.171 0.384-0.204 0.641-0.111 0.076-0.207 0.166-0.213 0.199-0.028 0.146 0.229 0.103 0.504-0.085 0.176-0.12 0.285-0.317 0.309-0.56 0.016-0.149 0.005-0.193-0.061-0.277-0.076-0.096-0.261-0.197-0.351-0.192-0.025 0.002-0.092 0.021-0.152 0.043zM18.879 3.132c-0.095 0.119-0.237 0.163-0.284 0.086-0.029-0.048-0.181-0.044-0.211 0.005-0.014 0.022-0.035 0.088-0.047 0.147-0.017 0.086-0.008 0.114 0.047 0.142 0.078 0.039 0.144 0.155 0.178 0.311l0.022 0.104 0.073-0.147c0.078-0.159 0.16-0.187 0.282-0.094 0.1 0.076 0.185 0.062 0.331-0.053 0.072-0.057 0.163-0.104 0.202-0.104 0.081 0 0.285 0.233 0.362 0.415l0.051 0.121-0.018-0.155c-0.032-0.283-0.14-0.728-0.196-0.815-0.066-0.1-0.178-0.11-0.322-0.028-0.094 0.053-0.108 0.053-0.215 0-0.064-0.032-0.125-0.058-0.136-0.058s-0.064 0.055-0.117 0.121zM11.707 3.095c-0.083 0.061-0.072 0.216 0.030 0.428 0.056 0.117 0.073 0.187 0.050 0.21-0.046 0.047-0.002 0.212 0.057 0.212 0.105 0 0.134-0.098 0.118-0.406-0.019-0.39-0.111-0.549-0.255-0.444zM14.69 3.604c-0.047 0.028-0.058 0.060-0.041 0.129 0.030 0.118 0.11 0.221 0.52 0.663 0.262 0.283 0.366 0.425 0.467 0.64 0.153 0.325 0.187 0.361 0.484 0.495 0.124 0.056 0.271 0.151 0.327 0.21 0.071 0.076 0.133 0.108 0.209 0.108 0.059 0 0.199 0.032 0.312 0.072 0.364 0.128 0.49-0.029 0.209-0.26-0.105-0.086-0.166-0.169-0.19-0.257-0.040-0.147-0.097-0.186-0.399-0.275-0.227-0.067-0.2-0.037-0.586-0.652-0.232-0.37-0.642-0.772-0.867-0.851-0.195-0.068-0.351-0.076-0.444-0.022zM12.485 3.673c-0.057 0.106-0.023 0.417 0.104 0.981 0.209 0.926 0.224 1.052 0.164 1.409-0.064 0.381-0.182 0.631-0.591 1.25-0.484 0.732-0.528 0.854-0.315 0.854 0.067 0 0.121-0.015 0.121-0.032s0.098-0.178 0.218-0.355c0.436-0.646 0.669-1.101 0.752-1.467 0.136-0.606 0.004-2.074-0.226-2.506-0.025-0.047-0.054-0.114-0.065-0.147-0.026-0.083-0.114-0.076-0.161 0.013zM13.41 4.003c-0.013 0.013-0.023 0.042-0.023 0.066 0 0.059 0.346 0.563 0.603 0.876 0.19 0.232 0.286 0.343 0.677 0.784 0.12 0.136 0.486 0.485 0.881 0.843 0.24 0.217 0.489 0.382 0.75 0.498 0.102 0.045 0.235 0.124 0.296 0.176l0.111 0.094-0.152 0.238c-0.388 0.604-0.558 1.091-0.833 2.371-0.119 0.555-0.215 0.98-0.296 1.315-0.037 0.152-0.105 0.544-0.151 0.87-0.096 0.684-0.080 0.977 0.068 1.281 0.101 0.206 0.214 0.292 0.415 0.315 0.199 0.022 0.379-0.077 0.619-0.343 0.199-0.219 0.253-0.329 0.214-0.431-0.025-0.067-0.199-0.050-0.373 0.037-0.059 0.030-0.152 0.054-0.206 0.054-0.098 0-0.098-0.002-0.098-0.216 0-0.119 0.045-0.543 0.1-0.943s0.11-0.859 0.122-1.021c0.041-0.579 0.059-0.746 0.098-0.917 0.022-0.095 0.041-0.181 0.044-0.19s0.032-0.109 0.066-0.221c0.049-0.161 0.069-0.193 0.094-0.147 0.068 0.121 0.151 0.055 0.4-0.315 0.435-0.648 0.902-1.709 0.804-1.827-0.101-0.122-0.163-0.057-0.43 0.45-0.437 0.829-0.445 0.75-0.014-0.146 0.237-0.494 0.259-0.564 0.206-0.661-0.056-0.105-0.278-0.1-0.406 0.010l-0.096 0.083-0.139-0.113c-0.077-0.062-0.264-0.182-0.416-0.267-0.474-0.262-0.58-0.341-0.882-0.661-0.477-0.502-1.834-1.835-1.936-1.902-0.052-0.033-0.104-0.050-0.117-0.037zM11.797 4.15c-0.027 0.050-0.020 0.085 0.028 0.144 0.073 0.089 0.143 0.065 0.143-0.049 0-0.076-0.058-0.161-0.109-0.161-0.015 0-0.043 0.030-0.062 0.066zM10.039 4.237c-0.285 0.137-0.443 0.269-0.604 0.507-0.071 0.105-0.14 0.169-0.182 0.169-0.101 0.002-0.13 0.031-0.253 0.251-0.137 0.246-0.143 0.38-0.019 0.495 0.050 0.047 0.107 0.085 0.125 0.085 0.021 0 0.026 0.062 0.013 0.158-0.026 0.194 0.028 0.337 0.202 0.529 0.167 0.184 0.277 0.215 0.7 0.199 0.392-0.016 0.456-0.043 0.598-0.251 0.047-0.070 0.127-0.138 0.177-0.151s0.151-0.065 0.224-0.115 0.143-0.091 0.155-0.091c0.012 0 0.041 0.070 0.065 0.155 0.054 0.194 0.023 0.421-0.094 0.684-0.072 0.162-0.080 0.208-0.045 0.251 0.067 0.080 0.127 0.063 0.219-0.061 0.191-0.257 0.304-0.894 0.191-1.081-0.045-0.075-0.066-0.254-0.032-0.275 0.020-0.012 0.053-0.088 0.075-0.168s0.093-0.219 0.159-0.309c0.125-0.172 0.133-0.304 0.017-0.303-0.082 0.001-0.679 0.222-0.785 0.29-0.101 0.066-0.107 0.099-0.032 0.174 0.035 0.035 0.085 0.047 0.138 0.033l0.083-0.021-0.073 0.168c-0.086 0.2-0.153 0.258-0.389 0.34-0.112 0.039-0.242 0.124-0.352 0.231-0.138 0.134-0.198 0.169-0.291 0.169-0.128 0-0.547-0.216-0.579-0.298-0.011-0.027 0.008-0.15 0.041-0.273 0.043-0.16 0.055-0.284 0.039-0.432l-0.022-0.208 0.119-0.078c0.067-0.044 0.143-0.133 0.171-0.204 0.040-0.098 0.081-0.136 0.182-0.169 0.145-0.047 0.397-0.223 0.459-0.321 0.056-0.089 0.013-0.197-0.080-0.197-0.042 0-0.188 0.053-0.325 0.119zM10.827 4.398c-0.086 0.038-0.191 0.103-0.234 0.143-0.064 0.061-0.077 0.064-0.077 0.017 0-0.080-0.128-0.109-0.218-0.050-0.147 0.096-0.301 0.281-0.301 0.36 0 0.13 0.122 0.098 0.321-0.085 0.146-0.133 0.166-0.145 0.113-0.060-0.037 0.057-0.112 0.197-0.167 0.311-0.070 0.144-0.186 0.289-0.378 0.474-0.276 0.266-0.307 0.34-0.144 0.34 0.172 0 0.612-0.391 0.759-0.673 0.216-0.415 0.243-0.452 0.396-0.525 0.191-0.092 0.524-0.134 0.627-0.080 0.059 0.032 0.085 0.029 0.131-0.017 0.052-0.053 0.050-0.062-0.029-0.121-0.167-0.127-0.554-0.143-0.796-0.033zM18.877 4.418c-0.043 0.043-0.023 0.11 0.064 0.213 0.052 0.061 0.086 0.146 0.086 0.21 0 0.080 0.016 0.107 0.062 0.107 0.098 0 0.145-0.071 0.145-0.221 0-0.103-0.023-0.163-0.093-0.235-0.087-0.091-0.212-0.126-0.265-0.074zM11.976 4.817c-0.061 0.061-0.051 0.124 0.028 0.166 0.056 0.030 0.069 0.073 0.069 0.227 0 0.203 0.056 0.269 0.169 0.198 0.063-0.040 0.078-0.307 0.026-0.471-0.041-0.132-0.211-0.202-0.292-0.121zM17.678 5.605c-0.043 0.027-0.044 0.051-0.010 0.142s0.032 0.119-0.009 0.16c-0.067 0.067-0.065 0.25 0.001 0.276 0.032 0.012 0.052 0.064 0.052 0.134 0 0.082 0.030 0.145 0.106 0.221 0.116 0.116 0.205 0.13 0.43 0.068 0.18-0.049 0.26-0.122 0.26-0.239 0-0.082-0.025-0.105-0.194-0.173-0.159-0.065-0.204-0.101-0.246-0.203-0.053-0.127-0.272-0.419-0.315-0.418-0.013 0-0.047 0.015-0.075 0.033zM11.934 5.866c-0.023 0.061-0.018 0.146 0.017 0.282 0.031 0.118 0.044 0.278 0.034 0.406-0.050 0.639-0.091 0.739-0.34 0.834-0.149 0.057-0.202 0.124-0.171 0.217 0.008 0.023 0.037 0.043 0.063 0.043 0.097 0 0.394-0.214 0.472-0.339 0.094-0.151 0.218-0.492 0.251-0.691 0.024-0.142-0.058-0.651-0.125-0.777-0.048-0.091-0.164-0.076-0.203 0.026zM19.585 5.931c-0.043 0.045-0.166 0.142-0.274 0.215-0.304 0.205-0.801 0.603-0.837 0.672-0.019 0.035-0.024 0.188-0.012 0.351 0.023 0.323 0.092 0.445 0.251 0.444 0.103-0.001 0.161-0.031 0.449-0.232l0.209-0.147-0.194 0.32c-0.235 0.387-0.31 0.551-0.548 1.207-0.209 0.575-0.267 0.775-0.364 1.241-0.082 0.397-0.084 0.48-0.015 0.507 0.062 0.023 0.189-0.079 0.189-0.154 0-0.069 0.337-0.943 0.704-1.824 0.083-0.199 0.091-0.207 0.202-0.199 0.128 0.010 0.231-0.069 0.445-0.339 0.466-0.589 0.703-1.125 0.574-1.296-0.041-0.055-0.065-0.062-0.112-0.032-0.070 0.043-0.055 0.014-0.324 0.566-0.191 0.392-0.571 0.966-0.612 0.926-0.009-0.009 0.014-0.077 0.051-0.15 0.107-0.209 0.177-0.484 0.157-0.612-0.016-0.094-0.007-0.12 0.045-0.135 0.037-0.010 0.202-0.247 0.39-0.561 0.305-0.507 0.322-0.546 0.268-0.6-0.044-0.044-0.072-0.049-0.118-0.021-0.079 0.048-0.395 0.467-0.526 0.694-0.077 0.136-0.128 0.184-0.208 0.202-0.104 0.023-0.394 0.164-0.478 0.234-0.055 0.045-0.071 0.029-0.11-0.106-0.047-0.163 0.101-0.339 0.525-0.624 0.352-0.237 0.615-0.462 0.615-0.527 0-0.035-0.145-0.101-0.221-0.101-0.024 0-0.079 0.037-0.121 0.082zM16.167 6.213c-0.013 0.034 0.041 0.122 0.148 0.239 0.173 0.19 0.263 0.248 0.324 0.21 0.076-0.047 0.026-0.167-0.136-0.331-0.173-0.172-0.298-0.217-0.335-0.118zM8.909 6.393c-0.047 0.071-0.095 0.188-0.108 0.259-0.020 0.113-0.010 0.142 0.082 0.234 0.119 0.119 0.231 0.133 0.409 0.048 0.097-0.046 0.118-0.073 0.109-0.147-0.010-0.079-0.028-0.092-0.156-0.101-0.169-0.013-0.221-0.097-0.134-0.221 0.083-0.118 0.070-0.2-0.032-0.2-0.061 0-0.11 0.037-0.171 0.13zM20.327 6.359c-0.036 0.113 0.092 0.39 0.504 1.088 0.276 0.465 0.425 0.694 0.594 0.901 0.065 0.081 0.143 0.195 0.173 0.253 0.081 0.16 0.189 0.615 0.25 1.054 0.057 0.408 0.098 0.525 0.22 0.636 0.080 0.073 0.124 0.214 0.158 0.513l0.023 0.199h-0.122c-0.142 0-0.207 0.086-0.201 0.264 0.002 0.061-0.019 0.13-0.049 0.154-0.095 0.079-0.123 0.165-0.080 0.244 0.062 0.116 0.21 0.233 0.352 0.277 0.112 0.035 0.139 0.032 0.199-0.023 0.088-0.079 0.138-0.265 0.133-0.49-0.003-0.132 0.016-0.201 0.075-0.282 0.074-0.1 0.077-0.129 0.058-0.463-0.012-0.196-0.068-0.597-0.124-0.893s-0.112-0.603-0.124-0.685c-0.035-0.24-0.284-1.221-0.363-1.431-0.052-0.141-0.127-0.245-0.276-0.388-0.112-0.107-0.22-0.195-0.238-0.195-0.065 0-0.612-0.421-0.767-0.591-0.179-0.196-0.358-0.261-0.395-0.144zM10.548 6.545c-0.031 0.058-0.028 0.085 0.016 0.128 0.050 0.050 0.059 0.050 0.11 0 0.044-0.044 0.047-0.070 0.016-0.128-0.022-0.040-0.054-0.073-0.071-0.073s-0.050 0.033-0.071 0.073zM9.661 6.722c-0.015 0.023-0.029 0.102-0.030 0.174-0.002 0.101-0.027 0.154-0.112 0.232-0.061 0.055-0.11 0.125-0.11 0.154 0 0.044-0.026 0.041-0.157-0.023-0.13-0.063-0.163-0.068-0.187-0.029-0.044 0.071-0.011 0.124 0.136 0.227 0.173 0.12 0.307 0.108 0.38-0.034 0.029-0.056 0.070-0.119 0.091-0.138 0.152-0.141 0.206-0.444 0.098-0.552-0.065-0.065-0.072-0.066-0.108-0.011zM9.911 6.738c-0.038 0.094-0.085 0.497-0.064 0.551 0.010 0.026 0.055 0.047 0.1 0.047 0.098 0 0.129-0.118 0.112-0.432-0.008-0.158-0.024-0.21-0.067-0.218-0.031-0.006-0.068 0.017-0.081 0.052zM10.528 6.938c-0.012 0.031-0.005 0.073 0.015 0.094 0.053 0.053 0.152 0.004 0.139-0.067-0.015-0.080-0.126-0.099-0.154-0.026zM18.101 6.912c-0.046 0.016-0.058 0.139-0.022 0.231 0.027 0.070 0.148 0.071 0.174 0.003 0.048-0.125-0.046-0.271-0.152-0.234zM8.767 7.086c-0.137 0.1-0.183 0.513-0.076 0.677 0.078 0.119 0.207 0.151 0.318 0.078 0.106-0.069 0.109-0.134 0.013-0.269-0.040-0.057-0.091-0.191-0.112-0.297-0.038-0.19-0.074-0.239-0.143-0.189zM10.504 7.256c-0.050 0.050-0.022 0.149 0.042 0.149 0.068 0 0.122-0.086 0.088-0.141-0.023-0.037-0.097-0.042-0.13-0.008zM9.728 7.396c-0.023 0.008-0.043 0.045-0.043 0.082 0 0.040-0.035 0.080-0.086 0.1-0.090 0.034-0.123 0.169-0.043 0.176 0.206 0.019 0.321-0.087 0.307-0.286-0.004-0.062-0.067-0.097-0.134-0.073zM11.033 7.755c-0.052 0.096-0.053 0.379-0.004 0.472 0.021 0.038 0.036 0.124 0.034 0.19-0.006 0.146 0.024 0.2 0.11 0.2 0.109 0 0.149-0.125 0.126-0.396-0.037-0.433-0.164-0.657-0.267-0.466zM17.846 7.76c-0.068 0.127-0.361 1.188-0.458 1.653-0.164 0.794-0.301 1.719-0.314 2.133-0.016 0.48 0.061 1.259 0.146 1.489 0.079 0.213 0.155 0.26 0.256 0.159 0.071-0.071 0.076-0.102 0.063-0.432-0.033-0.87-0.012-1.923 0.047-2.415 0.092-0.761 0.224-1.551 0.376-2.26 0.062-0.291 0.066-0.345 0.024-0.372-0.074-0.046-0.095-0.040-0.14 0.045zM8.778 8.185c-0.421 0.444-0.718 0.948-0.909 1.539-0.157 0.484-0.267 0.628-0.79 1.034-0.232 0.18-0.697 0.649-0.86 0.868-0.064 0.086-0.224 0.319-0.355 0.519-0.284 0.431-0.623 0.775-1.028 1.044-0.428 0.284-0.574 0.472-0.543 0.691 0.015 0.108 0.224 0.178 0.481 0.16l0.193-0.013-0.261 0.131c-0.342 0.172-0.516 0.348-0.695 0.707-0.151 0.303-0.294 0.47-1.071 1.258-0.786 0.796-1.083 1.208-1.199 1.66-0.081 0.317-0.173 0.567-0.315 0.854-0.132 0.267-0.142 0.406-0.029 0.42 0.127 0.015 0.325-0.229 0.443-0.545 0.098-0.262 0.451-0.868 0.667-1.145 0.757-0.972 1.085-1.338 1.797-2.010 0.115-0.108 0.271-0.282 0.346-0.387s0.212-0.241 0.305-0.304c0.165-0.113 0.319-0.267 0.422-0.425 0.107-0.164-0.058-0.333-0.254-0.259-0.086 0.033-0.088 0.032-0.031-0.031 0.083-0.092 0.073-0.199-0.028-0.279l-0.087-0.068 0.34-0.243c0.415-0.296 0.625-0.521 0.978-1.049 0.286-0.427 0.552-0.77 0.67-0.865 0.039-0.031 0.11-0.091 0.157-0.133s0.286-0.209 0.53-0.372c0.561-0.373 0.548-0.354 0.894-1.325 0.106-0.297 0.174-0.445 0.433-0.952 0.158-0.309 0.206-0.5 0.15-0.605-0.061-0.115-0.162-0.080-0.353 0.122zM20.617 8.293c-0.262 0.351-0.258 0.337-0.251 1.090 0.005 0.574 0.115 2.070 0.168 2.296 0.009 0.038 0.046 0.319 0.081 0.625 0.073 0.634 0.061 0.79-0.102 1.265-0.158 0.463-0.13 0.672 0.080 0.584 0.166-0.069 0.313-0.247 0.375-0.454 0.154-0.516 0.212-1.3 0.14-1.899-0.019-0.162-0.053-0.45-0.074-0.64s-0.077-0.549-0.125-0.796c-0.156-0.807-0.163-1.688-0.015-2.070 0.046-0.118 0.025-0.161-0.079-0.161-0.052 0-0.117 0.052-0.197 0.16zM11.363 8.968c-0.166 0.062-0.75 0.462-0.99 0.678-0.612 0.552-0.926 0.931-1.023 1.24l-0.059 0.189-0.081-0.088c-0.097-0.104-0.119-0.107-0.193-0.026-0.046 0.050-0.051 0.097-0.028 0.24 0.033 0.209 0.097 0.316 0.266 0.449 0.068 0.053 0.146 0.15 0.174 0.216 0.077 0.182 0.284 1.006 0.31 1.239 0.029 0.264 0.053 0.301 0.169 0.272 0.112-0.028 0.159-0.14 0.118-0.28-0.031-0.106-0.067-0.338-0.137-0.9-0.047-0.369-0.118-0.55-0.29-0.741l-0.127-0.14 0.393-0.421c0.69-0.738 1.313-1.256 1.622-1.349 0.123-0.037 0.144-0.032 0.295 0.068 0.187 0.123 0.341 0.161 0.532 0.131 0.221-0.035 0.228-0.010 0.219 0.809-0.008 0.669-0.005 0.72 0.058 0.776 0.063 0.058 0.070 0.057 0.137-0.010 0.091-0.091 0.129-0.24 0.193-0.765 0.067-0.54 0.067-0.62-0.003-0.858-0.065-0.225-0.162-0.335-0.339-0.384-0.070-0.019-0.188-0.089-0.262-0.156s-0.193-0.137-0.266-0.158c-0.207-0.058-0.571-0.074-0.686-0.031zM9.591 9.342c-0.116 0.124-0.665 1.139-0.667 1.235-0.001 0.021 0.020 0.056 0.044 0.076 0.102 0.085 0.508-0.284 0.775-0.704 0.12-0.189 0.176-0.317 0.22-0.499 0.065-0.274-0.155-0.338-0.373-0.107zM8.453 10.945c-0.283 0.165-0.693 0.651-0.963 1.142-0.191 0.348-0.34 0.474-0.86 0.732-0.518 0.256-0.787 0.46-0.787 0.598 0 0.083 0.009 0.088 0.131 0.071 0.072-0.010 0.2-0.050 0.283-0.091s0.164-0.074 0.179-0.074 0.129-0.047 0.254-0.104c0.124-0.057 0.234-0.104 0.242-0.104 0.062 0 0.55-0.259 0.694-0.368 0.349-0.265 0.494-0.48 0.876-1.297 0.174-0.373 0.202-0.478 0.139-0.518s-0.103-0.037-0.189 0.013zM11.476 10.99c-0.206 0.066-0.268 0.101-0.268 0.15 0 0.088 0.197 0.127 0.276 0.055 0.032-0.029 0.121-0.052 0.197-0.052 0.152 0 0.361-0.060 0.397-0.115 0.098-0.148-0.202-0.167-0.602-0.038zM11.118 11.699c-0.030 0.049 0.018 0.889 0.057 0.991 0.040 0.104 0.129 0.1 0.17-0.008 0.035-0.091-0.020-0.799-0.073-0.943-0.030-0.082-0.114-0.104-0.154-0.040zM12.645 11.72c-0.022 0.059 0.001 0.853 0.035 1.167 0.039 0.364 0.183 0.51 0.311 0.315 0.104-0.158 0.071-0.582-0.083-1.090-0.038-0.124-0.079-0.275-0.092-0.338-0.025-0.123-0.131-0.157-0.171-0.054zM17.771 11.791c-0.024 0.173 0.004 0.991 0.046 1.358 0.019 0.161 0.049 0.438 0.068 0.613 0.053 0.502 0.262 1.388 0.349 1.479 0.017 0.018 0.031 0.057 0.031 0.087 0 0.056 0.271 0.483 0.391 0.615 0.039 0.043 0.107 0.078 0.151 0.078 0.128 0 0.102-0.152-0.094-0.553-0.26-0.531-0.379-1.065-0.464-2.071-0.008-0.1-0.023-0.247-0.034-0.327s-0.026-0.246-0.037-0.37c-0.027-0.306-0.118-0.789-0.175-0.926-0.035-0.083-0.068-0.112-0.131-0.112-0.071 0-0.087 0.020-0.102 0.13zM10.723 11.748c-0.076 0.092 0.003 1.019 0.095 1.112 0.047 0.047 0.058 0.047 0.106-0.001s0.048-0.101 0.007-0.478c-0.026-0.233-0.049-0.465-0.053-0.514-0.011-0.163-0.077-0.214-0.156-0.119zM22.147 12.156c-0.022 0.026-0.055 0.19-0.073 0.364-0.037 0.35-0.086 0.482-0.346 0.921-0.226 0.384-0.331 0.644-0.383 0.951-0.023 0.135-0.068 0.279-0.101 0.319l-0.059 0.074-0.231-0.078c-0.227-0.077-0.307-0.132-0.468-0.325-0.073-0.088-0.086-0.092-0.155-0.046-0.041 0.028-0.080 0.083-0.086 0.123-0.028 0.186 0.382 0.648 0.66 0.741 0.195 0.066 0.525 0.044 0.666-0.043 0.137-0.085 0.191-0.2 0.191-0.411 0-0.124 0.037-0.241 0.15-0.474 0.316-0.649 0.421-1.089 0.421-1.762 0-0.36-0.004-0.381-0.073-0.391-0.040-0.005-0.090 0.011-0.112 0.038zM18.475 12.767c-0.055 0.101 0.064 1.269 0.187 1.843 0.071 0.33 0.167 0.712 0.187 0.739 0.013 0.018 0.073 0.060 0.134 0.094 0.107 0.060 0.112 0.060 0.179-0.012 0.138-0.148 0.081-0.874-0.112-1.433-0.199-0.576-0.334-0.98-0.375-1.124-0.049-0.172-0.138-0.22-0.199-0.106zM9.196 13.38c-0.306 0.257-0.754 0.747-0.945 1.034-0.167 0.25-0.567 1.011-0.756 1.434-0.67 1.504-1.365 2.838-1.736 3.329-0.039 0.052-0.118 0.158-0.175 0.235-0.169 0.23-0.589 0.738-0.67 0.81-0.078 0.069-0.098 0.175-0.040 0.211 0.068 0.041 0.333-0.115 0.504-0.298 0.233-0.249 0.57-0.768 0.898-1.381 0.148-0.276 0.389-0.712 0.536-0.969 0.349-0.608 0.413-0.738 0.811-1.643 0.184-0.419 0.382-0.862 0.438-0.984 0.171-0.37 0.463-0.769 0.816-1.112 0.567-0.551 0.598-0.589 0.598-0.695 0-0.137-0.093-0.128-0.281 0.029zM3.122 13.472c-0.331 0.152-0.493 0.268-0.739 0.532-0.413 0.441-0.703 1.253-0.702 1.965 0 0.292 0.016 0.393 0.101 0.64 0.089 0.261 0.11 0.294 0.184 0.294 0.104 0 0.12-0.053 0.196-0.638 0.129-1.002 0.304-1.37 1.005-2.113 0.454-0.483 0.531-0.623 0.396-0.733-0.106-0.085-0.152-0.080-0.44 0.052zM12.391 13.642c-0.083 0.103-0.116 0.372-0.143 1.185-0.049 1.493-0.026 2.304 0.080 2.906 0.212 1.198 0.208 1.149 0.206 2.284-0.001 0.71-0.022 1.307-0.061 1.765-0.033 0.381-0.074 0.879-0.092 1.107-0.038 0.485-0.053 0.612-0.127 1.058-0.061 0.368-0.041 0.636 0.049 0.67s0.22-0.079 0.307-0.271c0.205-0.447 0.462-1.799 0.586-3.083 0.010-0.095 0.023-0.617 0.031-1.16 0.017-1.199 0.010-1.265-0.31-2.578-0.201-0.825-0.199-0.792-0.114-1.925 0.067-0.899-0.006-1.762-0.164-1.936-0.068-0.075-0.196-0.086-0.248-0.023zM13.136 13.671c-0.101 0.059-0.071 0.133 0.176 0.425 0.13 0.155 0.337 0.427 0.459 0.606s0.277 0.404 0.343 0.501c0.323 0.471 0.493 0.78 0.655 1.191 0.469 1.19 0.739 2.308 0.866 3.582 0.019 0.194 0.043 0.406 0.052 0.473s0.033 0.23 0.052 0.363c0.034 0.236 0.083 0.556 0.188 1.23 0.062 0.396 0.152 0.696 0.313 1.050 0.066 0.145 0.191 0.439 0.279 0.652s0.205 0.467 0.263 0.562c0.115 0.189 0.324 0.372 0.409 0.355 0.12-0.023 0.080-0.22-0.146-0.719-0.368-0.811-0.717-2.159-0.995-3.841-0.146-0.882-0.212-1.269-0.259-1.505-0.027-0.133-0.058-0.32-0.070-0.415-0.119-1.006-0.195-1.382-0.353-1.765-0.097-0.235-0.436-0.825-0.541-0.944-0.038-0.043-0.101-0.131-0.141-0.196-0.402-0.664-0.924-1.29-1.289-1.545-0.159-0.111-0.174-0.115-0.262-0.064zM17.308 13.779c-0.059 0.074-0.25 1.116-0.303 1.654-0.076 0.761-0.1 1.745-0.057 2.372 0.050 0.728 0.073 0.91 0.284 2.23 0.122 0.762 0.172 1.014 0.288 1.459 0.109 0.421 0.172 0.58 0.335 0.849 0.072 0.118 0.169 0.29 0.216 0.382 0.11 0.217 0.176 0.275 0.246 0.216 0.113-0.094 0.054-0.337-0.23-0.934-0.201-0.421-0.259-0.695-0.322-1.492-0.030-0.388-0.070-0.822-0.088-0.965s-0.040-0.33-0.049-0.415-0.059-0.444-0.11-0.796c-0.071-0.483-0.095-0.781-0.098-1.211-0.004-0.747 0.037-1.577 0.101-2.092 0.053-0.423 0.064-1.040 0.021-1.195-0.027-0.098-0.176-0.137-0.235-0.062zM9.895 14.025c-0.054 0.12-0.11 0.256-0.124 0.303-0.066 0.211-0.517 1.055-0.634 1.185-0.162 0.181-0.318 0.421-0.318 0.49 0 0.085 0.157 0.062 0.282-0.043 0.414-0.345 0.651-0.791 0.948-1.781 0.050-0.166 0.080-0.318 0.068-0.337-0.053-0.086-0.13-0.023-0.223 0.182zM10.541 14.398c-0.033 0.019-0.061 0.062-0.061 0.095 0 0.296-0.483 1.332-0.986 2.116-0.043 0.067-0.2 0.327-0.351 0.58s-0.296 0.496-0.325 0.541c-0.029 0.046-0.104 0.175-0.169 0.286-0.366 0.632-0.985 1.434-1.596 2.066-0.42 0.434-0.668 0.638-1.055 0.868-0.152 0.091-0.321 0.19-0.373 0.221-0.132 0.079-0.118 0.214 0.027 0.255 0.165 0.047 0.39 0.002 0.673-0.135 0.224-0.109 0.33-0.196 0.737-0.607 0.262-0.264 0.476-0.495 0.476-0.513s0.051-0.091 0.114-0.163c0.062-0.071 0.173-0.215 0.245-0.32s0.183-0.261 0.247-0.346c0.19-0.255 0.62-0.903 0.738-1.112 0.061-0.107 0.133-0.214 0.161-0.238s0.052-0.058 0.052-0.077c0-0.042 0.259-0.437 0.515-0.785 0.104-0.141 0.262-0.421 0.352-0.623s0.219-0.477 0.288-0.614c0.069-0.136 0.125-0.257 0.125-0.269s0.062-0.154 0.138-0.316c0.23-0.493 0.275-0.67 0.221-0.871-0.022-0.083-0.095-0.098-0.194-0.040zM6.074 14.682c-0.057 0.041-0.054 0.058 0.048 0.264 0.19 0.382 0.149 0.685-0.182 1.37-0.205 0.422-0.357 0.914-0.392 1.263-0.019 0.187-0.011 0.245 0.045 0.346 0.037 0.067 0.092 0.125 0.123 0.131 0.067 0.013 0.103-0.109 0.181-0.602 0.062-0.402 0.136-0.612 0.348-1.002 0.214-0.394 0.259-0.54 0.264-0.879 0.005-0.33-0.004-0.372-0.154-0.702-0.109-0.241-0.162-0.277-0.281-0.189zM20.020 15.061c-0.202 0.216-0.723 0.926-0.807 1.1-0.094 0.196-0.107 0.385-0.031 0.449 0.032 0.027 0.1 0.036 0.176 0.023 0.124-0.020 0.124-0.020 0.104 0.091-0.061 0.338-0.064 0.413-0.020 0.493 0.065 0.121 0.182 0.107 0.347-0.043l0.14-0.127-0.008 0.18c-0.010 0.228 0.066 0.319 0.27 0.322 0.338 0.005 0.397-0.053 0.815-0.802 0.048-0.085 0.145-0.256 0.215-0.38 0.207-0.362 0.3-0.591 0.289-0.706-0.010-0.094-0.024-0.107-0.113-0.107-0.086 0-0.132 0.039-0.294 0.25-0.105 0.137-0.292 0.438-0.417 0.667-0.208 0.387-0.459 0.765-0.401 0.605 0.184-0.506 0.223-0.794 0.116-0.861-0.071-0.045-0.158 0-0.361 0.188-0.196 0.181-0.205 0.182-0.19 0.029 0.014-0.157-0.031-0.228-0.17-0.265l-0.097-0.026 0.261-0.346c0.319-0.423 0.459-0.687 0.406-0.769-0.062-0.098-0.116-0.090-0.232 0.033zM11.752 15.689c-0.028 0.028-0.061 0.149-0.074 0.269-0.143 1.293-0.157 1.718-0.067 2.169 0.058 0.295 0.113 0.369 0.204 0.279 0.039-0.039 0.053-0.309 0.071-1.364 0.020-1.158 0.017-1.32-0.030-1.359-0.043-0.036-0.062-0.035-0.103 0.007zM13.739 16.109c-0.042 0.092-0.033 0.148 0.1 0.639 0.034 0.124 0.071 0.28 0.085 0.346s0.091 0.402 0.172 0.744c0.081 0.343 0.173 0.763 0.204 0.935 0.067 0.37 0.315 1.78 0.364 2.076 0.019 0.114 0.052 0.301 0.071 0.415 0.040 0.229 0.124 0.799 0.173 1.179 0.018 0.135 0.073 0.408 0.123 0.606s0.098 0.4 0.108 0.447c0.010 0.047 0.142 0.34 0.294 0.649 0.216 0.438 0.291 0.562 0.343 0.562 0.106 0 0.085-0.157-0.088-0.667-0.163-0.483-0.252-0.948-0.348-1.824-0.030-0.276-0.092-0.759-0.138-1.073s-0.094-0.719-0.106-0.9c-0.029-0.427-0.139-1.262-0.209-1.592-0.079-0.369-0.216-0.824-0.478-1.591-0.277-0.813-0.399-1.038-0.556-1.038-0.047 0-0.091 0.032-0.115 0.087zM3.958 16.512c-0.289 0.206-0.835 0.852-1.003 1.187-0.038 0.076-0.079 0.146-0.090 0.155s-0.121 0.22-0.245 0.467c-0.307 0.616-0.718 1.754-0.827 2.284-0.042 0.209-0.049 0.729-0.014 1.176 0.025 0.324 0.041 0.37 0.13 0.357 0.065-0.009 0.082-0.058 0.151-0.46 0.043-0.247 0.094-0.504 0.112-0.571s0.097-0.36 0.174-0.651 0.179-0.642 0.228-0.779c0.085-0.237 0.514-1.118 0.795-1.633 0.158-0.291 0.624-1.004 0.733-1.123 0.119-0.13 0.232-0.364 0.208-0.429-0.031-0.082-0.226-0.071-0.353 0.019zM18.169 16.928c-0.028 0.028-0.042 0.192-0.041 0.51 0 0.576 0.086 2.533 0.121 2.748 0.007 0.041 0.029 0.222 0.050 0.403 0.059 0.505 0.131 0.924 0.173 1.002 0.049 0.092 0.125 0.089 0.181-0.007 0.092-0.161 0.034-2.469-0.077-3.088-0.045-0.25-0.064-0.391-0.122-0.935-0.029-0.267-0.070-0.527-0.090-0.579-0.040-0.1-0.126-0.124-0.196-0.054zM20.649 18.262c-0.115 0.267-0.238 0.661-0.309 0.995-0.061 0.284-0.065 0.427-0.053 1.609 0.016 1.43 0.054 2.042 0.167 2.664 0.040 0.22 0.054 1.238 0.031 2.232-0.006 0.267 0 0.623 0.014 0.793 0.025 0.294 0.023 0.307-0.040 0.283-0.073-0.028-0.187-0.043-0.561-0.071-0.352-0.026-0.482-0.086-0.506-0.232-0.010-0.064-0.025-0.551-0.032-1.084-0.011-0.822-0.025-1.026-0.089-1.349-0.078-0.391-0.119-0.612-0.178-0.962-0.057-0.334-0.201-0.747-0.275-0.786-0.055-0.029-0.077-0.020-0.123 0.050-0.108 0.165-0.011 0.952 0.283 2.303 0.058 0.264 0.056 0.573-0.008 1.682-0.012 0.211-0.012 0.425 0.001 0.475 0.028 0.112 0.151 0.178 0.42 0.227 0.113 0.020 0.3 0.084 0.414 0.14 0.191 0.094 0.244 0.104 0.649 0.116 0.519 0.016 0.553 0.001 0.616-0.259 0.052-0.214 0.028-0.962-0.050-1.62-0.067-0.561-0.085-0.841-0.108-1.661-0.030-1.095-0.078-1.646-0.182-2.111-0.045-0.201-0.056-0.405-0.051-0.9 0.007-0.592 0.017-0.69 0.141-1.298 0.153-0.748 0.173-1.144 0.066-1.307-0.089-0.136-0.157-0.116-0.237 0.071zM1.088 19.943c-0.115 0.085-0.609 1.040-0.758 1.468-0.093 0.267-0.214 0.812-0.243 1.1-0.010 0.095-0.034 0.217-0.054 0.27-0.082 0.215-0.003 0.901 0.154 1.338 0.141 0.392 0.534 1.145 0.658 1.263 0.020 0.019 0.080 0.093 0.132 0.164 0.152 0.208 0.378 0.415 0.651 0.598 0.14 0.093 0.358 0.267 0.486 0.387 0.261 0.244 0.381 0.279 0.449 0.131 0.112-0.246-0.28-0.81-1.014-1.457-0.392-0.346-0.657-0.9-0.808-1.692-0.062-0.325-0.073-1.157-0.019-1.436 0.020-0.104 0.045-0.237 0.055-0.294 0.048-0.277 0.156-0.651 0.266-0.916 0.171-0.415 0.275-0.747 0.262-0.835-0.014-0.094-0.139-0.145-0.217-0.088zM13.721 19.983c-0.082 0.082-0.217 0.546-0.267 0.917-0.046 0.343-0.056 1.579-0.019 2.191 0.012 0.194 0.030 0.508 0.040 0.698 0.101 1.882 0.262 2.624 0.813 3.738 0.169 0.343 0.312 0.662 0.318 0.709 0.011 0.101-0.029 0.104-0.335 0.020-0.113-0.031-0.273-0.056-0.354-0.056-0.288 0-0.709 0.216-0.875 0.448-0.104 0.146-0.13 0.352-0.054 0.428 0.092 0.092 0.172 0.070 0.37-0.101 0.101-0.088 0.239-0.183 0.306-0.212 0.163-0.070 0.445-0.041 0.717 0.073 0.118 0.050 0.255 0.091 0.304 0.091 0.132 0 0.416-0.157 0.502-0.277 0.152-0.214 0.028-0.62-0.549-1.802-0.508-1.038-0.649-1.826-0.602-3.351 0.050-1.603 0.031-2.198-0.101-3.16-0.047-0.341-0.114-0.453-0.213-0.354zM1.109 21.722c-0.017 0.034-0.043 0.146-0.057 0.251s-0.053 0.331-0.089 0.502c-0.125 0.606-0.118 1.094 0.017 1.119 0.096 0.019 0.123-0.055 0.124-0.341 0-0.142 0.047-0.535 0.103-0.873s0.094-0.637 0.083-0.666c-0.028-0.071-0.142-0.066-0.181 0.008zM4.559 22.561c-0.142 0.076-0.387 0.292-0.848 0.748-0.324 0.322-0.811 0.701-1.259 0.982-0.27 0.169-0.352 0.264-0.259 0.299 0.077 0.029 0.996-0.318 1.228-0.465 0.384-0.242 0.609-0.452 1.055-0.984 0.339-0.405 0.392-0.494 0.342-0.574-0.052-0.082-0.114-0.083-0.259-0.007zM18.205 23.4c-0.037 0.046-0.065 0.404-0.097 1.185-0.022 0.551-0.079 1.446-0.107 1.678-0.035 0.291-0.025 0.618 0.022 0.675 0.067 0.080 0.239 0.052 0.315-0.053 0.061-0.085 0.077-0.141 0.117-0.429 0.038-0.274 0.046-1.080 0.015-1.456-0.017-0.209-0.040-0.513-0.050-0.675s-0.026-0.417-0.036-0.567c-0.023-0.351-0.086-0.477-0.18-0.359zM0.968 23.838c-0.104 0.067 0.098 0.467 0.203 0.403 0.068-0.043 0.038-0.211-0.058-0.324-0.070-0.081-0.109-0.103-0.145-0.079zM3.284 26.729c-0.053 0.064-0.028 0.183 0.128 0.607 0.272 0.738 0.405 0.961 0.822 1.371 0.479 0.472 0.985 0.669 2.301 0.898 0.181 0.031 0.555 0.11 0.831 0.174s0.61 0.142 0.744 0.172c0.29 0.067 0.504 0.134 0.986 0.316 0.497 0.187 0.735 0.232 1.1 0.208 0.573-0.038 1.254-0.231 1.515-0.43 0.453-0.346 0.672-1.572 0.471-2.646-0.041-0.223-0.091-0.445-0.109-0.493-0.046-0.122-0.152-0.112-0.249 0.024-0.080 0.113-0.080 0.114-0.069 1.121 0.012 1.137 0.009 1.155-0.235 1.393-0.348 0.337-0.763 0.523-1.167 0.523-0.358 0-0.89-0.122-1.515-0.347-0.152-0.055-0.433-0.155-0.623-0.224-0.532-0.191-1.085-0.317-1.73-0.396-1.23-0.15-1.25-0.155-1.516-0.338-0.073-0.050-0.231-0.211-0.352-0.358s-0.285-0.335-0.364-0.418c-0.193-0.205-0.417-0.52-0.558-0.788-0.119-0.226-0.273-0.419-0.334-0.419-0.019 0-0.052 0.023-0.076 0.051zM17.921 27.466c-0.12 0.186-0.29 0.422-0.378 0.526-0.834 0.983-1.042 1.287-1.042 1.519 0 0.157 0.124 0.277 0.346 0.335 0.285 0.075 0.384 0.065 0.701-0.069 0.041-0.018 0.061-0.010 0.061 0.023 0 0.028 0.035 0.083 0.078 0.124 0.091 0.085 0.511 0.163 0.733 0.136 0.295-0.037 1.871-0.885 2.168-1.167 0.198-0.188 0.218-0.321 0.119-0.759-0.108-0.478-0.14-0.556-0.225-0.556-0.082 0-0.145 0.112-0.226 0.399-0.202 0.717-0.367 0.953-0.668 0.951-0.2-0.001-0.206-0.053-0.028-0.22 0.169-0.157 0.185-0.212 0.080-0.278-0.061-0.039-0.179 0.011-0.535 0.223-0.1 0.059-0.182 0.101-0.182 0.092s0.049-0.076 0.107-0.149c0.249-0.313 0.324-0.58 0.232-0.833-0.044-0.122-0.098-0.143-0.172-0.068-0.346 0.351-1.002 1.063-1.108 1.206-0.115 0.152-0.168 0.193-0.317 0.238-0.204 0.062-0.291 0.053-0.227-0.023 0.022-0.026 0.061-0.049 0.086-0.049s0.179-0.133 0.343-0.295c0.29-0.287 0.502-0.619 0.502-0.787 0-0.097-0.099-0.11-0.21-0.029-0.056 0.041-0.101 0.068-0.101 0.061s0.049-0.119 0.109-0.248c0.171-0.364 0.174-0.636 0.009-0.639-0.021-0.001-0.136 0.151-0.256 0.337zM4.242 27.208c-0.027 0.071 0.438 0.795 0.673 1.046 0.205 0.22 0.366 0.318 0.461 0.282 0.122-0.047 0.052-0.176-0.255-0.471-0.169-0.163-0.398-0.424-0.508-0.581s-0.212-0.286-0.226-0.286c-0.014 0-0.049-0.008-0.076-0.019s-0.059 0.002-0.069 0.029zM4.831 27.207c-0.017 0.049 0.244 0.441 0.312 0.466s0.147-0.056 0.121-0.123c-0.012-0.032-0.074-0.132-0.139-0.223-0.118-0.164-0.258-0.221-0.294-0.121z"></path>
</svg>
