<!-- Generated by IcoMoon.io -->
<svg version="1.1" xmlns="http://www.w3.org/2000/svg" width="26" height="32" viewBox="0 0 26 32">
<path d="M3.574 11.573c-0.143-0.107-0.303-0.16-0.463-0.208-0.232-0.065-0.463-0.143-0.713-0.131-0.042 0-0.083-0.012-0.119-0.060 0.095-0.053 0.19-0.048 0.285-0.053 0.38 0 0.678-0.172 0.944-0.422 0.28-0.261 0.482-0.588 0.671-0.915 0.184-0.321 0.345-0.653 0.463-1.003 0.012-0.041 0.030-0.083 0.054-0.125 0.048-0.077 0.113-0.071 0.172 0 0.083 0.107 0.101 0.238 0.131 0.363 0.065 0.291 0.172 0.57 0.291 0.843 0.012 0.030 0.024 0.065 0.053 0.083 0.095-0.065 0.167-0.154 0.25-0.231 0.374-0.333 0.79-0.606 1.23-0.855 0.6-0.338 1.235-0.612 1.889-0.832 0.57-0.19 1.152-0.35 1.746-0.469 0.089-0.018 0.131-0.018 0.202-0.065s0.143-0.178 0.196-0.249c0.167-0.226 0.368-0.422 0.588-0.594 0.178-0.143 0.38-0.255 0.612-0.291 0.077-0.012 0.155-0.018 0.232-0.018 0.19 0 0.38-0.018 0.57-0.012 0.011 0 0.048-0.813 0.029-1.211-0.018-0.487-0.024-0.968-0.018-1.455 0-0.314 0.012-0.623 0.030-0.938 0.018-0.291 0.030-0.582 0.042-0.867 0.018-0.344 0.041-0.688 0.065-1.033 0.012-0.196 0.048-0.41 0.060-0.469s0.048-0.255 0.071-0.332c0-0.018 0.089-0.024 0.113-0.024s0.16 0.024 0.167 0.042c0.065 0.314 0.029 0.612 0.006 0.938-0.024 0.279-0.030 0.558-0.048 0.837-0.024 0.368-0.060 0.736-0.083 1.098-0.030 0.427-0.065 0.855-0.077 1.282-0.006 0.291 0 0.582-0.024 0.873-0.018 0.315-0.048 1.152-0.053 1.259 0.119 0.006 0.25 0.006 0.386 0.024 0.232 0.030 0.463 0 0.689 0.035 0.089 0.018 0.184 0.035 0.273 0.053 0.22 0.048 0.398 0.155 0.547 0.327 0.143 0.167 0.303 0.309 0.41 0.505 0.024 0.041 0.048 0.083 0.042 0.136s0.012 0.072 0.065 0.083c0.351 0.072 0.677 0.19 1.010 0.327 0.131 0.053 0.273 0.077 0.41 0.113 0.469 0.124 0.915 0.32 1.355 0.517 1.111 0.498 2.109 1.175 3.018 1.983 0.956 0.849 1.77 1.812 2.418 2.91 0.517 0.879 0.939 1.793 1.206 2.779 0.054 0.19 0.095 0.38 0.131 0.576 0.036 0.214 0.107 0.416 0.137 0.636s0.060 0.439 0.083 0.665c0.042 0.368 0.072 0.737 0.083 1.098 0.012 0.374 0.018 0.754-0.006 1.128-0.012 0.172-0.018 0.351-0.030 0.522-0.053 0.683-0.148 1.36-0.309 2.025-0.202 0.837-0.458 1.651-0.814 2.434-0.060 0.131-0.119 0.267-0.184 0.392-0.023 0.041-0.012 0.065 0.024 0.089 0.326 0.238 0.689 0.38 1.093 0.422 0.113 0.012 0.22 0.024 0.327 0.060 0.023 0.006 0.041 0.012 0.059 0.024 0.030 0.023 0.024 0.053-0.012 0.071-0.018 0.006-0.042 0.012-0.065 0.018-0.63 0.155-1.182 0.446-1.663 0.879-0.428 0.392-0.761 0.849-0.945 1.401-0.071 0.208-0.166 0.404-0.219 0.618 0 0.018-0.018 0.035-0.036 0.035-0.029 0-0.029-0.024-0.035-0.048-0.018-0.054-0.012-0.113-0.012-0.167 0-0.285-0.16-0.748-0.344-0.974-0.065 0.072-0.125 0.143-0.19 0.214-0.148 0.172-0.326 0.321-0.481 0.481-0.327 0.326-0.713 0.576-1.075 0.855-0.927 0.725-1.966 1.235-3.054 1.651-0.642 0.243-1.306 0.392-1.978 0.517-0.553 0.101-1.105 0.167-1.657 0.22-0.255 0.023-0.511 0.035-0.772 0.035-0.273 0-0.547-0.041-0.826-0.059-1.052-0.072-2.049-0.368-3.048-0.677-0.065-0.018-0.125-0.042-0.19-0.065-0.041-0.012-0.077-0.042-0.119 0.012-0.024 0.030-0.095 0.012-0.113-0.035-0.024-0.071-0.083-0.089-0.143-0.113-0.677-0.249-1.307-0.6-1.925-0.968-0.267-0.16-0.534-0.326-0.79-0.51-0.053-0.042-0.125-0.030-0.172-0.060s-0.048-0.101-0.101-0.137c-0.41-0.302-0.784-0.647-1.147-0.997-0.267-0.255-0.529-0.517-0.784-0.784-0.428-0.451-0.82-0.926-1.14-1.455-0.143-0.231-0.309-0.439-0.446-0.671-0.463-0.754-0.808-1.561-1.069-2.405-0.184-0.582-0.303-1.182-0.41-1.781-0.065-0.38-0.125-0.766-0.148-1.152-0.018-0.291-0.042-0.588-0.018-0.885 0.018-0.202 0.018-0.41 0.030-0.612 0.035-0.475 0.095-0.944 0.184-1.413 0.16-0.837 0.398-1.657 0.731-2.447 0.065-0.16 0.137-0.314 0.226-0.463 0.196-0.332 0.345-0.688 0.546-1.015 0.327-0.522 0.678-1.027 1.093-1.478 0.095-0.107 0.196-0.202 0.309-0.297zM18.912 20.504c0.036 0.035 0.042 0.072 0.042 0.101 0.030 0.386 0.060 0.772 0.089 1.158 0.006 0.095 0 0.101 0.101 0.095 0.184 0 0.374-0.012 0.558-0.023 0.315-0.018 0.624-0.042 0.939-0.065 0.351-0.024 0.695-0.054 1.045-0.089 0.048 0 0.065-0.012 0.072-0.065 0-0.065 0.012-0.125 0.018-0.19 0.018-0.219 0.030-0.445 0.053-0.665 0.030-0.273 0.042-0.54 0.053-0.813 0.018-0.267 0.024-0.535 0.030-0.802 0.006-0.434 0.006-0.867 0-1.301 0-0.053-0.023-0.071-0.071-0.077-0.072 0-0.149-0.018-0.22-0.024-0.315-0.035-0.629-0.071-0.944-0.095-0.327-0.030-0.654-0.048-0.98-0.077-0.172-0.012-0.351-0.023-0.523-0.035-0.048 0-0.077 0.006-0.083 0.065 0 0.065-0.006 0.125-0.018 0.19-0.029 0.25-0.059 0.493-0.089 0.742 0 0.024 0 0.053-0.042 0.053-0.018-0.029-0.023-0.059-0.030-0.095-0.035-0.297-0.077-0.6-0.113-0.896-0.006-0.060-0.023-0.083-0.083-0.083-0.243-0.012-0.481-0.030-0.725-0.048-0.285-0.018-0.57-0.042-0.856-0.060-0.273-0.018-0.552-0.035-0.825-0.053-0.232-0.012-0.47-0.024-0.701-0.035-0.018 0.018-0.018 0.035-0.018 0.053 0 0.107 0.006 0.22 0 0.326-0.024 0.279-0.012 0.558-0.036 0.837-0.018 0.202-0.018 0.41-0.048 0.612 0 0.023 0 0.048-0.029 0.048-0.024 0-0.042-0.012-0.054-0.030-0.030-0.042-0.024-0.095-0.024-0.143 0-0.505 0-1.009-0.006-1.508 0-0.048-0.006-0.089-0.011-0.131 0-0.060-0.036-0.072-0.089-0.072-0.273 0-0.553-0.018-0.826-0.023-0.446-0.006-0.897-0.012-1.342-0.012-0.451 0-0.903 0.006-1.354 0.012-0.285 0-0.576 0.006-0.861 0.012-0.036 0-0.072 0.006-0.113 0.012-0.042 0-0.060 0.024-0.060 0.065 0 0.107-0.018 0.214-0.018 0.321-0.012 0.255-0.012 0.505-0.018 0.76-0.018 0.564-0.006 1.128-0.024 1.687-0.012 0.445 0 0.896-0.024 1.342 0 0.089 0 0.178 0 0.267 0 0.060 0.024 0.077 0.077 0.077 0.059 0 0.119 0 0.178 0 0.392 0.012 0.784 0.030 1.17 0.042 0.321 0.012 0.642 0.012 0.962 0.023 0.178 0.006 0.351 0 0.529 0.012 0.541 0.018 1.081 0.023 1.622 0.018 0.083 0 0.077 0 0.089-0.089 0.048-0.493 0.095-0.992 0.143-1.485 0-0.054 0-0.119 0.042-0.172 0.030 0.053 0.036 0.101 0.036 0.148 0 0.172 0.012 0.351 0.024 0.522 0.018 0.321 0.024 0.648 0.029 0.974 0 0.113 0 0.107 0.113 0.107 0 0 0.006 0 0.012 0 0.606 0 1.218 0 1.824-0.018 0.363-0.012 0.731-0.023 1.093-0.023 0.023 0 0.053 0 0.077 0 0.053 0 0.077-0.030 0.083-0.083 0.035-0.386 0.077-0.772 0.113-1.152 0-0.041 0.012-0.089 0.035-0.136zM5.516 29.049c0-0.035-0.006-0.048-0.012-0.065-0.16-0.48-0.303-0.974-0.422-1.473-0.012-0.048-0.035-0.065-0.077-0.083-0.208-0.089-0.422-0.172-0.629-0.261-0.018-0.006-0.042-0.018-0.060-0.024-0.012 0-0.018-0.012-0.018-0.023 0-0.018 0.018-0.024 0.030-0.024 0.048 0.006 0.095 0.018 0.143 0.030 0.178 0.042 0.351 0.083 0.522 0.125 0.018-0.035 0.006-0.060 0-0.083-0.131-0.576-0.267-1.152-0.368-1.734-0.011-0.077-0.048-0.101-0.119-0.124-0.309-0.095-0.612-0.19-0.915-0.285-0.024-0.006-0.060-0.012-0.072-0.042 0.024-0.035 0.060-0.018 0.089-0.018 0.208 0.024 0.416 0.054 0.617 0.077 0.107 0.012 0.214 0.042 0.327 0.024-0.053-0.327-0.095-0.654-0.125-0.98-0.030-0.321-0.042-0.647-0.048-0.968 0-0.321 0-0.647 0.030-0.991 0.048 0.071 0.048 0.124 0.053 0.178 0.042 0.279 0.083 0.558 0.131 0.837 0.054 0.357 0.107 0.713 0.137 1.075 0.024 0.273 0.060 0.546 0.089 0.82 0.006 0.065 0.035 0.089 0.095 0.095 0.101 0.012 0.202 0.023 0.297 0.041 0.511 0.089 1.027 0.178 1.538 0.267 0.137 0.023 0.279 0.041 0.422 0.065 0.060 0.006 0.065 0 0.060-0.060 0-0.012-0.006-0.030-0.012-0.041-0.024-0.167-0.054-0.338-0.072-0.511-0.018-0.255-0.011-0.517 0-0.772 0-0.023 0-0.053 0.024-0.071 0.041 0.018 0.041 0.059 0.048 0.095 0.060 0.19 0.113 0.38 0.166 0.57 0.072 0.249 0.107 0.511 0.148 0.766 0.012 0.060 0.030 0.077 0.089 0.089 0.368 0.048 0.737 0.089 1.111 0.119 0.321 0.030 0.635 0.048 0.956 0.072 0.25 0.018 0.499 0.029 0.749 0.035 0.113 0 0.113 0.006 0.125-0.101 0 0 0.012-0.006 0.018-0.012 0.018 0 0.024 0.018 0.024 0.030 0.024 0.107 0.036 0.089 0.119 0.089 0.261 0.006 0.523 0.018 0.784 0.024 0.844 0 1.687 0.012 2.531-0.030 0.303-0.018 0.612-0.030 0.915-0.048 0.048 0 0.065-0.024 0.065-0.065 0.012-0.19 0.030-0.38 0.042-0.57 0.011-0.196 0.018-0.386 0.029-0.582 0.018-0.309 0.042-0.618 0.060-0.927 0.012-0.184 0.018-0.374 0.030-0.558 0.012-0.238 0.024-0.475 0.042-0.713 0.006-0.095-0.018-0.083-0.084-0.083-0.113 0-0.226 0.006-0.332 0.012-0.743 0-1.485-0.012-2.228-0.023-0.326 0-0.647 0-0.974-0.018-0.208-0.006-0.416 0-0.624-0.018-0.095-0.012-0.196 0-0.291 0-0.036 0-0.053 0.012-0.053 0.054 0 0.124-0.012 0.243-0.012 0.368-0.006 0.267-0.012 0.535-0.024 0.808-0.011 0.398-0.011 0.796-0.024 1.194 0 0.089-0.024 0.178 0 0.267 0.006 0.030-0.018 0.060-0.053 0.060-0.042 0-0.048-0.024-0.048-0.060 0-0.018 0-0.035 0-0.053 0-0.095 0-0.196 0-0.291-0.024-0.309-0.024-0.618-0.036-0.927-0.018-0.445-0.018-0.896-0.024-1.342 0-0.006 0-0.018 0-0.023 0-0.048-0.024-0.065-0.065-0.065-0.113 0-0.226-0.012-0.333-0.012-0.255 0-0.505-0.012-0.761-0.024-0.291-0.012-0.588-0.029-0.879-0.041-0.184-0.012-0.374-0.018-0.558-0.030-0.291-0.018-0.576-0.035-0.861-0.053-0.018 0.030-0.011 0.053-0.006 0.083 0.035 0.297 0.065 0.588 0.101 0.885 0.006 0.065 0.006 0.136 0 0.202 0 0.024-0.018 0.053-0.048 0.048-0.029 0-0.048-0.018-0.048-0.053 0-0.024 0-0.048 0-0.065 0-0.060-0.006-0.119-0.018-0.178-0.041-0.285-0.083-0.564-0.119-0.849-0.006-0.065-0.030-0.083-0.095-0.089-0.38-0.030-0.754-0.065-1.135-0.107-0.517-0.053-1.027-0.119-1.538-0.196-0.44-0.072-0.873-0.137-1.307-0.243-0.167-0.042-0.338-0.089-0.505-0.131-0.018 0.023-0.012 0.048-0.012 0.071 0.030 0.279 0.054 0.552 0.084 0.832 0.041 0.397 0.101 0.796 0.166 1.193 0.107 0.612 0.232 1.223 0.375 1.823 0.124 0.523 0.249 1.051 0.427 1.562 0.018 0.053 0.042 0.101 0.077 0.148 0.172 0.202 0.345 0.398 0.535 0.588 0.374 0.386 0.754 0.766 1.152 1.122 0.143 0.131 0.291 0.255 0.463 0.386zM6.99 16.96c0.083 0 0.155 0 0.226 0 0.434-0.024 0.873-0.054 1.307-0.065 0.458-0.012 0.915-0.036 1.378-0.036 0.155 0 0.315-0.012 0.47-0.012 0.053 0 0.083-0.012 0.083-0.072 0-0.226 0.024-0.451 0.042-0.677 0.024-0.356 0.053-0.712 0.089-1.069 0.036-0.351 0.065-0.695 0.113-1.039 0.006-0.060-0.011-0.083-0.071-0.083-0.107-0.012-0.214-0.024-0.321-0.042-0.030 0-0.077 0-0.083-0.036 0-0.042 0.041-0.042 0.077-0.048 0.107-0.024 0.214-0.048 0.315-0.065 0.107-0.024 0.113-0.018 0.125-0.131 0.018-0.149 0.030-0.297 0.048-0.446 0.041-0.326 0.077-0.647 0.119-0.974 0.054-0.398 0.101-0.796 0.16-1.194 0.006-0.053 0-0.065-0.053-0.065-0.285 0.024-0.57 0.041-0.856 0.059s-0.57 0.054-0.861 0.048c-0.214 0-0.422-0.011-0.636-0.024-0.155-0.006-0.303-0.018-0.458-0.030-0.030 0-0.083 0.012-0.083-0.030s0.048-0.041 0.077-0.048c0.261-0.071 0.529-0.136 0.79-0.208 0.273-0.071 0.546-0.124 0.826-0.142 0.416-0.030 0.832-0.072 1.247-0.077 0.083 0 0.083-0.006 0.095-0.089 0.071-0.457 0.148-0.914 0.231-1.372 0.012-0.077 0.006-0.083-0.071-0.077-0.374 0.029-0.749 0.077-1.117 0.136-0.57 0.095-1.135 0.22-1.687 0.374-0.048 0.012-0.077 0.036-0.089 0.083-0.018 0.065-0.042 0.137-0.060 0.202-0.196 0.642-0.338 1.294-0.493 1.948-0.053 0.237-0.113 0.469-0.148 0.712 0 0.030-0.024 0.065 0.024 0.083 0.053 0.024 0.071 0.071 0.083 0.125 0.048 0.154 0.089 0.309 0.148 0.457 0.119 0.291 0.303 0.51 0.624 0.588 0.095 0.024 0.184 0.072 0.267 0.137 0.030 0.024 0.036 0.048 0 0.071-0.048 0.030-0.095 0.060-0.149 0.077-0.321 0.107-0.588 0.297-0.795 0.552-0.167 0.208-0.297 0.434-0.345 0.707-0.012 0.060-0.006 0.119-0.030 0.172-0.018 0.047-0.048 0.059-0.083 0.029-0.053-0.048-0.095-0.095-0.089-0.172 0-0.030 0-0.060-0.011-0.083-0.030-0.065-0.042-0.137-0.065-0.202-0.012-0.048-0.024-0.095-0.072-0.154-0.083 0.742-0.178 1.466-0.231 2.191zM7.31 11.099c-0.178 0.136-0.327 0.261-0.511 0.332-0.279 0.107-0.54 0.243-0.778 0.434-0.345 0.279-0.636 0.606-0.879 0.98-0.178 0.267-0.351 0.534-0.392 0.867-0.030 0.226-0.071 0.451-0.113 0.683 0.018 0 0.024 0.006 0.035 0.006 0.262-0.041 0.523-0.053 0.79-0.065 0.148 0 0.297-0.036 0.446-0.024 0.107 0.006 0.208 0.011 0.327 0.071-0.143 0.065-0.273 0.113-0.41 0.125-0.392 0.036-0.778 0.095-1.164 0.143-0.066 0.006-0.089 0.029-0.095 0.095-0.060 0.368-0.113 0.737-0.155 1.105-0.048 0.422-0.065 0.843-0.095 1.271 0 0.089 0 0.083 0.083 0.077 0.279-0.030 0.565-0.071 0.844-0.095 0.422-0.035 0.837-0.065 1.259-0.101 0.077 0 0.178 0.024 0.226-0.035 0.048-0.053 0.024-0.148 0.030-0.226 0.035-0.434 0.077-0.867 0.136-1.294 0.036-0.267 0.065-0.541 0.137-0.802 0.030-0.107 0-0.172-0.077-0.243-0.19-0.178-0.398-0.314-0.641-0.392-0.048-0.018-0.083-0.042-0.119-0.083-0.018-0.024-0.011-0.042 0.018-0.048 0.024 0 0.048 0 0.065 0 0.154-0.012 0.309-0.042 0.446-0.131 0.101-0.072 0.184-0.16 0.267-0.255 0.214-0.255 0.386-0.541 0.523-0.843 0.030-0.065 0.089-0.113 0.113-0.178 0.018-0.065 0.006-0.143 0.012-0.214 0.030-0.297 0.077-0.6 0.125-0.896 0.077-0.517 0.172-1.033 0.309-1.544 0.024-0.089 0.048-0.178 0.065-0.267-0.048-0.012-0.077 0-0.107 0.006-0.427 0.095-0.855 0.148-1.289 0.214-0.030 0-0.065 0.024-0.077-0.012s0.030-0.041 0.053-0.059c0.006 0 0.012-0.006 0.018-0.012 0.499-0.243 0.986-0.517 1.521-0.671 0.036-0.012 0.060-0.024 0.072-0.060 0.053-0.172 0.107-0.345 0.148-0.523-0.041-0.011-0.071 0.006-0.101 0.018-0.155 0.059-0.315 0.119-0.469 0.178-0.873 0.356-1.687 0.808-2.424 1.395-0.072 0.060-0.072 0.060-0.018 0.131 0.249 0.333 0.564 0.594 0.95 0.76 0.107 0.048 0.214 0.060 0.327 0.065 0.048 0 0.095 0 0.143 0 0.143 0.012 0.279 0.042 0.427 0.113zM4.019 17.785c-0.059 0-0.101 0-0.143 0.006-0.416 0.060-0.832 0.083-1.247 0.101-0.143 0.006-0.285 0.018-0.422 0.024-0.053 0-0.083 0.018-0.083 0.077 0 0.237-0.018 0.469-0.018 0.706 0 0.214 0 0.428 0.011 0.636 0.012 0.202 0.012 0.404 0.024 0.605 0.018 0.321 0.042 0.642 0.053 0.956 0 0.107 0.018 0.119 0.125 0.131 0.374 0.023 0.749 0.077 1.117 0.136 1.052 0.184 2.109 0.314 3.166 0.41 0.202 0.018 0.167 0.018 0.148-0.148-0.041-0.434-0.059-0.867-0.077-1.3-0.018-0.576-0.006-1.146 0-1.722 0-0.030 0-0.060 0-0.089 0.018-0.243 0.006-0.493 0.029-0.736 0.006-0.065-0.011-0.077-0.077-0.072-0.143 0.012-0.292 0.018-0.434 0.036-0.445 0.041-0.897 0.089-1.342 0.131-0.166 0.018-0.332 0.041-0.499 0.059-0.053 0-0.077 0.024-0.077 0.084 0 0.065 0 0.136-0.006 0.202-0.024 0.321-0.035 0.647-0.035 0.974 0 0.089 0 0.178 0 0.267 0 0.338-0.006 0.677 0.018 1.015 0.018 0.219-0.018 0.439 0.006 0.659 0 0.023-0.006 0.035-0.030 0.035-0.011 0-0.029-0.006-0.035-0.024-0.012-0.041-0.018-0.089-0.024-0.131-0.036-0.267-0.048-0.54-0.072-0.813-0.030-0.363-0.048-0.719-0.059-1.081-0.012-0.315-0.006-0.629-0.012-0.938 0-0.065 0-0.125 0-0.196zM6.871 20.071c0.012 0.303-0.012 0.606 0.012 0.903 0.011 0.184 0.011 0.374 0.024 0.558 0 0.053 0.018 0.077 0.077 0.077 0.113 0 0.226 0.012 0.333 0.023 0.368 0.035 0.737 0.053 1.105 0.077 0.226 0.012 0.446 0.018 0.671 0.035 0.422 0.030 0.849 0.035 1.271 0.060 0.054 0 0.066-0.024 0.060-0.065 0-0.083-0.012-0.167-0.012-0.243 0-0.582-0.011-1.164-0.024-1.746-0.006-0.552 0-1.104 0-1.656 0-0.042 0-0.083 0-0.125 0.024-0.196 0.006-0.386 0.018-0.582 0-0.077 0-0.083-0.077-0.083-0.166 0-0.326 0.006-0.493 0.012-0.202 0.006-0.41 0.018-0.612 0.023-0.273 0.012-0.552 0.030-0.826 0.042-0.214 0.012-0.434 0.023-0.647 0.035-0.202 0.012-0.404 0.023-0.6 0.041-0.238 0.024-0.184-0.029-0.208 0.214-0.018 0.19-0.018 0.38-0.030 0.57-0.011 0.362-0.029 0.73-0.041 1.093-0.006 0.243 0 0.487 0 0.725zM10.774 16.835c0.042 0.018 0.072 0.012 0.101 0.012 0.547 0 1.087 0 1.634 0 0.255 0 0.505 0.006 0.76 0.012 0.452 0.012 0.909 0.030 1.36 0.042 0.196 0.006 0.392 0.018 0.595 0.030 0.036 0 0.065 0 0.101 0s0.053-0.018 0.053-0.054c0-0.065-0.012-0.124-0.012-0.19 0-0.285-0.029-0.564-0.053-0.849-0.024-0.321-0.060-0.635-0.089-0.956-0.024-0.231-0.042-0.463-0.066-0.701 0-0.047-0.011-0.077-0.071-0.077-0.143 0-0.291-0.018-0.434-0.024-0.196-0.006-0.392-0.018-0.594-0.024-0.386-0.012-0.766-0.036-1.152-0.042s-0.778-0.006-1.164-0.012c-0.030 0-0.060 0-0.089-0.006-0.184-0.006-0.363-0.024-0.546-0.048-0.048-0.006-0.077 0.012-0.077 0.065-0.006 0.083-0.018 0.172-0.030 0.255-0.030 0.291-0.059 0.582-0.095 0.873-0.041 0.374-0.071 0.748-0.101 1.123-0.018 0.184-0.024 0.368-0.042 0.558zM18.567 22.149c-0.089 0-0.16 0.006-0.238 0.012-0.392 0.018-0.784 0.035-1.17 0.048-0.363 0.012-0.731 0.012-1.093 0.023-0.143 0-0.285 0.012-0.427 0.006-0.060 0-0.077 0.018-0.077 0.077 0 0.291 0 0.582-0.024 0.873-0.011 0.22-0.018 0.44-0.030 0.659-0.018 0.285-0.036 0.57-0.059 0.855-0.012 0.178-0.030 0.356-0.042 0.534-0.012 0.131-0.018 0.267-0.030 0.398 0 0.048 0.012 0.071 0.060 0.065 0.018 0 0.036 0 0.053 0 0.244-0.018 0.481-0.042 0.725-0.065 0.351-0.035 0.701-0.065 1.057-0.107 0.38-0.041 0.76-0.095 1.14-0.154 0.054-0.006 0.083-0.024 0.089-0.089 0.023-0.267 0.053-0.534 0.077-0.796 0.035-0.38 0.065-0.754 0.089-1.134 0.024-0.345 0.042-0.689 0.054-1.040 0-0.053 0.048-0.119 0-0.16-0.042-0.041-0.107 0-0.149 0zM12.645 10.867c-0.368-0.011-0.737 0-1.105 0.012-0.053 0-0.077 0.018-0.083 0.077-0.030 0.249-0.072 0.499-0.107 0.748-0.048 0.356-0.101 0.712-0.148 1.069-0.036 0.25-0.065 0.493-0.095 0.742-0.012 0.095-0.006 0.095 0.083 0.083 0.243-0.036 0.487-0.065 0.737-0.059 0.333 0 0.671 0 1.004 0.024 0.261 0.018 0.529 0.018 0.79 0.036 0.439 0.030 0.885 0.065 1.324 0.095 0.066 0 0.072 0 0.066-0.065 0-0.071-0.012-0.148-0.018-0.219-0.018-0.273-0.036-0.541-0.048-0.814-0.018-0.291-0.029-0.582-0.041-0.867-0.012-0.238-0.024-0.475-0.030-0.713 0-0.047-0.018-0.071-0.072-0.077-0.463-0.018-0.927-0.048-1.396-0.065-0.285-0.012-0.576 0-0.861 0zM12.075 26.163c-0.089 0-0.179 0-0.267 0-0.327-0.012-0.653 0-0.986-0.012-0.101 0-0.101 0-0.083 0.095 0.119 0.605 0.178 1.211 0.231 1.823 0.012 0.131 0.024 0.261 0.042 0.386 0.012 0.089 0.012 0.089 0.101 0.095 0.499 0.041 1.004 0.071 1.503 0.089 0.57 0.018 1.141 0.018 1.711 0 0.119 0 0.238-0.012 0.357-0.018 0.113-0.012 0.113-0.012 0.119-0.131 0.012-0.19 0.030-0.386 0.048-0.576 0.036-0.356 0.072-0.712 0.101-1.063 0.024-0.231 0.036-0.469 0.054-0.7 0.006-0.089 0.006-0.095-0.083-0.089-0.184 0.012-0.363 0.018-0.547 0.036-0.351 0.029-0.707 0.041-1.057 0.053-0.416 0.018-0.825 0.012-1.241 0.018zM18.538 28.111c0.018 0.012 0.035 0 0.053 0 0.392-0.089 0.784-0.172 1.171-0.291 0.321-0.101 0.635-0.214 0.962-0.291 0.048-0.012 0.065-0.035 0.077-0.077 0.041-0.184 0.089-0.368 0.136-0.552 0.035-0.154 0.065-0.131-0.101-0.196-0.297-0.131-0.612-0.214-0.939-0.249-0.107-0.012-0.214-0.054-0.309-0.107 0.030-0.048 0.071-0.053 0.107-0.065 0.41-0.148 0.802-0.338 1.182-0.552 0.51-0.291 0.962-0.654 1.271-1.17 0.006-0.012 0.018-0.023 0.024-0.035 0.136-0.16 0.219-0.351 0.297-0.546 0.060-0.16 0.101-0.314 0.060-0.493-0.024-0.113 0-0.232 0.048-0.368 0.089 0.136 0.154 0.255 0.19 0.392 0.053 0.208 0.107 0.416 0.166 0.629 0.024 0.083 0.024 0.083 0.107 0.072 0.178-0.030 0.351-0.060 0.529-0.083 0.042-0.006 0.048-0.036 0.053-0.072 0.012-0.22 0.024-0.439 0.042-0.659 0.012-0.154 0.012-0.302 0.035-0.457 0.053-0.38 0.119-0.766 0.155-1.152 0.006-0.060 0.018-0.125 0.012-0.19-0.018 0-0.030-0.006-0.036 0-0.552 0.101-1.105 0.184-1.657 0.249-0.077 0.012-0.084 0.018-0.089 0.101-0.042 0.397-0.095 0.789-0.16 1.182-0.077 0.499-0.166 0.991-0.321 1.473-0.006 0.030-0.030 0.053-0.006 0.089 0.137-0.023 0.274-0.047 0.416-0.065 0.018 0 0.041-0.012 0.047 0.012s0 0.042-0.023 0.060c-0.030 0.018-0.060 0.035-0.089 0.041-0.089 0.024-0.178 0.060-0.267 0.072-0.119 0.018-0.178 0.077-0.202 0.196-0.018 0.083-0.042 0.172-0.089 0.243-0.029-0.006-0.029-0.023-0.029-0.048 0-0.060 0-0.119 0.012-0.178 0.012-0.107 0.012-0.131-0.107-0.095-0.773 0.238-1.545 0.457-2.329 0.624-0.095 0.018-0.095 0.023-0.101 0.113-0.024 0.249-0.048 0.499-0.077 0.742-0.065 0.54-0.113 1.087-0.196 1.627 0 0.029-0.012 0.059 0 0.089zM2.333 15.237c-0.054 0-0.089 0.024-0.125 0.036-0.214 0.072-0.416 0.184-0.648 0.22-0.077 0.011-0.113 0.041-0.136 0.119-0.143 0.457-0.28 0.92-0.38 1.389-0.125 0.582-0.202 1.164-0.249 1.752-0.018 0.202-0.018 0.404-0.036 0.6-0.023 0.321 0 0.642 0.018 0.962 0.018 0.351 0.066 0.695 0.125 1.040 0.077 0.475 0.155 0.95 0.273 1.413 0.255 0.992 0.624 1.936 1.147 2.815 0.16 0.273 0.327 0.546 0.529 0.79 0.072 0.083 0.148 0.166 0.226 0.249-0.065-0.214-0.136-0.416-0.196-0.624-0.279-0.926-0.511-1.859-0.695-2.809-0.119-0.623-0.208-1.247-0.255-1.876 0-0.059-0.024-0.083-0.077-0.101-0.214-0.060-0.422-0.131-0.63-0.196-0.036-0.012-0.071-0.012-0.095-0.060 0.060-0.030 0.113-0.012 0.167-0.012 0.154 0.012 0.309 0.030 0.469 0.042 0.048 0 0.101 0.030 0.137-0.006 0.030-0.030 0-0.077 0-0.119-0.012-0.303-0.036-0.612-0.042-0.914-0.006-0.505-0.012-1.015 0.018-1.521 0.006-0.136 0.018-0.267 0.024-0.404 0-0.048 0.006-0.095-0.065-0.083-0.018 0-0.042 0-0.048-0.023 0-0.030 0.018-0.042 0.036-0.048 0.083-0.018 0.101-0.077 0.095-0.148 0-0.030 0.012-0.060 0.012-0.089 0.059-0.659 0.184-1.3 0.309-1.947 0.030-0.143 0.053-0.291 0.083-0.446zM22.821 12.434c-0.012 0.036 0 0.048 0 0.065 0.184 0.582 0.345 1.164 0.511 1.746 0.065 0.231 0.131 0.469 0.196 0.7 0.012 0.041 0.018 0.083 0.077 0.101 0.19 0.048 0.375 0.131 0.576 0.131 0.012 0 0.030 0 0.035 0.024-0.006 0.011-0.029 0.018-0.048 0.018-0.196 0.024-0.38-0.048-0.57-0.077-0.018 0.042 0 0.077 0.012 0.113 0.231 0.903 0.445 1.805 0.564 2.731 0 0.035 0.006 0.060 0.053 0.065 0.035 0 0.035 0.035 0.012 0.048-0.060 0.035-0.042 0.083-0.035 0.137 0.030 0.273 0.053 0.546 0.071 0.819 0.018 0.244 0.024 0.493 0.030 0.737 0.012 0.428 0 0.855-0.042 1.282-0.006 0.095-0.012 0.19-0.012 0.279 0.035 0.012 0.059 0 0.083 0s0.053-0.012 0.065 0.018c0.018 0.035 0.006 0.065-0.018 0.089-0.018 0.018-0.048 0.030-0.072 0.030-0.071 0-0.089 0.048-0.095 0.113-0.012 0.184-0.041 0.368-0.065 0.552-0.071 0.594-0.214 1.164-0.422 1.722-0.024 0.071-0.048 0.137-0.071 0.214 0.059 0 0.113 0 0.166 0 0.131-0.012 0.261-0.030 0.386-0.041 0.035 0 0.072 0 0.083 0.041s-0.012 0.072-0.048 0.089c-0.041 0.018-0.083 0.030-0.125 0.041-0.326 0.084-0.665 0.137-0.992 0.226-0.089 0.024-0.089 0.018-0.053 0.101 0.166 0.386 0.469 0.665 0.772 0.956 0.077-0.166 0.16-0.321 0.232-0.481 0.238-0.522 0.422-1.057 0.57-1.609 0.202-0.748 0.351-1.508 0.404-2.28 0.023-0.303 0.041-0.6 0.048-0.903 0.006-0.594 0.018-1.194-0.018-1.787-0.018-0.309-0.042-0.624-0.065-0.932-0.018-0.196-0.042-0.392-0.084-0.582-0.077-0.356-0.202-0.701-0.314-1.045-0.351-1.104-0.885-2.126-1.539-3.076-0.083-0.125-0.166-0.244-0.273-0.363zM15.46 14.151c0.018 0.196 0.036 0.38 0.042 0.57 0.018 0.351 0.048 0.707 0.065 1.057 0.012 0.291 0.036 0.588 0.024 0.879 0 0.077 0 0.154 0 0.238 0 0.047 0.011 0.065 0.065 0.071 0.172 0.006 0.344 0.018 0.511 0.035 0.392 0.030 0.784 0.065 1.176 0.101 0.446 0.042 0.891 0.084 1.331 0.125 0.077 0.006 0.077 0.006 0.077-0.077 0-0.166-0.012-0.326-0.018-0.493-0.018-0.315-0.041-0.629-0.071-0.944-0.035-0.404-0.083-0.808-0.137-1.205-0.012-0.095 0-0.095-0.107-0.107-0.291-0.030-0.582-0.053-0.879-0.083-0.458-0.042-0.909-0.083-1.367-0.119-0.238-0.018-0.475-0.042-0.725-0.048zM15.069 28.586c0.053 0.023 0.101 0.012 0.148 0.012 0.262-0.023 0.529-0.041 0.79-0.071 0.683-0.071 1.366-0.172 2.044-0.303 0.172-0.035 0.172-0.035 0.19-0.202 0.054-0.481 0.095-0.962 0.137-1.443 0.030-0.291 0.053-0.582 0.083-0.879 0-0.053 0-0.065-0.060-0.060-0.012 0-0.023 0-0.035 0-0.808 0.149-1.621 0.243-2.435 0.327-0.172 0.018-0.351 0.035-0.523 0.047-0.048 0-0.071 0.018-0.077 0.072-0.030 0.314-0.059 0.629-0.089 0.944-0.024 0.238-0.054 0.481-0.084 0.719-0.029 0.279-0.059 0.552-0.095 0.831zM15.33 10.974c0.018 0.196 0.012 0.374 0.018 0.552 0.018 0.434 0.030 0.861 0.048 1.294 0.012 0.226 0.018 0.446 0.030 0.671 0 0.065 0 0.125 0.012 0.19 0.006 0.041 0.018 0.053 0.060 0.059 0.107 0.006 0.214 0.024 0.321 0.036 0.576 0.060 1.147 0.131 1.716 0.202 0.285 0.036 0.57 0.071 0.856 0.101 0.083 0.012 0.089 0.012 0.077-0.077-0.012-0.095-0.030-0.184-0.042-0.273-0.113-0.761-0.261-1.509-0.422-2.257-0.036-0.178-0.006-0.137-0.184-0.167-0.629-0.101-1.259-0.196-1.889-0.267-0.196-0.024-0.392-0.042-0.606-0.060zM21.9 17.346c-0.006-0.089-0.018-0.179-0.018-0.267-0.012-0.297-0.041-0.594-0.065-0.891-0.041-0.446-0.101-0.885-0.166-1.33-0.018-0.101-0.018-0.107-0.125-0.119-0.82-0.119-1.64-0.214-2.459-0.291-0.053 0-0.113-0.006-0.166-0.012-0.036 0-0.048 0.018-0.042 0.048 0 0.018 0.006 0.036 0.012 0.054 0.089 0.582 0.155 1.164 0.202 1.751 0.024 0.291 0.030 0.588 0.048 0.879 0 0.084 0.006 0.089 0.089 0.095 0.214 0.018 0.428 0.036 0.648 0.060 0.469 0.042 0.938 0.095 1.408 0.16 0.19 0.023 0.386 0.053 0.576 0.083 0.048 0.006 0.071 0 0.065-0.053 0-0.054 0-0.113 0-0.166zM21.716 21.906c-0.024 0-0.042 0-0.053 0-0.232 0.023-0.47 0.048-0.701 0.071-0.6 0.065-1.2 0.107-1.806 0.143-0.084 0-0.084 0-0.089 0.089 0 0.19 0 0.38-0.012 0.57-0.018 0.356-0.041 0.712-0.071 1.069-0.035 0.458-0.077 0.909-0.137 1.366-0.006 0.071 0 0.083 0.084 0.071 0.131-0.023 0.255-0.048 0.386-0.077 0.647-0.124 1.289-0.285 1.931-0.439 0.101-0.023 0.095-0.023 0.119-0.136 0.012-0.054 0.006-0.101 0.012-0.155 0.012-0.154 0.012-0.303 0.035-0.457 0.095-0.635 0.214-1.265 0.285-1.906 0.006-0.065 0.023-0.131 0.012-0.208zM21.579 14.56c0.012-0.053 0-0.095-0.006-0.136-0.071-0.386-0.148-0.772-0.238-1.158-0.107-0.439-0.214-0.873-0.321-1.312-0.012-0.060-0.042-0.095-0.107-0.107-0.196-0.036-0.392-0.089-0.588-0.125-0.553-0.107-1.105-0.196-1.664-0.291-0.142-0.024-0.285-0.048-0.434-0.071-0.006 0.065 0.018 0.119 0.030 0.172 0.19 0.778 0.356 1.562 0.499 2.346 0.012 0.077 0 0.166 0.048 0.226 0.042 0.059 0.143 0.041 0.22 0.048 0.719 0.089 1.432 0.202 2.139 0.332 0.137 0.024 0.279 0.048 0.416 0.077zM25.066 26.234c-0.006 0-0.012-0.006-0.024-0.006-0.404-0.018-0.772-0.143-1.11-0.368-0.167-0.113-0.309-0.243-0.458-0.374-0.232-0.214-0.434-0.451-0.57-0.737-0.089-0.184-0.154-0.368-0.208-0.564-0.023-0.083-0.035-0.166-0.077-0.249-0.006 0.018-0.018 0.023-0.018 0.035-0.048 0.238-0.154 0.451-0.255 0.665-0.136 0.285-0.314 0.541-0.552 0.748-0.44 0.38-0.951 0.636-1.503 0.82-0.030 0.012-0.065 0.012-0.083 0.042 0.012 0 0.018 0.006 0.023 0.006 0.446 0.095 0.849 0.261 1.212 0.546 0.475 0.374 0.802 0.855 1.057 1.395 0.060 0.131 0.101 0.267 0.143 0.41 0.012-0.012 0.018-0.018 0.018-0.024 0.012-0.035 0.030-0.071 0.042-0.107 0.202-0.588 0.511-1.105 0.992-1.514 0.38-0.326 0.796-0.588 1.295-0.689 0.030 0 0.059 0 0.077-0.035zM12.829 30.676c0.119 0 0.238 0 0.356 0 0.446 0 0.885-0.041 1.325-0.077 0.065 0 0.089-0.029 0.101-0.089 0.042-0.226 0.077-0.457 0.095-0.683 0.012-0.149 0.030-0.297 0.036-0.446 0.006-0.143 0.006-0.291 0.024-0.434 0.006-0.053-0.012-0.071-0.072-0.071-0.136 0.012-0.273 0.018-0.41 0.023-0.404 0.012-0.814 0.030-1.218 0.024-0.25 0-0.499 0-0.749 0-0.398-0.018-0.796-0.030-1.194-0.065-0.083-0.006-0.095 0.012-0.089 0.083 0.030 0.309 0.054 0.623 0.077 0.932 0.018 0.207 0.036 0.415 0.054 0.623 0.011 0.119 0.018 0.119 0.136 0.125 0.505 0.041 1.010 0.060 1.521 0.053zM10.75 28.503c0.024-0.030 0.011-0.048 0.011-0.072-0.029-0.279-0.065-0.558-0.095-0.843-0.036-0.285-0.059-0.57-0.071-0.855-0.006-0.172 0-0.344-0.006-0.517 0-0.089 0-0.089-0.084-0.089-0.434-0.006-0.861-0.035-1.295-0.065-0.463-0.035-0.927-0.077-1.39-0.131-0.059-0.006-0.119-0.030-0.172 0 0 0.006 0 0.012 0 0.012 0.113 0.677 0.243 1.348 0.374 2.019 0.012 0.053 0.042 0.083 0.095 0.089 0.119 0.023 0.238 0.053 0.363 0.077 0.659 0.143 1.318 0.262 1.99 0.345 0.101 0.012 0.196 0.035 0.291 0.023zM23.955 20.095c-0.023-0.326-0.018-0.647-0.042-0.968-0.018-0.309-0.047-0.624-0.077-0.932-0.012-0.101-0.012-0.101-0.101-0.119-0.279-0.054-0.564-0.107-0.843-0.155-0.19-0.035-0.38-0.059-0.577-0.089-0.053-0.012-0.077 0-0.071 0.059 0 0.030 0 0.060 0 0.089 0.012 0.398 0.006 0.79 0.006 1.187 0 0.16 0 0.321-0.006 0.481-0.018 0.345-0.035 0.689-0.060 1.033-0.012 0.178-0.030 0.356-0.041 0.534-0.012 0.119-0.018 0.238-0.030 0.356 0 0.042 0.006 0.065 0.053 0.060 0.012 0 0.030 0 0.042 0 0.529-0.053 1.057-0.125 1.586-0.196 0.083-0.012 0.095-0.012 0.095-0.107 0-0.035 0.012-0.065 0.012-0.101 0.018-0.38 0.035-0.76 0.053-1.134zM20.932 11.686c0-0.030 0-0.048 0-0.060-0.137-0.493-0.285-0.986-0.451-1.473-0.024-0.065-0.060-0.119-0.113-0.16-0.547-0.422-1.123-0.801-1.735-1.128-0.416-0.219-0.837-0.427-1.271-0.612-0.041-0.018-0.089-0.048-0.154-0.048 0.107 0.226 0.196 0.44 0.273 0.659 0.023 0.072 0.065 0.095 0.131 0.113 0.582 0.143 1.147 0.345 1.705 0.564 0.012 0 0.018 0.006 0.030 0.012 0.018 0.012 0.035 0.030 0.029 0.053s-0.029 0.018-0.048 0.018c-0.059-0.011-0.119-0.024-0.172-0.036-0.357-0.089-0.707-0.178-1.064-0.267-0.155-0.036-0.309-0.077-0.463-0.095 0 0.018 0 0.024 0 0.030 0.184 0.57 0.351 1.14 0.493 1.716 0.012 0.048 0.042 0.065 0.083 0.071 0.131 0.024 0.255 0.054 0.38 0.077 0.606 0.125 1.218 0.25 1.824 0.404 0.172 0.042 0.345 0.095 0.529 0.143zM14.956 10.309c-0.012-0.262-0.024-0.529-0.042-0.79-0.012-0.184-0.036-0.363-0.048-0.546 0-0.048-0.018-0.083-0.077-0.089-0.214-0.011-0.434-0.029-0.647-0.036-0.303-0.006-0.606-0.012-0.909-0.012-0.458 0-0.909 0-1.366 0.030-0.066 0-0.089 0.024-0.095 0.089-0.018 0.148-0.048 0.291-0.072 0.439-0.053 0.321-0.101 0.642-0.155 0.956-0.011 0.060 0 0.077 0.060 0.072 0.077 0 0.148-0.012 0.226-0.012 0.535-0.006 1.076 0.006 1.61 0.024 0.16 0 0.321 0.012 0.481 0.024 0.327 0.024 0.653 0.048 0.98 0.077 0.042 0 0.066-0.012 0.066-0.054 0-0.059 0-0.119 0-0.178zM18.181 28.378c-0.054 0.012-0.095 0.018-0.137 0.023-0.629 0.131-1.265 0.243-1.901 0.327-0.344 0.041-0.689 0.083-1.033 0.107-0.054 0-0.072 0.018-0.077 0.072-0.006 0.113-0.024 0.231-0.036 0.344-0.024 0.243-0.048 0.487-0.089 0.73-0.030 0.19-0.072 0.38-0.119 0.564 0.042 0.024 0.077 0.006 0.113 0 0.487-0.060 0.974-0.125 1.461-0.208 0.434-0.077 0.861-0.16 1.295-0.249 0.048-0.012 0.083-0.018 0.095-0.072 0.119-0.397 0.255-0.784 0.345-1.187 0.029-0.143 0.065-0.291 0.077-0.458zM7.756 27.968c0.012-0.029 0-0.047 0-0.065-0.041-0.184-0.083-0.362-0.125-0.546-0.107-0.469-0.208-0.939-0.291-1.408-0.012-0.053-0.030-0.083-0.095-0.089-0.095-0.006-0.184-0.030-0.273-0.042-0.665-0.101-1.33-0.214-1.984-0.38-0.024-0.006-0.053-0.030-0.083-0.012-0.018 0.035 0 0.071 0 0.101 0.095 0.564 0.202 1.128 0.309 1.687 0.012 0.059 0.042 0.089 0.107 0.107 0.534 0.125 1.069 0.267 1.598 0.422 0.273 0.084 0.552 0.155 0.837 0.22zM20.629 10.226c-0.012 0.024 0 0.041 0 0.059 0.196 0.469 0.368 0.944 0.523 1.425 0.012 0.042 0.035 0.072 0.083 0.084 0.113 0.036 0.226 0.077 0.333 0.131 0.089 0.041 0.178 0.083 0.261 0.124 0.030 0.018 0.083 0.030 0.065 0.077-0.018 0.054-0.065 0.012-0.095 0-0.030-0.006-0.065-0.024-0.095-0.036-0.131-0.048-0.261-0.089-0.392-0.131-0.024-0.006-0.048-0.024-0.072 0 0 0.024 0 0.048 0.012 0.077 0.255 0.825 0.469 1.663 0.629 2.511 0.012 0.072 0.042 0.095 0.113 0.113 0.387 0.077 0.766 0.16 1.141 0.261 0.030 0.006 0.053 0.024 0.089 0-0.006-0.036-0.012-0.071-0.018-0.107-0.059-0.255-0.119-0.517-0.178-0.772-0.131-0.594-0.255-1.188-0.398-1.775-0.012-0.060-0.030-0.113-0.071-0.16-0.238-0.285-0.487-0.564-0.749-0.825-0.315-0.309-0.642-0.612-0.986-0.891-0.065-0.053-0.125-0.113-0.196-0.155zM4.257 14.697c-0.202 0.036-0.386 0.036-0.57 0.084-0.375 0.101-0.749 0.226-1.117 0.356-0.054 0.018-0.077 0.041-0.089 0.095-0.089 0.445-0.172 0.891-0.231 1.342-0.030 0.237-0.060 0.48-0.077 0.718-0.012 0.148-0.035 0.297-0.024 0.446 0.072 0 0.125-0.035 0.184-0.054 0.534-0.184 1.069-0.368 1.639-0.433 0.066-0.006 0.072-0.042 0.072-0.101 0-0.356 0.018-0.706 0.041-1.057 0.024-0.333 0.060-0.659 0.113-0.986 0.024-0.131 0.041-0.261 0.059-0.41zM3.117 11.17c0 0.012 0 0.018 0.006 0.018 0.048 0.012 0.101 0.030 0.149 0.042 0.493 0.119 0.855 0.397 1.069 0.867 0.125 0.273 0.226 0.553 0.309 0.837 0.012 0.036 0.012 0.077 0.041 0.107 0.012-0.018 0.018-0.024 0.024-0.030 0.208-0.362 0.451-0.7 0.731-1.010 0.297-0.32 0.635-0.576 1.040-0.73 0.018-0.006 0.053 0 0.053-0.041-0.018-0.030-0.048-0.030-0.077-0.036-0.083-0.011-0.166-0.047-0.243-0.077-0.273-0.107-0.493-0.285-0.707-0.481-0.072-0.065-0.131-0.131-0.19-0.208-0.22-0.309-0.398-0.642-0.475-1.015-0.018-0.071-0.035-0.143-0.053-0.219 0-0.024 0-0.054-0.035-0.060-0.006 0.012-0.012 0.030-0.018 0.041-0.136 0.392-0.332 0.754-0.57 1.098-0.196 0.28-0.416 0.535-0.707 0.725-0.113 0.077-0.237 0.131-0.362 0.184zM10.91 30.587c0.119 0 0.119 0 0.107-0.089-0.041-0.314-0.083-0.635-0.119-0.95-0.024-0.208-0.048-0.422-0.077-0.629-0.012-0.089-0.018-0.089-0.101-0.095-0.172-0.018-0.351-0.035-0.523-0.053-0.659-0.083-1.318-0.196-1.972-0.344-0.024 0-0.042-0.006-0.065-0.012-0.030 0-0.042 0.012-0.042 0.042 0 0.018 0 0.035 0.006 0.053 0.119 0.529 0.232 1.051 0.38 1.573 0.024 0.089 0.065 0.131 0.16 0.155 0.428 0.095 0.856 0.172 1.283 0.238 0.327 0.048 0.648 0.089 0.957 0.119zM8.338 30.136c0.011-0.030 0-0.048-0.012-0.072-0.166-0.517-0.303-1.045-0.434-1.568-0.042-0.178 0-0.143-0.19-0.184-0.725-0.178-1.443-0.38-2.144-0.654-0.084-0.035-0.172-0.065-0.255-0.101-0.024 0.030-0.012 0.053 0 0.072 0.107 0.517 0.238 1.021 0.392 1.52 0.012 0.041 0.035 0.071 0.072 0.095 0.148 0.107 0.297 0.207 0.451 0.314 0.030 0.018 0.060 0.030 0.089 0.035 0.368 0.077 0.737 0.155 1.093 0.267 0.285 0.089 0.57 0.19 0.867 0.261 0.024 0.006 0.048 0.023 0.077 0.006zM17.89 10.997c0.018-0.029 0.006-0.041 0-0.059-0.119-0.546-0.255-1.093-0.398-1.639-0.018-0.071-0.054-0.101-0.125-0.113-0.695-0.131-1.402-0.196-2.103-0.261-0.048 0-0.060 0.006-0.053 0.060 0.053 0.415 0.083 0.825 0.095 1.247 0 0.095 0.006 0.196 0.006 0.291 0 0.048 0.012 0.071 0.065 0.071 0.018 0 0.036 0 0.054 0.006 0.653 0.071 1.306 0.178 1.954 0.302 0.166 0.030 0.333 0.066 0.505 0.095zM21.941 14.809c0 0.024 0 0.042 0 0.054 0.030 0.202 0.065 0.404 0.095 0.605 0.060 0.416 0.107 0.832 0.143 1.253 0.023 0.273 0.035 0.546 0.053 0.825 0 0.077-0.012 0.089 0.101 0.113 0.291 0.048 0.576 0.107 0.867 0.172 0.196 0.048 0.398 0.089 0.594 0.136 0.018-0.048 0-0.095 0-0.136-0.023-0.16-0.042-0.315-0.071-0.475-0.119-0.736-0.279-1.46-0.434-2.185-0.018-0.083-0.059-0.113-0.136-0.131-0.398-0.083-0.796-0.155-1.212-0.22zM20.729 27.683c-0.035-0.006-0.053 0-0.077 0.012-0.689 0.226-1.378 0.433-2.085 0.593-0.065 0.018-0.089 0.054-0.101 0.113-0.072 0.422-0.202 0.832-0.363 1.229-0.053 0.131-0.101 0.262-0.148 0.392 0.023 0.012 0.041 0.006 0.059 0 0.636-0.143 1.265-0.303 1.889-0.505 0.089-0.029 0.202-0.041 0.267-0.101 0.065-0.065 0.083-0.172 0.119-0.261 0.16-0.416 0.273-0.843 0.386-1.271 0.018-0.065 0.041-0.124 0.048-0.202zM3.782 11.74c-0.089 0.155-0.22 0.273-0.333 0.404-0.036 0.036-0.054 0.077-0.060 0.125-0.023 0.131-0.060 0.255-0.113 0.374-0.060 0.137-0.119 0.273-0.172 0.41-0.22 0.576-0.368 1.175-0.529 1.776 0 0.011 0 0.029 0.012 0.041 0.261-0.071 0.523-0.143 0.79-0.208 0.285-0.071 0.57-0.131 0.861-0.19 0.060-0.011 0.083-0.036 0.095-0.089 0.018-0.083 0.035-0.166 0.053-0.249 0.036-0.172 0.042-0.357 0.125-0.517 0.012-0.030 0-0.048 0-0.077-0.083-0.392-0.196-0.778-0.333-1.158-0.065-0.178-0.142-0.351-0.255-0.511-0.035-0.053-0.071-0.101-0.131-0.136zM14.522 30.866c-0.048 0-0.083 0-0.119 0.006-0.511 0.054-1.022 0.089-1.538 0.095-0.534 0-1.064-0.018-1.598-0.059-0.048 0-0.060 0.006-0.053 0.053 0.024 0.208 0.041 0.416 0.065 0.617 0.011 0.101 0.006 0.101 0.107 0.119 0.244 0.048 0.482 0.089 0.731 0.107 0.202 0.018 0.41 0.035 0.612 0.030 0.267 0 0.535-0.024 0.802-0.042 0.237-0.018 0.475-0.048 0.712-0.071 0.054 0 0.077-0.024 0.083-0.083 0.018-0.101 0.042-0.196 0.066-0.291 0.041-0.16 0.083-0.315 0.131-0.481zM13.275 7.559c-0.267-0.011-0.57 0.012-0.873 0.036-0.125 0.011-0.25 0.018-0.38 0.035-0.071 0.006-0.077 0.012-0.077 0.089s0 0.155-0.011 0.232c-0.024 0.136-0.048 0.279-0.072 0.415-0.012 0.072 0 0.077 0.065 0.077 0.054 0 0.113-0.006 0.167-0.006 0.285 0 0.576 0 0.861 0s0.564 0.012 0.849 0.024c0.309 0.018 0.617 0.042 0.927 0.072 0.053 0 0.065-0.012 0.065-0.060-0.012-0.101-0.030-0.196-0.036-0.297-0.012-0.143-0.048-0.279-0.036-0.422 0.006-0.095 0.006-0.095-0.083-0.107-0.439-0.060-0.879-0.083-1.366-0.077zM15.252 7.441c0.018-0.035 0-0.048 0-0.065-0.136-0.202-0.285-0.404-0.469-0.564-0.113-0.095-0.255-0.119-0.392-0.148-0.172-0.042-0.351-0.042-0.535-0.048-0.285-0.012-0.564-0.018-0.849 0.006-0.398 0.030-0.79 0.089-1.188 0.131-0.077 0.012-0.149 0.036-0.214 0.084-0.208 0.154-0.386 0.338-0.552 0.534-0.024 0.029-0.066 0.048-0.066 0.107 1.426-0.267 2.852-0.332 4.271-0.041zM17.67 30.308c-0.042-0.018-0.065 0-0.089 0-0.392 0.089-0.784 0.178-1.176 0.255-0.535 0.107-1.076 0.196-1.622 0.261-0.048 0-0.083 0.012-0.101 0.072-0.060 0.202-0.131 0.397-0.196 0.594-0.018 0.059-0.047 0.124-0.041 0.196 0.060 0 0.113-0.006 0.166-0.012 0.594-0.077 1.182-0.196 1.765-0.326 0.303-0.072 0.6-0.155 0.891-0.261 0.036-0.012 0.077-0.018 0.077-0.077 0-0.024 0.030-0.048 0.048-0.072 0.155-0.184 0.214-0.404 0.279-0.629zM11.665 7.678c-0.024 0-0.030-0.006-0.036-0.006-0.861 0.119-1.705 0.303-2.542 0.546-0.095 0.030-0.214 0.030-0.28 0.101s-0.083 0.19-0.107 0.291c-0.029 0.101-0.071 0.196-0.083 0.309 0.042-0.012 0.072-0.018 0.107-0.024 0.879-0.231 1.77-0.374 2.673-0.422 0.060 0 0.083-0.024 0.095-0.083 0.048-0.238 0.089-0.475 0.172-0.707zM17.367 8.925c0-0.024 0.006-0.030 0-0.036-0.065-0.232-0.149-0.451-0.232-0.677-0.018-0.042-0.048-0.053-0.083-0.065-0.326-0.089-0.636-0.226-0.98-0.255-0.262-0.018-0.511-0.107-0.766-0.155-0.101-0.018-0.202-0.048-0.315-0.053 0.018 0.065 0.042 0.125 0.053 0.19 0.036 0.202 0.072 0.404 0.101 0.605 0.011 0.065 0.036 0.095 0.095 0.089 0.011 0 0.030 0 0.041 0.006 0.535 0.065 1.069 0.137 1.598 0.243 0.155 0.030 0.315 0.065 0.475 0.101zM20.623 29.144c0.047-0.006 0.071-0.035 0.095-0.053 0.333-0.214 0.63-0.463 0.927-0.719 0.161-0.131 0.309-0.267 0.452-0.415 0.071-0.077 0.071-0.060 0.018-0.143-0.202-0.309-0.451-0.57-0.737-0.802-0.089-0.071-0.178-0.136-0.285-0.184-0.035 0.214-0.065 0.416-0.101 0.629 0.095-0.006 0.172-0.035 0.249-0.060 0.030-0.006 0.060-0.018 0.089-0.012 0.030 0 0.035 0.024 0.018 0.048-0.012 0.024-0.042 0.030-0.065 0.036-0.077 0.029-0.155 0.053-0.232 0.077-0.059 0.018-0.089 0.054-0.101 0.119-0.089 0.493-0.184 0.986-0.326 1.478zM7.489 14.786c0.119-0.214 0.243-0.41 0.41-0.576s0.363-0.285 0.576-0.397c-0.249-0.131-0.338-0.202-0.457-0.368-0.095-0.137-0.16-0.285-0.214-0.439-0.030-0.101-0.065-0.202-0.101-0.309-0.018 0.024-0.024 0.036-0.030 0.053-0.113 0.321-0.297 0.594-0.517 0.843-0.137 0.155-0.292 0.279-0.493 0.338-0.035 0.012-0.083 0.012-0.119 0.042 0.416 0.154 0.749 0.404 0.945 0.819zM11.189 31.656c-0.036-0.231-0.065-0.446-0.101-0.665-0.018-0.101-0.018-0.101-0.113-0.113-0.683-0.065-1.367-0.167-2.038-0.309-0.089-0.018-0.178-0.048-0.279-0.054 0.018 0.119 0.071 0.22 0.095 0.326 0.018 0.066 0.053 0.101 0.119 0.131 0.553 0.207 1.117 0.385 1.693 0.534 0.202 0.053 0.404 0.107 0.624 0.148zM1.566 15.225c0.107-0.041 0.202-0.089 0.303-0.119 0.154-0.053 0.309-0.107 0.469-0.155 0.048-0.018 0.072-0.036 0.083-0.089 0.042-0.178 0.084-0.356 0.131-0.534 0.142-0.564 0.285-1.128 0.505-1.663 0-0.012 0.012-0.030 0-0.042-0.048 0.036-0.077 0.089-0.119 0.137-0.333 0.404-0.66 0.819-0.933 1.27-0.036 0.060-0.065 0.119-0.083 0.184-0.065 0.219-0.125 0.439-0.208 0.647-0.048 0.124-0.095 0.249-0.143 0.374zM20.028 29.613c-0.041-0.012-0.059 0-0.077 0.012-0.618 0.226-1.254 0.41-1.889 0.564-0.136 0.030-0.214 0.089-0.261 0.226-0.072 0.214-0.172 0.422-0.345 0.576 0 0 0 0.012 0 0.030 0.921-0.357 1.782-0.808 2.578-1.408zM8.582 30.86c0.006-0.018 0.012-0.024 0.012-0.024-0.030-0.083-0.065-0.166-0.084-0.255-0.024-0.089-0.071-0.131-0.16-0.154-0.534-0.137-1.069-0.297-1.568-0.546-0.011-0.006-0.030-0.012-0.048 0.006 0.6 0.356 1.2 0.707 1.853 0.968zM2.683 9.697c0.344-0.036 0.659-0.166 0.974-0.303 0.011 0 0.030-0.012 0.035-0.024 0.018-0.024 0.012-0.042-0.012-0.048-0.018 0-0.035 0-0.053 0-0.499-0.012-0.998 0.011-1.497 0.036-0.143 0.006-0.279 0-0.422-0.036-0.072-0.018-0.137-0.018-0.208 0-0.036 0.011-0.042 0.036-0.030 0.071 0.036 0.077 0.095 0.137 0.178 0.16 0.285 0.089 0.57 0.166 0.873 0.16 0.053 0 0.107 0 0.154-0.006zM2.695 6.764c0.036 0.065 0.084 0.125 0.113 0.19 0.131 0.255 0.285 0.499 0.451 0.73 0.208 0.285 0.487 0.499 0.778 0.695 0.006 0 0.011 0.012 0.018 0.012 0.011 0 0.024 0.006 0.029 0 0.012-0.006 0.018-0.030 0.012-0.042-0.018-0.030-0.041-0.065-0.059-0.095-0.214-0.32-0.422-0.647-0.678-0.944-0.172-0.202-0.351-0.398-0.499-0.617-0.024-0.036-0.065-0.048-0.107-0.048-0.083 0-0.107 0.035-0.071 0.113zM5.416 8.005c0.077-0.38 0.143-0.766 0.178-1.158 0.024-0.273 0.053-0.546 0.131-0.813 0.012-0.042 0.012-0.089 0.012-0.131 0-0.024 0-0.048-0.030-0.054-0.024 0-0.042 0-0.060 0.024-0.030 0.035-0.041 0.077-0.053 0.119-0.089 0.321-0.172 0.647-0.214 0.98-0.048 0.356-0.042 0.718-0.006 1.087 0.042-0.011 0.042-0.036 0.048-0.059z"></path>
</svg>
