<!-- Generated by IcoMoon.io -->
<svg version="1.1" xmlns="http://www.w3.org/2000/svg" width="22" height="32" viewBox="0 0 22 32">
<path d="M11.911 0.049c-0.24 0.086-0.329 0.286-0.363 0.817-0.021 0.329-0.017 0.361 0.055 0.452 0.090 0.113 0.228 0.127 0.344 0.035 0.142-0.114 0.366-0.783 0.366-1.093 0-0.257-0.109-0.314-0.402-0.21zM18.604 0.1c-0.241 0.087-0.328 0.136-0.877 0.493-0.19 0.124-0.345 0.24-0.345 0.258s-0.021 0.033-0.047 0.033c-0.088 0-0.607 0.462-0.677 0.602-0.064 0.13-0.064 0.142-0.008 0.228 0.080 0.122 0.129 0.116 0.368-0.047 0.254-0.173 0.701-0.397 1.32-0.66 0.562-0.239 0.79-0.401 0.767-0.543-0.028-0.166-0.086-0.278-0.184-0.355-0.114-0.089-0.095-0.089-0.317-0.009zM2.079 0.655c-0.059 0.042-0.078 0.091-0.078 0.199 0 0.139 0.126 0.446 0.233 0.564 0.028 0.031 0.050 0.071 0.050 0.091s0.072 0.132 0.16 0.253c0.087 0.121 0.16 0.229 0.16 0.24s0.039 0.073 0.088 0.137c0.049 0.064 0.089 0.128 0.089 0.142 0 0.028 0.268 0.435 0.523 0.792 0.087 0.122 0.184 0.236 0.216 0.252 0.073 0.038 0.18-0.001 0.267-0.098 0.066-0.073 0.066-0.078-0.014-0.296-0.286-0.785-0.963-1.949-1.321-2.269-0.085-0.077-0.268-0.080-0.372-0.007zM21.481 1.191c-0.046 0.045-0.024 0.146 0.038 0.169 0.082 0.031 0.166-0.079 0.111-0.146-0.042-0.051-0.11-0.062-0.148-0.024zM7.801 1.523c-0.134 0.105-0.308 0.43-0.306 0.571 0.002 0.176 0.085 0.494 0.188 0.72 0.19 0.415 0.49 0.318 0.54-0.175 0.064-0.625-0.007-1.067-0.184-1.148-0.117-0.053-0.131-0.051-0.237 0.032zM10.653 2.134c-0.055 0.394-0.111 1.711-0.11 2.595 0.001 0.718 0.019 1.010 0.118 2.002 0.112 1.116 0.164 1.696 0.199 2.197 0.019 0.283 0.051 0.729 0.071 0.992s0.051 0.742 0.071 1.064c0.019 0.322 0.042 0.641 0.051 0.709s0.033 0.252 0.053 0.408c0.019 0.156 0.061 0.483 0.093 0.727 0.164 1.281 0.462 2.59 0.76 3.331 0.104 0.26 0.246 0.743 0.247 0.841 0.001 0.043 0.030 0.13 0.064 0.195s0.092 0.191 0.126 0.281c0.123 0.331 0.424 0.846 0.614 1.055 0.043 0.047 0.181 0.295 0.306 0.549 0.232 0.471 0.244 0.51 0.488 1.632 0.038 0.175 0.085 0.447 0.105 0.602s0.051 0.331 0.069 0.39c0.057 0.181 0.135 0.684 0.216 1.403 0.068 0.589 0.080 0.884 0.082 2.035 0.002 1.185-0.005 1.388-0.064 1.691-0.055 0.281-0.059 0.354-0.022 0.399 0.062 0.075 0.222 0.069 0.325-0.013 0.166-0.13 0.19-0.336 0.19-1.634 0-0.653-0.010-1.211-0.023-1.24s-0.031-0.221-0.042-0.425-0.046-0.508-0.078-0.673c-0.189-0.996-0.254-1.373-0.281-1.595-0.053-0.451-0.167-0.985-0.426-2.007-0.026-0.1-0.080-0.274-0.123-0.386s-0.069-0.211-0.060-0.22c0.008-0.008 0.069-0.001 0.135 0.017 0.199 0.055 0.505 0.022 0.723-0.077 0.393-0.18 0.824-0.596 1.084-1.046 0.451-0.779 0.602-1.276 0.756-2.508 0.13-1.034 0.166-1.779 0.18-3.733 0.011-1.512 0.002-1.941-0.057-2.764-0.076-1.066-0.109-1.396-0.193-1.931-0.115-0.721-0.265-1.6-0.302-1.772-0.135-0.62-0.303-1.598-0.355-2.073-0.059-0.535-0.058-0.532-0.157-0.532-0.125 0-0.173 0.114-0.143 0.333 0.014 0.1 0.032 0.261 0.039 0.359s0.030 0.241 0.048 0.319c0.033 0.14 0.073 0.359 0.092 0.496 0.005 0.039 0.036 0.207 0.068 0.372s0.072 0.373 0.088 0.461c0.016 0.087 0.053 0.279 0.084 0.425 0.048 0.23 0.088 0.468 0.24 1.4 0.046 0.281 0.205 1.674 0.225 1.967 0.010 0.146 0.028 0.541 0.042 0.877l0.024 0.611h-0.157c-0.462 0-1.14-0.126-1.607-0.3-0.117-0.044-0.3-0.108-0.408-0.144s-0.275-0.099-0.372-0.141c-0.098-0.043-0.297-0.13-0.443-0.194s-0.428-0.193-0.627-0.288c-0.795-0.379-1.044-0.434-1.067-0.238-0.019 0.167 0.209 0.349 0.854 0.681 0.132 0.068 0.299 0.143 0.372 0.166s0.148 0.055 0.169 0.071c0.019 0.015 0.227 0.068 0.46 0.116 0.892 0.186 1.252 0.271 1.594 0.377 0.277 0.086 0.446 0.114 0.785 0.132l0.431 0.021 0.021 0.181c0.028 0.239-0.007 2.489-0.046 2.963-0.017 0.204-0.025 0.383-0.017 0.396s-0.012 0.284-0.044 0.603c-0.032 0.318-0.058 0.611-0.058 0.65 0 0.069-0.112 0.783-0.149 0.946-0.010 0.044-0.025 0.123-0.033 0.173-0.023 0.143-0.194 0.673-0.271 0.838-0.038 0.083-0.069 0.157-0.069 0.166 0 0.039-0.35 0.591-0.476 0.75-0.152 0.191-0.426 0.427-0.625 0.539-0.274 0.153-0.611 0.153-0.902 0-0.136-0.071-0.438-0.39-0.564-0.596-0.053-0.087-0.144-0.226-0.202-0.308-0.204-0.293-0.401-0.831-0.683-1.871-0.031-0.117-0.082-0.289-0.112-0.383s-0.069-0.253-0.088-0.354c-0.018-0.101-0.049-0.255-0.068-0.343s-0.050-0.263-0.069-0.39-0.060-0.366-0.091-0.532c-0.276-1.464-0.392-2.426-0.514-4.252-0.037-0.554-0.086-1.114-0.14-1.595-0.019-0.165-0.052-0.46-0.073-0.655s-0.055-0.482-0.074-0.638c-0.060-0.481-0.073-1.43-0.039-2.853 0.031-1.347 0.033-1.366 0.117-1.515 0.047-0.083 0.11-0.159 0.141-0.169s0.625-0.024 1.32-0.031l1.264-0.013v0.111c0 0.061 0.022 0.23 0.049 0.377s0.060 0.374 0.074 0.505c0.015 0.148 0.049 0.269 0.089 0.318 0.062 0.078 0.067 0.078 0.135 0.017 0.039-0.035 0.065-0.091 0.059-0.124s-0.031-0.259-0.055-0.503-0.056-0.479-0.072-0.522c-0.039-0.105-0.004-0.187 0.078-0.187 0.040 0 0.072 0.031 0.082 0.080 0.015 0.071 0.063 0.628 0.114 1.302 0.027 0.357 0.038 0.39 0.137 0.39 0.152 0 0.169-0.095 0.111-0.612-0.029-0.258-0.061-0.621-0.071-0.808l-0.019-0.34 0.085 0.016c0.083 0.016 0.085 0.026 0.086 0.351 0.001 0.184 0.010 0.349 0.021 0.366s0.033 0.157 0.050 0.309c0.047 0.421 0.249 1.511 0.287 1.549 0.021 0.021 0.067 0.018 0.126-0.008 0.088-0.040 0.092-0.052 0.069-0.228-0.012-0.102-0.053-0.345-0.089-0.539-0.151-0.808-0.211-1.385-0.182-1.756 0.004-0.047 0.053-0.053 0.323-0.040 0.345 0.017 0.38-0.005 0.256-0.157-0.089-0.11-0.287-0.123-2.276-0.16-0.965-0.017-1.923-0.040-2.129-0.051l-0.375-0.019-0.042 0.298zM18.48 3.888c-0.151 0.018-0.347 0.119-0.365 0.189-0.019 0.073 0.084 0.224 0.193 0.283 0.21 0.112 1.086 0.238 1.332 0.193 0.144-0.027 0.293-0.172 0.293-0.285 0-0.126-0.129-0.255-0.311-0.313-0.154-0.049-0.915-0.093-1.143-0.066zM4.843 4.505c-0.061 0.061-0.053 0.123 0.026 0.196 0.058 0.054 0.063 0.086 0.037 0.205-0.018 0.078-0.067 0.377-0.108 0.665-0.080 0.553-0.071 0.628 0.077 0.628 0.093 0 0.123-0.079 0.172-0.46 0.062-0.478 0.136-0.926 0.157-0.946 0.010-0.010 0.051-0.007 0.092 0.006 0.053 0.017 0.069 0.043 0.055 0.089-0.040 0.126-0.073 0.675-0.044 0.727 0.041 0.073 0.158 0.067 0.199-0.009 0.019-0.035 0.043-0.18 0.055-0.322 0.023-0.276 0.065-0.395 0.141-0.395 0.035 0 0.052 0.103 0.067 0.392 0.021 0.413 0.056 0.505 0.182 0.487 0.070-0.010 0.075-0.035 0.084-0.431 0.009-0.377 0.017-0.417 0.070-0.397 0.073 0.028 0.46 0.053 1.173 0.074 0.562 0.017 0.931 0.064 1.645 0.212 0.425 0.087 0.576 0.153 0.611 0.263 0.043 0.136-0.067 2.134-0.157 2.855-0.074 0.59-0.14 1.297-0.178 1.896-0.022 0.341-0.055 0.764-0.073 0.94s-0.058 0.63-0.088 1.010c-0.063 0.804-0.228 1.919-0.306 2.064-0.020 0.038-0.053 0.167-0.072 0.287-0.073 0.448-0.092 0.544-0.161 0.803-0.039 0.146-0.1 0.393-0.135 0.549-0.14 0.627-0.345 1.366-0.522 1.878-0.067 0.195-0.175 0.505-0.238 0.691s-0.128 0.352-0.143 0.372c-0.015 0.019-0.101 0.213-0.193 0.43-0.186 0.442-0.542 1.082-0.8 1.436-0.094 0.13-0.189 0.268-0.209 0.306-0.042 0.078-0.148 0.103-0.589 0.143-0.452 0.041-0.475 0.032-0.77-0.318-0.286-0.34-0.45-0.559-0.539-0.721-0.032-0.058-0.095-0.171-0.14-0.25-0.088-0.157-0.408-1.012-0.496-1.326-0.030-0.107-0.081-0.283-0.114-0.39s-0.072-0.299-0.089-0.426-0.055-0.39-0.085-0.584c-0.087-0.576-0.132-0.918-0.13-0.975 0.001-0.029-0.014-0.162-0.032-0.294-0.037-0.259-0.098-1.392-0.105-1.939-0.012-0.851 0.092-2.941 0.178-3.579 0.254-1.886 0.445-2.923 0.835-4.537 0.175-0.724 0.173-0.709 0.113-0.768-0.119-0.119-0.2-0.010-0.292 0.396-0.026 0.117-0.083 0.34-0.126 0.496-0.084 0.311-0.112 0.435-0.279 1.276-0.062 0.312-0.135 0.671-0.162 0.797s-0.090 0.485-0.139 0.797c-0.050 0.312-0.107 0.647-0.127 0.745s-0.042 0.241-0.049 0.319c-0.008 0.078-0.030 0.237-0.051 0.354s-0.048 0.324-0.062 0.46c-0.013 0.137-0.029 0.288-0.036 0.337s-0.029 0.256-0.050 0.46-0.053 0.514-0.070 0.689c-0.018 0.173-0.026 0.327-0.017 0.34s-0.001 0.158-0.020 0.322c-0.089 0.761-0.024 3.003 0.108 3.7 0.019 0.097 0.036 0.249 0.038 0.336s0.034 0.295 0.071 0.461c0.036 0.166 0.092 0.428 0.122 0.584s0.097 0.404 0.147 0.55c0.050 0.146 0.103 0.321 0.119 0.39 0.030 0.128 0.269 0.735 0.315 0.797 0.014 0.019 0.048 0.091 0.074 0.16s0.101 0.2 0.166 0.292c0.064 0.092 0.116 0.182 0.116 0.199 0 0.038 0.253 0.357 0.543 0.688 0.114 0.129 0.218 0.278 0.232 0.331s0.071 0.13 0.125 0.171c0.089 0.067 0.142 0.073 0.572 0.067l0.475-0.007-0.019 0.113c-0.010 0.062-0.029 0.153-0.041 0.201s-0.026 0.113-0.030 0.142c-0.005 0.029-0.026 0.133-0.049 0.23s-0.071 0.353-0.107 0.567c-0.037 0.214-0.106 0.621-0.155 0.903-0.085 0.494-0.11 0.675-0.207 1.489-0.075 0.627-0.060 2.687 0.028 3.688 0.022 0.258 0.087 0.336 0.245 0.295 0.123-0.030 0.139-0.134 0.093-0.589-0.021-0.215-0.031-0.403-0.021-0.419s0.001-0.177-0.019-0.357c-0.037-0.323-0.051-2.007-0.020-2.353 0.008-0.097 0.033-0.424 0.055-0.726s0.055-0.63 0.073-0.727c0.019-0.098 0.058-0.353 0.087-0.567 0.051-0.374 0.172-0.98 0.348-1.74 0.053-0.225 0.111-0.387 0.157-0.437 0.041-0.044 0.085-0.119 0.097-0.168s0.107-0.211 0.212-0.36c0.333-0.476 0.678-1.15 0.985-1.919 0.248-0.625 0.914-2.644 0.914-2.775 0-0.031 0.014-0.065 0.030-0.076s0.042-0.087 0.055-0.171c0.028-0.174 0.106-0.458 0.202-0.73 0.037-0.104 0.067-0.233 0.067-0.286s0.033-0.198 0.073-0.321c0.040-0.123 0.082-0.297 0.092-0.387s0.040-0.251 0.066-0.359c0.026-0.107 0.058-0.266 0.069-0.354s0.035-0.231 0.053-0.319c0.040-0.197 0.131-0.979 0.177-1.524 0.019-0.224 0.051-0.607 0.071-0.85 0.051-0.61 0.139-1.735 0.161-2.056 0.010-0.146 0.034-0.696 0.053-1.222s0.051-1.148 0.071-1.383c0.075-0.897 0.080-0.795-0.047-0.848-0.062-0.026-0.192-0.067-0.29-0.091s-0.288-0.075-0.425-0.112c-0.137-0.037-0.487-0.098-0.78-0.137s-0.723-0.102-0.957-0.143c-0.869-0.152-2.473-0.258-2.562-0.169zM0.236 4.816c-0.374 0.092-0.334 0.457 0.073 0.654 0.284 0.138 0.625 0.175 1.355 0.148 0.667-0.026 0.797-0.057 0.797-0.192 0-0.177-0.268-0.279-1.405-0.535-0.37-0.083-0.673-0.111-0.82-0.074zM13.766 5.564c-0.062 0.115-0.030 0.227 0.069 0.241s0.18-0.072 0.18-0.192c0-0.132-0.186-0.167-0.249-0.049zM4.432 7.53c-0.030 0.030-0.064 0.114-0.076 0.186s-0.030 0.172-0.042 0.221c-0.012 0.049-0.026 0.128-0.033 0.177s-0.028 0.2-0.049 0.336c-0.020 0.137-0.069 0.479-0.107 0.762s-0.078 0.538-0.087 0.567c-0.009 0.029-0.024 0.141-0.034 0.248s-0.028 0.298-0.039 0.425c-0.011 0.127-0.035 0.349-0.054 0.494-0.027 0.216-0.023 0.278 0.022 0.345 0.029 0.046 0.075 0.083 0.102 0.083 0.109 0 0.121-0.058 0.22-1.116 0.022-0.229 0.168-1.308 0.227-1.683 0.021-0.127 0.053-0.342 0.071-0.478s0.053-0.307 0.075-0.38c0.031-0.103 0.030-0.144-0.005-0.186-0.057-0.069-0.123-0.069-0.191 0zM12.596 8.434c-0.033 0.063-0.030 0.088 0.016 0.135 0.075 0.076 0.18 0.015 0.18-0.105 0-0.116-0.138-0.137-0.195-0.030zM8.483 10.292c-0.086 0.048-0.252 0.138-0.369 0.2s-0.262 0.15-0.322 0.195c-0.060 0.046-0.124 0.084-0.141 0.084-0.029 0-0.527 0.287-0.839 0.484-0.073 0.046-0.141 0.083-0.153 0.083s-0.27 0.146-0.576 0.325c-0.306 0.178-0.66 0.376-0.787 0.438s-0.31 0.161-0.408 0.218c-0.205 0.121-0.863 0.429-1.161 0.544-0.168 0.064-0.204 0.093-0.204 0.162 0 0.117 0.106 0.165 0.254 0.115 0.065-0.021 0.135-0.051 0.154-0.066s0.076-0.038 0.124-0.053c0.098-0.030 0.574-0.262 1.010-0.493 0.156-0.083 0.503-0.264 0.77-0.404s0.539-0.286 0.603-0.324c0.161-0.096 0.533-0.304 0.806-0.451 0.127-0.068 0.311-0.168 0.408-0.223 0.448-0.249 0.551-0.305 0.833-0.453 0.345-0.182 0.426-0.243 0.426-0.325 0-0.162-0.195-0.187-0.428-0.055zM13.414 11.496c-0.058 0.069-0.034 0.234 0.040 0.28 0.115 0.073 0.292-0.195 0.193-0.294-0.053-0.053-0.184-0.046-0.234 0.014zM14.977 11.572c-0.178 0.124 0.017 0.471 0.207 0.369 0.069-0.037 0.077-0.063 0.060-0.189-0.011-0.080-0.048-0.166-0.082-0.191-0.079-0.058-0.087-0.058-0.185 0.011zM7.648 12.621c-0.092 0.044-0.201 0.271-0.184 0.384 0.007 0.044 0.053 0.112 0.104 0.149 0.085 0.063 0.102 0.064 0.217 0.017 0.137-0.058 0.241-0.18 0.241-0.285 0-0.037-0.033-0.121-0.074-0.187-0.077-0.126-0.161-0.147-0.303-0.078zM12.589 12.777c-0.22 0.116-0.189 0.451 0.052 0.567 0.107 0.051 0.132 0.051 0.248 0.003 0.162-0.067 0.207-0.232 0.116-0.424-0.073-0.153-0.27-0.222-0.417-0.146zM15.136 13.672c-0.092 0.101-0.075 0.213 0.035 0.241 0.147 0.037 0.254-0.156 0.147-0.263-0.060-0.060-0.114-0.053-0.182 0.023zM6.038 13.836c-0.050 0.027-0.121 0.116-0.158 0.198-0.067 0.147-0.066 0.15 0.008 0.277 0.066 0.114 0.092 0.13 0.233 0.139 0.218 0.015 0.381-0.116 0.381-0.308 0-0.112-0.021-0.148-0.148-0.245-0.166-0.128-0.186-0.132-0.315-0.062zM8.038 13.97c-0.015 0.024-0.031 0.187-0.035 0.363-0.008 0.322-0.082 0.874-0.15 1.134-0.021 0.078-0.048 0.213-0.060 0.301s-0.030 0.173-0.041 0.19c-0.010 0.017-0.030 0.081-0.045 0.142-0.091 0.378-0.204 0.728-0.426 1.319-0.139 0.368-0.289 0.773-0.335 0.9s-0.124 0.314-0.175 0.416c-0.051 0.103-0.092 0.195-0.092 0.205s-0.105 0.232-0.232 0.494c-0.196 0.4-0.227 0.487-0.194 0.548 0.044 0.082 0.185 0.098 0.241 0.029 0.117-0.146 0.623-1.22 0.813-1.728 0.389-1.034 0.6-1.755 0.806-2.746 0.012-0.059 0.045-0.217 0.073-0.352s0.062-0.433 0.075-0.663c0.020-0.357 0.015-0.431-0.036-0.508-0.064-0.097-0.143-0.116-0.187-0.046zM4.103 14.039c-0.119 0.153-0.070 0.311 0.095 0.311 0.113 0 0.159-0.087 0.136-0.253-0.014-0.096-0.171-0.136-0.231-0.058zM4.501 15.753c-0.085 0.085-0.069 0.218 0.033 0.284 0.083 0.054 0.095 0.054 0.178 0 0.15-0.098 0.087-0.34-0.089-0.34-0.036 0-0.091 0.025-0.121 0.055zM14.887 15.893c-0.069 0.069-0.071 0.092-0.010 0.173 0.026 0.035 0.077 0.058 0.115 0.051 0.052-0.010 0.069-0.043 0.069-0.136 0-0.141-0.080-0.182-0.173-0.088zM12.526 15.963c-0.087 0.104 0.037 0.412 0.496 1.233 0.136 0.243 0.165 0.275 0.245 0.266 0.153-0.018 0.132-0.139-0.094-0.534-0.114-0.2-0.262-0.49-0.329-0.646s-0.136-0.304-0.154-0.328c-0.044-0.059-0.112-0.055-0.165 0.009zM14.312 17.379c-0.035 0.092 0.014 0.168 0.101 0.155 0.058-0.008 0.080-0.035 0.080-0.1s-0.021-0.092-0.080-0.1c-0.048-0.007-0.089 0.011-0.101 0.044zM4.782 17.937c-0.096 0.054-0.123 0.1-0.123 0.207-0.001 0.262 0.305 0.224 0.372-0.046 0.042-0.169-0.087-0.253-0.249-0.161zM5.282 19.4c-0.108 0.165-0.042 0.321 0.126 0.297 0.055-0.008 0.096-0.053 0.132-0.149 0.048-0.128 0.047-0.141-0.015-0.186-0.098-0.072-0.18-0.059-0.244 0.039zM14.975 19.681c-0.051 0.060-0.101 0.499-0.124 1.062-0.009 0.231-0.024 0.426-0.031 0.435-0.025 0.025-0.129-0.521-0.153-0.802-0.013-0.149-0.007-0.324 0.013-0.397 0.030-0.11 0.026-0.14-0.026-0.187-0.232-0.21-0.329 0.367-0.182 1.080 0.107 0.522 0.175 0.639 0.305 0.531 0.046-0.038 0.053-0.013 0.055 0.182 0.001 0.124 0.009 0.322 0.018 0.438s0.032 0.42 0.051 0.674c0.062 0.822 0.176 1.946 0.213 2.081 0.198 0.739 0.43 1.338 0.668 1.725 0.061 0.1 0.112 0.188 0.112 0.197s0.052 0.089 0.115 0.18c0.063 0.090 0.131 0.191 0.151 0.223 0.205 0.336 0.602 0.729 0.966 0.956 0.392 0.244 0.742 0.479 0.819 0.549 0.084 0.077 0.287 0.371 0.287 0.416 0 0.030-0.607 0.072-1.289 0.090-0.29 0.008-0.851 0.055-1.247 0.103s-0.917 0.104-1.156 0.122-0.58 0.046-0.755 0.062c-0.322 0.028-0.68 0.032-1.53 0.014-0.508-0.010-0.667 0.027-0.667 0.157 0 0.068 0.036 0.072 0.885 0.102 0.616 0.021 1.016 0.019 1.312-0.009 0.234-0.022 0.632-0.058 0.885-0.078s0.509-0.045 0.567-0.053c0.059-0.008 0.274-0.031 0.478-0.051s0.399-0.044 0.431-0.055 0.539-0.025 1.127-0.033c0.998-0.013 1.078-0.019 1.222-0.089 0.326-0.158 0.283-0.553-0.098-0.897-0.098-0.088-0.574-0.482-0.681-0.562-0.162-0.122-0.839-0.72-1.084-0.957-0.481-0.466-0.825-0.923-0.942-1.249-0.221-0.624-0.421-1.753-0.492-2.784-0.012-0.166-0.027-0.349-0.034-0.408-0.032-0.252-0.026-1.632 0.008-2.038 0.041-0.484 0.040-0.668-0.002-0.736-0.037-0.059-0.146-0.056-0.197 0.005zM5.248 22.083c-0.034 0.053-0.060 0.218-0.073 0.469-0.027 0.491-0.056 0.815-0.089 1-0.015 0.081-0.013 0.173 0.005 0.204 0.038 0.069 0.147 0.075 0.2 0.010s0.139-0.767 0.153-1.259c0.010-0.381 0.007-0.406-0.066-0.454-0.071-0.047-0.082-0.045-0.13 0.030zM4.819 22.11c-0.123 0.2-0.16 0.646-0.25 3.117-0.033 0.903-0.044 1.039-0.124 1.49-0.112 0.628-0.155 0.768-0.402 1.278-0.242 0.5-0.397 0.713-0.874 1.201-0.426 0.435-0.715 0.68-1.24 1.051-0.107 0.076-0.227 0.166-0.266 0.2s-0.175 0.139-0.303 0.232c-0.496 0.361-0.625 0.515-0.528 0.631 0.057 0.069 0.261 0.066 0.32-0.005 0.026-0.031 0.128-0.111 0.226-0.177 0.18-0.121 0.387-0.273 0.551-0.404 0.049-0.039 0.109-0.071 0.133-0.071s0.044-0.016 0.044-0.035c0-0.036 0.379-0.305 0.487-0.345 0.094-0.036 0.543-0.331 0.66-0.433 0.415-0.365 0.784-0.839 1.038-1.331 0.141-0.274 0.363-0.875 0.456-1.24 0.070-0.274 0.121-0.979 0.14-1.924 0.009-0.474 0.026-0.877 0.038-0.897s0.021-0.291 0.019-0.602c-0.002-0.39 0.014-0.648 0.052-0.822 0.080-0.374 0.121-0.811 0.083-0.884-0.036-0.067-0.224-0.087-0.26-0.029zM15.413 27.428c-0.117 0.034-0.34 0.073-0.496 0.088-0.286 0.026-0.371 0.060-0.371 0.146 0 0.101 0.218 0.17 0.531 0.169 0.412-0.001 0.709-0.135 0.709-0.321 0-0.064-0.101-0.166-0.148-0.148-0.006 0.002-0.107 0.032-0.225 0.066zM13.641 27.714c-0.592 0.401-0.737 0.482-1.553 0.865-0.505 0.237-0.838 0.471-0.838 0.588s0.137 0.176 0.319 0.136c0.392-0.087 0.825-0.281 1.234-0.555 0.123-0.083 0.243-0.151 0.266-0.152 0.040-0.002 0.327-0.184 0.741-0.469 0.192-0.132 0.276-0.248 0.276-0.378 0-0.223-0.149-0.234-0.444-0.035zM16.407 28.687c-0.019 0.008-0.379 0.039-0.797 0.069s-0.89 0.071-1.046 0.090c-0.156 0.018-0.562 0.042-0.903 0.053-0.745 0.024-1.081 0.071-1.174 0.163-0.18 0.18-0.077 0.201 0.837 0.17 2.389-0.082 3.462-0.16 3.679-0.27 0.123-0.062 0.118-0.183-0.011-0.248-0.080-0.040-0.497-0.060-0.584-0.027zM4.058 29.605c-0.062 0.075 0.008 0.183 0.175 0.268 0.11 0.056 0.209 0.071 0.474 0.071 0.184 0 0.361-0.010 0.392-0.021 0.065-0.025 0.075-0.175 0.014-0.213-0.023-0.014-0.196-0.028-0.386-0.030-0.257-0.003-0.366-0.020-0.436-0.064-0.112-0.073-0.178-0.076-0.234-0.010zM5.795 29.782c-0.055 0.058-0.073 0.109-0.058 0.157 0.030 0.098 0.32 0.329 0.515 0.414 0.088 0.038 0.229 0.109 0.314 0.157 0.175 0.101 0.327 0.186 0.607 0.343 0.25 0.139 0.519 0.299 0.694 0.413 0.076 0.049 0.209 0.109 0.295 0.131 0.139 0.037 0.163 0.033 0.225-0.028 0.064-0.065 0.065-0.076 0.012-0.156-0.070-0.107-0.454-0.421-0.627-0.512-0.070-0.038-0.19-0.115-0.266-0.173s-0.171-0.125-0.209-0.149c-0.135-0.083-0.934-0.47-0.97-0.47-0.020 0-0.107-0.048-0.194-0.106-0.191-0.129-0.235-0.132-0.339-0.021zM3.010 30.826c-0.11 0.017-0.144 0.039-0.153 0.099-0.017 0.116 0.071 0.144 0.543 0.171 0.741 0.044 1.531 0.114 1.573 0.14 0.013 0.008 0.246 0.024 0.519 0.036s0.694 0.036 0.938 0.053c0.399 0.028 0.451 0.025 0.531-0.031 0.057-0.040 0.093-0.105 0.1-0.177 0.021-0.209 0.001-0.214-0.786-0.215-0.974-0.001-2.33-0.028-2.61-0.053-0.127-0.011-0.294-0.026-0.372-0.033s-0.205-0.001-0.284 0.010zM1.788 31.123c-0.147 0.052-0.176 0.153-0.078 0.275 0.057 0.070 0.115 0.087 0.383 0.112 0.404 0.038 0.499 0.049 1.29 0.156 0.361 0.049 0.783 0.105 0.939 0.125s0.499 0.075 0.762 0.121c0.825 0.148 1.84 0.107 2.783-0.11 0.242-0.055 0.358-0.157 0.301-0.263-0.055-0.102-0.149-0.113-0.467-0.055-0.46 0.084-1.174 0.143-1.661 0.137-0.471-0.006-1.167-0.087-2.213-0.259-1.71-0.281-1.866-0.299-2.038-0.238z"></path>
</svg>
