<?xml version="1.0" encoding="UTF-8" standalone="no"?>
<!-- Created with Inkscape (http://www.inkscape.org/) -->

<svg
   width="210mm"
   height="162mm"
   viewBox="0 0 210 162"
   version="1.1"
   id="svg242"
   inkscape:version="1.2.2 (b0a84865, 2022-12-01)"
   sodipodi:docname="armor.svg"
   xmlns:inkscape="http://www.inkscape.org/namespaces/inkscape"
   xmlns:sodipodi="http://sodipodi.sourceforge.net/DTD/sodipodi-0.dtd"
   xmlns="http://www.w3.org/2000/svg"
   xmlns:svg="http://www.w3.org/2000/svg">
  <sodipodi:namedview
     id="namedview244"
     pagecolor="#ffffff"
     bordercolor="#000000"
     borderopacity="0.25"
     inkscape:showpageshadow="2"
     inkscape:pageopacity="0.0"
     inkscape:pagecheckerboard="0"
     inkscape:deskcolor="#d1d1d1"
     inkscape:document-units="mm"
     showgrid="false"
     inkscape:zoom="0.2102413"
     inkscape:cx="394.78447"
     inkscape:cy="561.25984"
     inkscape:window-width="1344"
     inkscape:window-height="456"
     inkscape:window-x="0"
     inkscape:window-y="44"
     inkscape:window-maximized="0"
     inkscape:current-layer="layer1" />
  <defs
     id="defs239">
    <clipPath
       id="84e38e153e">
      <path
         d="M 297,119 H 436 V 238 H 297 Z m 0,0"
         clip-rule="nonzero"
         id="path5" />
    </clipPath>
    <clipPath
       id="1107db2291">
      <path
         d="m 310.07031,119.26172 125.78516,15.60547 -12.73828,102.71093 -125.78907,-15.60156 z m 0,0"
         clip-rule="nonzero"
         id="path8" />
    </clipPath>
    <clipPath
       id="7f34b79082">
      <rect
         x="0"
         width="139"
         y="0"
         height="119"
         id="rect20" />
    </clipPath>
    <clipPath
       id="83ea559ac6">
      <path
         d="M 6,1 H 128 V 113 H 6 Z m 0,0"
         clip-rule="nonzero"
         id="path11" />
    </clipPath>
    <clipPath
       id="560efde5ee">
      <path
         d="M 13.070312,0.261719 138.85547,15.867188 126.11719,118.57813 0.328125,102.97656 Z m 0,0"
         clip-rule="nonzero"
         id="path14" />
    </clipPath>
    <clipPath
       id="8f9fab3406">
      <path
         d="M 138.625,15.835938 12.839844,0.234375 0.0976562,102.94531 125.88281,118.55078 Z m 0,0"
         clip-rule="nonzero"
         id="path17" />
    </clipPath>
  </defs>
  <g
     inkscape:label="Ebene 1"
     inkscape:groupmode="layer"
     id="layer1">
    <g
       clip-path="url(#84e38e153e)"
       id="g47"
       transform="matrix(1.6901158,0,0,1.6901158,-510.22619,-235.01856)">
      <g
         clip-path="url(#1107db2291)"
         id="g45">
        <g
           transform="translate(297,119)"
           id="g43">
          <g
             clip-path="url(#7f34b79082)"
             id="g41">
            <g
               clip-path="url(#83ea559ac6)"
               id="g39">
              <g
                 clip-path="url(#560efde5ee)"
                 id="g37">
                <g
                   clip-path="url(#8f9fab3406)"
                   id="g35">
                  <path
                     fill="#280f91"
                     d="m 26.117188,2.050781 c 0.125,0.277344 -0.265626,0.527344 -0.453126,0.289063 -0.15625,-0.199219 -0.0039,-0.515625 0.234376,-0.484375 0.07422,0.00781 0.171874,0.097656 0.21875,0.195312 M 75.625,23.460938 c 0.523438,0.289062 1.214844,0.761718 1.539062,1.042968 0.84375,0.742188 1.785157,2.195313 1.976563,3.054688 l 0.164063,0.738281 0.738281,0.01953 c 0.953125,0.02734 2.011719,0.664063 3.292969,1.988282 2.429687,2.507812 3.257812,4.386718 2.964843,6.722656 -0.253906,2.027344 -1.230469,3.144531 -3.007812,3.4375 -0.515625,0.08984 -0.789063,0.210937 -0.769531,0.351562 0.117187,0.933594 0.05469,2.457032 -0.140626,3.480469 -0.578124,2.992187 -1.945312,4.195313 -4.453124,3.917969 -0.582032,-0.0625 -1.234376,-0.183594 -1.449219,-0.269532 -0.386719,-0.148437 -0.394531,-0.140624 -0.574219,0.777344 -0.121094,0.609375 -0.3125,1.0625 -0.550781,1.3125 -0.839844,0.890625 -4.382813,2.453125 -5.746094,2.539063 l -0.558594,0.03516 0.851563,0.5625 c 0.574218,0.382813 1.285156,1.125 2.203125,2.296875 2.953125,3.777344 3.980469,7.117188 3.464843,11.304688 -0.242187,1.96875 -0.5625,2.824218 -1.4375,3.8125 -0.785156,0.894531 -1.246093,1.078124 -1.613281,0.648437 -0.410156,-0.476563 -0.488281,-1.25 -0.347656,-3.566406 C 72.402344,63.871094 71.941406,62.058594 69.496094,57.179688 68.695312,55.585938 68.023438,54.121094 68,53.925781 67.957031,53.597656 67.859375,53.625 66.300781,54.421875 c -1.585937,0.8125 -2.253906,1.039063 -3.664062,1.242187 -0.351563,0.05469 -1.25,0.195313 -1.996094,0.3125 -3.402344,0.550782 -5.351563,0.1875 -7.917969,-1.484374 -1.484375,-0.964844 -2.199218,-1.84375 -2.789062,-3.425782 -0.347656,-0.933594 -0.644532,-1.441406 -1.035156,-1.78125 -1.003907,-0.875 -1.023438,-1.984375 -0.08203,-5.320312 0.296875,-1.039063 0.679688,-2.449219 0.855469,-3.136719 0.40625,-1.585937 0.765625,-2.136719 1.347656,-2.066406 0.265625,0.03516 0.558594,0.230469 0.777344,0.527343 l 0.351563,0.472657 -0.425782,4.09375 c -0.472656,4.515625 -0.441406,5.421875 0.203125,6.667969 0.757813,1.453124 2.371094,3.007812 3.679688,3.539062 0.804687,0.324219 2.132812,0.222656 4.375,-0.332031 0.753906,-0.1875 1.90625,-0.394531 2.5625,-0.460938 2.152343,-0.210937 2.449219,-0.285156 3.445312,-0.855469 0.542969,-0.3125 1.101563,-0.558593 1.242188,-0.546874 0.164062,0.01172 0.1875,-0.01563 0.06641,-0.08203 -0.21875,-0.121094 -0.542969,-0.941406 -0.503906,-1.269531 0.07031,-0.542969 0.492187,-0.625 2.207031,-0.425781 1.847656,0.214844 2.484375,0.113281 3.5625,-0.550782 1.535156,-0.949218 1.792969,-2.628906 0.542969,-3.515624 -0.414063,-0.296876 -1.65625,-0.07422 -2.421875,0.429687 -0.382813,0.253906 -1.101563,0.601563 -1.597656,0.773437 -0.832032,0.289063 -1.050782,0.292969 -2.6875,0.08203 -2.007813,-0.257813 -2.542969,-0.480469 -3.261719,-1.351563 -0.472657,-0.570312 -0.484375,-0.578125 -1.121094,-0.433593 -1.164063,0.257812 -2.179687,-0.0078 -3.703125,-0.972657 C 57.3711,43.957031 56.445318,42.792969 56.324225,42.054688 56.246095,41.570312 56.191412,41.519531 55.703131,41.5 c -1.191406,-0.04297 -2.652344,-1.175781 -3.21875,-2.488281 -0.378906,-0.882813 -0.71875,-2.296875 -0.660156,-2.769531 0.03125,-0.238282 -0.04687,-0.359376 -0.246094,-0.382813 -0.160156,-0.01953 -0.511719,-0.351563 -0.78125,-0.734375 -1.582031,-2.261719 -1.09375,-5.621094 1.097656,-7.515625 0.738281,-0.636719 2.417969,-1.105469 3.757813,-1.046875 0.710937,0.02734 0.980468,0.113281 1.351562,0.414062 0.605469,0.496094 0.574219,1.042969 -0.05078,0.917969 -0.578125,-0.117187 -2.160156,0.464844 -2.972656,1.097657 -1.03125,0.804687 -2.003907,2.40625 -2.292969,3.777343 -0.15625,0.746094 -0.199219,1.351563 -0.121094,1.742188 0.06641,0.328125 0.148438,0.574219 0.1875,0.546875 0.03516,-0.03125 0.183594,-0.417969 0.324219,-0.859375 0.304687,-0.945313 0.679687,-1.324219 1.25,-1.253907 0.675781,0.08594 1.078125,0.832032 1.589844,2.957032 0.148437,0.605468 0.40625,1.421875 0.570312,1.808594 0.382813,0.882812 0.761719,0.957031 1.789063,0.355468 0.414062,-0.238281 0.914062,-0.5 1.109375,-0.574218 0.476562,-0.183594 1.191406,0.08203 1.429687,0.53125 0.253906,0.472656 0.101563,1.597656 -0.269531,2.039062 -0.292969,0.34375 -0.292969,0.351562 0.371094,0.75 0.367187,0.21875 1.109375,0.496094 1.648437,0.613281 0.910156,0.203125 0.992188,0.195313 1.210938,-0.117187 0.15625,-0.21875 0.253906,-0.707032 0.289062,-1.4375 0.05859,-1.25 0.246094,-1.617188 0.785156,-1.550782 0.433594,0.05469 1.28125,0.949219 1.527344,1.613282 0.257813,0.699218 0.05469,1.769531 -0.535156,2.84375 -0.292969,0.523437 -0.566406,1.171875 -0.609375,1.4375 -0.07422,0.445312 -0.04297,0.488281 0.464844,0.59375 0.539062,0.113281 1.261719,-0.02734 3.796875,-0.734375 2.304687,-0.640625 5.148437,-0.578125 6.984375,0.160156 0.488281,0.195313 1.371093,0.453125 1.960937,0.574219 0.902344,0.183594 1.183594,0.179687 1.753906,-0.02734 0.910157,-0.328125 1.601563,-1.058594 1.804688,-1.898438 0.296875,-1.234374 0.167969,-1.667968 -0.90625,-3.121093 -0.550781,-0.742188 -0.984375,-1.488281 -0.964844,-1.65625 0.03125,-0.25 -0.03906,-0.222657 -0.371094,0.144531 -0.546874,0.609375 -1.625,1.015625 -2.144531,0.816406 -0.566406,-0.222656 -0.753906,-0.746094 -0.699219,-1.933594 0.0625,-1.265624 -0.08203,-1.667968 -0.726562,-2.035156 -0.40625,-0.234375 -0.488281,-0.371094 -0.445312,-0.734375 0.136718,-1.085937 2.285156,-1.222656 3.480468,-0.226562 1.089844,0.910156 1.359375,1.460937 1.261719,2.582031 -0.05469,0.632812 -0.05469,0.628906 0.4375,0.4375 0.195313,-0.07813 0.828125,-0.09766 1.402344,-0.03906 2.035156,0.207031 2.46875,-0.917969 1.300781,-3.363282 -0.851562,-1.789062 -2.917969,-4.25 -3.457031,-4.117187 -0.125,0.03125 -0.304688,0.316406 -0.394531,0.632812 -0.332032,1.15625 -0.640626,1.726563 -1.183594,2.1875 -1.050782,0.886719 -2.367188,0.539063 -2.222656,-0.59375 0.03516,-0.261719 0.308593,-1.039062 0.609374,-1.730469 0.789063,-1.824218 0.792969,-2.113281 0.03516,-3.160156 -0.925781,-1.28125 -2.3125,-2.046875 -2.582031,-1.425781 -0.195313,0.449219 -0.394532,1.269531 -0.675782,2.746094 -0.382812,2.03125 -0.839844,2.492187 -1.527344,1.542969 -0.210937,-0.289063 -0.457031,-0.925782 -0.546874,-1.414063 -0.414063,-2.242187 -2.6875,-3.886719 -4.761719,-3.441406 C 65.242188,25.125 65.109375,25.53125 65.25,27.003906 c 0.121094,1.269532 0.01953,1.769532 -0.429688,2.117188 C 64.347656,29.492188 64,29.292969 62.949219,28.042969 c -0.5625,-0.667969 -1.210938,-1.289063 -1.433594,-1.375 -0.234375,-0.08984 -0.804687,-0.101563 -1.335937,-0.03125 -1.058594,0.148437 -1.484376,0.03516 -1.566407,-0.417969 -0.117187,-0.621094 0.253907,-1.335938 0.96875,-1.867188 0.890625,-0.667968 1.769531,-0.808593 3.136719,-0.5 l 1.039062,0.234376 0.851563,-0.660157 c 1.144531,-0.886719 2.242187,-1.140625 4.222656,-0.972656 1.632813,0.132813 2.363281,0.449219 2.757813,1.195313 l 0.1875,0.355468 0.308594,-0.367187 c 0.457031,-0.539063 1.308593,-0.871094 1.992187,-0.78125 0.328125,0.04297 1.023437,0.316406 1.546875,0.605469 m -33.097656,3.605468 c 0.457031,0.3125 0.90625,0.652344 1,0.753906 0.09375,0.101563 0.703125,0.695313 1.355468,1.320313 2.046876,1.957031 5.007813,5.542969 6.3125,7.648437 0.386719,0.625 0.464844,0.882813 0.351563,1.175782 -0.261719,0.675781 -0.789063,0.410156 -1.730469,-0.871094 -2.085937,-2.835938 -4.484375,-5.652344 -6.023437,-7.078125 l -0.386719,-0.359375 0.398438,0.917969 c 0.570312,1.320312 1.808593,3.597656 3.019531,5.554687 1.171875,1.890625 1.539062,2.789063 1.449219,3.515625 -0.05469,0.441407 -0.105469,0.484375 -0.519532,0.433594 -0.46875,-0.05859 -0.773437,-0.347656 -2.320312,-2.203125 -0.730469,-0.878906 -2.25,-2.429688 -2.390625,-2.449219 -0.04687,-0.0039 0.03125,0.164063 0.175781,0.375 0.144531,0.210938 0.367188,0.609375 0.492188,0.882813 0.125,0.273437 0.707031,1.34375 1.296874,2.382812 0.589844,1.035156 1.066407,1.917969 1.0625,1.960938 -0.0078,0.04297 0.121094,0.335937 0.28125,0.652344 0.554688,1.082031 1.058594,2.753906 1.007813,3.324218 -0.05078,0.523438 -0.09375,0.570313 -0.519531,0.566406 -0.410156,-0.0039 -0.617188,-0.214843 -1.847656,-1.871093 -1.375,-1.855469 -1.464844,-1.898438 -1.03125,-0.492188 0.671874,2.175781 0.710937,3.394531 0.121093,3.621094 -0.304687,0.117187 -0.425781,0.02734 -1.042969,-0.789063 -1.210937,-1.609374 -2.125,-3.644531 -2.964843,-6.597656 -0.511719,-1.8125 -0.539063,-2.089844 -0.214844,-2.34375 0.316406,-0.246094 0.636719,-0.152344 1.21875,0.359375 0.632813,0.554688 0.675781,0.46875 0.179687,-0.351562 -0.550781,-0.917969 -1.898437,-4.785157 -1.925781,-5.53125 -0.01953,-0.558594 0.02344,-0.667969 0.324219,-0.785157 0.535156,-0.203124 1.273438,0.109376 2.398438,1.019532 0.558593,0.453125 0.992187,0.761718 0.960937,0.6875 -0.03125,-0.07031 -0.445313,-1.003906 -0.917969,-2.074219 C 41.625,29.355469 41.160156,28.152344 41.058594,27.75 c -0.171875,-0.699219 -0.164063,-0.746094 0.136718,-1.003906 0.171876,-0.148438 0.355469,-0.265625 0.410157,-0.257813 0.05078,0.0039 0.46875,0.265625 0.921875,0.578125 m 27.152344,4.011719 c 1.027343,0.507813 1.816406,1.371094 1.511718,1.65625 -0.152344,0.148437 -0.570312,0.148437 -1.617187,0.0039 -0.777344,-0.109375 -2,-0.171875 -2.71875,-0.144531 -1.4375,0.05859 -1.78125,-0.07422 -1.792969,-0.6875 -0.01953,-0.804688 1.621094,-1.535156 3.007812,-1.34375 0.4375,0.0625 1.160157,0.292969 1.609376,0.515625 m -8.40625,0.05469 c 0.730468,0.625 1.296874,1.734376 1.214843,2.382813 -0.121093,0.976563 -1.175781,2.144531 -1.859375,2.058594 -0.660156,-0.08203 -0.882812,-0.464844 -0.878906,-1.5 0.0078,-1.121094 -0.128906,-1.386719 -0.96875,-1.890625 -0.742188,-0.445313 -0.753906,-0.769532 -0.03906,-1.363282 0.707031,-0.59375 1.605468,-0.480468 2.53125,0.3125 M 32.910156,29.390625 c 0.226563,0.207031 0.292969,0.507813 0.277344,1.273437 l -0.01563,1.003907 0.5625,-0.08203 c 0.308594,-0.04688 0.578125,-0.05859 0.601563,-0.02734 0.02344,0.03125 0.597656,1.179687 1.28125,2.554687 1.535156,3.089844 2.4375,5.226563 3.597656,8.503907 0.496094,1.394531 0.949218,2.613281 1.003906,2.707031 0.05859,0.09375 0.355469,0.832031 0.65625,1.644531 1.070312,2.871094 0.980469,2.71875 1.492188,2.527344 0.742187,-0.273438 3.695312,-0.988282 4.519531,-1.09375 0.617187,-0.08203 0.804687,-0.05469 0.980469,0.128906 0.511718,0.546875 0.09375,0.914062 -2.625,2.308594 -0.824219,0.425781 -1.691407,0.886718 -1.921876,1.027344 l -0.421874,0.257812 0.28125,0.632812 c 0.464843,1.046876 0.90625,2.511719 1.183593,3.953126 0.144531,0.75 0.285157,1.394531 0.308594,1.429687 0.02734,0.03906 0.183594,-0.02344 0.347656,-0.140625 1.226563,-0.863281 2.136719,-0.285156 4.734375,3.015625 2.003906,2.546875 2.261719,2.792969 3.230469,3.089844 0.332031,0.09766 0.804687,0.265625 1.046875,0.371093 0.246094,0.105469 0.988281,0.378907 1.648438,0.605469 1.441406,0.5 2.183593,0.96875 2.871093,1.8125 l 0.519531,0.632813 0.300782,-0.292969 c 0.824218,-0.808594 4.105468,-2.875 5.164062,-3.246094 1.296875,-0.460937 1.878906,-0.457031 2.214844,0.02344 0.195312,0.273437 0.195312,0.382812 0,0.664062 -0.597656,0.859375 -5.273438,4.613281 -6.449219,5.175781 -0.714843,0.34375 -1.28125,0.109376 -3.28125,-1.363281 C 54.09375,66.328125 53.652344,66.140625 51.484375,66.09375 50.710938,66.078125 50.292969,66 50.042969,65.828125 c -0.195313,-0.132813 -1.039063,-1.417969 -1.878907,-2.851563 -1.710937,-2.925781 -2.246093,-3.585937 -1.785156,-2.203124 0.351563,1.054687 -0.324218,1.347656 -1.183594,0.507812 -0.246093,-0.242188 -0.628906,-0.511719 -0.855468,-0.597656 -0.390625,-0.152344 -0.402344,-0.140625 -0.265625,0.21875 0.08203,0.210937 0.382812,0.691406 0.667969,1.074218 0.628906,0.84375 0.722656,1.238282 0.359374,1.519532 -0.246093,0.191406 -0.21875,0.273437 0.289063,0.875 0.53125,0.628906 0.546875,0.679687 0.285156,0.984375 -0.269531,0.3125 -0.253906,0.335937 0.78125,1.027343 2.011719,1.34375 4.453125,3.9375 4.566407,4.855469 0.03125,0.269531 -0.04297,0.480469 -0.21875,0.617188 C 50.398438,72.171875 49.625,71.851562 48.75,71.003906 47.699219,69.984375 46.335938,68.84375 45.148438,67.992188 44.597656,67.59375 43.820312,66.941406 43.425781,66.539062 c -1.125,-1.140624 -1.191406,-1.785156 -0.210937,-2.050781 l 0.5,-0.136719 -0.707032,-0.878906 c -0.390624,-0.484375 -0.695312,-0.984375 -0.679687,-1.109375 0.03906,-0.320312 0.488281,-0.582031 0.753906,-0.4375 0.308594,0.164063 0.296875,0.121094 -0.203125,-0.863281 -0.503906,-0.996094 -0.492187,-1.632812 0.03516,-2.046875 0.34375,-0.265625 0.628907,-0.257813 1.386719,0.04687 0.15625,0.06641 0.25,-0.04297 0.316407,-0.367188 0.04687,-0.25 0.03906,-0.375 -0.01953,-0.273437 -0.199218,0.332031 -0.789062,0.105469 -1.191406,-0.460937 -0.535156,-0.746094 -1.363281,-2.117188 -1.351562,-2.230469 0.0078,-0.05078 -0.246094,-0.605469 -0.558594,-1.238281 l -0.574219,-1.144532 -0.949219,0.476563 c -0.519531,0.261719 -1.4375,0.59375 -2.039062,0.738281 -1.480469,0.359375 -2.148438,0.582031 -3.199219,1.078125 -1.871094,0.886719 -4.792969,1.367187 -5.039063,0.832031 -0.273437,-0.59375 1.0625,-1.394531 3.40625,-2.039062 0.78125,-0.214844 1.710938,-0.480469 2.070313,-0.59375 0.359375,-0.109375 1.046875,-0.269532 1.53125,-0.355469 0.835937,-0.144531 0.914063,-0.203125 1.613281,-1.136719 0.402344,-0.539062 0.902344,-1.109375 1.109375,-1.257812 L 39.804688,50.8125 38.71875,48.21875 c -2.027344,-4.820312 -2.640625,-6.222656 -3.378906,-7.726562 -1.132813,-2.296876 -1.621094,-3.507813 -2.050782,-5.074219 -0.214843,-0.789063 -0.433593,-1.378907 -0.484374,-1.3125 -0.05078,0.0625 -0.179688,0.421875 -0.285157,0.796875 -0.222656,0.789062 -0.902343,2.226562 -1.394531,2.957031 -0.1875,0.277344 -0.949219,1.0625 -1.691406,1.746094 -3.074219,2.832031 -3.847656,3.652343 -5.128906,5.433593 -0.824219,1.152344 -1.273438,2.203126 -1.757813,4.113282 -0.859375,3.410156 -1.101563,4.007812 -1.660156,4.109375 -0.734375,0.136719 -1.617188,-1.4375 -1.761719,-3.15625 -0.242188,-2.8125 1.605469,-6.636719 4.730469,-9.785157 3.53125,-3.5625 5.777343,-5.894531 6.1875,-6.429687 0.253906,-0.324219 0.6875,-1.308594 1.019531,-2.292969 0.527344,-1.566406 0.980469,-2.359375 1.394531,-2.441406 0.08594,-0.01953 0.289063,0.08984 0.453125,0.234375 m 39.394532,7.019531 c 1.171874,1.125 1.394531,1.429688 1.667968,2.269532 0.308594,0.949218 0.1875,1.542968 -0.496094,2.390624 -0.636718,0.796876 -2.171874,1.773438 -2.679687,1.710938 C 70.589844,42.75391 70.289062,42.570312 70.132812,42.367188 69.652344,41.75 69.976562,41.039062 71.125,40.199219 c 0.589844,-0.429688 0.890625,-0.738281 0.773438,-0.792969 -0.109376,-0.04687 -0.691407,-0.179688 -1.296876,-0.292969 -0.789062,-0.148437 -1.332031,-0.355469 -1.910156,-0.734375 -0.945312,-0.613281 -1.25,-1.121094 -1.03125,-1.691406 0.207032,-0.53125 0.683594,-0.726562 1.738282,-0.710938 0.484374,0.0078 1.089843,-0.06641 1.351562,-0.164062 0.65625,-0.242188 0.691406,-0.226562 1.554688,0.597656 m -18.695313,6.5625 c 0.128906,0.171875 0.34375,0.492188 0.480469,0.703125 0.222656,0.359375 0.328125,0.394531 1.386718,0.445313 0.644532,0.03125 1.179688,0.121094 1.222657,0.207031 0.144531,0.324219 -0.226563,0.757813 -0.839844,0.980469 -1.246094,0.453125 -2.855469,-0.04687 -3.148437,-0.972656 -0.238282,-0.757813 0.08203,-1.753907 0.542968,-1.699219 0.06641,0.0078 0.230469,0.160156 0.355469,0.335937 M 28.941406,42.90625 c 0.109375,0.285156 -0.03125,0.457031 -1.027344,1.289062 -0.632812,0.523438 -1.335937,1.265626 -1.558593,1.644532 -1.125,1.902344 -2.160157,3.460937 -2.402344,3.601562 -0.183594,0.105469 -0.347656,0.09766 -0.535156,-0.03516 -0.878907,-0.621094 1.136719,-4.183594 3.363281,-5.945312 1.324219,-1.050782 1.910156,-1.199219 2.160156,-0.554688 M 63.59375,47.875 c 0.222656,0.449219 0.03906,0.984375 -0.441406,1.289062 -0.335938,0.214844 -2.050782,0.01953 -2.644532,-0.300781 -0.578124,-0.316406 -0.925781,-0.730469 -0.886718,-1.0625 0.05859,-0.46875 0.40625,-0.5625 1.089844,-0.285156 0.578124,0.234375 1.496093,0.234375 2.492187,0 0.105469,-0.02734 0.28125,0.136719 0.390625,0.359375 m -7.824219,-0.03516 c 0.308594,0.230468 0.679688,0.632812 0.828125,0.894531 l 0.269532,0.476563 -0.417969,0.261718 c -0.265625,0.167969 -0.554688,0.214844 -0.800781,0.140625 l -0.382813,-0.125 0.328125,0.300781 c 0.808594,0.734376 1.402344,1.507813 1.371094,1.78125 -0.05469,0.449219 -1.070313,0.679688 -1.980469,0.457032 -0.945313,-0.230469 -1.933594,-0.941406 -1.941406,-1.390625 -0.0039,-0.1875 0.117187,-0.523438 0.273437,-0.746094 0.257813,-0.382813 0.257813,-0.441406 -0.03906,-0.886719 -0.546875,-0.824218 -0.171875,-1.660156 0.609375,-1.355468 0.238281,0.08984 0.441406,0.0625 0.59375,-0.07813 0.308593,-0.292968 0.625,-0.226562 1.289062,0.269532 m 37.738281,4.882812 c 3.730469,0.957032 6.605466,2.296875 9.609376,4.492188 2.28515,1.664062 3.29687,2.851562 4.14062,4.839844 0.50782,1.199218 0.0547,2.070312 -1.28515,2.488281 -0.73438,0.226562 -1.0586,0.226562 -3.01953,-0.01953 -2.11719,-0.261719 -2.19532,-0.257813 -2.23438,0.05078 -0.043,0.367187 -0.55859,0.769531 -1.386717,1.085937 -0.75,0.289063 -3.402343,-0.03906 -5.277343,-0.652344 l -1.316407,-0.429687 -0.652343,0.53125 C 91.109375,65.910156 89.847656,66 88.082031,65.398438 c -1.378906,-0.472657 -1.523437,-0.46875 -1.738281,0.07031 -0.335938,0.835938 -1.816406,1.335938 -3.726562,1.257812 -2.015626,-0.08594 -3.664063,-0.890624 -4.804688,-2.34375 -0.832031,-1.0625 -0.933594,-1.519531 -0.398438,-1.785156 0.449219,-0.21875 1.703126,0.08594 3.199219,0.78125 1.710938,0.792969 3.644531,1.277344 4.382813,1.09375 0.363281,-0.08984 0.34375,-0.292968 -0.04297,-0.472656 -0.964844,-0.441406 -2.378906,-1.964844 -2.3125,-2.492188 0.07813,-0.625 1.429687,-0.5 3.359375,0.308594 1.988281,0.839844 3.566406,1.433594 3.90625,1.480469 0.304688,0.03906 0.253906,-0.05078 -0.3125,-0.546875 -0.914062,-0.800781 -1.234375,-1.382812 -0.964844,-1.761719 0.261719,-0.371093 0.757813,-0.398437 1.859375,-0.105469 0.796875,0.214844 2.804688,1.074219 3.539063,1.519532 1.375,0.839844 3.929687,1.625 4.507812,1.386718 0.222656,-0.08984 0.09766,-0.179687 -0.589844,-0.417968 -1.546874,-0.535156 -3.277343,-1.457032 -4.265624,-2.273438 -0.4375,-0.359375 -0.351563,-0.785156 0.167968,-0.851562 0.550782,-0.06641 3.527344,0.476562 5.632813,1.03125 0.910162,0.238281 2.320312,0.5625 3.125002,0.71875 1.26172,0.242187 1.50781,0.25 1.76172,0.05469 0.40625,-0.320312 0.39844,-0.542969 -0.0352,-1.054687 -1.14062,-1.34375 -5.414062,-3.644532 -9.027343,-4.859375 -5.15625,-1.734375 -10.71875,-2.003907 -18.769532,-0.910157 -2.707031,0.371094 -3.769531,0.207032 -3.683594,-0.566406 0.121094,-1.078125 5.890626,-2.855468 9.679688,-2.984375 3.835938,-0.128906 7.882812,0.257813 10.976562,1.046875 m -2.792968,3.183594 c 2.21875,0.386719 3.078125,0.804688 3,1.453125 l -0.04687,0.359375 -2.390625,-0.273438 c -2.191406,-0.25 -3.351563,-0.28125 -8.332032,-0.242187 -3.457031,0.02734 -4.851562,-0.402344 -4.351562,-1.335937 0.527344,-0.992188 6.289062,-0.972657 12.121094,0.03906 m 9.832032,3.222656 c 0.8164,0.410156 1.51171,0.945313 1.48828,1.140625 -0.0898,0.734375 -1.26953,0.695313 -2.570312,-0.08203 -0.949219,-0.566406 -1.105469,-0.929688 -0.554688,-1.273438 0.476563,-0.296874 0.6875,-0.269531 1.63672,0.214844 M 18.578125,51.65625 c 0.175781,0.117188 0.363281,0.429688 0.421875,0.695312 0.15625,0.734376 -0.433594,1.5625 -2.015625,2.828126 -1.808594,1.445312 -2.378906,1.378906 -1.699219,-0.191407 0.179688,-0.414062 0.300782,-0.753906 0.269532,-0.757812 -0.02734,-0.0039 -0.308594,0.07813 -0.621094,0.183593 -0.488282,0.160157 -0.550782,0.234376 -0.449219,0.503907 0.175781,0.449219 -0.246094,0.765625 -1.691406,1.269531 -1.28125,0.445312 -2.085938,0.441406 -2.335938,-0.01172 -0.125,-0.21875 -0.222656,-0.25 -0.5,-0.140625 C 9.625,56.160156 9.589844,56.464844 9.898438,56.5 c 0.078124,0.01172 0.625,0.320312 1.21875,0.6875 1.6875,1.050781 3.109374,1.886719 3.234374,1.902344 0.0625,0.0078 0.01953,-0.121094 -0.08984,-0.285156 -0.5625,-0.824219 -0.261719,-1.527344 0.722656,-1.691407 0.570313,-0.09766 0.683594,-0.07031 1.023437,0.25 0.207032,0.195313 0.636719,1.058594 0.953126,1.910157 0.664062,1.792968 0.621093,2.144531 -0.332032,2.699218 -0.910156,0.53125 -2.046875,0.441406 -3.097656,-0.246094 -0.738281,-0.484374 -2.492188,-1.890624 -2.84375,-2.28125 -0.08203,-0.08984 -0.523438,-0.5 -0.984375,-0.910156 C 9.246094,58.125 8.304688,57.242188 7.613281,56.574219 6.550781,55.546875 6.355469,55.28125 6.367188,54.867188 6.382812,54.257812 6.75,54.046875 8.777344,53.488281 c 0.800781,-0.222656 1.605468,-0.449219 1.78125,-0.507812 0.179687,-0.05469 1.128906,-0.3125 2.105468,-0.570313 3.769532,-0.996094 5.269532,-1.1875 5.914063,-0.753906 m 5.007813,3.746094 c 1.128906,0.28125 1.546874,0.546875 1.496093,0.957031 -0.03125,0.257813 0.03125,0.296875 0.398438,0.246094 0.523437,-0.07031 11.179687,1.253906 11.816406,1.46875 0.242187,0.08203 1.128906,0.28125 1.976563,0.445312 1.757812,0.335938 2.398437,0.667969 2.261718,1.171875 -0.07813,0.285156 -0.25,0.339844 -1.191406,0.386719 C 39.195312,60.136719 30.867188,59.1875 28.386719,58.714844 27.671875,58.582031 26.597656,58.375 25.996094,58.257812 l -1.09375,-0.214843 0.0039,0.652343 c 0.0078,0.558594 -0.05078,0.683594 -0.394531,0.882813 -0.324219,0.1875 -0.371094,0.277344 -0.238281,0.449219 0.273437,0.355468 0.144531,0.777344 -0.226563,0.734375 -0.457031,-0.05859 -1.886719,-1.226563 -3,-2.453125 l -0.941406,-1.039063 -1.117188,-0.08594 c -1.027343,-0.07813 -1.113281,-0.109375 -1.078125,-0.390625 0.03906,-0.332031 0.515625,-0.433594 1.585938,-0.332031 0.429687,0.03906 0.71875,-0.04297 1.007812,-0.285157 0.222656,-0.1875 0.5625,-0.320312 0.761719,-0.296875 0.214844,0.02734 0.429687,-0.08203 0.546875,-0.269531 0.265625,-0.429687 0.671875,-0.476563 1.773438,-0.207031 m -2.1875,4.066406 c 0.230468,0.101562 0.386718,0.324219 0.425781,0.613281 0.03516,0.25 0.242187,0.742188 0.457031,1.089844 0.800781,1.300781 0.441406,1.902344 -1.21875,2.03125 -0.566406,0.04297 -0.878906,0.136719 -0.828125,0.246094 0.101563,0.222656 2.027344,0.316406 3.554687,0.175781 3.300782,-0.308594 3.15625,-0.308594 3.347657,-0.06641 0.398437,0.503906 -0.863281,1.417968 -2.496094,1.808594 C 22.988281,65.761719 19.851562,65.308594 18.25,64.441406 17.621094,64.101562 17.34375,63.3125 17.535156,62.40625 c 0.285156,-1.355469 0.554688,-1.507812 2.210938,-1.261719 0.355468,0.05469 0.699218,0.03125 0.761718,-0.04687 0.06641,-0.08203 -0.07031,-0.421875 -0.296874,-0.753906 -0.527344,-0.777344 -0.433594,-1.121094 0.285156,-1.066406 0.296875,0.01953 0.703125,0.109375 0.902344,0.191406 m 18.148437,2.914062 c 0.148437,0.113282 0.230469,0.375 0.195313,0.640626 -0.04688,0.371093 -0.289063,0.601562 -1.375,1.324218 -2.355469,1.554688 -3.863282,1.859375 -6.78125,1.371094 -2.03125,-0.339844 -2.324219,-0.464844 -2.203126,-0.914062 0.07813,-0.277344 0.226563,-0.316407 1.101563,-0.296876 2.375,0.05469 5.34375,-0.699218 7.632813,-1.941406 0.851562,-0.460937 1.035156,-0.484375 1.429687,-0.183594 m 31.570313,8.40625 c 0.3125,0.261719 0.363281,0.898438 0.117187,1.527344 -0.183594,0.46875 -0.589844,0.875 -1.816406,1.816406 -2.113281,1.625 -2.359375,1.785157 -3.984375,2.605469 -2.273438,1.152344 -4.921875,1.679688 -7.074219,1.414063 -1.34375,-0.164063 -2.246094,-0.507813 -3.660156,-1.390625 -0.558594,-0.351563 -1.550781,-0.972657 -2.207031,-1.382813 -0.652344,-0.410156 -1.246094,-0.898437 -1.320313,-1.085937 -0.179687,-0.46875 -0.15625,-1.832031 0.03516,-1.921875 0.332031,-0.152344 0.957031,-0.105469 1.753907,0.136718 5.71875,1.722657 8.5,2.222657 10.453124,1.878907 1.417969,-0.25 1.949219,-0.527344 3.710938,-1.9375 1.878906,-1.507813 2.664062,-1.949219 3.304688,-1.867188 0.285156,0.03906 0.59375,0.132813 0.6875,0.207031 M 43.59766,67.695317 c 0.121094,0.171876 0.207032,0.40625 0.195313,0.523438 -0.04687,0.351562 -3.78125,5.917969 -5.191407,7.722656 -1.507812,1.9375 -6.265624,7.570313 -6.953124,8.234375 -0.65625,0.632813 -2.140626,2.207031 -2.945313,3.117188 -0.382813,0.433593 -1.023437,1.050781 -1.421875,1.371093 -1.472656,1.179688 -1.96875,0.214844 -0.894531,-1.75 1.082031,-1.976562 4.304687,-6.023437 6.6875,-8.390624 0.648437,-0.644532 2.613281,-3.152344 3.117187,-3.976563 0.515625,-0.839844 2.667969,-3.589844 3.515625,-4.492187 0.992188,-1.050782 3.136719,-2.738282 3.429688,-2.703126 0.132812,0.01563 0.339843,0.171876 0.460937,0.34375 m 31.019532,4.269532 c 0.417968,0.570312 0.363281,1.898437 -0.128907,3.03125 -0.472656,1.089844 -0.566406,1.183594 -1.261719,1.25 -0.523437,0.05078 -0.636718,0.0039 -0.933593,-0.375 -0.304688,-0.390625 -0.320313,-0.515625 -0.140625,-1.242188 0.109375,-0.441406 0.382812,-1.21875 0.613281,-1.722656 0.667969,-1.480469 1.246094,-1.773438 1.851563,-0.941406 m 2.714843,0.851562 c 0.6875,0.414063 1.496094,1.660156 1.785157,2.761719 0.105468,0.394531 0.144531,1.113281 0.08594,1.589844 -0.08594,0.75 -0.179687,0.949219 -0.644531,1.398437 -0.671875,0.648438 -1.289063,0.773438 -1.601563,0.328125 -0.148437,-0.214843 -0.167969,-0.417969 -0.05859,-0.65625 0.335937,-0.714843 0.277343,-1.726562 -0.179688,-3.097656 -0.503906,-1.519531 -0.511719,-2.179687 -0.02344,-2.367187 0.355469,-0.136719 0.328126,-0.140626 0.636719,0.04297 M 19.984375,66.730469 20.367188,67.148438 20.078125,69.75 c -0.160156,1.433594 -0.265625,2.996094 -0.230469,3.472656 0.03516,0.480469 0.08594,1.164063 0.113282,1.527344 0.07812,0.984375 0.777343,2.953125 1.648437,4.640625 0.425781,0.824219 0.796875,1.503906 0.820313,1.507813 0.02344,0 -0.05859,-0.5 -0.1875,-1.121094 -0.234376,-1.15625 -0.1875,-1.496094 0.238281,-1.601563 0.292969,-0.07031 0.730469,0.503907 1.8125,2.382813 1.015625,1.761718 1.214843,2.34375 0.910156,2.628906 -0.25,0.234375 -1.054687,0.199219 -1.171875,-0.05078 -0.03906,-0.08594 -0.273438,-0.34375 -0.523438,-0.570313 l -0.449218,-0.414062 0.285156,0.53125 c 0.441406,0.8125 1.058594,2.8125 1.195312,3.867187 0.140626,1.097657 0.02344,2.261719 -0.304687,3.050781 C 23.753906,90.765626 23.394531,90.44922 22.707031,88.26172 22.410156,87.316406 21.980469,86.179688 21.75,85.726562 21.363281,84.96875 19.878906,82.589844 19.167969,81.589844 c -0.566407,-0.800782 -2.164063,-4.097656 -2.625,-5.414063 -0.726563,-2.082031 -0.804688,-2.910156 -0.464844,-4.96875 0.234375,-1.40625 0.394531,-1.960937 0.777344,-2.652343 0.519531,-0.929688 2.054687,-2.332032 2.496093,-2.277344 0.140626,0.01953 0.425782,0.222656 0.632813,0.453125 m 61.65625,8.910156 c 0.179687,0.132813 0.511719,0.464844 0.734375,0.738281 0.335938,0.414063 0.453125,0.472656 0.707031,0.355469 0.28125,-0.132813 0.632813,-0.171875 1.761719,-0.199219 0.53125,-0.01563 3.550781,0.613282 4.574219,0.945313 2.234375,0.734375 4.410156,1.988281 6.171875,3.5625 0.992187,0.882812 3.941406,4.570312 4.597656,5.746093 0.18359,0.324219 0.62891,1.390626 0.99219,2.375 0.80469,2.160157 0.78125,2.691407 -0.1211,2.800782 -0.3164,0.03516 -0.76562,-0.0078 -1.0039,-0.09766 -0.453128,-0.175782 -1.777346,-1.800782 -2.777346,-3.40625 -0.988282,-1.585934 -2.558594,-3.49609 -3.59375,-4.367184 -2.839844,-2.390625 -3.980469,-3.054688 -7.707032,-4.484375 -1.160156,-0.445313 -2.179687,-0.882813 -2.265624,-0.976563 -0.117188,-0.121093 -0.207032,0.01172 -0.328126,0.476563 -0.175781,0.65625 -0.820312,1.269531 -1.285156,1.210937 -0.25,-0.03125 -0.742187,-1.011718 -0.914062,-1.8125 -0.0625,-0.296874 -0.34375,-0.988281 -0.625,-1.535156 -0.632813,-1.230468 -0.578125,-1.675781 0.207031,-1.617187 0.296875,0.02344 0.691406,0.148437 0.875,0.285156 m -28.90625,2.765625 c 0.683594,0.582031 1.109375,1.152344 2.183594,2.914062 1.0625,1.742188 2.328125,3.617188 2.859375,4.230469 0.726562,0.84375 1.871094,1.996094 1.996094,2.011719 0.0625,0.0078 0.277343,0.195312 0.480468,0.414062 0.660156,0.707032 3.640625,2.734376 4.558594,3.101563 1.15625,0.460937 4.859375,1.601563 6.695312,2.0625 0.828126,0.207031 1.445313,0.4375 1.464844,0.546875 0.02344,0.105469 -0.253906,0.339844 -0.609375,0.515625 C 70,95.378906 62.6875,94.136719 59.957031,92.097656 59.660156,91.875 59.289062,91.601562 59.128906,91.488281 56.890625,89.875 54.191406,86.59375 52.707031,83.679688 c -1.710937,-3.371094 -2.15625,-5.125 -1.433593,-5.6875 0.394531,-0.308594 0.730468,-0.210938 1.460937,0.414062 m 63.300785,10.898438 c 4.54297,1.070312 7.16797,2.230468 9.02734,3.996093 0.71094,0.679688 1.60938,2.015625 1.89453,2.832031 0.51563,1.457032 0.89844,4.546878 0.78125,6.277348 -0.16406,2.49218 -1.02344,4.13281 -2.53906,4.84765 -2.41406,1.14063 -4.70703,0.17969 -6.91016,-2.89843 -0.61328,-0.85547 -1.1289,-1.64063 -1.14843,-1.7461 -0.0625,-0.34375 -0.69141,-1.10937 -1.10547,-1.34375 -0.36328,-0.20703 -0.59766,-0.16015 -2.42578,0.49219 -2.66797,0.94922 -4,1.21484 -8.64454,1.74609 -3.27343,0.375 -4.32031,0.42969 -6.609371,0.33985 -6.492188,-0.2461 -12.535157,-1.44141 -17.257813,-3.41407 -2.34375,-0.976559 -4.988281,-2.644528 -5.683594,-3.585934 -0.609374,-0.824218 -0.605468,-1.175781 0.02344,-1.558594 0.433594,-0.269531 0.578125,-0.265624 2.148438,0.0078 1.503906,0.265625 2.523437,0.582031 5.953124,1.84375 0.941407,0.347656 3.808594,1.25 5.042969,1.585937 0.332031,0.08984 0.945313,0.273438 1.359375,0.402344 2.972656,0.949227 9.300782,2.003907 11.246092,1.875007 1.55859,-0.10157 7.37891,-1.078132 8.56641,-1.437507 1.89843,-0.574218 3.17578,-0.792968 5.65625,-0.96875 1.16406,-0.08203 2.30859,-0.08203 2.55468,0 0.69141,0.230469 1.16407,0.753906 2.02735,2.257817 0.4375,0.76953 0.96484,1.56641 1.16797,1.77344 0.42578,0.43359 2.35156,1.44531 2.875,1.51172 0.73047,0.0898 1.5039,-1.07813 1.72656,-2.60938 0.12891,-0.91016 0.0898,-1.15625 -0.40625,-2.589847 -0.30078,-0.871094 -0.58984,-1.746094 -0.64063,-1.949218 -0.21875,-0.855469 -0.88671,-1.773438 -1.65234,-2.257813 -0.75,-0.476563 -2.33594,-0.957031 -4.03125,-1.214844 -1.82031,-0.28125 -3.94141,-0.867187 -5.32812,-1.480469 -2.36719,-1.039062 -5.09375,-1.410156 -9.69922,-1.324218 -0.94532,0.01953 -1.26563,-0.02344 -1.42188,-0.191406 -0.30859,-0.324219 -0.1875,-0.742188 0.29297,-1.03125 0.75391,-0.453126 3.94141,-1.097657 5.60938,-1.132813 1.32421,-0.02734 5.79687,0.53125 7.55078,0.945313 M 61.679688,84.816406 c 1.117187,0.421875 1.457031,1.097656 0.882812,1.769532 -0.535156,0.632812 -1.589844,0.695312 -2.53125,0.160156 -0.941406,-0.539063 -0.625,-1.65625 0.566406,-1.988282 0.300782,-0.08594 0.570313,-0.144531 0.589844,-0.132812 0.02344,0.01172 0.246094,0.09766 0.492188,0.191406 m -1.605469,8.527344 c 0.121093,0.06641 0.574219,0.433594 1.003906,0.824219 0.898437,0.800781 1.699219,1.953125 2.558594,3.664062 0.617187,1.242188 2.0625,3.128909 3.589843,4.703129 0.496094,0.51172 0.972657,1.0039 1.058594,1.09765 1.832032,1.91016 4.382813,4.02735 5.796875,4.80469 1.691407,0.93359 2.746094,1.10156 4.6875,0.75 1.628907,-0.29297 1.957031,-0.39453 6.179688,-1.92969 2.964843,-1.07812 5.105469,-1.70312 5.613281,-1.64062 0.527344,0.0664 0.6875,0.45703 0.417969,1.02734 -0.167969,0.34766 -0.789063,0.83985 -2.230469,1.75781 -2.433594,1.55469 -3.105469,1.87891 -5.652344,2.73438 -3.734375,1.25781 -6.269531,1.21094 -9.253906,-0.17188 -3.921875,-1.8125 -4.542969,-2.16406 -6.019531,-3.40234 -1.550781,-1.30078 -6,-7.11328 -7.042969,-9.203125 -0.75,-1.507813 -1.578125,-4.566406 -1.328125,-4.921875 0.191406,-0.273438 0.257813,-0.28125 0.621094,-0.09375 m 17.152343,12.97656 c 2.15625,0.85938 2.941407,1.60547 2.25,2.14453 -0.355468,0.27735 -1.082031,0.26563 -3.046874,-0.0508 -0.941407,-0.15234 -2.265626,-0.71093 -2.796876,-1.18359 -0.3125,-0.28125 -0.371093,-0.44922 -0.285156,-0.83203 0.08594,-0.39063 0.207032,-0.4961 0.667969,-0.59375 0.816406,-0.17188 1.949219,0.0117 3.210937,0.51562"
                     fill-opacity="1"
                     fill-rule="evenodd"
                     id="path33" />
                </g>
              </g>
            </g>
          </g>
        </g>
      </g>
    </g>
  </g>
</svg>
