<!-- Generated by IcoMoon.io -->
<svg version="1.1" xmlns="http://www.w3.org/2000/svg" width="32" height="32" viewBox="0 0 32 32">
<path d="M5.137 0.588c-0.009 0.008-0.556 0.026-1.216 0.039s-1.373 0.045-1.586 0.071c-0.212 0.025-0.569 0.066-0.793 0.092-0.73 0.082-1.26 0.263-1.431 0.487-0.062 0.080-0.112 0.174-0.112 0.21 0 0.102 0.213 0.295 0.272 0.248 0.213-0.171 1.328-0.406 2.17-0.457 0.2-0.012 0.47-0.032 0.6-0.042 1.009-0.084 2.030-0.109 3.578-0.088 2.060 0.028 3.963 0.067 4.327 0.090 1.077 0.067 1.742 0.105 1.907 0.11 0.142 0.004 0.087 0.021-0.215 0.063-0.223 0.032-0.715 0.106-1.092 0.165-1.158 0.182-2.395 0.286-3.342 0.282-0.471-0.002-0.924-0.012-1.007-0.022s-0.709-0.028-1.392-0.041c-0.683-0.012-1.637-0.052-2.12-0.087-1.517-0.111-2.154-0.123-2.734-0.053-0.63 0.076-0.713 0.124-0.671 0.392 0.015 0.095 0.082 0.356 0.149 0.58s0.184 0.609 0.258 0.856c0.323 1.071 0.759 1.931 1.331 2.621 0.111 0.134 0.295 0.422 0.409 0.64 0.316 0.604 0.707 0.952 2.136 1.902 0.985 0.655 1.491 0.889 2.197 1.021 0.381 0.071 0.485 0.028 0.415-0.172-0.057-0.16-0.312-0.326-1.155-0.75-1.009-0.507-1.957-1.155-2.497-1.705-0.371-0.378-1.080-1.415-1.406-2.058-0.089-0.177-0.346-0.871-0.572-1.542l-0.409-1.221 1.055 0.008c0.58 0.004 1.207 0.030 1.392 0.058 0.464 0.068 2.059 0.112 4.15 0.114 1.613 0.001 2.129-0.013 3.406-0.090 0.247-0.015 0.643-0.038 0.879-0.051 0.528-0.030 2.045-0.248 2.24-0.322 0.077-0.030 0.177-0.002 0.451 0.128 0.452 0.216 0.837 0.302 1.422 0.322 0.57 0.020 1.761 0.098 2.056 0.136 0.118 0.015 0.73 0.033 1.361 0.042s1.343 0.038 1.585 0.064c0.495 0.056 1.838 0.059 2.646 0.006 0.295-0.019 0.95-0.025 1.457-0.013 1.536 0.038 2.506 0.019 3.085-0.059 0.295-0.040 0.651-0.088 0.793-0.107 0.74-0.101 1.99-0.315 2.14-0.366 0.094-0.032 0.178-0.051 0.187-0.042 0.024 0.024-0.949 1.787-1.183 2.143-0.109 0.165-0.273 0.404-0.366 0.531s-0.351 0.531-0.575 0.899c-0.223 0.368-0.454 0.747-0.512 0.841s-0.212 0.345-0.343 0.557c-0.272 0.444-0.658 0.839-1.269 1.302-0.231 0.174-0.596 0.489-0.813 0.7-0.372 0.363-1.029 0.889-1.108 0.889-0.020 0-0.037-0.029-0.037-0.065 0-0.116-0.187-0.167-0.394-0.108-0.532 0.152-0.722 0.173-1.511 0.176-0.81 0.002-0.923 0.021-0.923 0.155 0 0.24 1.522 0.453 2.056 0.289 0.074-0.023 0.034 0.026-0.128 0.159-0.443 0.361-0.71 0.943-0.676 1.472 0.023 0.353 0.129 0.55 0.346 0.642 0.115 0.048 0.12 0.057 0.045 0.082-0.047 0.014-0.148 0.092-0.227 0.172l-0.142 0.147-0.386-0.575c-0.686-1.022-1.318-1.55-2.195-1.836-0.393-0.128-1.221-0.24-1.586-0.213-0.891 0.063-1.47 0.187-2.018 0.429-0.742 0.329-1.057 0.823-1.041 1.636 0.014 0.757 0.087 0.921 0.493 1.102 0.873 0.388 1.317 0.482 2.544 0.537 0.886 0.039 1.396 0.090 1.569 0.157 0.18 0.069 0.359 0.381 0.359 0.626 0 0.079 0.013 0.157 0.030 0.173s0.061 0.15 0.1 0.297c0.087 0.326 0.344 1.214 0.537 1.852 0.276 0.914 0.334 1.187 0.336 1.567 0.001 0.316-0.016 0.401-0.118 0.61-0.167 0.341-0.482 0.669-1.055 1.099-0.989 0.74-1.471 1.031-2.357 1.42-0.494 0.217-0.757 0.404-1.199 0.852-0.663 0.67-0.878 1.148-0.876 1.95 0.002 0.694 0.112 0.967 0.73 1.804 0.316 0.426 0.381 0.488 0.511 0.488 0.17 0 0.183-0.122 0.079-0.73-0.16-0.935-0.195-1.622-0.099-1.914 0.134-0.406 0.5-0.851 1.149-1.4 0.559-0.473 1.301-1.056 1.612-1.268 0.156-0.106 0.366-0.254 0.467-0.33 0.23-0.171 0.391-0.268 0.774-0.466 0.165-0.086 0.412-0.223 0.549-0.306s0.259-0.14 0.271-0.127c0.039 0.039 0.016 1.33-0.029 1.58-0.061 0.337-0.261 0.944-0.426 1.284-0.214 0.446-0.491 0.613-1.651 0.999-1.111 0.369-2.324 1.040-2.483 1.373-0.1 0.212-0.082 0.406 0.056 0.623 0.216 0.337 0.329 0.423 0.863 0.654 0.492 0.212 1.619 0.436 2.626 0.523 0.894 0.077 3.255 0.088 3.918 0.019 1.048-0.108 1.963-0.306 2.882-0.62 0.586-0.202 0.771-0.376 0.771-0.73 0-0.152 0.002-0.155 0.139-0.126 0.258 0.054 0.438 0.165 0.69 0.423 0.137 0.142 0.301 0.355 0.364 0.474 0.1 0.188 0.114 0.265 0.112 0.601-0.002 0.329-0.029 0.475-0.185 0.985-0.151 0.492-0.224 0.66-0.415 0.943-0.273 0.406-1.004 1.167-1.255 1.308-0.231 0.129-0.268 0.242-0.122 0.367 0.294 0.253 0.94 0.347 1.422 0.207 0.47-0.137 1.154-0.555 1.407-0.863 0.413-0.501 0.556-1.351 0.375-2.229-0.122-0.588-0.2-0.888-0.306-1.169-0.108-0.287-0.208-0.555-0.376-1.007-0.318-0.861-0.524-1.256-0.96-1.842-0.532-0.715-0.919-0.946-1.751-1.047-0.87-0.106-1.207-0.214-1.795-0.578l-0.321-0.198-0.005-0.502c-0.009-0.833-0.204-1.285-0.908-2.102-0.371-0.432-0.451-0.622-0.454-1.095-0.002-0.335 0.017-0.451 0.141-0.813 0.079-0.233 0.144-0.469 0.144-0.525s0.007-0.102 0.017-0.102c0.034 0 1.744 1.485 2.133 1.852 0.446 0.421 0.664 0.485 1.4 0.411 0.456-0.046 0.668-0.163 1.102-0.611 0.521-0.539 0.692-0.839 0.692-1.214 0-0.162-0.131-0.469-0.253-0.598-0.099-0.104-0.542-0.44-0.58-0.44-0.027 0-0.369-0.24-0.73-0.513-0.338-0.256-0.553-0.391-0.814-0.515-0.331-0.156-0.654-0.371-1.028-0.684-0.652-0.546-0.723-0.575-1.583-0.665-0.49-0.052-0.994-0.153-1.088-0.219-0.007-0.006 0.008-0.050 0.033-0.099 0.225-0.421 0.024-1.168-0.35-1.299-0.082-0.028-0.109-0.056-0.077-0.076 0.028-0.017 0.068-0.182 0.089-0.365 0.057-0.516 0.204-0.701 0.924-1.163 0.667-0.428 1.489-1.063 2.094-1.617 0.283-0.259 0.69-0.601 0.904-0.76 0.511-0.379 0.811-0.657 1.146-1.059 0.336-0.404 0.499-0.659 0.827-1.294 0.14-0.271 0.323-0.6 0.406-0.728 0.273-0.421 0.68-1.285 0.868-1.845 0.035-0.104 0.113-0.459 0.174-0.789s0.15-0.764 0.198-0.964c0.048-0.2 0.092-0.391 0.096-0.424s-0.079-0.103-0.186-0.157c-0.253-0.127-2.184-0.601-2.678-0.657-1.088-0.123-1.36-0.136-2.413-0.109-1.236 0.031-2.361 0.054-4.185 0.086-1.269 0.023-1.948 0.054-3.684 0.17-1.392 0.092-2.286 0.235-2.693 0.427-0.191 0.091-0.216 0.126-0.182 0.257 0.053 0.213 0.699 0.239 1.632 0.065 0.236-0.044 0.602-0.092 0.814-0.106s0.705-0.064 1.096-0.11c0.884-0.104 2.839-0.127 3.767-0.045 0.535 0.047 0.717 0.046 1.307-0.012 0.377-0.037 1.071-0.068 1.542-0.070s1.175-0.020 1.564-0.042c1.073-0.058 2.121-0.027 2.628 0.081 0.449 0.095 0.908 0.207 1.014 0.246 0.229 0.085-1.425 0.384-2.571 0.465-1.136 0.080-4.377 0.097-5.313 0.028-0.595-0.044-3.311-0.024-3.92 0.028-0.189 0.016-0.487 0.017-0.665 0.002-1.266-0.111-2.035-0.137-2.533-0.086-0.431 0.044-0.476 0.041-0.81-0.056-0.194-0.057-0.391-0.14-0.436-0.185-0.082-0.082-0.080-0.085 0.128-0.218 0.273-0.175 0.362-0.276 0.345-0.392-0.023-0.152-0.287-0.223-1.106-0.301-0.805-0.077-1.205-0.121-1.5-0.167-0.681-0.107-1.454-0.132-4.498-0.152-1.785-0.011-3.252-0.012-3.261-0.004zM15.226 2.573c-0.157 0.139-0.23 0.266-0.23 0.406 0 0.125-0.319 0.924-0.62 1.553-0.124 0.26-0.298 0.645-0.387 0.858s-0.261 0.54-0.384 0.728c-0.122 0.189-0.298 0.458-0.391 0.6-0.242 0.37-0.423 0.529-0.924 0.807-0.54 0.301-0.51 0.282-1.063 0.647-0.248 0.163-0.594 0.379-0.768 0.479-0.342 0.197-0.883 0.625-0.953 0.755-0.074 0.139 0.034 0.217 0.261 0.19 0.245-0.031 1.024-0.341 1.307-0.522 0.118-0.076 0.36-0.211 0.536-0.301 0.882-0.451 1.635-1.033 2.124-1.643 0.149-0.187 0.225-0.331 0.399-0.765 0.050-0.124 0.132-0.325 0.181-0.447s0.211-0.456 0.357-0.742 0.328-0.711 0.404-0.945c0.075-0.234 0.156-0.455 0.18-0.49 0.059-0.088 0.056-0.093 0.694 0.964 0.057 0.094 0.234 0.393 0.394 0.664s0.354 0.589 0.431 0.707c0.076 0.117 0.24 0.378 0.365 0.578 0.424 0.682 1.118 1.665 1.374 1.943 0.491 0.536 1.607 1.313 2.342 1.632 0.182 0.079 0.476 0.216 0.651 0.303 0.376 0.188 0.795 0.255 0.841 0.134 0.015-0.039 0.004-0.099-0.025-0.134-0.059-0.071-0.046-0.063-0.949-0.521-0.944-0.48-1.421-0.85-2.375-1.843-0.7-0.728-1.084-1.192-1.279-1.54-0.038-0.067-0.087-0.152-0.108-0.187-0.28-0.444-1.003-1.756-0.968-1.756 0.011 0 0.101 0.137 0.2 0.304 0.271 0.455 0.704 1.015 1.332 1.722 0.429 0.482 0.585 0.63 0.652 0.621 0.049-0.008 0.087-0.042 0.085-0.078s-0.188-0.315-0.412-0.621c-0.225-0.306-0.48-0.69-0.566-0.855s-0.209-0.387-0.271-0.493c-0.062-0.106-0.24-0.424-0.396-0.707-0.381-0.686-0.447-0.695-0.66-0.087-0.033 0.094-0.025 0.107-0.255-0.406-0.057-0.13-0.174-0.388-0.259-0.573s-0.153-0.354-0.153-0.373-0.071-0.181-0.156-0.359c-0.145-0.3-0.166-0.323-0.29-0.323-0.084 0-0.182 0.043-0.267 0.117zM16.395 3.47c-0.015 0.016-0.028 0.085-0.028 0.153 0 0.222 0.357 0.483 0.451 0.33 0.103-0.167-0.29-0.615-0.423-0.483zM17.463 3.692c-0.050 0.080 0.451 0.926 0.828 1.398 0.132 0.165 0.321 0.41 0.423 0.544 0.225 0.299 0.764 0.88 0.867 0.935 0.052 0.028 0.090 0.023 0.122-0.016 0.054-0.066-0.089-0.286-0.471-0.72-0.921-1.048-1.186-1.406-1.527-2.060-0.058-0.112-0.196-0.159-0.243-0.082zM2.029 3.88c-0.056 0.090-0.015 0.251 0.159 0.624 0.21 0.451 0.404 0.703 0.528 0.685 0.219-0.031 0.053-0.66-0.311-1.175-0.136-0.192-0.303-0.252-0.376-0.134zM26.863 5.154c-0.129 0.067-1.056 0.273-1.736 0.388-0.306 0.052-0.791 0.165-0.949 0.222-0.112 0.041-0.155 0.037-0.245-0.023-0.148-0.097-0.236-0.090-0.417 0.033-0.098 0.066-0.169 0.089-0.195 0.063-0.023-0.023-0.348-0.048-0.724-0.057s-0.731-0.027-0.79-0.040c-0.561-0.124-1.908-0.297-2.024-0.26-0.109 0.034-0.093 0.168 0.032 0.249 0.112 0.073 0.975 0.279 1.522 0.363 1.76 0.27 3.286 0.287 4.181 0.047 0.665-0.179 1.716-0.789 1.68-0.976-0.018-0.098-0.153-0.102-0.334-0.009zM11.847 5.543c-0.118 0.047-0.282 0.102-0.365 0.122s-0.391 0.109-0.685 0.197c-1.273 0.381-1.436 0.415-2.053 0.421-0.629 0.007-0.692 0.034-0.515 0.223l0.098 0.104h1.009c1.406 0 1.81-0.081 2.327-0.463 0.263-0.195 0.547-0.497 0.547-0.582 0-0.046-0.099-0.122-0.142-0.11-0.004 0.002-0.104 0.040-0.222 0.087zM3.43 6.087c-0.232 0.188-0.071 0.494 0.605 1.147 0.766 0.74 1.727 1.361 1.921 1.241 0.023-0.014 0.042-0.073 0.042-0.131 0-0.080-0.201-0.304-0.825-0.923-1.413-1.4-1.541-1.498-1.743-1.334zM19.194 7.631c0 0.109 0.319 0.437 0.426 0.437 0.14 0 0.105-0.094-0.116-0.312-0.217-0.214-0.31-0.251-0.31-0.125zM19.733 8.178c-0.037 0.038-0.067 0.087-0.067 0.109s0.177 0.225 0.394 0.448c0.441 0.456 0.725 0.625 1.357 0.808 0.371 0.107 0.476 0.105 0.476-0.007 0-0.081-0.338-0.418-0.621-0.619-0.629-0.447-0.924-0.63-1.148-0.714-0.296-0.111-0.306-0.112-0.391-0.026zM8.417 9.463c-0.62 0.079-0.723 0.112-0.74 0.231-0.020 0.14 0.056 0.172 0.406 0.173 0.54 0.001 0.964-0.117 0.995-0.276 0.016-0.082-0.098-0.2-0.184-0.19-0.025 0.003-0.239 0.031-0.476 0.062zM9.050 10.050c-0.042 0.053-0.080 0.175-0.185 0.61-0.028 0.118-0.090 0.301-0.137 0.406-0.157 0.354-0.182 0.663-0.116 1.402 0.034 0.372 0.063 0.956 0.066 1.297 0.004 0.654 0.052 0.863 0.202 0.892 0.041 0.008 0.131-0.042 0.199-0.111 0.165-0.164 0.204-0.476 0.137-1.088-0.059-0.546-0.029-1.574 0.066-2.217 0.036-0.246 0.064-0.568 0.063-0.717-0.003-0.396-0.158-0.645-0.296-0.476zM7.48 10.147c-0.076 0.057-0.078 0.083-0.032 0.331 0.063 0.346 0.209 2.207 0.244 3.117 0.027 0.733 0.068 0.969 0.184 1.060 0.099 0.079 0.242 0.066 0.328-0.029 0.089-0.1 0.077-0.286-0.057-0.903-0.095-0.435-0.216-1.27-0.243-1.692-0.010-0.141-0.039-0.593-0.065-1.004s-0.065-0.791-0.086-0.846c-0.042-0.112-0.151-0.126-0.272-0.034zM8.032 10.399c-0.062 0.045-0.069 0.097-0.048 0.307 0.035 0.336 0.096 0.62 0.176 0.81 0.087 0.208 0.236 0.199 0.293-0.018 0.039-0.152 0.016-0.282-0.143-0.824-0.088-0.299-0.155-0.366-0.277-0.276zM19.216 11.098c-0.635 0.058-1.512 0.383-1.864 0.691-0.191 0.167-0.149 0.21 0.236 0.243 0.613 0.053 0.798 0.037 1.035-0.094 0.121-0.067 0.299-0.164 0.395-0.217s0.257-0.148 0.357-0.212c0.102-0.065 0.26-0.16 0.353-0.211 0.297-0.162 0.259-0.197-0.234-0.209-0.082-0.002-0.207 0.002-0.278 0.008zM20.402 11.777c-0.306 0.091-0.608 0.212-0.607 0.245 0 0.005 0.286 0.012 0.635 0.015 0.704 0.006 0.949 0.061 1.693 0.381 0.392 0.169 0.5 0.171 0.5 0.009 0-0.225-0.491-0.546-1.056-0.691-0.371-0.096-0.744-0.082-1.164 0.042zM8.213 12.466c-0.039 0.039 0.014 1.117 0.062 1.247 0.053 0.142 0.202 0.124 0.267-0.032 0.060-0.143 0.027-0.61-0.072-0.999-0.041-0.165-0.077-0.225-0.141-0.234-0.047-0.007-0.099 0.002-0.117 0.019zM17.197 12.532c-0.042 0.068 0.029 0.193 0.137 0.242 0.133 0.061 0.428 0.106 1.604 0.246 0.506 0.061 1.027 0.127 1.157 0.147 0.281 0.043 1.336 0.153 1.834 0.191 0.336 0.025 0.354 0.023 0.315-0.051-0.097-0.183-0.471-0.434-0.778-0.522-0.427-0.123-1.644-0.217-2.871-0.223-0.483-0.002-0.99-0.017-1.127-0.034s-0.259-0.016-0.271 0.003zM23.057 12.986c-0.047 0.066-0.124 0.234-0.172 0.375-0.12 0.354-0.079 0.394 0.331 0.326 0.306-0.051 0.403-0.034 0.584 0.098 0.132 0.097 0.197 0.023 0.199-0.23 0.001-0.123-0.010-0.236-0.024-0.25s-0.070 0.017-0.125 0.068c-0.165 0.156-0.329 0.096-0.329-0.12 0-0.107-0.098-0.29-0.19-0.354-0.090-0.062-0.192-0.031-0.275 0.087zM4.426 13.077c-0.591 0.273-1.079 0.903-1.274 1.643-0.061 0.229-0.158 0.601-0.217 0.824-0.155 0.588-0.134 1.062 0.053 1.203 0.182 0.138 0.392 0.064 0.883-0.313 0.333-0.257 0.482-0.266 0.603-0.039 0.086 0.161 0.468 0.523 0.655 0.621 0.126 0.066 0.675 0.071 0.914 0.008 0.21-0.055 0.503-0.208 0.954-0.5l0.291-0.187-0.208 0.311c-0.313 0.468-0.452 0.906-0.446 1.409 0.003 0.266 0.21 1.105 0.346 1.407 0.080 0.177 0.082 0.201 0.021 0.294-0.075 0.114-0.264 0.287-0.564 0.515-0.111 0.083-0.249 0.197-0.308 0.253-0.189 0.178-0.914 0.639-1.287 0.818-0.2 0.096-0.555 0.234-0.791 0.306s-0.467 0.149-0.514 0.17c-0.047 0.021-0.131 0.050-0.185 0.066-0.21 0.059-0.862 0.545-1.273 0.949-0.929 0.911-1.047 1.213-1.032 2.628 0.008 0.69 0.011 0.715 0.141 1.007 0.072 0.165 0.165 0.4 0.204 0.522 0.122 0.377 0.445 0.744 0.602 0.684 0.082-0.032 0.083-0.232 0.002-0.735-0.124-0.766-0.101-1.329 0.083-2.010 0.233-0.866 0.56-1.070 3.372-2.105 0.629-0.232 0.69-0.243 1.504-0.294 0.372-0.023 0.744-0.148 1.241-0.417 0.478-0.259 0.575-0.342 0.687-0.591 0.1-0.223 0.117-0.814 0.030-1.042-0.189-0.496-0.379-0.791-0.747-1.158l-0.206-0.206 0.038-0.244c0.021-0.134 0.038-0.678 0.038-1.208 0.001-0.802 0.012-0.99 0.072-1.121 0.081-0.18 0.258-0.315 0.362-0.275 0.061 0.023 0.066 0.071 0.037 0.358-0.057 0.569-0.047 0.644 0.114 0.809l0.143 0.147v1.015c0.001 1.078 0.008 1.133 0.261 2.065 0.134 0.491 0.39 1.178 0.5 1.339 0.085 0.125 0.233 0.156 0.322 0.067 0.082-0.082 0.060-0.358-0.051-0.631-0.096-0.236-0.205-0.624-0.261-0.924-0.134-0.729-0.236-1.821-0.17-1.821 0.064 0 0.242 0.155 0.316 0.273 0.047 0.075 0.134 0.329 0.194 0.564 0.192 0.745 0.349 0.989 0.947 1.471 0.455 0.366 0.555 0.392 1.114 0.282l0.127-0.025 0.010 0.348c0.009 0.314 0.080 0.6 0.246 0.996 0.024 0.058-0.072 0.032-0.434-0.122-0.256-0.108-0.534-0.223-0.618-0.255s-0.267-0.108-0.407-0.169c-0.443-0.196-0.747-0.188-0.747 0.018 0 0.152 0.259 0.321 0.93 0.606 0.795 0.337 1.276 0.624 1.573 0.935l0.126 0.132-0.102 0.108c-0.129 0.137-0.952 0.541-1.348 0.662-0.425 0.129-0.82 0.172-1.797 0.193-0.47 0.011-1.048 0.042-1.284 0.069-0.398 0.047-1.372 0.029-1.651-0.030-0.262-0.055-2.21-0.543-2.227-0.558-0.032-0.030 0.187-0.238 0.426-0.401 0.342-0.235 0.445-0.357 0.411-0.491-0.039-0.154-0.225-0.145-0.555 0.028-0.605 0.317-1.013 0.704-1.013 0.961 0 0.314 0.353 0.518 1.285 0.744 0.106 0.026 0.289 0.083 0.407 0.128 0.799 0.302 2.665 0.474 3.942 0.361 0.943-0.082 1.609-0.211 2.591-0.496 0.504-0.147 0.697-0.235 1.008-0.46 0.477-0.346 0.653-0.699 0.532-1.065-0.027-0.080-0.039-0.154-0.028-0.165 0.032-0.032 0.55 0.201 0.784 0.354 0.453 0.294 0.503 0.446 0.499 1.513-0.005 1.352 0.152 1.898 0.805 2.807 0.136 0.188 0.314 0.468 0.397 0.621 0.164 0.304 0.468 1.167 0.542 1.542 0.057 0.288 0.268 0.669 0.392 0.708 0.146 0.047 0.209-0.063 0.251-0.432 0.030-0.268 0.077-0.419 0.223-0.712 0.108-0.216 0.225-0.39 0.278-0.415 0.163-0.076 0.251-0.431 0.25-1.013-0.001-0.482-0.008-0.529-0.124-0.75-0.069-0.132-0.303-0.423-0.536-0.664-0.906-0.94-0.954-1.060-0.963-2.421-0.007-0.881-0.012-0.935-0.121-1.238-0.182-0.502-0.344-0.636-1.033-0.849-0.7-0.216-0.859-0.262-1.362-0.398-0.589-0.159-0.714-0.216-0.889-0.398l-0.142-0.15 0.152-0.051c0.107-0.035 0.22-0.136 0.377-0.336 0.124-0.157 0.341-0.392 0.482-0.522s0.287-0.265 0.323-0.3 0.157-0.138 0.269-0.23c0.401-0.328 0.47-0.586 0.273-1.028-0.157-0.351-0.371-0.629-0.827-1.070-0.349-0.338-0.501-0.462-0.914-0.745-0.231-0.159-0.71-0.544-0.784-0.629-0.121-0.141-0.151-0.247-0.18-0.631-0.061-0.789-0.601-1.42-1.27-1.484-0.277-0.027-0.431 0.044-0.658 0.304l-0.189 0.217-0.091-0.115c-0.116-0.147-0.214-0.146-0.625 0.012-0.291 0.112-0.353 0.122-0.498 0.083-0.117-0.031-0.233-0.031-0.392 0.002-0.266 0.055-0.378 0.023-0.632-0.181-0.168-0.135-0.187-0.14-0.572-0.14h-0.398l-0.207-0.176c-0.114-0.097-0.311-0.328-0.437-0.514-0.233-0.345-0.583-0.71-0.779-0.81-0.202-0.105-0.394-0.113-0.585-0.025zM5.013 14.247c0 0.134 0.481 0.608 0.707 0.698l0.172 0.068-0.107-0.087c-0.058-0.047-0.118-0.087-0.132-0.087s-0.098-0.126-0.187-0.278c-0.177-0.302-0.212-0.341-0.356-0.385-0.081-0.024-0.097-0.013-0.097 0.072zM22.108 14.332c0 0.028 0.046 0.1 0.102 0.161 0.111 0.118 0.361 0.659 0.524 1.133 0.12 0.35 0.265 0.607 0.515 0.913 0.378 0.465 0.505 0.808 0.541 1.47 0.018 0.325-0.012 0.518-0.177 1.129-0.050 0.186-0.082 0.351-0.071 0.369 0.036 0.057 0.041 3.79 0.005 3.893-0.028 0.083-0.056 0.097-0.154 0.077-0.102-0.021-0.127-0.006-0.171 0.099-0.064 0.156-0.154 0.233-0.34 0.296-0.081 0.027-0.351 0.172-0.6 0.322-0.638 0.385-1.478 0.819-1.782 0.919-0.263 0.088-1.311 0.6-1.446 0.706-0.041 0.032-0.075 0.071-0.075 0.085 0 0.038 0.477 0.353 0.579 0.384 0.047 0.013 0.172 0.057 0.278 0.097 0.58 0.215 1.444 0.352 2.442 0.39 0.342 0.013 0.728 0.039 0.857 0.058 0.661 0.098 1.708 0.009 3.192-0.272 0.306-0.058 0.643-0.119 0.749-0.134s0.207-0.038 0.224-0.049c0.018-0.011 0.125-0.030 0.237-0.042 0.266-0.029 0.322-0.049 0.288-0.104-0.016-0.025-0.213-0.193-0.44-0.373s-0.487-0.406-0.581-0.501c-0.485-0.496-1.005-1.398-1.053-1.823-0.014-0.129-0.010-0.348 0.010-0.485l0.037-0.25-0.211-0.243c-0.116-0.133-0.306-0.315-0.421-0.402l-0.21-0.161-0.026 0.546c-0.038 0.807-0.105 1.099-0.262 1.148-0.053 0.017-0.112 0-0.156-0.043-0.106-0.105-0.128-1.63-0.028-1.891 0.067-0.178 0.067-0.182-0.056-0.366-0.358-0.537-0.535-1.602-0.368-2.21 0.167-0.605 0.187-1.046 0.077-1.619-0.037-0.189-0.073-0.642-0.082-1.007l-0.017-0.665-0.291-0.11c-0.568-0.215-0.658-0.296-0.994-0.897-0.183-0.326-0.27-0.421-0.491-0.536-0.15-0.077-0.154-0.077-0.154-0.012zM23.307 14.539c0 0.116 0.14 0.385 0.253 0.487l0.091 0.082-0.065-0.185c-0.063-0.18-0.225-0.472-0.261-0.472-0.010 0-0.018 0.039-0.018 0.087zM3.804 14.932c-0.133 0.036-0.167 0.068-0.203 0.199-0.024 0.087-0.043 0.267-0.043 0.403-0.001 0.266 0.038 0.298 0.227 0.196 0.052-0.027 0.195-0.074 0.319-0.103 0.384-0.090 0.542-0.009 0.919 0.466 0.2 0.252 0.713 0.34 1.080 0.184 0.136-0.057 0.646-0.427 0.691-0.501 0.017-0.027-0.192-0.039-0.567-0.033-0.71 0.011-0.797-0.017-1.13-0.367-0.401-0.424-0.823-0.568-1.293-0.443zM24.885 15.25c0.162 0.245 0.236 0.372 0.564 0.961 0.452 0.811 0.968 1.304 2.126 2.033 1.014 0.639 1.191 0.702 1.498 0.544 0.197-0.102 0.43-0.311 0.575-0.519l0.102-0.147-0.143-0.119c-0.25-0.208-1.119-0.73-1.586-0.951-0.537-0.255-0.814-0.431-1.243-0.793-0.177-0.149-0.481-0.406-0.675-0.57-0.372-0.315-0.715-0.507-1.044-0.587-0.109-0.027-0.23-0.061-0.269-0.076-0.047-0.017-0.013 0.061 0.095 0.224zM10.305 15.178c-0.094 0.045-0.22 0.122-0.279 0.17l-0.107 0.088 0.142 0.112c0.087 0.070 0.2 0.238 0.293 0.44 0.083 0.18 0.18 0.385 0.213 0.455 0.049 0.102 0.136 0.16 0.414 0.276 0.193 0.081 0.419 0.196 0.501 0.255l0.151 0.108-0.113-0.127c-0.111-0.124-0.299-0.41-0.407-0.617-0.038-0.072-0.092-0.106-0.174-0.108-0.172-0.002-0.176-0.178-0.007-0.413 0.072-0.098 0.013-0.3-0.077-0.266-0.042 0.017-0.092-0.004-0.127-0.051-0.047-0.065-0.045-0.097 0.017-0.202 0.064-0.108 0.066-0.129 0.009-0.164-0.099-0.063-0.261-0.047-0.449 0.042zM26.35 15.181c0.058 0.051 0.222 0.202 0.364 0.336 0.315 0.3 0.653 0.578 0.78 0.644 0.401 0.206-0.669-0.752-1.112-0.996l-0.14-0.077 0.108 0.093zM6.629 15.168c0.077 0.010 0.212 0.010 0.3 0.001s0.027-0.017-0.138-0.017-0.237 0.008-0.162 0.017zM8.127 15.166c-0.054 0.054-0.029 0.1 0.053 0.1 0.112 0 0.217-0.043 0.217-0.090 0-0.044-0.228-0.053-0.271-0.010zM8.687 15.296c-0.072 0.018-0.152 0.208-0.107 0.253 0.012 0.012 0.071 0.009 0.132-0.007 0.112-0.027 0.185-0.153 0.136-0.233-0.027-0.045-0.038-0.046-0.161-0.013zM9.383 16.221c-0.216 0.109-0.288 0.468-0.168 0.834 0.051 0.158 0.348 0.631 0.413 0.66 0.051 0.023 0.738 0.847 0.849 1.019 0.054 0.083 0.147 0.316 0.207 0.516 0.117 0.391 0.219 0.56 0.456 0.752 0.082 0.067 0.252 0.216 0.375 0.33s0.244 0.197 0.268 0.182c0.077-0.047 0.045-0.308-0.086-0.692-0.152-0.448-0.153-0.461-0.043-0.774 0.111-0.315 0.108-0.4-0.020-0.645-0.156-0.297-0.257-0.391-0.82-0.77-0.281-0.189-0.562-0.398-0.625-0.466s-0.186-0.292-0.272-0.499c-0.143-0.342-0.266-0.503-0.382-0.501-0.024 0-0.092 0.025-0.151 0.054zM11.997 17.527c0 0.020 0.017 0.054 0.038 0.077 0.149 0.162 0.378 1.31 0.387 1.944 0.004 0.294 0.028 0.454 0.088 0.589 0.127 0.287 0.202 0.259 0.738-0.277 0.5-0.5 0.531-0.565 0.393-0.833-0.067-0.129-0.072-0.131-0.129-0.052-0.122 0.171-0.591 0.619-0.646 0.619-0.117 0-0.103-0.136 0.035-0.365 0.078-0.129 0.157-0.235 0.177-0.235s0.033-0.020 0.033-0.045 0.058-0.107 0.128-0.182c0.137-0.145 0.152-0.182 0.092-0.219-0.021-0.012-0.087 0.049-0.149 0.137-0.126 0.182-0.344 0.328-0.437 0.293-0.116-0.045-0.062-0.191 0.157-0.431l0.218-0.238-0.253-0.247c-0.233-0.227-0.869-0.619-0.869-0.535zM7.327 17.995c0.001 0.066 0.019 0.149 0.042 0.185 0.031 0.047 0.042 0.023 0.042-0.094 0-0.087-0.019-0.17-0.042-0.185-0.025-0.015-0.042 0.025-0.042 0.094zM24.83 20.202c0.062 0.534 0.305 1.090 0.64 1.469 0.171 0.192 0.191 0.204 0.192 0.112 0.002-0.137-0.157-0.665-0.272-0.904-0.11-0.227-0.545-0.943-0.572-0.943-0.010 0-0.005 0.12 0.012 0.266zM7.111 20.594c-0.74 0.729-1.839 1.403-2.737 1.681-0.877 0.27-0.991 0.312-1.266 0.466-0.148 0.083-0.363 0.238-0.478 0.346l-0.208 0.194 0.172-0.072c0.094-0.040 0.47-0.157 0.835-0.261s0.857-0.254 1.093-0.335c0.544-0.186 1.381-0.426 1.714-0.492 1.485-0.295 1.812-0.494 1.764-1.071-0.023-0.274-0.187-0.665-0.336-0.802l-0.103-0.095-0.449 0.441zM8.545 22.205c-0.247 0.052-0.468 0.186-0.468 0.282 0 0.111 0.21 0.143 0.859 0.134 0.412-0.007 0.539-0.023 0.632-0.084 0.13-0.086 0.15-0.207 0.047-0.292-0.083-0.068-0.806-0.096-1.069-0.040zM13.758 22.694c0.446 0.159 1.050 0.646 1.224 0.986 0.231 0.452 0.242 0.53 0.246 1.676l0.005 1.071 0.122 0.223c0.068 0.123 0.232 0.326 0.366 0.45 0.491 0.456 0.68 0.784 0.882 1.522 0.171 0.625 0.237 0.825 0.273 0.825 0.017 0 0.103-0.062 0.191-0.139l0.158-0.139-0.044-0.342c-0.052-0.404-0.175-0.676-0.487-1.081-0.384-0.501-0.809-1.137-0.919-1.378-0.177-0.385-0.226-0.757-0.224-1.702 0.001-0.926-0.033-1.131-0.225-1.337-0.127-0.137-0.971-0.543-1.301-0.626-0.316-0.080-0.484-0.085-0.267-0.008zM17.963 23.267c-0.22 0.283-0.597 0.981-0.554 1.024 0.012 0.012 0.055-0.042 0.096-0.121s0.126-0.221 0.189-0.315c0.152-0.226 0.442-0.75 0.415-0.75-0.012 0-0.077 0.072-0.146 0.161zM26.478 23.232c0 0.028 0.017 0.041 0.038 0.027s0.127 0.039 0.236 0.116c1.043 0.73 1.415 1.004 1.657 1.221 0.377 0.336 0.511 0.414 0.917 0.53 0.394 0.113 0.631 0.263 0.879 0.558 0.097 0.114 0.196 0.208 0.22 0.208 0.055 0 0.024-0.552-0.032-0.594-0.022-0.015-0.217-0.222-0.433-0.46-0.441-0.483-0.631-0.605-1.326-0.856-0.232-0.084-0.566-0.236-0.743-0.339-0.474-0.274-1.414-0.548-1.414-0.411zM26.479 23.516c-0.002 0.073 0.187 0.579 0.287 0.77 0.108 0.207 0.411 0.495 0.64 0.61 0.16 0.081 0.401 0.155 0.401 0.125 0-0.008-0.104-0.087-0.231-0.174s-0.295-0.23-0.376-0.317c-0.131-0.143-0.553-0.755-0.673-0.974-0.026-0.047-0.047-0.065-0.048-0.040zM5.249 24.017c-0.072 0.062-0.102 0.122-0.085 0.167 0.058 0.153 0.657 0.279 0.735 0.155 0.050-0.081 0.060-0.218 0.019-0.281-0.037-0.058-0.295-0.133-0.463-0.136-0.052 0-0.145 0.042-0.207 0.096zM22.754 24.018c-0.172 0.088-0.203 0.177-0.132 0.381 0.052 0.152 0.102 0.202 0.29 0.3 0.222 0.116 0.24 0.117 0.857 0.103 0.692-0.016 0.926-0.074 1.081-0.271 0.094-0.119 0.114-0.373 0.033-0.423-0.028-0.017-0.313-0.039-0.632-0.047s-0.71-0.033-0.867-0.056c-0.376-0.054-0.506-0.051-0.631 0.013zM8.548 24.098c-0.794 0.063-1.327 0.197-1.373 0.341-0.072 0.227 0.16 0.254 1.223 0.143 0.346-0.037 1.023-0.065 1.525-0.066 0.497 0 0.959-0.015 1.025-0.032 0.163-0.044 0.233-0.156 0.149-0.24-0.159-0.158-1.464-0.233-2.548-0.147zM19.583 25.952c-0.077 0.093-0.025 0.196 0.1 0.196 0.058 0 0.227 0.027 0.376 0.062s0.425 0.072 0.613 0.086c0.406 0.029 0.479 0.041 1.178 0.189 0.514 0.109 0.585 0.113 1.778 0.107 1.421-0.008 1.664-0.032 1.684-0.174 0.015-0.103 0.010-0.105-0.447-0.183-0.367-0.062-0.556-0.079-1.194-0.107-1.154-0.048-1.482-0.066-2.019-0.108-1.738-0.132-2.009-0.142-2.070-0.067z"></path>
</svg>
