<!-- Generated by IcoMoon.io -->
<svg version="1.1" xmlns="http://www.w3.org/2000/svg" width="32" height="32" viewBox="0 0 32 32">
<path d="M5.024 23.906c0.323-0.579 0.352-0.596 0.755-0.439 0.45-0.446 0.905-0.426 1.391 0.060 0.325-0.094 0.539 0.040 0.679 0.352 0.033 0.074 0.151 0.147 0.237 0.155 0.358 0.036 0.637 0.178 0.801 0.553 0.045-0.14 0.069-0.241 0.11-0.335 0.135-0.311 0.354-0.54 0.684-0.641 0.346-0.106 0.693 0.063 0.779 0.381 0.022 0.082 0.017 0.184-0.011 0.264-0.037 0.108-0.152 0.139-0.217 0.050-0.124-0.167-0.241-0.317-0.477-0.236-0.256 0.087-0.428 0.266-0.527 0.514-0.017 0.043-0.029 0.087-0.046 0.13-0.059 0.149-0.145 0.114-0.244 0.030-0.035 0.088-0.049 0.192-0.108 0.252-0.064 0.066-0.171 0.129-0.255 0.125-0.065-0.003-0.179-0.116-0.176-0.175 0.019-0.405-0.165-0.615-0.557-0.687-0.078-0.015-0.14-0.14-0.198-0.221-0.046-0.065-0.063-0.153-0.116-0.21-0.041-0.044-0.124-0.085-0.175-0.073-0.045 0.011-0.086 0.093-0.104 0.151-0.029 0.098-0.011 0.219-0.063 0.297-0.056 0.085-0.163 0.169-0.261 0.188-0.138 0.026-0.232-0.085-0.276-0.215-0.022-0.065-0.022-0.137-0.037-0.204-0.083-0.371-0.311-0.469-0.66-0.282-0.019 0.116-0.038 0.233-0.070 0.43-0.149-0.219-0.249-0.367-0.351-0.516-0.229 0.114-0.22 0.305-0.262 0.464-0.099 0.371-0.177 0.413-0.532 0.261-0.064-0.028-0.126-0.061-0.192-0.079-0.19-0.054-0.335 0.018-0.405 0.214-0.042 0.117-0.063 0.241-0.091 0.349-0.178 0.036-0.336 0.069-0.538 0.11-0.028-0.048-0.077-0.12-0.116-0.198-0.050-0.102-0.077-0.22-0.143-0.311-0.17-0.24-0.459-0.247-0.59 0.009-0.125 0.244-0.251 0.312-0.515 0.214-0.199-0.075-0.409-0.002-0.596 0.106-0.264 0.153-0.479 0.358-0.635 0.622-0.045 0.075-0.095 0.147-0.145 0.223-0.212-0.090-0.198-0.246-0.167-0.391 0.132-0.62 1.077-1.415 1.826-0.865 0.457-0.385 0.6-0.393 1.136-0.051 0.141-0.471 0.45-0.712 0.981-0.662-0.032-0.473-0.047-0.932-0.095-1.386-0.302-2.824-0.483-5.654-0.481-8.495 0-0.379 0.044-0.758 0.087-1.135 0.015-0.134-0.038-0.216-0.108-0.311-0.192-0.26-0.381-0.521-0.561-0.789-0.074-0.111-0.154-0.236-0.014-0.417 0.098 0.077 0.204 0.137 0.278 0.224 0.247 0.289 0.496 0.58 0.72 0.886 0.108 0.147 0.215 0.204 0.397 0.204 1.687-0.010 3.362-0.167 5.037-0.357 1.261-0.143 2.527-0.186 3.8-0.13 3.322 0.147 6.645 0.149 9.969 0.124 0.773-0.006 1.546-0.014 2.319-0.017 0.149-0.001 0.297 0.020 0.484 0.033 0.054-0.076 0.125-0.174 0.189-0.263-0.784-0.032-1.544-0.056-2.303-0.098-2.086-0.112-4.173-0.163-6.263-0.109-3.599 0.092-7.198 0.227-10.8 0.194-0.727-0.007-1.454 0-2.181-0.005-0.168-0.001-0.336-0.027-0.504-0.041-0.001-0.024-0.002-0.048-0.003-0.073 0.12-0.018 0.239-0.050 0.359-0.052 2.376-0.050 4.753-0.094 7.129-0.147 1.327-0.029 2.653-0.092 3.979-0.105 1.789-0.017 3.577-0.022 5.365 0.009 1.303 0.022 2.605 0.11 3.907 0.168 0.334 0.015 0.669 0.028 1.003 0.050 0.135 0.009 0.269 0.038 0.417 0.060 0.235-0.143 0.34-0.496 0.76-0.545-0.052 0.16-0.064 0.274-0.12 0.36-0.153 0.231-0.326 0.446-0.486 0.672-0.044 0.061-0.094 0.136-0.095 0.206-0.013 0.633 0.020 1.269-0.026 1.899-0.154 2.119-0.19 4.241-0.223 6.363-0.011 0.738-0.063 1.475-0.095 2.213-0.003 0.066 0.010 0.132 0.015 0.2 1.060-0.165 1.411 0.055 1.427 0.9 0.175 0.086 0.34 0.21 0.273 0.443-0.085 0.297-0.303 0.467-0.645 0.516 0.092-0.171 0.184-0.343 0.286-0.534-0.112-0.056-0.214-0.107-0.35-0.175 0.181-0.174 0.292-0.33 0.159-0.556-0.13-0.219-0.329-0.35-0.575-0.273-0.203 0.063-0.39 0.186-0.576 0.297-0.087 0.052-0.148 0.149-0.235 0.202-0.167 0.102-0.324 0.024-0.36-0.165-0.067-0.364-0.136-0.448-0.38-0.464-0.264-0.017-0.427 0.116-0.532 0.434-0.063 0.191-0.133 0.218-0.286 0.073-0.171-0.161-0.358-0.216-0.569-0.128-0.223 0.094-0.261 0.307-0.274 0.52-0.011 0.176 0.060 0.372-0.12 0.507-0.287-0.152-0.385-0.598-0.221-0.964 0.201-0.448 0.6-0.563 1.224-0.342 0.175-0.182 0.35-0.385 0.636-0.418 0.278-0.032 0.519 0.055 0.744 0.239 0-0.668-0.007-1.298 0.002-1.928 0.018-1.362 0.013-2.724 0.077-4.084 0.048-1.013 0.184-2.021 0.287-3.029 0.056-0.55 0.124-1.099 0.186-1.64-0.21-0.235-0.46-0.241-0.736-0.198-0.215 0.034-0.437 0.037-0.656 0.039-3.254 0.030-6.509 0.062-9.763 0.083-0.808 0.005-1.615-0.022-2.423-0.044-1.353-0.038-2.697 0.074-4.041 0.21-1.356 0.138-2.716 0.202-4.077 0.048-0.069-0.008-0.138-0.016-0.207-0.013-0.194 0.009-0.266 0.080-0.28 0.272-0.005 0.057-0.001 0.115 0 0.173 0.031 1.477 0.042 2.954 0.1 4.43 0.048 1.233 0.159 2.463 0.227 3.695 0.044 0.783 0.063 1.568 0.084 2.352 0.005 0.169 0.005 0.324 0.212 0.413z"></path>
<path d="M3.76 11.058c0.137-0.009 0.274-0.017 0.431-0.027 0.243-0.43 0.635-0.738 1.011-1.057 1.372-1.165 2.755-2.316 4.129-3.478 0.255-0.216 0.517-0.334 0.869-0.345 1.475-0.046 2.948-0.163 4.424-0.184 1.406-0.020 2.814 0.045 4.22 0.079 0.749 0.018 1.498 0.044 2.246 0.083 0.139 0.007 0.292 0.075 0.405 0.16 0.765 0.575 1.539 1.14 2.275 1.752 0.904 0.752 1.772 1.547 2.655 2.325 0.069 0.060 0.132 0.13 0.2 0.192 0.171 0.159 0.345 0.315 0.534 0.488-0.030 0.017-0.079 0.070-0.132 0.075-0.218 0.018-0.437 0.040-0.655 0.029-2.814-0.13-5.628-0.047-8.442 0.008-0.968 0.019-1.937 0.020-2.903-0.020-1.249-0.050-2.491 0.001-3.731 0.127-0.806 0.081-1.61 0.086-2.417 0.066-1.361-0.034-2.722-0.049-4.083-0.080-0.299-0.007-0.598-0.045-0.896-0.074-0.051-0.005-0.099-0.036-0.148-0.056 0.003-0.021 0.007-0.042 0.011-0.063zM9.201 7.149c-0.021 0.009-0.046 0.013-0.062 0.028-1.392 1.301-2.878 2.491-4.356 3.69-0.047 0.038-0.087 0.085-0.149 0.147 0.545 0.065 3.408 0.010 3.655-0.066-0.030-0.792-0.061-1.587-0.093-2.382-0.011-0.284 0.059-0.403 0.337-0.413 0.401-0.016 0.806-0.002 1.206 0.033 0.285 0.026 0.416 0.171 0.423 0.447 0.017 0.68 0.016 1.36 0.022 2.040 0.001 0.1 0 0.199 0 0.318 1.418-0.052 2.807-0.104 4.221-0.155-0.005-0.1-0.010-0.202-0.015-0.303-0.034-0.729 0.024-1.452 0.139-2.171 0.048-0.301 0.089-0.356 0.393-0.387 0.435-0.042 0.873-0.069 1.31-0.067 0.301 0.001 0.364 0.079 0.366 0.383 0.005 0.658-0.003 1.315-0.013 1.973-0.002 0.143-0.001 0.301-0.192 0.44-0.027-0.149-0.067-0.263-0.064-0.377 0.011-0.634 0.033-1.268 0.049-1.902 0.002-0.065-0.010-0.13-0.018-0.223-0.202 0.016-0.381 0.030-0.554 0.043v2.638c1.621 0.028 3.206-0.073 4.811-0.074 0.017-0.859-0.057-1.688 0.116-2.489 0.469-0.13 1.098-0.098 1.437-0.036 0.237 0.044 0.308 0.125 0.315 0.379 0.011 0.369 0.006 0.738 0.007 1.107 0.001 0.341 0 0.681 0 1.070h3.889c-1.503-1.231-3.030-2.482-4.557-3.732-0.278 0.33-1.265 0.969-1.607 1.021 0.18-0.305 0.439-0.473 0.678-0.652 0.243-0.182 0.506-0.335 0.769-0.505-0.14-0.125-0.281-0.243-0.412-0.372-0.099-0.097-0.202-0.122-0.341-0.114-0.438 0.024-0.877 0.049-1.314 0.035-2.757-0.089-5.514-0.125-8.272-0.12-0.403 0.001-0.806-0.043-1.208-0.072-0.111-0.008-0.193 0.007-0.272 0.101-0.206 0.246-0.427 0.481-0.643 0.721v-0.003zM9.729 11.025c0.056-0.876 0.11-1.707 0.163-2.526h-1.386c0.057 0.852 0.113 1.672 0.168 2.49h0.438c-0.079-1.62-0.066-1.838 0.157-2.089 0.098 0.711 0.124 1.395 0.134 2.102 0.106 0.008 0.204 0.015 0.324 0.024zM20.904 8.52c0.034 0.777 0.066 1.518 0.098 2.271h1.194v-2.199c-0.148 0.007-0.268 0.013-0.4 0.020-0.032 0.666-0.021 1.304-0.164 1.936-0.073-0.1-0.115-0.202-0.12-0.306-0.020-0.483-0.029-0.966-0.044-1.45-0.003-0.075-0.014-0.151-0.021-0.227-0.184-0.015-0.344-0.028-0.543-0.045zM14.8 10.862h0.602c0.033-0.873 0.065-1.727 0.098-2.595h-0.6c-0.033 0.868-0.065 1.713-0.099 2.595z"></path>
<path d="M16.982 24.056c0.233 0.025 0.461 0.047 0.687 0.076 0.114 0.015 0.237 0.022 0.334 0.073 0.079 0.042 0.161 0.137 0.18 0.221 0.030 0.13-0.082 0.209-0.196 0.245-0.098 0.031-0.204 0.050-0.306 0.051-0.403 0.003-0.807 0.001-1.21-0.005s-0.807-0.028-1.21-0.026c-0.126 0-0.251 0.057-0.403 0.094-0.077-0.023-0.189-0.079-0.304-0.085-0.171-0.010-0.345 0.023-0.518 0.023-0.117 0-0.234-0.025-0.418-0.047 0.293-0.399 0.701-0.354 1.050-0.504-0.048-0.278 0.115-0.602-0.204-0.861 0.147-0.114 0.161-0.267 0.157-0.446-0.022-1.118-0.032-2.236-0.040-3.355-0.003-0.308 0.026-0.339 0.317-0.382 0.558-0.084 1.116-0.165 1.676-0.243 0.257-0.035 0.37 0.053 0.373 0.32 0.005 0.403-0.021 0.807-0.019 1.21 0.005 1.165 0.017 2.328 0.028 3.493 0.001 0.044 0.013 0.088 0.023 0.15zM15.632 19.674c0.044 0.001 0.087 0.001 0.131 0.001 0.21 1.064 0.213 2.15 0.236 3.239h0.557c0.025-1.263 0.049-2.502 0.073-3.734-0.581 0.061-1.162 0.122-1.763 0.184 0.301 1.213 0.193 2.445 0.239 3.689 0.171-0.024 0.292-0.040 0.43-0.059 0.006-0.134 0.014-0.247 0.015-0.36 0.009-0.819 0.013-1.637 0.026-2.456 0.002-0.168 0.036-0.336 0.055-0.504zM15.987 23.355v0.681h0.746c-0.035-0.265-0.065-0.498-0.098-0.749-0.223 0.024-0.413 0.044-0.648 0.068zM15.097 24.135c0.16-0.019 0.303-0.036 0.442-0.053v-0.712c-0.162 0.014-0.294 0.026-0.442 0.040v0.726z"></path>
<path d="M14.503 16.095c-0.042-0.608-0.101-1.17-0.115-1.733-0.018-0.733 0.025-0.775 0.744-0.859 0.32-0.037 0.644-0.051 0.967-0.047 0.272 0.004 0.393 0.105 0.403 0.374 0.022 0.564 0.009 1.13 0.007 1.695 0 0.044-0.013 0.095-0.037 0.132-0.042 0.061-0.093 0.151-0.15 0.16-0.122 0.017-0.145-0.098-0.145-0.19-0.003-0.393 0.002-0.785 0.003-1.177 0.001-0.218 0-0.436 0-0.685h-0.611c-0.052 0.379 0.067 0.744 0.11 1.115 0.042 0.366 0.075 0.732 0.115 1.12 0.223 0 0.46 0.006 0.697-0.001 0.727-0.023 1.453-0.053 2.179-0.077 0.244-0.008 0.326 0.062 0.292 0.306-0.054 0.388-0.137 0.771-0.215 1.154-0.038 0.188-0.169 0.305-0.348 0.35-0.189 0.047-0.384 0.084-0.578 0.095-1.532 0.085-3.065 0.164-4.597 0.241-0.219 0.011-0.438 0.006-0.658 0.003-0.153-0.003-0.253-0.067-0.29-0.235-0.098-0.442-0.109-0.89-0.101-1.339 0.003-0.165 0.096-0.257 0.257-0.272 0.241-0.022 0.483-0.038 0.725-0.053 0.447-0.027 0.895-0.051 1.346-0.077zM12.537 17.872c0.265-0.027 0.502-0.054 0.739-0.075 1.159-0.104 2.317-0.219 3.478-0.307 0.459-0.034 0.922-0.012 1.382-0.010 0.16 0.001 0.308-0.001 0.332-0.208 0.037-0.317 0.072-0.633 0.111-0.982-2.056 0.098-4.075 0.195-6.138 0.293 0.031 0.413 0.062 0.831 0.095 1.289zM14.726 13.826c0.030 0.774 0.059 1.504 0.087 2.263 0.242-0.024 0.453-0.044 0.64-0.062-0.11-0.764-0.214-1.49-0.323-2.252-0.098 0.012-0.229 0.029-0.405 0.051z"></path>
<path d="M32 24.991c-0.137 0.247-0.331 0.346-0.518 0.449-0.572 0.313-1.178 0.473-1.839 0.469-1.592-0.009-3.184 0.013-4.777 0.012-1.534-0.001-3.069-0.012-4.603-0.023-0.381-0.003-0.761-0.017-1.142-0.032-0.209-0.008-0.208-0.014-0.41-0.217 0.13-0.047 0.238-0.11 0.352-0.125 1.755-0.235 3.515-0.302 5.283-0.187 0.99 0.065 1.983 0.077 2.975 0.116 1.015 0.040 2.029 0.083 3.043 0.128 0.151 0.007 0.279 0.010 0.406-0.117 0.171-0.171 0.943-0.453 1.229-0.472z"></path>
<path d="M12.777 25.398c-0.090 0.205-0.264 0.212-0.42 0.224-0.528 0.038-1.058 0.079-1.587 0.091-0.588 0.012-1.177 0.007-1.764-0.017-1.409-0.056-2.812 0.052-4.216 0.131-1.278 0.072-2.557 0.118-3.835 0.177-0.207 0.009-0.414 0.027-0.621 0.032-0.107 0.003-0.214-0.011-0.322-0.017-0.003-0.029-0.007-0.059-0.009-0.088 0.148-0.044 0.293-0.111 0.444-0.13 0.937-0.119 1.873-0.246 2.813-0.335 0.872-0.083 1.748-0.144 2.622-0.173 1.44-0.048 2.882-0.069 4.323-0.090 0.715-0.010 1.43-0.001 2.144 0.009 0.156 0.002 0.328-0.003 0.43 0.188z"></path>
<path d="M8.619 19.629c-0.128-0.116-0.34-0.075-0.398-0.292 0.053-0.017 0.094-0.044 0.132-0.042 0.494 0.042 0.989 0.074 1.48 0.137 0.299 0.038 0.325 0.102 0.34 0.405 0.023 0.483 0.067 0.966 0.079 1.45 0.009 0.403-0.002 0.808-0.031 1.21-0.028 0.396-0.149 0.492-0.54 0.528-0.241 0.023-0.479 0.065-0.719 0.1-0.467 0.070-0.612-0.036-0.594-0.496 0.033-0.83 0.084-1.658 0.138-2.486 0.011-0.169 0.072-0.334 0.112-0.514zM9.393 19.8c0.057 0.971 0.112 1.918 0.168 2.864 0.175 0.034 0.191-0.079 0.197-0.204 0.022-0.447 0.044-0.896 0.066-1.343 0.020-0.411 0.039-0.822 0.060-1.25-0.178-0.024-0.331-0.044-0.491-0.066zM8.732 22.82c0.132-0.023 0.231-0.039 0.321-0.055v-3.042c-0.095-0.025-0.169-0.044-0.256-0.066 0.089 1.059-0.042 2.085-0.066 3.163z"></path>
<path d="M9.806 13.781c-0.098 0.236-0.299 0.128-0.436 0.194v3.116h0.356c0.076-1.165 0.012-2.331 0.258-3.472 0.003-0.014 0.037-0.022 0.093-0.052 0.024 0.103 0.064 0.196 0.065 0.289 0.015 1.037 0.024 2.075 0.034 3.112 0.001 0.069-0.003 0.139-0.013 0.207-0.034 0.225-0.116 0.307-0.338 0.309-0.392 0.005-0.784 0.007-1.175-0.001-0.259-0.005-0.349-0.098-0.352-0.364-0.012-1.107-0.020-2.213-0.024-3.32-0.001-0.31 0.059-0.346 0.382-0.312 0.155 0.017 0.334-0.043 0.467 0.013 0.224 0.093 0.517 0.055 0.681 0.28zM9.016 17.094c0.016-1.089 0.083-2.131 0.063-3.19-0.167-0.015-0.29-0.026-0.418-0.038v3.227z"></path>
<path d="M20.711 17.52c0.103-0.045 0.206-0.090 0.321-0.141-0.030-0.461-0.067-0.928-0.089-1.397-0.027-0.598-0.052-1.196-0.056-1.794-0.003-0.492 0.127-0.654 0.59-0.808 0.142-0.047 0.287-0.089 0.434-0.112 0.365-0.055 0.52 0.053 0.57 0.419 0.044 0.318 0.058 0.641 0.085 0.962 0.060 0.71 0.119 1.421 0.179 2.131 0.007 0.091 0.018 0.184 0.017 0.275-0.001 0.274-0.093 0.438-0.352 0.478-0.488 0.075-0.982 0.112-1.474 0.153-0.075 0.007-0.157-0.050-0.235-0.078 0.003-0.030 0.005-0.059 0.009-0.089zM22.39 17.116c0.008-0.108 0.018-0.165 0.015-0.222-0.046-0.817-0.091-1.634-0.142-2.45-0.013-0.219-0.040-0.436-0.072-0.653-0.017-0.117-0.053-0.237-0.249-0.146 0 0.090-0.004 0.192 0.001 0.294 0.018 0.38 0.042 0.759 0.058 1.139 0.021 0.518 0.042 1.037 0.053 1.556 0.004 0.176 0.013 0.364-0.167 0.522-0.123-0.188-0.145-0.379-0.148-0.573-0.012-0.6-0.020-1.2-0.027-1.799-0.003-0.355-0.001-0.71-0.001-1.067-0.388 0.085-0.432 0.132-0.456 0.489-0.007 0.092-0.005 0.185-0.004 0.277 0.017 0.911 0.035 1.822 0.054 2.733 0.001 0.033 0.014 0.067 0.027 0.124 0.349-0.074 0.693-0.147 1.057-0.224z"></path>
<path d="M20.92 19.286c0.389-0.083 0.745-0.168 1.106-0.233 0.391-0.071 0.554 0.056 0.595 0.459 0.030 0.286 0.038 0.574 0.055 0.861 0.034 0.608 0.070 1.216 0.1 1.826 0.017 0.363-0.040 0.448-0.388 0.537-0.334 0.084-0.672 0.158-1.011 0.216-0.371 0.064-0.534-0.058-0.606-0.429-0.024-0.124-0.034-0.252-0.030-0.378 0.028-0.816 0.060-1.632 0.097-2.447 0.006-0.123 0.048-0.245 0.081-0.41zM22.55 22.441c-0.144-1.044-0.282-2.051-0.425-3.087-0.134 0.015-0.24 0.027-0.363 0.040 0.054 0.549 0.114 1.062 0.154 1.577 0.041 0.519 0.063 1.040 0.094 1.57 0.065-0.005 0.146-0.005 0.223-0.020 0.1-0.019 0.198-0.050 0.316-0.080zM21.794 22.592c-0.284-1.052-0.251-2.107-0.279-3.187-0.157 0.040-0.272 0.069-0.364 0.093 0.058 1.068 0.114 2.094 0.172 3.139 0.189-0.017 0.333-0.032 0.471-0.045z"></path>
<path d="M18.367 21.227c-0.045-0.124-0.091-0.229-0.122-0.338-0.073-0.258 0.018-0.504 0.225-0.632 0.196-0.12 0.446-0.102 0.642 0.061 0.301 0.249 0.398 0.591 0.37 0.959-0.014 0.193 0.004 0.334 0.128 0.498 0.099 0.132 0.13 0.343 0.126 0.518-0.008 0.387-0.194 0.704-0.481 0.959-0.068 0.061-0.148 0.112-0.23 0.151-0.136 0.065-0.269 0.076-0.43 0.042-0.121-0.026-0.27 0.113-0.405 0.108-0.264-0.009-0.439-0.182-0.551-0.413-0.167-0.343-0.148-0.69-0.013-1.037 0.132-0.34 0.298-0.539 0.74-0.875zM18.51 23.309c0.134-0.093 0.248-0.169 0.359-0.25 0.281-0.203 0.475-0.469 0.547-0.812 0.032-0.155 0.024-0.327-0.153-0.376-0.239-0.067-0.26-0.225-0.247-0.424 0.008-0.126 0.026-0.257 0.004-0.379-0.025-0.144-0.066-0.295-0.142-0.416-0.041-0.065-0.19-0.12-0.256-0.094-0.068 0.026-0.123 0.155-0.131 0.244-0.007 0.082 0.048 0.174 0.088 0.256 0.153 0.309 0.157 0.327-0.069 0.575-0.198 0.216-0.355 0.455-0.43 0.74-0.118 0.445 0.017 0.735 0.43 0.937z"></path>
<path d="M19.617 23.804c0.592-0.437 0.808-0.461 1.567-0.143 0.073-0.058 0.151-0.124 0.233-0.184 0.269-0.198 0.571-0.25 0.887-0.161 0.262 0.074 0.438 0.251 0.5 0.523 0.052 0.231-0.017 0.423-0.226 0.619-0.041-0.109-0.078-0.174-0.090-0.243-0.070-0.403-0.315-0.549-0.689-0.388-0.112 0.049-0.215 0.133-0.305 0.219-0.23 0.219-0.245 0.227-0.456-0.003-0.145-0.158-0.327-0.211-0.528-0.211-0.278 0-0.465 0.153-0.546 0.428-0.093 0.316-0.26 0.372-0.533 0.176-0.151-0.109-0.335-0.159-0.553-0.149 0.017 0.131 0.049 0.26 0.046 0.387-0.003 0.093-0.050 0.184-0.078 0.276-0.085-0.045-0.188-0.073-0.251-0.14-0.068-0.073-0.108-0.176-0.143-0.273-0.133-0.36 0.034-0.695 0.414-0.755 0.231-0.036 0.475 0.009 0.751 0.020z"></path>
<path d="M12.75 21.587c-0.414 0.307-0.567 0.817-0.399 1.257 0.046 0.12 0.161 0.235 0.063 0.381-0.267-0.107-0.447-0.403-0.44-0.74 0.008-0.362 0.165-0.666 0.397-0.933 0.156-0.181 0.315-0.36 0.486-0.527 0.049-0.048 0.143-0.078 0.211-0.071 0.045 0.005 0.107 0.085 0.119 0.141 0.094 0.438 0.181 0.878 0.264 1.318 0.055 0.291 0.011 0.576-0.11 0.843-0.054 0.121-0.109 0.261-0.317 0.253-0.030-0.327-0.045-0.652-0.091-0.975-0.044-0.314-0.12-0.624-0.183-0.947z"></path>
<path d="M10.641 23.992c0.392-0.397 0.631-0.37 0.986 0.069 0.114 0 0.228 0.003 0.342-0.001 0.224-0.007 0.418 0.065 0.533 0.257 0.085 0.141 0.191 0.173 0.339 0.177 0.137 0.004 0.278 0.024 0.409 0.063 0.365 0.11 0.586 0.521 0.447 0.842-0.034 0.080-0.13 0.177-0.207 0.186-0.136 0.016-0.143-0.116-0.145-0.223-0.001-0.069 0.004-0.139-0.007-0.206-0.033-0.206-0.135-0.307-0.34-0.325-0.114-0.009-0.231-0.003-0.345 0.004-0.161 0.009-0.31-0.026-0.386-0.174-0.11-0.215-0.275-0.213-0.467-0.157-0.022 0.006-0.043 0.016-0.065 0.021-0.274 0.056-0.381-0.009-0.453-0.28-0.099-0.375-0.112-0.381-0.495-0.267-0.031 0.009-0.065 0.007-0.146 0.013z"></path>
<path d="M28.346 24.671c0.046-0.106 0.065-0.207 0.123-0.276 0.249-0.3 0.561-0.514 0.944-0.602 0.587-0.135 0.985 0.155 1.127 0.824 0.125-0.021 0.251-0.042 0.448-0.075-0.161 0.316-0.352 0.498-0.628 0.568-0.161 0.041-0.254-0.093-0.201-0.256 0.007-0.022 0.021-0.041 0.030-0.062 0.185-0.429-0.101-0.811-0.57-0.756-0.336 0.040-0.59 0.241-0.845 0.444-0.11 0.088-0.199 0.228-0.428 0.192z"></path>
<path d="M14.363 7.845c0.057-0.093 0.099-0.202 0.176-0.275 0.274-0.261 0.561-0.51 0.844-0.762 0.116-0.104 0.256-0.136 0.379-0.042 0.399 0.308 0.789 0.627 1.179 0.948 0.036 0.030 0.040 0.098 0.058 0.149-0.155 0.118-0.26 0.013-0.353-0.054-0.364-0.26-0.719-0.531-1.103-0.817-0.366 0.281-0.633 0.735-1.091 0.94-0.030-0.029-0.060-0.059-0.089-0.087z"></path>
<path d="M9.201 7.151c0.085-0.004 0.204-0.046 0.25-0.005 0.241 0.212 0.467 0.442 0.688 0.676 0.042 0.045 0.032 0.138 0.046 0.21-0.020 0.016-0.040 0.033-0.060 0.049-0.095-0.066-0.209-0.116-0.283-0.2-0.174-0.199-0.327-0.416-0.493-0.621-0.038-0.046-0.096-0.076-0.146-0.111-0.001 0.001-0.002 0.003-0.002 0.003z"></path>
</svg>
