<!-- Generated by IcoMoon.io -->
<svg version="1.1" xmlns="http://www.w3.org/2000/svg" width="19" height="32" viewBox="0 0 19 32">
<path d="M0.001 0.004c-0.1 0.154 7.388 5.206 7.511 5.287s7.768 4.879 7.867 4.726c0.1-0.153-7.384-5.202-7.505-5.282s-7.773-4.885-7.873-4.731z"></path>
<path d="M0.323 18.271c-0.008 0.183 7.668 0.651 7.793 0.656s7.807 0.177 7.815-0.007c0.008-0.184-7.664-0.651-7.788-0.657s-7.813-0.176-7.82 0.008z"></path>
<path d="M8.721 31.992c0.088 0.161 4.937-2.297 5.014-2.338s4.781-2.76 4.694-2.921c-0.087-0.161-4.933 2.294-5.011 2.337s-4.785 2.761-4.697 2.922z"></path>
</svg>
