<!-- Generated by IcoMoon.io -->
<svg version="1.1" xmlns="http://www.w3.org/2000/svg" width="32" height="32" viewBox="0 0 32 32">
<path d="M31.972 18.279c-0.202-2.196-1.18-4.242-2.386-6.060-0.74-1.158-1.57-2.288-2.627-3.177-0.655-0.519-1.412-0.891-2.103-1.353-0.468-0.304-0.927-0.618-1.407-0.899-1.108-0.571-2.359-0.892-3.598-1.003-1.282-0.106-2.577-0.114-3.827 0.239-1.727 0.389-3.195 1.558-4.392 2.817-0.283 0.276-1.729 2.611-0.874 2.634 0.003 0 0.005-0.002 0.008-0.002-0.036 0.072-0.040 0.136-0.022 0.19-0.454 0.059-0.906 0.127-1.353 0.225-1.751 0.449-3.467 1.103-5.015 2.039-0.894 0.625-1.854 1.185-2.636 1.951-1.151 1.112-1.872 2.668-1.719 4.284-0.070 2.304 1.015 2.927 2.436 3.989 0.326 0.771 1.089 1.336 1.918 1.637 1.035 0.327 2.138 0.409 3.216 0.475 2.383 0.078 4.779-0.211 7.030-1.013 1.126-0.383 2.259-0.802 3.321-1.344 0.293 0.232 0.536 0.52 0.83 0.75 0.719 0.61 1.704 0.624 2.599 0.674 0.804 0.050 1.602 0.167 2.408 0.194 0.826 0.032 1.717 0.067 2.483-0.282-0.015 0.069-0.005 0.144 0.034 0.202 0.187 0.254 0.465-0.005 0.66-0.115 0.481-0.282 1.007-0.484 1.493-0.755 0.779-0.468 1.621-0.895 2.174-1.642 1.101-1.275 1.491-3.004 1.35-4.655zM13.193 10.717c0.055-0.188 0.134-0.438 0.234-0.639 0.001-0.001 0.001-0.003 0.002-0.003 0.004 0.064 0.010 0.127 0.017 0.188-0.091 0.217-0.161 0.433-0.201 0.538-0.022 0.153-0.132 0.382-0.169 0.584-0.034 0.003-0.069 0.007-0.104 0.010 0.206-0.105 0.129-0.476 0.22-0.679zM13.655 11.226c0.015 0.034 0.031 0.067 0.047 0.1-0.026 0.003-0.052 0.005-0.078 0.007 0.009-0.036 0.020-0.072 0.030-0.107zM12.801 11.415c-0.16 0.018-0.32 0.038-0.481 0.058-0.122 0.016-0.245 0.031-0.369 0.046 0.007-0.021 0.013-0.044 0.015-0.066 0.082-0.268 0.211-0.599 0.359-0.86 0.060-0.131 0.245-0.186 0.222-0.358-0.001-0.009-0.006-0.017-0.007-0.027 0.106-0.044 0.213-0.083 0.32-0.118-0.053 0.156-0.090 0.321-0.146 0.445-0.051 0.261-0.273 0.778 0.085 0.88zM11.653 10.822c-0.056 0.207-0.271 0.545-0.186 0.754-0.060 0.007-0.121 0.015-0.181 0.021 0.003-0.011 0.008-0.021 0.010-0.033 0.041-0.317 0.181-0.575 0.377-0.787-0.006 0.015-0.013 0.031-0.021 0.045zM1.11 22.362c-0.438-0.536-0.562-1.234-0.571-1.909-0.022-0.754-0.061-1.545 0.236-2.255 0.564-1.422 1.727-2.449 2.999-3.243 0.99-0.735 2.086-1.319 3.238-1.757 1.617-0.682 3.281-1.027 5.034-1.181 0.651-0.084 1.304-0.158 1.959-0.205 0.015 0.020 0.029 0.040 0.044 0.059 0.146 0.207 0.417 0.095 0.462-0.090 0.568-0.028 1.136-0.034 1.706-0.004 1.904 0.151 4.071 0.7 5.153 2.41 0.431 0.674 0.641 1.457 0.81 2.231 0.321 1.251 0.231 2.637-0.357 3.798-0.183 0.307-0.418 0.616-0.663 0.906 0.251-0.617 0.346-1.31 0.389-1.969 0.112-0.854-0.057-1.816-0.816-2.33-1.156-0.838-2.573-1.148-3.947-1.431-2.767-0.472-5.526 0.27-8.11 1.214-1.217 0.297-2.269 0.891-3.172 1.675-0.169-0.14-0.45 0.053-0.605 0.189-0.153-0.082-0.319-0.006-0.414 0.125-0.263 0.308-0.514 0.624-0.749 0.953-0.342 0.48-0.798 0.872-1.137 1.357-0.494 0.059-0.673 0.695-0.817 1.101-0.157 0.412-0.094 0.788 0.115 1.102-0.288-0.221-0.558-0.46-0.785-0.748zM14.349 19.828c-0.014-0.013-0.028-0.026-0.046-0.039-0.841-0.611-1.841-1.149-2.22-2.184-0.146-0.351-0.276-0.709-0.412-1.065-0.048-0.129-0.19-0.202-0.324-0.157-0.129 0.045-0.207 0.194-0.157 0.325 0.603 1.864 1.105 2.333 2.596 3.349-0.082 0.032-0.162 0.066-0.244 0.096-2.182 0.664-4.477 1.091-6.767 0.947-0.88-0.056-1.836-0.068-2.621-0.492 0.798-1.165 1.745-2.217 3.008-2.882 1.411-0.634 2.922-1.042 4.392-1.519 0.068-0.018 0.135-0.033 0.202-0.050 0.054 0.471 0.313 0.927 0.465 1.37 0.123 0.233 0.183 0.635 0.465 0.767 0.301 0.145 0.526-0.308 0.226-0.456-0.248-0.538-0.487-1.116-0.648-1.695 0.018-0.028 0.030-0.053 0.039-0.079 0.238 0.814 0.627 1.577 0.956 2.357 0.056 0.127 0.222 0.173 0.342 0.114 0.128-0.065 0.17-0.215 0.113-0.342-0.177-0.4-0.351-0.802-0.525-1.203-0.121-0.34-0.32-0.683-0.376-1.046 0.176-0.028 0.351-0.055 0.529-0.076-0.301 0.352 0.644 1.513 0.823 1.79 0.085 0.109 0.26 0.11 0.359 0.022 0.143-0.124 0.084-0.314-0.033-0.431-0.136-0.179-0.27-0.397-0.407-0.615-0.101-0.202-0.268-0.396-0.298-0.623-0.005-0.073-0.043-0.136-0.097-0.18 0.236-0.021 0.473-0.037 0.709-0.046-0.063 0.067-0.090 0.165-0.059 0.258 0.285 0.811 0.67 1.586 1.048 2.358 0.153 0.295 0.6 0.067 0.455-0.229-0.261-0.524-0.507-1.054-0.747-1.588-0.089-0.214-0.191-0.457-0.276-0.708-0.014-0.040-0.040-0.072-0.070-0.1 0.325-0.003 0.649 0.007 0.973 0.028-0.010 0.205-0.015 0.437 0.003 0.666-0.057-0.124-0.11-0.249-0.158-0.375-0.049-0.129-0.191-0.204-0.325-0.157-0.128 0.045-0.206 0.194-0.158 0.323 0.19 0.506 0.454 0.981 0.738 1.44 0.073 0.118 0.244 0.145 0.355 0.069 0.084-0.065 0.109-0.146 0.1-0.232 0.301 0.072 0.523-0.108 0.698-0.343 0.282 0.326 0.593 0.633 0.801 0.847-1.087 0.682-2.24 1.283-3.429 1.786zM2.329 22.849c-0.078-0.098-0.13-0.208-0.126-0.343 0.085-0.068 0.148-0.153 0.205-0.245-0.039 0.235-0.065 0.449-0.079 0.588zM16.649 16.778c-0.063 0.1-0.134 0.196-0.227 0.266-0.197-0.357-0.216-0.787-0.19-1.195 0.056 0.007 0.113 0.013 0.169 0.020-0.013 0.015-0.026 0.033-0.038 0.053-0.083 0.222 0.058 0.532 0.287 0.857zM18.311 17.698c-0.033 0.021-0.065 0.042-0.098 0.064-0.324-0.331-0.653-0.664-0.941-1.027 0.681 0.050 0.122-1.169-0.334-0.465-0.010-0.015-0.022-0.032-0.031-0.047 0.021-0.103-0.015-0.21-0.075-0.293 0.666 0.106 1.324 0.266 1.965 0.487 0.284 0.102 0.537 0.201 0.76 0.301-0.002 0.009-0.004 0.016-0.005 0.024-0.090 0.122-0.181 0.243-0.272 0.364-0.010-0.012-0.017-0.025-0.031-0.035-0.115-0.078-0.276-0.046-0.354 0.069-0.153 0.223-0.376 0.385-0.582 0.558zM7.002 25.723c-0.886-0.113-1.752-0.139-2.606-0.471-0.343-0.152-0.644-0.326-0.891-0.532 0.106-0.092 0.146-0.263 0.009-0.382-0.197-0.191-0.412-0.361-0.634-0.523-0.091-0.301-0.109-0.648-0.033-1.047 0.326-0.58 0.666-1.17 1.034-1.743 0.165 0.103 0.338 0.187 0.518 0.254-0.006 0.032-0.008 0.065-0.003 0.102 0.211 0.682 0.674 1.273 1.092 1.845 0.221 0.249 0.598-0.083 0.382-0.336-0.338-0.462-0.685-0.917-0.909-1.45 0.070 0.014 0.139 0.027 0.208 0.038 0.060 0.282 0.286 0.574 0.396 0.806 0.3 0.499 0.598 0.952 0.884 1.467 0.068 0.122 0.218 0.177 0.342 0.114 0.12-0.060 0.181-0.22 0.113-0.342-0.342-0.678-0.848-1.278-1.148-1.975 0.468 0.039 0.94 0.046 1.385 0.076 2.232 0.097 4.457-0.346 6.583-0.992 1.509-0.559 2.942-1.31 4.315-2.147 0.075-0.048 0.22-0.136 0.387-0.248-0.183 0.242-0.364 0.485-0.533 0.736-0.078 0.115-0.046 0.276 0.069 0.352 0.111 0.075 0.265 0.047 0.345-0.060-0.002 0.002-0.003 0.004-0.004 0.006-0.075 0.116-0.047 0.274 0.070 0.353 0.113 0.076 0.277 0.047 0.353-0.070 0.509-0.81 1.091-1.58 1.598-2.388 0.001-0.003 0.001-0.008 0.003-0.011 0.109 0.081 0.205 0.165 0.287 0.253-0.457 0.364-1.009 1.203-1.172 1.383-0.225 0.314-0.437 0.637-0.63 0.97-0.117 0.147-0.161 0.382 0.036 0.482 0.19 0.097 0.341-0.072 0.409-0.237 0.146-0.245 0.298-0.484 0.46-0.717 0.363-0.504 0.73-1.023 1.188-1.445 0.047 0.106 0.084 0.22 0.109 0.341-0.574 0.328-0.95 0.922-1.35 1.434-0.254 0.362-0.514 0.722-0.748 1.098-0.073 0.116-0.048 0.273 0.070 0.352 0.112 0.075 0.28 0.048 0.353-0.069 0.167-0.269 0.348-0.529 0.53-0.787 0.369-0.497 0.72-1.046 1.2-1.444 0 0.090-0.004 0.184-0.010 0.282-0.345 0.173-0.761 0.723-0.895 0.904-0.199 0.267-0.336 0.668-0.074 0.94-0.048 0.068-0.096 0.135-0.146 0.202-0.083 0.111-0.042 0.278 0.070 0.352 0.219 0.146 0.385-0.093 0.491-0.259 0.176-0.179 0.253-0.554-0.045-0.651-0.013-0.021-0.001-0.048 0.002-0.072 0 0.004-0.001 0.009-0.003 0.014 0 0.006-0.002 0.013-0.003 0.020 0.105-0.279 0.3-0.517 0.52-0.726-0.024 0.155-0.051 0.318-0.081 0.49-0.395 2.362-4.106 3.643-6.115 4.395-2.484 0.913-5.134 1.238-7.776 1.063zM23.479 24.999c-1.078-0.093-2.159-0.171-3.236-0.269-0.407-0.060-0.809-0.183-1.131-0.449-0.159-0.086-0.425-0.425-0.681-0.637 0.696-0.391 1.356-0.845 1.953-1.39 0.084-0.075 0.159-0.154 0.232-0.236 0.045 0.078 0.126 0.133 0.236 0.125 0.102-0.006 0.189-0.077 0.222-0.17 0.655-0.699 1.327-1.456 1.547-2.413 0.315-1.066 0.335-2.19 0.051-3.267-0.188-0.878-0.442-1.759-0.961-2.505-1.127-1.689-3.257-2.294-5.18-2.499-0.756-0.055-1.513-0.047-2.269-0.003-0.016-0.026-0.033-0.050-0.049-0.076 0.189-0.029 0.287-0.278 0.152-0.424-0.185-0.125-0.282-0.327-0.339-0.544 0.021-0.040 0.040-0.080 0.063-0.118 0.090-0.063 0.131-0.189 0.096-0.294-0.009-0.013-0.017-0.020-0.025-0.030 0.946-0.143 1.911-0.15 2.853 0.029 1.344 0.294 2.688 0.607 4.019 0.953 0.716 0.25 1.341 0.69 1.996 1.062 0.844 0.469 1.598 1.081 2.235 1.806 1.458 1.795 2.657 3.914 2.958 6.234 0.066 0.652 0.115 1.2 0.116 1.677-1.723 0.599-3.705 0.408-5.326-0.412-0.161-0.085-0.318-0.176-0.477-0.264-0.301-0.147-0.521 0.302-0.227 0.455 0.904 0.549 1.922 0.893 2.974 1.016 0.183 0.027 0.366 0.042 0.55 0.052-0.236 0.090-0.469 0.186-0.702 0.277-0.245 0.14-0.837 0.199-0.692 0.595 0.147 0.272 0.43 0.063 0.629-0.021-0.102 0.107-0.138 0.232-0.041 0.382 0.090 0.102 0.258 0.115 0.359 0.022 0.451-0.326 1.006-0.501 1.506-0.743 0.155-0.063 0.31-0.13 0.465-0.196-0.371 0.202-0.73 0.431-1.087 0.646-0.227 0.185-0.855 0.44-0.605 0.802 0.199 0.211 0.395-0.009 0.55-0.147 0.585-0.389 1.22-0.811 1.892-1.095-0.065 0.153-0.147 0.3-0.248 0.442-0.049-0.1-0.158-0.17-0.315-0.131-0.371 0.15-0.678 0.438-1.004 0.666-0.206 0.224-1 0.543-0.715 0.894 0.020 0.021 0.039 0.033 0.058 0.046-0.763 0.25-1.605 0.19-2.401 0.15zM31.289 20.586c-0.307 1.003-0.841 1.941-1.643 2.632-0.695 0.479-1.404 0.924-2.181 1.277-0.028 0.012-0.055 0.027-0.084 0.039 0.624-0.472 1.155-1.056 1.356-1.825 0.172-0.071 0.183-0.283 0.084-0.403 0.041-0.31 0.028-0.626 0.009-0.939-0.031-1.372-0.232-2.745-0.738-4.026-0.708-1.575-1.58-3.129-2.782-4.382-0.744-0.82-1.709-1.375-2.658-1.924-0.947-0.655-2.055-0.946-3.175-1.147-1.408-0.345-2.828-0.784-4.295-0.702-1.323 0.118-3.181 0.277-4.007 1.411 0.069-0.174 0.148-0.345 0.235-0.512 0.378-0.709 0.916-1.325 1.559-1.815 0.829-0.686 1.71-1.356 2.766-1.642-0.002 0.001-0.004 0.001-0.007 0.002-0.007 0.002-0.015 0.003-0.022 0.006 2.434-0.706 5.181-0.517 7.474 0.585 0.658 0.382 1.276 0.829 1.923 1.225 0.719 0.439 1.472 0.847 2.057 1.465 1.135 1.146 2.022 2.58 2.852 3.978 1.086 2.008 1.857 4.423 1.276 6.698z"></path>
</svg>
