<!-- Generated by IcoMoon.io -->
<svg version="1.1" xmlns="http://www.w3.org/2000/svg" width="32" height="32" viewBox="0 0 32 32">
<path d="M15.959 12.22c-0.041 0.106-0.074 0.204-0.114 0.31-0.252 0.636-0.57 1.231-0.954 1.794-0.717 1.043-1.287 2.168-1.867 3.285-0.35 0.676-0.717 1.345-1.059 2.030-0.155 0.31-0.278 0.643-0.408 0.962-0.122 0.285-0.236 0.57-0.35 0.847-0.277 0.669-0.562 1.329-0.815 1.998-0.236 0.603-0.383 1.23-0.497 1.867-0.114 0.652-0.245 1.296-0.359 1.94-0.040 0.195-0.049 0.399-0.114 0.586-0.066 0.196-0.187 0.229-0.383 0.147-0.253-0.106-0.407-0.294-0.489-0.554-0.163-0.514-0.334-1.027-0.506-1.541-0.008-0.016-0.033-0.024-0.074-0.057-0.049 0.057-0.122 0.106-0.154 0.171-0.204 0.399-0.391 0.798-0.595 1.198-0.025 0.057-0.066 0.114-0.098 0.162-0.155 0.196-0.326 0.261-0.498 0.188-0.163-0.066-0.236-0.253-0.212-0.49 0.025-0.334 0.017-0.676 0.058-1.010 0.032-0.261 0.106-0.514 0.162-0.774 0.122-0.611 0.22-1.223 0.375-1.826 0.155-0.644 0.35-1.28 0.611-1.891 0.147-0.334 0.294-0.668 0.35-1.035 0.025-0.138 0.090-0.286 0.171-0.407 0.212-0.31 0.294-0.677 0.44-1.011 0.155-0.366 0.383-0.701 0.587-1.051 0.212-0.358 0.424-0.726 0.652-1.076 0.286-0.44 0.595-0.872 0.889-1.304 0.22-0.318 0.505-0.587 0.684-0.946 0.098-0.204 0.31-0.35 0.449-0.53 0.318-0.424 0.636-0.84 0.921-1.288 0.358-0.562 0.677-1.15 1.011-1.72-0.017-0.024-0.025-0.041-0.041-0.065-0.18 0.049-0.351 0.090-0.53 0.138-0.668 0.171-1.328 0.366-1.997 0.506-0.758 0.154-1.524 0.293-2.291 0.391-0.562 0.073-1.141 0.082-1.711 0.122-0.612 0.041-1.215-0.032-1.81-0.138-0.44-0.073-0.889-0.13-1.313-0.244-0.937-0.245-1.85-0.554-2.543-1.288-0.237-0.253-0.522-0.473-0.726-0.75-0.49-0.66-0.766-1.402-0.799-2.241-0.041-0.636 0-1.272 0.138-1.899 0.025-0.090 0.050-0.188 0.106-0.261 0.424-0.571 0.938-0.994 1.655-1.207 0.383-0.114 0.782-0.058 1.142-0.179 0.57-0.188 1.125-0.074 1.695-0.009 0.391 0.041 0.726 0.212 1.1 0.294 0.278 0.058 0.57 0.082 0.84 0.163 0.415 0.13 0.823 0.269 1.215 0.457 0.514 0.244 0.994 0.538 1.499 0.814 0.367 0.204 0.75 0.391 1.117 0.595 0.147 0.082 0.278 0.196 0.416 0.286 0.106 0.065 0.212 0.138 0.326 0.187 0.482 0.204 0.962 0.375 1.435 0.595 0.407 0.187 0.798 0.399 1.182 0.611 0.106 0.065 0.171 0.057 0.286 0 0.302-0.155 0.594-0.35 0.97-0.35 0.236 0 0.465-0.138 0.701-0.187 0.546-0.114 1.068-0.106 1.516 0.302 0.106 0.098 0.196 0.090 0.31 0.008 0.294-0.188 0.571-0.4 0.914-0.506 0.098-0.033 0.195-0.090 0.277-0.155 0.35-0.285 0.766-0.448 1.174-0.619 0.644-0.269 1.296-0.522 1.932-0.815 0.366-0.171 0.782-0.253 1.174-0.391 0.481-0.171 0.954-0.35 1.434-0.53 0.106-0.041 0.22-0.049 0.334-0.074 0.122-0.024 0.253-0.049 0.375-0.073 0.497-0.122 0.978-0.318 1.483-0.359 0.627-0.049 1.271-0.106 1.875 0.171 0.008 0.008 0.025 0.017 0.033 0.008 0.35-0.122 0.619 0.163 0.946 0.171 0.212 0.009 0.35 0.18 0.522 0.278 0.603 0.366 1.068 0.88 1.419 1.475 0.163 0.286 0.244 0.627 0.318 0.962s0.098 0.685 0.122 1.027c0.016 0.171 0 0.342-0.025 0.506-0.090 0.734-0.277 1.443-0.635 2.087-0.408 0.717-0.994 1.214-1.859 1.279-0.506 0.041-1.011 0.090-1.516 0.122-0.204 0.008-0.416-0.024-0.628-0.049-0.603-0.065-1.206-0.122-1.802-0.204-0.31-0.040-0.619-0.13-0.929-0.195-0.114-0.025-0.228-0.033-0.35-0.041-0.106-0.008-0.212 0-0.318-0.016-0.586-0.082-1.174-0.155-1.752-0.261-0.416-0.074-0.823-0.188-1.239-0.278-0.154-0.033-0.318-0.033-0.473-0.057-0.594-0.106-1.182-0.212-1.777-0.318-0.212-0.032-0.244 0.009-0.195 0.229 0.049 0.195 0.13 0.374 0.277 0.53 0.155 0.171 0.278 0.375 0.391 0.578 0.187 0.318 0.35 0.652 0.546 0.97 0.302 0.473 0.627 0.929 0.929 1.394 0.122 0.179 0.196 0.391 0.326 0.562 0.554 0.726 0.946 1.557 1.5 2.275 0.497 0.635 0.994 1.271 1.532 1.875 0.35 0.391 0.774 0.718 1.158 1.084 0.269 0.261 0.514 0.554 0.782 0.823 0.554 0.562 1.125 1.101 1.769 1.549 0.253 0.171 0.489 0.367 0.734 0.562 0.399 0.318 0.79 0.636 1.182 0.954 0.212 0.171 0.253 0.31 0.163 0.498-0.098 0.211-0.318 0.293-0.57 0.187-0.571-0.245-1.158-0.44-1.753-0.628-0.082-0.024-0.146-0.090-0.22-0.122-0.269-0.122-0.538-0.253-0.807-0.359-0.138-0.057-0.203 0.008-0.171 0.163 0.050 0.179 0.106 0.367 0.204 0.53 0.146 0.261 0.334 0.49 0.481 0.75 0.090 0.154 0.147 0.326 0.179 0.497 0.066 0.35-0.195 0.595-0.53 0.465-0.261-0.098-0.514-0.22-0.726-0.44-0.154-0.163-0.391-0.245-0.57-0.383-0.236-0.179-0.448-0.383-0.677-0.57-0.106-0.090-0.211-0.171-0.318-0.261-0.22-0.18-0.44-0.359-0.652-0.546-0.114-0.098-0.22-0.196-0.326-0.294-0.017-0.016-0.041-0.016-0.058-0.033-0.31-0.302-0.611-0.602-0.921-0.904-0.106-0.106-0.187-0.229-0.294-0.334-0.187-0.171-0.358-0.334-0.481-0.579-0.146-0.293-0.416-0.522-0.628-0.79-0.22-0.269-0.464-0.53-0.619-0.839-0.114-0.212-0.204-0.432-0.358-0.628-0.196-0.244-0.367-0.522-0.53-0.79-0.082-0.13-0.13-0.286-0.196-0.424-0.016-0.041-0.025-0.098-0.049-0.114-0.367-0.179-0.399-0.586-0.587-0.88-0.293-0.456-0.53-0.954-0.806-1.427-0.13-0.228-0.302-0.44-0.416-0.677-0.204-0.415-0.383-0.839-0.578-1.263-0.049-0.114-0.122-0.22-0.171-0.334-0.074-0.17-0.138-0.35-0.204-0.522-0.138-0.374-0.269-0.75-0.407-1.116-0.009 0.016-0.041 0.016-0.066 0.016zM28.399 24.129c-0.122-0.261-0.318-0.342-0.481-0.473-0.416-0.318-0.799-0.693-1.239-0.986-0.506-0.35-0.88-0.823-1.329-1.231-0.244-0.22-0.448-0.481-0.685-0.701-0.285-0.269-0.611-0.489-0.888-0.774-0.383-0.391-0.734-0.823-1.092-1.239-0.114-0.13-0.196-0.31-0.326-0.415-0.432-0.35-0.677-0.84-1.002-1.263-0.514-0.677-0.97-1.395-1.434-2.095-0.457-0.685-0.905-1.378-1.354-2.071-0.252-0.391-0.513-0.774-0.758-1.174-0.122-0.212-0.212-0.44-0.318-0.66-0.196-0.367-0.742-0.514-1.093-0.31-0.106 0.065-0.122 0.13-0.082 0.236 0.188 0.53 0.367 1.060 0.571 1.582 0.073 0.187 0.228 0.35 0.261 0.546 0.073 0.498 0.391 0.872 0.66 1.247 0.326 0.457 0.53 0.978 0.856 1.434 0.146 0.204 0.203 0.481 0.366 0.661 0.383 0.415 0.538 0.962 0.864 1.402 0.147 0.196 0.326 0.367 0.424 0.587 0.163 0.374 0.416 0.684 0.636 1.018 0.212 0.318 0.399 0.652 0.627 0.954 0.269 0.367 0.57 0.71 0.864 1.052 0.358 0.423 0.726 0.855 1.101 1.271 0.203 0.228 0.432 0.432 0.66 0.636 0.245 0.22 0.497 0.415 0.75 0.627 0.058 0.049 0.090 0.114 0.13 0.179 0.049 0.058 0.082 0.147 0.138 0.163 0.221 0.082 0.326 0.261 0.457 0.424 0.114 0.138 0.245 0.277 0.432 0.286-0.114-0.4-0.236-0.783-0.326-1.166-0.081-0.334 0.041-0.482 0.383-0.498 0.106-0.008 0.22-0.008 0.318 0.025 0.44 0.154 0.872 0.318 1.312 0.481 0.171 0.082 0.358 0.146 0.595 0.244zM2.2 7.932c-0.049 0.383 0.171 0.685 0.326 1.010 0.188 0.399 0.571 0.603 0.922 0.807 0.326 0.187 0.668 0.366 1.059 0.407 0.53 0.058 1.060 0.155 1.582 0.237 0.024 0 0.041 0 0.065 0 0.522-0.106 1.060 0.032 1.582-0.138 0.057-0.017 0.122 0 0.187-0.009 0.342-0.016 0.693-0.016 1.035-0.049 0.465-0.041 0.921-0.106 1.386-0.163 0.358-0.049 0.718-0.073 1.068-0.146 0.538-0.114 1.068-0.253 1.606-0.399 0.114-0.033 0.212-0.114 0.318-0.179-0.106-0.058-0.203-0.147-0.318-0.171-0.677-0.171-1.361-0.318-2.038-0.49-0.318-0.082-0.628-0.179-0.938-0.302-0.481-0.187-0.954-0.399-1.434-0.586-0.399-0.147-0.798-0.278-1.207-0.399-0.391-0.114-0.79-0.221-1.19-0.318-0.342-0.082-0.685-0.13-1.019-0.236-0.75-0.245-1.5-0.245-2.242 0.016-0.701 0.245-0.668 0.408-0.75 1.109zM8.957 26.183c0.057-0.098 0.098-0.155 0.114-0.22 0.090-0.367 0.179-0.742 0.261-1.109 0.057-0.253 0.090-0.505 0.163-0.75 0.236-0.823 0.472-1.647 0.717-2.47s0.506-1.647 0.905-2.413c0.294-0.562 0.595-1.125 0.913-1.679 0.286-0.497 0.587-0.978 0.881-1.467 0.236-0.399 0.456-0.807 0.709-1.19 0.375-0.562 0.831-1.076 1.109-1.704 0.22-0.489 0.505-0.946 0.562-1.499 0.024-0.237 0.073-0.473 0.122-0.734-0.236 0.016-0.432 0.032-0.635 0.040-0.188 0.009-0.286 0.098-0.342 0.27-0.082 0.253-0.163 0.505-0.269 0.75-0.082 0.179-0.212 0.342-0.302 0.514-0.18 0.318-0.318 0.668-0.522 0.97-0.326 0.481-0.677 0.946-1.035 1.411-0.147 0.196-0.351 0.342-0.498 0.538-0.407 0.538-0.798 1.093-1.19 1.647-0.278 0.382-0.587 0.758-0.823 1.165-0.4 0.685-0.783 1.378-1.076 2.111-0.359 0.897-0.75 1.777-0.994 2.715-0.163 0.619-0.359 1.223-0.49 1.851-0.114 0.562-0.162 1.133-0.236 1.703-0.008 0.058 0.016 0.114 0.024 0.171 0.212-0.261 0.351-0.538 0.506-0.815 0.187-0.334 0.375-0.668 0.578-0.986 0.058-0.082 0.212-0.196 0.27-0.171 0.098 0.041 0.187 0.171 0.22 0.277 0.090 0.269 0.138 0.554 0.22 0.831 0.016 0.074 0.074 0.138 0.138 0.245zM18.324 9.040c0.008 0.033 0.016 0.066 0.024 0.098 0.090 0 0.171 0 0.261 0 0.342 0 0.677-0.008 1.019 0.008 0.277 0.016 0.546 0.098 0.815 0.114 0.962 0.057 1.923 0.065 2.877 0.154 0.514 0.049 1.043-0.041 1.549 0.163 0.074 0.033 0.171 0.016 0.253 0.008 0.465-0.016 0.929-0.033 1.394-0.049 0.22-0.008 0.449 0.008 0.669-0.008 0.31-0.025 0.627-0.098 0.937-0.114 0.473-0.024 0.897-0.179 1.264-0.456 0.277-0.212 0.538-0.465 0.358-0.889-0.041-0.090-0.016-0.212-0.008-0.318 0.008-0.554-0.229-0.913-0.742-1.101-0.139-0.049-0.286-0.090-0.432-0.114-0.978-0.13-1.965-0.221-2.951-0.058-0.489 0.082-0.986 0.138-1.467 0.269-0.652 0.18-1.296 0.408-1.931 0.628-0.294 0.098-0.579 0.22-0.856 0.334-0.628 0.261-1.263 0.514-1.883 0.782-0.391 0.179-0.766 0.366-1.149 0.546zM17.728 9.693c-0.008 0.032-0.016 0.057-0.025 0.090 0.090 0.049 0.163 0.114 0.261 0.138 0.196 0.049 0.391 0.073 0.587 0.114 0.399 0.090 0.798 0.188 1.206 0.278 0.245 0.057 0.506 0.065 0.742 0.146 0.31 0.098 0.587 0.237 0.93 0.278 0.57 0.065 1.125 0.261 1.687 0.399 0.269 0.065 0.53 0.138 0.806 0.187 0.636 0.114 1.272 0.22 1.907 0.326 0.408 0.065 0.815 0.13 1.231 0.171 0.366 0.032 0.742-0.008 1.109 0.041 0.546 0.065 1.075-0.025 1.614-0.098 0.456-0.065 0.742-0.35 1.002-0.668 0.522-0.636 0.758-1.402 0.79-2.201s-0.162-1.549-0.66-2.209c-0.457-0.603-1.035-1.027-1.736-1.271-0.237-0.082-0.506-0.066-0.75-0.114-0.766-0.163-1.533-0.106-2.291 0-0.18 0.024-0.342 0.114-0.514 0.163-0.669 0.195-1.345 0.383-2.014 0.578-0.228 0.066-0.456 0.155-0.685 0.228-0.098 0.033-0.195 0.049-0.294 0.082-0.13 0.058-0.244 0.13-0.374 0.179-0.514 0.196-1.027 0.375-1.533 0.587-0.734 0.31-1.459 0.644-2.176 0.978-0.236 0.114-0.465 0.252-0.693 0.391-0.171 0.098-0.196 0.236-0.106 0.407 0.032 0.066 0.065 0.13 0.106 0.196 0.074-0.033 0.13-0.058 0.187-0.082 0.677-0.35 1.354-0.71 2.038-1.043 0.482-0.237 0.97-0.432 1.459-0.644 0.62-0.27 1.239-0.554 1.875-0.782 1.002-0.359 2.038-0.546 3.089-0.685 0.082-0.008 0.171 0.008 0.253 0.008 0.122 0 0.253-0.008 0.375-0.008 0.187 0 0.382-0.008 0.57 0 0.253 0.016 0.505 0.057 0.758 0.073 0.449 0.025 0.872 0.139 1.272 0.351 0.277 0.154 0.489 0.366 0.611 0.668 0.163 0.399 0.228 0.815 0.245 1.239 0.032 0.652-0.342 1.271-0.914 1.581-0.847 0.457-1.769 0.498-2.69 0.554-0.285 0.016-0.586-0.065-0.856 0-0.252 0.066-0.505 0.066-0.758 0.057-0.302-0.008-0.611-0.041-0.913-0.057-0.44-0.025-0.889-0.033-1.329-0.057-0.066 0-0.122-0.041-0.179-0.058-0.114-0.024-0.228-0.057-0.342-0.065-0.237-0.016-0.481-0.016-0.726-0.016-0.636 0.016-1.247-0.131-1.875-0.204-0.538-0.066-1.068-0.13-1.606-0.196-0.229-0.016-0.457-0.016-0.677-0.032zM13.718 10.476c-0.065-0.13-0.114-0.212-0.154-0.302-0.114-0.27-0.122-0.278-0.4-0.196-0.318 0.090-0.627 0.196-0.945 0.269-0.441 0.114-0.889 0.212-1.329 0.31-0.302 0.066-0.603 0.106-0.905 0.155-0.163 0.025-0.334 0.033-0.506 0.057-0.114 0.009-0.228 0.025-0.342 0.041-0.473 0.058-0.946 0.106-1.426 0.163-0.106 0.008-0.22-0.008-0.318 0.016-0.473 0.147-0.946 0.090-1.418 0.041-0.383-0.032-0.758-0.090-1.141-0.138-0.49-0.065-0.962-0.179-1.386-0.448-0.278-0.171-0.579-0.326-0.807-0.546-0.277-0.269-0.554-0.57-0.726-0.913-0.22-0.432-0.294-0.929-0.294-1.418 0-0.481 0.171-0.913 0.546-1.215 0.546-0.44 1.222-0.505 1.891-0.538 0.033 0 0.065 0 0.098 0.008 0.399 0.057 0.799 0.114 1.19 0.179 0.261 0.041 0.522 0.090 0.774 0.163 0.286 0.082 0.554 0.195 0.832 0.285 0.057 0.017 0.122 0.009 0.187 0.009 0.074 0.008 0.155 0 0.22 0.032 0.286 0.139 0.57 0.237 0.881 0.318 0.456 0.122 0.88 0.366 1.312 0.562 0.236 0.106 0.465 0.253 0.709 0.342 0.465 0.187 0.93 0.35 1.402 0.514 0.261 0.090 0.53 0.146 0.79 0.236 0.277 0.098 0.554 0.22 0.815 0.35 0.146 0.074 0.204 0.017 0.269-0.106 0.074-0.139 0.049-0.212-0.098-0.27-0.066-0.024-0.122-0.081-0.196-0.106-0.79-0.302-1.581-0.603-2.363-0.913-0.326-0.13-0.652-0.261-0.962-0.424-0.481-0.245-0.929-0.538-1.418-0.774-0.359-0.179-0.75-0.294-1.117-0.448-0.229-0.090-0.432-0.253-0.669-0.294-0.57-0.106-1.108-0.358-1.695-0.407-0.261-0.025-0.514-0.122-0.774-0.155-0.269-0.033-0.554-0.041-0.823-0.033-0.358 0.017-0.734 0.025-1.076 0.122-0.358 0.098-0.717 0.269-1.035 0.473-0.179 0.122-0.366 0.326-0.432 0.53-0.122 0.391-0.212 0.807-0.228 1.215-0.016 0.375 0.025 0.766 0.122 1.134 0.187 0.725 0.538 1.361 1.059 1.915 0.53 0.57 1.198 0.921 1.924 1.141 0.831 0.253 1.687 0.408 2.559 0.424 0.212 0 0.424 0.057 0.636 0.049 0.538-0.024 1.084-0.057 1.614-0.122 0.644-0.081 1.28-0.179 1.915-0.302 0.35-0.065 0.693-0.179 1.043-0.277 0.204-0.057 0.408-0.106 0.612-0.163 0.22-0.065 0.44-0.138 0.66-0.212 0.302-0.106 0.603-0.22 0.921-0.334zM15.479 10.386c0.399-0.090 0.831-0.188 1.255-0.302 0.065-0.017 0.138-0.082 0.163-0.139 0.082-0.187 0.195-0.374 0.138-0.603-0.049-0.195-0.074-0.399-0.114-0.594-0.041-0.18-0.13-0.326-0.326-0.35-0.188-0.025-0.375-0.033-0.562-0.025-0.212 0.008-0.416 0.065-0.628 0.074-0.302 0.016-0.538 0.187-0.774 0.334-0.065 0.041-0.13 0.163-0.13 0.245 0 0.261 0.033 0.522 0.058 0.79 0.024 0.253 0.195 0.4 0.407 0.481 0.155 0.058 0.318 0.058 0.514 0.090z"></path>
</svg>
