<!-- Generated by IcoMoon.io -->
<svg version="1.1" xmlns="http://www.w3.org/2000/svg" width="32" height="32" viewBox="0 0 32 32">
<path d="M14.353 10.831c0.050 0.114 0.176 0.187 0.28 0.265 0.464 0.338 0.52 1 0.544 1.569 0.004 0.371 0.248 0.659 0.32 1.011 0.070 0.338-0.12 0.706-0.357 0.908-0.259 0.293-0.579 0.513-0.723 0.892-0.051 0.147-0.106 0.309-0.213 0.425-0.236 0.261-0.615 0.231-0.919 0.364-0.459 0.168-0.769 0.538-1.302 0.616-0.465 0.096-0.815-0.237-1.196-0.425-0.39-0.148-0.985-0.001-1.346-0.311-0.325-0.259-0.185-0.711-0.179-1.064-0.014-0.383-0.407-0.234-0.635-0.565-0.215-0.271-0.123-0.733-0.275-1.013-0.204-0.309-0.532-0.516-0.484-0.927 0.016-0.484 0.389-1.004 0.867-1.207 0.098-0.050 0.198-0.108 0.267-0.191 0.090-0.101 0.135-0.253 0.176-0.39 0.301-1.006 1.543-1.367 2.56-1.34 0.476 0.024 0.926-0.227 1.379-0.212 0.563 0.032 1.306 0.641 1.219 1.253-0.010 0.107-0.029 0.224 0.008 0.32l0.009 0.022zM13.818 11.028c0.652-0.553 0.138-1.421-0.605-1.551-0.69-0.083-1.284 0.274-1.979 0.244-0.268-0.009-0.527 0-0.777 0.114-0.742 0.309-1.476 1.146-0.993 1.797 0.097 0.143 0.206 0.285 0.274 0.446 0.095 0.219 0.127 0.466 0.274 0.623 0.075 0.075 0.117 0.006 0.127-0.121 0.004-0.138 0.038-0.314 0.050-0.459 0.015-0.182-0.114-0.287-0.23-0.452-0.29-0.498-0.089-1.297 0.473-1.489 0.7-0.231 1.733-0.432 2.374 0.090 0.138 0.126 0.223 0.303 0.378 0.409 0.074 0.050 0.211 0.138 0.269 0.187 0.099 0.074 0.218 0.216 0.345 0.171l0.022-0.009zM12.784 10.601c0.064-0.049-0.073-0.152-0.134-0.192-0.661-0.449-1.446-0.192-2.15-0.023-0.468 0.111-0.656 0.946-0.319 1.251 0.086 0.038 0.122-0.103 0.148-0.174 0.303-1.021 1.582-1.212 2.441-0.858l0.013-0.004zM13.866 13.386c0.451-0.536-0.025-1.178-0.212-1.698-0.067-0.292-0.156-0.625-0.466-0.741-0.429-0.118-0.936-0.302-1.366-0.326-0.445 0.017-0.956 0.226-1.188 0.596-0.075 0.134-0.166 0.308-0.059 0.421 0.172 0.108 0.434 0.018 0.615 0.086 0.288 0.11 0.723-0.114 1.036-0.118 0.149 0 0.272 0.084 0.37 0.191 0.357 0.339 0.713 0.774 0.819 1.29 0.053 0.247 0.105 0.628 0.431 0.32l0.022-0.022zM14.551 14.926c0.149-0.106 0.294-0.297 0.441-0.43 0.161-0.155 0.325-0.323 0.336-0.556 0.029-0.442-0.373-0.919-0.351-1.396 0.044-0.516-0.104-1.092-0.565-1.383-0.11-0.076-0.321-0.141-0.407-0.021-0.055 0.096 0.049 0.257 0.147 0.415 0.102 0.198 0.208 0.381 0.336 0.558 0.16 0.216 0.269 0.52 0.331 0.805 0.142 0.517 0.135 0.975-0.428 1.158-0.253 0.103-0.497 0.258-0.748 0.22-0.288-0.038-0.543-0.242-0.834-0.257-0.663-0.008 0.319 0.986 0.574 1.022 0.217 0.083 0.458-0.013 0.701-0.030 0.151-0.018 0.31-0.008 0.442-0.089zM9.627 12.237c0.043-0.034-0.009-0.153-0.089-0.276-0.14-0.166-0.221-0.408-0.428-0.489-0.532-0.015-1.085 0.705-1.108 1.155-0.005 0.147 0.057 0.273 0.175 0.369 0.766 0.451 0.382 0.567 0.505 1.236 0.134 0.43 0.764 0.485 1.222 0.37 0.070-0.018 0.173-0.042 0.193-0.1 0.006-0.038-0.020-0.065-0.049-0.095-0.134-0.122-0.466-0.355-0.633-0.492-0.23-0.159-0.281-0.434-0.371-0.68-0.080-0.223-0.243-0.399-0.194-0.642 0.040-0.241 0.272-0.414 0.505-0.37 0.082 0.006 0.19 0.050 0.262 0.022zM13.357 13.863c-0.043 0.082 0.069 0.21 0.192 0.235 0.204 0.050 0.475-0.051 0.673-0.145 0.229-0.127 0.421-0.183 0.444-0.408 0.011-0.614-0.349-1.293-0.648-1.82-0.067-0.124-0.168-0.139-0.114 0.063 0.066 0.193 0.229 0.347 0.291 0.546 0.22 0.608-0.054 1.225-0.649 1.416-0.059 0.020-0.147 0.050-0.178 0.094zM12.146 13.621c0.090 0.135 0.333 0.158 0.493 0.201 1.423 0.254 0.051-2.617-0.986-1.86-0.074 0.057-0.186 0.164-0.176 0.25 0.023 0.046 0.121 0.014 0.173 0.006 0.458-0.121 0.679 0.371 0.758 0.778 0.032 0.156-0.009 0.325-0.128 0.432-0.067 0.066-0.137 0.125-0.137 0.176l0.002 0.016zM12.382 13.958c-0.083-0.099-0.237-0.156-0.362-0.195-0.201-0.062-0.454 0.063-0.676-0.067-0.129-0.075-0.216-0.216-0.241-0.362-0.024-0.174-0.012-0.378-0.042-0.538-0.011-0.096-0.002-0.183 0.043-0.28 0.111-0.202 0.32-0.601-0.059-0.635-0.207-0.024-0.53 0.058-0.639 0.255-0.118 0.237 0.044 0.512-0.028 0.761-0.060 0.275-0.305 0.602-0.174 0.931 0.133 0.376 0.545 0.399 0.874 0.483 0.224 0.068 0.389 0.171 0.606 0.148 0.21-0.011 0.742-0.243 0.707-0.485zM10.094 13.042c-0.051-0.035-0.217-0.029-0.311-0.104-0.168-0.11-0.274-0.333-0.382-0.452-0.149-0.196-0.382 0.007-0.391 0.202-0.006 0.131 0.115 0.204 0.18 0.336 0.036 0.073 0.056 0.165 0.073 0.248 0.084 0.431 0.323 0.526 0.656 0.822 0.215 0.163 0.217 0.070 0.123-0.137-0.053-0.159-0.062-0.326-0.034-0.493 0-0.118 0.125-0.316 0.097-0.409l-0.013-0.013zM11.977 12.454c-0.2-0.039-0.486-0.003-0.642 0.138-0.022 0.029-0.025 0.042 0.030 0.038 0.179-0.029 0.299-0.023 0.304 0.203 0.035 0.229 0.087 0.663 0.103 0.701 0.008 0.011 0.028-0.004 0.071-0.037 0.125-0.107 0.374-0.258 0.403-0.328-0.004-0.027-0.015-0.059-0.023-0.085-0.073-0.184-0.161-0.539-0.228-0.623l-0.016-0.007zM11.615 13.545c-0.048-0.124-0.142-0.518-0.202-0.622-0.256 0.181-0.17 0.677 0.19 0.624zM12.449 14.333c-0.097-0.028-0.169 0.063-0.257 0.131-0.355 0.339-0.879 0.087-1.293 0.011-0.393-0.102-0.37 0.287-0.096 0.41 0.194 0.070 0.433 0.019 0.605 0.145 0.141 0.102 0.278 0.328 0.465 0.36 0.139 0.029 0.277-0.030 0.418-0.029 0.209-0.007 0.397 0.077 0.564-0.050 0.293-0.214 0.019-0.472-0.182-0.699-0.094-0.101-0.142-0.226-0.207-0.269l-0.019-0.009zM10.35 14.614c-0.139-0.077-0.471 0.101-0.643 0.208-0.327 0.227-0.373 0.782-0.183 1.114 0.27 0.339 0.785 0.111 1.154 0.255 1.258 0.603 1.138 0.752 2.401-0.080 0.302-0.221 0.793-0.139 1.004-0.401 0.093-0.129 0.166-0.364 0.012-0.479-0.133-0.066-0.319 0.031-0.464 0.049-0.172 0.025-0.307 0.018-0.475 0.101-0.225 0.12-0.482 0.166-0.736 0.139-0.227-0.007-0.509 0.103-0.742-0.019-0.155-0.073-0.272-0.206-0.416-0.296-0.229-0.164-0.578-0.133-0.726-0.357-0.055-0.077-0.094-0.164-0.169-0.223l-0.018-0.011zM28.070 13.814c0.287 0.258 0.36 0.646 0.529 0.974 0.111 0.2 0.295 0.387 0.334 0.611 0.046 0.393-0.108 0.794-0.182 1.183-0.145 0.761-0.325 1.13-1.084 1.32-0.192 0.062-0.382 0.114-0.52 0.26-0.226 0.226-0.229 0.708-0.543 0.884-0.209 0.121-0.483 0.085-0.709 0.1-0.199 0.012-0.399 0.063-0.597 0.049-0.628-0.101-1.319-0.267-1.875-0.608-0.267-0.226-0.295-0.589-0.488-0.871-0.1-0.184-0.116-0.395-0.163-0.595-0.045-0.198-0.173-0.376-0.228-0.583-0.063-0.229 0.045-0.454 0.194-0.623 0.233-0.265 0.46-0.538 0.729-0.734 0.249-0.17 0.241-0.495 0.377-0.74 0.115-0.216 0.312-0.333 0.414-0.472 0.169-0.248 0.244-0.586 0.538-0.73 0.133-0.076 0.28-0.108 0.433-0.118 0.538-0.018 1.221-0.028 1.735 0.212 0.367 0.137 0.777 0.175 1.081 0.46l0.025 0.023zM28.26 14.732c0.055-0.076 0.033-0.197-0.001-0.29-0.186-0.56-0.753-0.757-1.27-0.858-0.501-0.244-1.123-0.498-1.649-0.212-0.265 0.119-0.369 0.425-0.444 0.693-0.204 0.782-0.74 1.153-0.776 1.683-0.005 0.046-0.003 0.116 0.019 0.142 0.059 0.015 0.097-0.113 0.133-0.173 0.172-0.425 0.418-0.687 0.765-0.909 0.293-0.169 0.376-0.49 0.537-0.762 0.52-0.724 1.344-0.472 1.873 0.188 0.209 0.221 0.477 0.754 0.8 0.518l0.014-0.017zM24.716 13.851c0.005-0.062 0.091-0.37 0.067-0.387-0.119 0.027-0.16 0.171-0.152 0.285 0.002 0.032-0.002 0.079 0.011 0.094 0.011 0.019 0.056 0.007 0.066 0.010l0.006-0.002zM27.015 14.037c-0.502-0.379-1.135-0.208-1.367 0.381-0.059 0.114-0.121 0.237-0.206 0.327-0.166 0.176-0.414 0.232-0.629 0.452-0.298 0.283-0.443 0.688-0.208 1.053 0.118 0.345-0.059 0.798 0.284 1.059 0.25 0.168 0.277-0.332 0.23-0.503-0.025-0.12-0.088-0.229-0.117-0.347-0.068-0.228 0.117-0.498 0.223-0.74 0.090-0.237 0.343-0.394 0.417-0.623 0.042-0.151 0.064-0.294 0.169-0.428 0.238-0.349 0.878-0.419 1.136-0.463 0.111-0.026 0.159-0.077 0.085-0.151l-0.016-0.015zM23.945 15.181c0.303-0.011 0.744-0.916 0.71-1.133-0.015-0.036-0.035-0.036-0.078-0.014-0.428 0.248-0.745 0.601-0.641 1.131zM27.833 14.951c-0.439-0.662-1.611-0.755-2.010-0.040-0.071 0.186 0.038 0.19 0.163 0.090 0.373-0.369 1.186-0.224 1.406 0.271 0.173 0.485-0.089 1-0.147 1.495-0.025 0.189-0.092 0.359-0.252 0.472-0.081 0.077-0.244 0.161-0.144 0.258 0.45 0.193 0.673-0.397 0.898-0.692 0.147-0.232 0.096-0.52 0.167-0.785 0.12-0.473 0.44-0.659-0.061-1.048zM27.205 15.365c0.020-0.343-0.778-0.459-0.929-0.306-0.080 0.077-0.083 0.215-0.163 0.29-0.1 0.096-0.343 0.065-0.52 0.164-0.32 0.183-0.081 0.394 0.096 0.62 0.101 0.117 0.18-0.109 0.247-0.164 0.148-0.173 0.326-0.162 0.503-0.299 0.191-0.149 0.408-0.283 0.66-0.27 0.031-0.002 0.067-0.008 0.095-0.023l0.013-0.012zM27.316 17.746c0.319 0.003 0.936-0.171 1-0.556 0.124-0.626 0.768-1.863 0.141-2.141-0.239-0.099-0.115 0.199-0.157 0.342-0.031 0.146-0.117 0.275-0.17 0.414-0.104 0.24-0.045 0.537-0.080 0.799-0.075 0.355-0.363 0.679-0.565 0.965-0.075 0.077-0.188 0.141-0.173 0.171l0.006 0.006zM23.897 15.327c-0.362-0.104-0.56 0.298-0.776 0.521-0.175 0.182-0.458 0.26-0.393 0.557 0.005 0.244 0.234 0.498 0.292 0.686 0.034 0.166-0.092 0.502 0.182 0.497 0.162-0.025 0.309-0.181 0.419-0.312 0.071-0.094-0.014-0.185-0.090-0.253-0.452-0.434-0.168-1.18 0.297-1.583 0.025-0.025 0.086-0.073 0.075-0.103l-0.007-0.011zM27.203 15.569c-0.064 0.016-0.374 0.107-0.447 0.132-0.032 0.013-0.043 0.029-0.045 0.055 0.038 0.258-0.093 0.549-0.162 0.796-0.133 0.391 0.030 0.558 0.404 0.496 0.056-0.032 0.039-0.163 0.064-0.254 0.046-0.318 0.159-0.944 0.191-1.225zM23.853 15.753c-0.050-0.025-0.119 0.026-0.163 0.066-0.297 0.262-0.227 0.849 0.047 1.136 0.067 0.077 0.138 0.152 0.164 0.251 0.073 0.318-0.222 0.758 0.119 0.99 0.33 0.227 0.79 0.102 1.098-0.101 0.121-0.169-0.068-0.464-0.246-0.543-0.346-0.193-0.336-0.781-0.403-1.109-0.032-0.165-0.183-0.243-0.322-0.322-0.154-0.070-0.193-0.234-0.28-0.357l-0.015-0.009zM26.586 15.959c-0.108 0.020-0.592 0.065-0.529 0.243 0.030 0.107 0.013 0.219 0.003 0.332-0.005 0.117-0.056 0.362 0.1 0.357 0.2-0.183 0.206-0.718 0.428-0.926l-0.003-0.005zM26.588 17.241c-0.067-0.083-0.424-0.117-0.519-0.169-0.104-0.050-0.13-0.145-0.187-0.254-0.139-0.274-0.285-0.575-0.546-0.749-0.025-0.012-0.048-0.014-0.069-0.007-0.142 0.098-0.063 0.297 0.019 0.406 0.067 0.091 0.119 0.17 0.108 0.273-0.006 0.152-0.127 0.35-0.038 0.492 0.060 0.069 0.166 0.069 0.247 0.112 0.139 0.077 0.263 0.195 0.433 0.197 0.191 0.006 0.541-0.043 0.557-0.284l-0.006-0.016zM26.624 18.767c-0.058-0.068-0.254-0.081-0.394-0.158-0.257-0.104-0.473-0.47-0.757-0.471-0.104 0.005-0.212 0.067-0.306 0.121-0.665 0.396-1.537 0.309-1.539-0.529-0.002-0.103-0.010-0.356-0.13-0.196-0.221 0.292-0.206 0.851 0.198 0.986 0.666 0.258 1.392 0.637 2.070 0.442 0.239-0.073 0.521 0.027 0.754-0.045 0.060-0.020 0.152-0.087 0.112-0.137l-0.011-0.013zM27.181 17.761c-0.357-0.088-0.748-0.070-1.119-0.039-0.21 0.036-0.367-0.070-0.549-0.183-0.074-0.033-0.211-0.148-0.258-0.049-0.021 0.066-0.021 0.222 0.020 0.278 0.040 0.055 0.117 0.060 0.182 0.080 0.336 0.099 0.55 0.479 0.834 0.589 0.133 0.050 0.332 0.045 0.438-0.064 0.11-0.11 0.14-0.284 0.253-0.399 0.081-0.087 0.23-0.156 0.207-0.201zM23.61 14.622c-0.161 0.178-0.322 0.389-0.475 0.58-0.465 0.492-1.337 0.934-2.019 0.688-0.192-0.076-0.332-0.235-0.502-0.35-0.233-0.172-0.531-0.266-0.677-0.418-0.163-0.15-0.226-0.359-0.298-0.566-0.081-0.242-0.231-0.421-0.434-0.583-0.132-0.114-0.255-0.246-0.328-0.367-0.176-0.298-0.055-0.524-0.134-0.949-0.025-0.179-0.049-0.376 0.002-0.551 0.065-0.219 0.236-0.372 0.366-0.551 0.383-0.513 0.691-1.309 1.364-1.535 0.306-0.086 0.619 0.040 0.93 0.026 1.051-0.012 1.974 1.058 2.329 1.947 0.117 0.271-0.010 0.546-0.131 0.788-0.192 0.56 0.416 1.344 0.023 1.817l-0.017 0.022zM23.415 12.65c0.357-0.462-0.389-1.46-0.721-1.821-0.236-0.248-0.564-0.324-0.862-0.466-0.379-0.147-0.891-0.223-1.283-0.143-0.29 0.101-0.509 0.394-0.725 0.688-0.181 0.233-0.352 0.476-0.338 0.769 0.015 0.438 0.221 0.108 0.353-0.093 0.342-0.574 0.692-0.787 1.348-0.662 0.278 0.042 0.573-0.076 0.84 0.009 0.183 0.060 0.35 0.176 0.516 0.275 0.506 0.229 0.512 0.804 0.71 1.283 0.046 0.114 0.1 0.179 0.148 0.167l0.013-0.005zM21.068 11.146c-0.043-0.060-0.134-0.062-0.212-0.056-0.468 0.025-0.727 0.395-0.966 0.743-0.361 0.338-0.641 0.844-0.475 1.346 0.078 0.257 0.316 0.422 0.454 0.643 0.138 0.26 0.318 0.608 0.657 0.663 0.335 0.025-0.116-0.244-0.175-0.371-0.127-0.182-0.15-0.412-0.196-0.622-0.195-0.555-0.266-1.32 0.332-1.641 0.144-0.079 0.335-0.101 0.44-0.222 0.070-0.102 0.186-0.348 0.149-0.468l-0.009-0.017zM23.324 13.425c0.096-0.153-0.008-0.394-0.087-0.546-0.188-0.34-0.285-0.886-0.489-1.256-0.285-0.344-1.248-0.762-1.573-0.25-0.078 0.134 0.052 0.11 0.148 0.081 0.294-0.102 0.534 0.044 0.655 0.318 0.063 0.152 0.162 0.279 0.297 0.375 0.229 0.158 0.331 0.508 0.433 0.711 0.089 0.162 0.262 0.248 0.368 0.401 0.053 0.066 0.101 0.167 0.178 0.2 0.020 0 0.020 0.011 0.059-0.018zM21.709 11.672c-0.203-0.119-0.438 0.079-0.601 0.195-0.156 0.104-0.36 0.101-0.528 0.174-0.321 0.147-0.332 0.514-0.331 0.832 0.011 0.143 0.003 0.372 0.128 0.428 0.288-0.007 0.207-0.575 0.429-0.687 0.158-0.094 0.301-0.114 0.37-0.32 0.032-0.107 0.064-0.23 0.125-0.326 0.057-0.087 0.138-0.135 0.21-0.142 0.122-0.005 0.288-0.003 0.214-0.138l-0.017-0.015zM19.707 14.016c0.005-0.051-0.107-0.181-0.166-0.277-0.147-0.22-0.261-0.432-0.328-0.67-0.066-0.241-0.033-0.404 0.019-0.54 0.090-0.227 0.237-0.379 0.074-0.679-0.166-0.247-0.337 0.193-0.352 0.332-0.049 0.223 0.124 0.414 0.083 0.636-0.063 0.375-0.058 0.704 0.322 0.997 0.099 0.064 0.236 0.244 0.343 0.212l0.003-0.012zM22.325 12.913c0.305-0.138-0.031-0.512-0.217-0.671-0.273-0.233-0.625-0.362-0.663-0.098-0.002 0.037 0.016 0.067 0.050 0.084 0.332 0.101 0.739 0.312 0.818 0.677l0.013 0.008zM21.546 13.043c-0.060-0.076-0.056-0.107-0.076-0.186-0.036-0.138 0.213-0.475-0.016-0.478-0.199 0.1-0.283 0.652-0.117 0.789 0.076 0.037 0.158 0.076 0.204 0.158 0.060 0.080 0.099 0.199 0.193 0.214 0.023-0.013-0.001-0.101-0.008-0.17-0.010-0.119-0.055-0.271-0.163-0.313l-0.018-0.015zM21.931 13.387c0.45 0.005 0.109-0.932-0.194-0.751-0.039 0.036-0.056 0.079-0.039 0.135 0.057 0.188 0.263 0.394 0.221 0.604l0.012 0.011zM21.003 12.764c-0.168-0.101-0.307 0.55-0.241 0.633 0.195 0.267 0.669 0.678 0.928 0.758 0.072 0.014 0.144-0.012 0.207-0.049 0.301-0.186 0.649-0.444 0.644-0.818-0.017-0.151-0.128-0.118-0.179-0.001-0.085 0.204-0.29 0.325-0.495 0.406-0.096 0.042-0.193 0.045-0.28-0.019-0.247-0.195-0.551-0.425-0.558-0.765-0.003-0.039-0.005-0.097-0.018-0.129l-0.008-0.016zM20.362 13.577c-0.061 0.391 0.421 0.572 0.614 0.839 0.154 0.181 0.208 0.511 0.502 0.495 0.55-0.050 1.706-0.996 1.458-1.534-0.045-0.108-0.13-0.181-0.183-0.006-0.156 0.405-0.535 0.915-0.985 1.017-0.373 0.043-0.906-0.717-1.29-0.847-0.047-0.014-0.085-0.008-0.107 0.020l-0.009 0.016zM23.442 13.735c-0.287-0.060-0.475 0.427-0.663 0.591-0.32 0.295-0.734 0.58-1.146 0.742-0.27 0.084-0.53-0.124-0.735-0.279-0.187-0.125-0.461-0.084-0.693-0.207-0.113-0.059-0.359-0.19-0.318 0.048 0.059 0.375 0.475 0.463 0.755 0.594 0.239 0.119 0.299 0.398 0.571 0.488 0.078 0.032 0.173 0.035 0.258 0.040 0.629-0.032 1.28-0.38 1.639-0.909 0.145-0.22 0.371-0.393 0.424-0.652 0.030-0.167 0.010-0.382-0.077-0.444l-0.017-0.011zM8.904 9.922c-0.367 0.319-0.702 0.828-1.229 0.924-0.306 0.059-0.614 0.079-0.905 0.221-0.291 0.128-0.568 0.355-0.872 0.434-0.222 0.054-0.383-0.009-0.568-0.12-0.191-0.118-0.417-0.195-0.618-0.3-0.391-0.203-0.417-0.629-0.396-1.042 0.005-0.194-0.063-0.367-0.175-0.521-0.71-0.887 0.165-1.941 0.752-2.639 0.382-0.7 0.717-1.23 1.576-0.791 0.769 0.418 2.203-0.179 2.523 0.888 0.11 0.424-0.185 0.826-0.131 1.253 0.036 0.394 0.282 0.525 0.263 0.919-0.010 0.247-0.056 0.57-0.202 0.751zM6.012 6.18c-0.564-0.13-0.785 0.782-1.132 1.091-0.455 0.476-0.951 1.101-0.79 1.749 0.060 0.272 0.352 0.439 0.427 0.692 0.053 0.261-0.049 0.565 0.024 0.833 0.094 0.457 0.59 0.503 1.038 0.385 0.375-0.104 0.224-0.221-0.045-0.33-0.472-0.202-0.618-0.713-0.471-1.183 0.024-0.085 0.053-0.177 0.047-0.26-0.014-0.197-0.246-0.282-0.312-0.466-0.366-0.953 0.643-1.552 1.159-2.264 0.046-0.064 0.107-0.182 0.066-0.235l-0.011-0.012zM8.633 6.717c-0.56-0.333-1.294-0.152-1.895-0.292-0.164-0.032-0.334-0.072-0.498-0.026-0.286 0.097-0.4 0.282-0.079 0.375 0.235 0.067 0.421 0.307 0.647 0.321 0.292 0.019 0.551-0.282 0.891-0.247 0.408 0.039 0.736 0.499 0.598 0.893-0.074 0.277-0.315 0.504-0.255 0.789 0.046 0.209 0.145 0.473 0.224 0.667 0.043 0.087 0.089 0.131 0.138 0.127 0.064-0.004 0.135-0.094 0.181-0.214 0.122-0.338-0.007-0.726 0.046-1.075 0.101-0.387 0.397-0.945 0.025-1.298zM6.421 7.23c0.049-0.179-0.258-0.301-0.417-0.263-0.602 0.088-1.418 1.195-1.038 1.704 0.117 0.162 0.391 0.153 0.532 0.278 0.145 0.141 0.193 0.565 0.488 0.418 0.066-0.039 0.43-0.139 0.321-0.231-0.51-0.219-0.948-0.832-0.711-1.382 0.092-0.215 0.299-0.382 0.616-0.436 0.067-0.016 0.152-0.030 0.196-0.072zM7.376 8.833c0.082-0.291 0.269-0.587 0.471-0.832 0.183-0.25 0.325-0.5 0.196-0.764-0.069-0.142-0.212-0.246-0.368-0.256-0.173-0.019-0.37 0.089-0.257 0.278 0.185 0.343-0.108 0.301-0.229 0.763-0.046 0.168-0.156 0.967 0.17 0.826zM5.691 8.162c0.014 0.028 0.060 0.006 0.128-0.026 0.2-0.097 0.512-0.331 0.689-0.408 0.125-0.042 0.384-0.007 0.539-0.037 0.217-0.008 0.289-0.244 0.066-0.311-0.178-0.042-0.48 0.074-0.631 0.124-0.186 0.033-0.403 0.019-0.559 0.156-0.144 0.106-0.25 0.299-0.236 0.486zM6.923 7.858c-0.143 0.013-0.319 0.067-0.436 0.14-0.359 0.246-0.077 0.36 0.21 0.251 0.070-0.022 0.15-0.054 0.215-0.088 0.030-0.021 0.022-0.278 0.020-0.299zM6.13 8.259c-0.017-0.019-0.117 0.037-0.122 0.039-0.071 0.036-0.165 0.111-0.167 0.183-0.004 0.292 0.935 0.59 1.085 0.441 0.061-0.109 0.165-0.558-0.090-0.496-0.331 0.104-0.524 0.262-0.692-0.159l-0.014-0.009zM7.858 8.547c-0.035-0.019-0.062 0.004-0.087 0.033-0.083 0.092-0.131 0.329-0.23 0.44-0.232 0.24-0.627 0.060-0.896 0.244-0.357 0.213-0.778 0.512-1.057 0.226-0.089-0.086-0.214-0.297-0.32-0.112-0.206 0.384-0.008 1.068 0.492 1.089 0.295-0.033 0.458-0.364 0.737-0.444 0.425-0.126 0.946-0.117 1.201-0.528 0.121-0.19 0.349-0.304 0.302-0.54-0.023-0.126-0.052-0.302-0.13-0.399l-0.013-0.011zM8.828 9.702c0.137-0.178 0.181-0.605 0.105-0.786-0.052-0.065-0.108 0.243-0.248 0.388-0.173 0.214-0.466 0.151-0.696 0.231-0.094 0.039-0.168 0.113-0.236 0.189-0.181 0.23-0.486 0.311-0.791 0.382-0.294 0.070-0.569 0.143-0.726 0.377-0.067 0.090-0.124 0.194-0.185 0.288-0.106 0.21-0.365 0.339-0.533 0.454-0.033 0.046 0.057 0.087 0.197 0.084 0.512-0.060 0.957-0.553 1.453-0.602 0.306-0.055 0.631-0.059 0.884-0.267 0.29-0.249 0.495-0.494 0.758-0.714zM14.040 8.624c-0.244 0.298-0.623 0.164-0.959 0.149-0.775 0.017-1.914-0.104-2.478-0.452-0.427-0.28-0.36-0.87-0.429-1.314-0.039-0.209-0.157-0.389-0.222-0.591-0.105-0.307-0.050-0.658 0.084-0.915 0.45-0.89 1.668-1.085 2.418-1.692 0.98-0.71 1.84-0.239 2.385 0.722 0.237 0.322 0.253 0.727 0.641 0.89 0.391 0.163 0.574 0.687 0.45 1.069-0.085 0.265-0.29 0.465-0.456 0.684-0.148 0.195-0.319 0.457-0.54 0.621-0.155 0.125-0.342 0.192-0.491 0.32s-0.248 0.333-0.382 0.485zM14.647 5.951c0.181-0.156 0.261-0.455 0.26-0.693-0.014-0.284-0.193-0.52-0.366-0.778-0.251-0.348-0.546-0.768-0.995-0.846-0.53-0.060-0.966 0.353-1.373 0.636-0.442 0.252-1.036 0.468-1.232 1.007-0.243 0.791 0.222 0.611 0.604 0.163 0.111-0.124 0.2-0.269 0.304-0.401 0.491-0.685 1.905-0.714 2.174 0.062 0.087 0.273 0.24 0.944 0.605 0.86l0.019-0.011zM13.784 5.066c-0.395-0.673-1.58-0.323-1.924 0.303-0.109 0.188-0.258 0.356-0.357 0.553-0.236 0.488 0.179 0.722 0.696 0.858 0.141 0.038 0.299 0.076 0.342 0.022 0.039-0.043 0.008-0.127-0.013-0.185-0.176-0.439-0.322-0.886 0.030-1.231 0.211-0.241 0.538-0.19 0.837-0.23 0.216-0.023 0.39-0.017 0.39-0.077v-0.013zM10.836 7.324c-0.285-0.302-0.197-0.825-0.119-1.213 0.025-0.206-0.057-0.433-0.035-0.702-0.001-0.13 0.065-0.292 0.023-0.41-0.020-0.030-0.068-0.016-0.133 0.032-0.153 0.116-0.301 0.319-0.379 0.507-0.089 0.21-0.129 0.442-0.098 0.669 0.038 0.327 0.296 0.561 0.306 0.881 0.013 0.389-0.039 0.912 0.371 1.114 0.67 0.333 1.844 0.382 2.598 0.379 0.144 0.015 0.326 0.061 0.441-0.025 0.045-0.045 0.009-0.105-0.070-0.125-0.207-0.046-0.441 0.032-0.653-0.021-0.522-0.104-1.124-0.46-1.596-0.766-0.199-0.11-0.479-0.145-0.637-0.297zM13.070 7.083c-0.049 0.116 0.232 0.369 0.362 0.353 0.153 0.007 0.285-0.149 0.454-0.223 0.124-0.058 0.236-0.077 0.346-0.103 0.561-0.088 0.492-0.533 0.151-0.913-0.206-0.237-0.353-0.55-0.568-0.774-0.265-0.205-0.857-0.049-1.14 0.15-0.142 0.079-0.22 0.506 0.010 0.386 0.12-0.083 0.253-0.224 0.405-0.264 0.169-0.060 0.309 0.015 0.404 0.183 0.145 0.281 0.343 0.578 0.367 0.898 0.004 0.37-0.54 0.237-0.784 0.297l-0.009 0.011zM15.148 5.528c-0.466 0.469-0.555 1.039 0.082 1.343 0.122 0.066 0.24 0.028 0.315-0.084 0.236-0.284 0.212-0.659 0.101-1.003-0.066-0.123-0.267-0.163-0.39-0.244-0.039-0.021-0.064-0.032-0.089-0.022l-0.018 0.010zM14.883 6.96c-0.122 0.053-0.181 0.19-0.305 0.25-0.219 0.104-0.495 0.117-0.701 0.254-0.296 0.209-0.52 0.29-0.792-0.002-0.055-0.054-0.11-0.113-0.165-0.165-0.491-0.499-1.647-0.323-1.678-1.129-0.018-0.097-0.025-0.268-0.144-0.174-0.285 0.295-0.389 0.863-0.060 1.16 0.166 0.144 0.418 0.21 0.612 0.338 0.515 0.349 1.088 0.786 1.728 0.733 0.383 0.005 0.72-0.112 1.043-0.329 0.26-0.16 0.616-0.329 0.686-0.623 0.017-0.121-0.050-0.328-0.203-0.319l-0.018 0.005zM13.345 6.838c0.005 0.015 0.036 0 0.086-0.013 0.084-0.026 0.214-0.061 0.262-0.080 0.020-0.009 0.026-0.020 0.022-0.036-0.060-0.089-0.579-1.158-0.752-0.663-0.010 0.036-0.046 0.125 0.004 0.172 0.069 0.069 0.236 0.164 0.326 0.306 0.061 0.076 0.067 0.217 0.050 0.298l0.002 0.016zM12.801 6.34c-0.022-0.024 0-0.114-0.056-0.12-0.049-0.005-0.064 0.056-0.070 0.096-0.044 0.234 0.127 0.462 0.384 0.455 0.063-0.007 0.049-0.121 0.039-0.163-0.034-0.133-0.197-0.173-0.284-0.254l-0.013-0.015zM6.776 16.202c0.292-0.046 0.61-0.034 0.886 0.085 0.26 0.105 0.422 0.343 0.658 0.476 0.41 0.208 1.001 0.517 1.016 0.986 0.011 0.157-0.008 0.316 0.019 0.473 0.033 0.206 0.135 0.4 0.133 0.593 0.011 0.149-0.058 0.299-0.021 0.439 0.033 0.104 0.091 0.224 0.094 0.35-0.080 1.103-1.295 1.595-2.273 1.267-0.096-0.028-0.195-0.057-0.291-0.070-0.26-0.042-0.51 0.058-0.782-0.035-0.332-0.087-0.619-0.359-0.83-0.58-0.175-0.173-0.43-0.348-0.617-0.534-0.547-0.521-0.434-0.807-0.297-1.438 0.075-0.285 0.086-0.744 0.274-0.99 0.167-0.222 0.449-0.328 0.686-0.43 0.415-0.219 0.849-0.534 1.316-0.588l0.031-0.005zM9.094 17.777c0.019-0.466-0.676-0.641-0.978-0.846-0.251-0.165-0.388-0.504-0.722-0.533-0.575-0.053-1.467 0.050-1.678 0.648-0.069 0.217 0.055 0.312 0.253 0.202 0.359-0.179 0.7-0.377 1.087-0.284 0.146 0.029 0.297 0.053 0.447 0.061 0.451-0.001 0.785 0.274 1.15 0.541 0.124 0.073 0.294 0.248 0.431 0.221zM5.435 17.067c-0.212-0.074-0.46 0.158-0.563 0.334-0.141 0.239-0.075 0.547-0.15 0.788-0.052 0.175-0.141 0.334-0.165 0.517-0.043 0.236 0.057 0.459 0.219 0.626 0.427 0.454 0.994 1.055 1.58 1.263 0.062 0.022 0.157 0.050 0.205 0.023 0.104-0.105-0.026-0.38-0.077-0.502-0.101-0.188-0.376-0.238-0.592-0.397-0.194-0.123-0.293-0.335-0.407-0.526-0.13-0.227-0.312-0.382-0.341-0.605-0.041-0.271 0.057-0.548 0.183-0.786 0.121-0.197 0.272-0.554 0.125-0.725l-0.015-0.012zM9.028 19.573c0.374-0.5 0.268-1.299-0.226-1.673-0.323-0.193-0.642-0.546-0.993-0.625-0.499 0.018-1.11-0.28-1.538 0.055-0.178 0.124-0.32 0.57 0.010 0.364 0.429-0.289 1.003-0.115 1.531 0.017 0.255 0.044 0.349 0.213 0.428 0.451 0.076 0.174 0.259 0.251 0.413 0.342 0.305 0.182 0.313 0.53 0.126 0.866-0.032 0.067-0.077 0.161-0.059 0.222 0.018 0.094 0.178 0.096 0.286 0l0.020-0.019zM5.761 18.751c-0.169-0.229 0.139-0.455 0.161-0.669-0.009-0.141-0.055-0.339-0.158-0.436-0.215-0.067-0.453 0.442-0.472 0.617-0.080 0.328 0.192 0.551 0.358 0.796 0.1 0.184 0.162 0.39 0.338 0.521 0.605 0.467 1.475 0.914 2.096 0.349 0.138-0.134 0.015-0.229-0.126-0.251-0.399-0.083-0.902-0.069-1.159-0.352-0.084-0.090-0.137-0.205-0.232-0.282-0.167-0.158-0.626-0.092-0.788-0.273zM7.183 17.76c-0.084-0.053-0.254-0.006-0.377-0.003-0.165 0.021-0.319 0.038-0.369 0.077-0.072 0.101-0.032 0.268-0.126 0.365-0.088 0.133-0.332 0.231-0.357 0.39 0.047 0.094 0.447 0.194 0.744 0.217 0.318 0.028 0.435-0.074 0.106-0.207-0.168-0.083-0.302-0.318-0.125-0.453 0.096-0.086 0.27-0.132 0.411-0.157 0.097-0.016 0.127-0.14 0.101-0.214zM7.945 17.845c-0.099-0.030-0.351-0.001-0.463-0.011-0.193-0.013 0.039 0.238 0.085 0.301 0.071 0.081 0.063 0.184 0.018 0.278-0.009 0.026-0.011 0.043 0.006 0.052 0.114 0.024 0.389 0.059 0.491 0.069 0.039-0.001 0.029-0.056 0.013-0.121-0.057-0.18-0.186-0.358-0.147-0.553zM7.35 18.217c-0.19 0.019-0.487-0.084-0.614 0.116 0.113 0.193 0.405 0.104 0.591 0.115 0.008-0.003 0.025-0.011 0.032-0.013 0-0.041 0-0.156 0-0.216l-0.010-0.002zM6.873 19.034c0.064 0.416 0.614 0.367 0.949 0.389 0.277 0.019 0.554 0.116 0.755-0.144 0.187-0.192 0.205-0.584-0.086-0.678-0.123-0.011-0.212 0.119-0.311 0.176-0.237 0.173-0.629-0.146-0.838-0.074-0.103 0.050-0.173 0.166-0.272 0.229-0.069 0.049-0.156 0.056-0.187 0.089l-0.011 0.015zM6.635 20.297c-0.010 0.015 0.021 0.056 0.077 0.104 0.269 0.199 0.694 0.366 1.034 0.411 0.778 0.054 1.621-0.483 1.603-1.311-0.031-0.046-0.093 0.131-0.187 0.222-0.094 0.074-0.219 0.122-0.337 0.113-0.21-0.016-0.359-0.158-0.505 0.025-0.395 0.542-1.092 0.587-1.681 0.43l-0.006 0.005zM23.362 10.462c-0.107-0.188-0.151-0.477-0.297-0.667-0.233-0.35-0.538-0.364-0.496-0.71 0.028-0.27 0.227-0.499 0.322-0.747 0.17-0.438-0.209-0.631 0.176-0.887 0.28-0.194 0.611-0.247 0.928-0.42 0.894-0.723 1.941-0.181 2.86 0.326 0.277 0.142 0.364 0.384 0.619 0.561 0.467 0.241 0.532 0.417 0.592 0.927 0.132 0.584 0.082 0.767-0.367 1.106-0.362 0.329-0.769 0.472-1.193 0.715-0.37 0.226-0.578 0.472-0.769 0.626-0.398 0.401-0.925-0.118-1.343-0.342-0.323-0.153-0.792-0.145-1.016-0.465l-0.016-0.023zM24.516 6.945c-0.151 0.033-0.339 0.127-0.203 0.27 0.337 0.265 0.872 0.118 1.273 0.202 0.32 0.055 0.468 0.298 0.674 0.583 0.256 0.351 0.519 0.779 0.376 1.108-0.066 0.235-0.679 0.645-0.121 0.697 0.575 0.055 0.827-0.567 0.863-1.055 0.002-0.24-0.066-0.427-0.133-0.638-0.13-0.513-0.556-0.634-1.066-0.813-0.152-0.059-0.282-0.137-0.42-0.214-0.349-0.207-0.82-0.223-1.21-0.147l-0.032 0.008zM24.138 7.315c-0.028-0.038-0.122-0.032-0.179-0.026-0.387 0.040-0.919 0.27-0.848 0.571 0.063 0.194 0.123 0.4-0.018 0.58-0.671 0.887-0.305 0.831 0.377 1.394 0.082 0.063 0.138 0.111 0.174 0.109 0.081-0.026 0.107-0.239 0.105-0.323-0.001-0.065-0.050-0.116-0.086-0.165-0.221-0.185-0.098-0.35-0.009-0.559 0.066-0.419-0.072-1.009 0.276-1.352 0.059-0.070 0.196-0.132 0.21-0.217zM25.953 8.861c0.096 0.118 0.192 0.432 0.377 0.349 0.103-0.062 0.176-0.23 0.186-0.323 0.009-0.082-0.022-0.142-0.078-0.227-0.179-0.257-0.515-0.779-0.672-0.983-0.043-0.046-0.081-0.056-0.147-0.066-0.25-0.031-0.544-0.033-0.805-0.036-0.342 0.015-0.685-0.063-0.824 0.203-0.047 0.078-0.243 0.553-0.012 0.424 0.246-0.133 0.542-0.1 0.805-0.217 0.264-0.107 0.508-0.026 0.659 0.202 0.199 0.248 0.342 0.393 0.495 0.648l0.017 0.027zM25.62 8.476c-0.267-0.203-0.717-0.531-0.802-0.14-0.035 0.17-0.047 0.234 0.176 0.261 0.256 0.019 0.166 0.273 0.215 0.456 0.021 0.24 0.158 0.385 0.382 0.3 0.045-0.016 0.063-0.041 0.063-0.082l-0.004-0.357c-0.009-0.121 0.015-0.353-0.018-0.426l-0.012-0.014zM27.462 8.162c0.037 0.181 0.087 0.382 0.066 0.564 0.001 0.357-0.322 0.743-0.101 1.032 0.043 0.045 0.104 0.041 0.16 0.013 0.371-0.197 0.359-0.575 0.222-0.924 0.012-0.237 0.046-0.425-0.163-0.615-0.044-0.039-0.123-0.12-0.178-0.084l-0.005 0.013zM24.453 8.237c-0.317-0.065-0.389 0.278-0.44 0.514-0.048 0.141-0.19 0.239-0.281 0.349-0.137 0.192 0.328 0.348 0.453 0.469 0.071 0.049 0.108 0.101 0.174 0.135 0.080 0.005 0.131-0.070 0.17-0.131 0.188-0.302-0.333-0.411-0.348-0.717-0.019-0.26 0.452-0.32 0.291-0.605zM24.856 8.713c-0.15-0.013-0.455-0.036-0.45 0.189 0.011 0.060 0.1 0.056 0.143 0.1 0.128 0.1 0.199 0.369 0.398 0.325-0.001-0.085-0.056-0.505-0.079-0.611l-0.013-0.004zM24.725 9.586c-0.082 0.051-0.11 0.229-0.272 0.281-0.039 0.012-0.087 0.019-0.128 0.019-0.106-0.014-0.206-0.065-0.285-0.134-0.096-0.076-0.196-0.044-0.13 0.043 0.263 0.207 0.613 0.368 0.932 0.459 0.508 0.166 1.443-0.186 1.201-0.887-0.048-0.178-0.127-0.344-0.227-0.114-0.096 0.223-0.302 0.288-0.523 0.292-0.204 0.009-0.44-0.026-0.551 0.028l-0.018 0.011zM27.27 10.029c0.114-0.322-0.321-0.107-0.464-0.079-0.243 0.066-0.464-0.029-0.682 0.098-1.035 0.767-1.24 0.319-2.264 0.033-0.244-0.054-0.585 0.042-0.376 0.281 0.251 0.267 0.672 0.221 0.973 0.393 0.092 0.044 0.265 0.193 0.363 0.27 0.574 0.513 0.803 0.097 1.225-0.298 0.315-0.288 0.925-0.379 1.214-0.679l0.012-0.020zM6.165 11.548c0.841-0.117 1.459 0.925 1.36 1.692-0.012 0.118-0.026 0.234-0.020 0.353 0.125 0.746 0.291 1.055-0.285 1.741-0.738 0.991-1.004 0.596-1.995 0.693-0.439 0.074-0.826 0.21-1.183-0.109-0.33-0.274-0.414-0.697-0.359-1.102-0.036-0.442-0.101-0.877-0.065-1.32-0.036-0.514 0.143-1.237 0.664-1.466 0.506-0.115 1.060-0.105 1.533-0.346 0.104-0.048 0.211-0.1 0.321-0.128l0.029-0.007zM6.038 14.849c0.336 0.085 0.788-0.079 0.948-0.395 0.318-0.466 0.421-1.041 0.32-1.619-0.104-0.301-0.206-0.628-0.492-0.857-0.189-0.145-0.533-0.288-0.742-0.192-0.173 0.131 0.155 0.4 0.294 0.469 0.435 0.18 0.591 0.515 0.442 0.986-0.070 0.255 0.041 0.527-0.099 0.768-0.115 0.284-0.447 0.438-0.657 0.689-0.048 0.063-0.059 0.112-0.029 0.14l0.013 0.010zM6.582 12.652c-0.089-0.095-0.267-0.154-0.375-0.254-0.146-0.115-0.321-0.304-0.481-0.349-0.168-0.117-1.772 0.262-1.124 0.509 0.126 0.021 0.225-0.056 0.322-0.125 0.19-0.116 0.509-0.145 0.708-0.082 0.138 0.045 0.263 0.214 0.353 0.343 0.212 0.299 0.205 0.433 0.069 0.797-0.044 0.101-0.127 0.379 0.060 0.336 0.288-0.172 0.66-0.835 0.484-1.153zM5.951 14.101c-0.057 0.042-0.099 0.118-0.152 0.199-0.324 0.466-0.943 0.451-1.221-0.025-0.422-0.491-0.853-0.901-0.488-1.575 0.032-0.077 0.118-0.328 0-0.297-0.139 0.11-0.193 0.333-0.246 0.5-0.067 0.23-0.018 0.486-0.028 0.747-0.066 0.529 0.019 1.111 0.45 1.467 0.246 0.241 0.405 0.133 0.688-0.012 0.499-0.179 1.028-0.517 1.412-0.939 0.039-0.052 0.074-0.082 0.069-0.128-0.077-0.053-0.371-0.006-0.464 0.048l-0.019 0.013zM4.689 13.225c0.051-0.001 0.11-0.097 0.138-0.147 0.090-0.217 0.32-0.141 0.513-0.18 0.191-0.011 0.376-0.176 0.212-0.313-0.164-0.107-0.508-0.037-0.607 0.137-0.019 0.034-0.045 0.073-0.070 0.103-0.089 0.089-0.194 0.094-0.214 0.202-0.017 0.059-0.001 0.132 0.014 0.192l0.014 0.006zM4.608 13.508c-0.085-0.124-0.128-0.261-0.162-0.415-0.025-0.156-0.060-0.262-0.161-0.168-0.429 0.509 0.353 0.989 0.58 1.418 0.060 0.081 0.154 0.090 0.309 0.059 0.192-0.041 0.344-0.038 0.415-0.193 0.114-0.328 0.169-0.686 0.328-0.992 0.031-0.066 0.058-0.147 0.050-0.217-0.064-0.281-0.358-0.020-0.392 0.156-0.048 0.14-0.038 0.313-0.079 0.44-0.153 0.418-0.656 0.241-0.869-0.058l-0.020-0.028zM5.21 13.072c-0.224-0.041-0.234 0.348-0.234 0.503 0.006 0.025-0.005 0.041 0.023 0.046 0.025 0.006 0.087 0.005 0.118 0 0.277-0.030 0.163-0.362 0.104-0.536l-0.014-0.013zM7.445 14.196c-0.086-0.024-0.169 0.147-0.213 0.227-0.19 0.609-0.85 0.667-1.403 0.582-0.524-0.014-1.031 0.643-1.551 0.366-0.165-0.049-0.585-0.629-0.444-0.12 0.304 1.081 1.127 0.433 1.938 0.522 0.27 0.029 0.56 0.107 0.786-0.064 0.38-0.288 0.714-0.797 0.88-1.281 0.024-0.064 0.049-0.187 0.015-0.224zM19.537 10.145c-0.358 0.309-0.896 0.362-1.24 0.69-0.152 0.131-0.299 0.296-0.504 0.336-0.377 0.050-0.799-0.015-1.088-0.217-0.215-0.118-0.461 0.055-0.68 0.101-0.233 0.062-0.416-0.042-0.628-0.169-0.407-0.23-0.625-0.581-0.591-1.029 0.001-0.331-0.029-0.68 0.149-0.936 0.118-0.217 0.367-0.355 0.439-0.591 0.067-0.223-0.057-0.527 0.043-0.81 0.098-0.309 0.372-0.544 0.68-0.623 0.413-0.105 0.884-0.061 1.327-0.063 0.51-0.011 0.966 0.268 1.182 0.672 0.126 0.219 0.36 0.314 0.566 0.437 0.217 0.145 0.258 0.445 0.395 0.764 0.269 0.497 0.345 0.962-0.029 1.416l-0.021 0.022zM18.463 7.824c0.032-0.039 0.009-0.135-0.008-0.194-0.201-0.704-0.992-0.542-1.607-0.613-0.549-0.142-1.336 0.241-1.253 0.897 0.039 0.264-0.022 0.636 0.182 0.831 0.18 0.078 0.27-0.218 0.359-0.331 0.127-0.218 0.327-0.338 0.508-0.519 0.446-0.561 1.023-0.621 1.639-0.134 0.076 0.055 0.139 0.089 0.171 0.071l0.011-0.008zM19.117 9.46c0.115-0.252-0.218-0.43-0.308-0.643-0.084-0.158-0.106-0.377-0.185-0.512-0.047-0.082-0.125-0.134-0.209-0.183-0.496-0.285-1.006-0.812-1.46-0.285-0.053 0.099 0.141 0.135 0.234 0.248 0.026 0.029 0.056 0.065 0.082 0.096 0.139 0.202 0.472 0.090 0.619 0.266 0.272 0.448 0.295 1.423 0.983 1.187 0.103-0.045 0.139-0.048 0.226-0.148l0.016-0.025zM19.394 10.013c0.209-0.309 0.29-0.715 0.073-1.022-0.225-0.239-0.183-1.057-0.643-0.884-0.025 0.022-0.040 0.055-0.043 0.094 0.005 0.431 0.59 0.925 0.524 1.255-0.047 0.176-0.224 0.415-0.152 0.599 0.047 0.077 0.162 0.025 0.219-0.019zM16.87 8.172c-0.508-0.096-0.559 0.564-0.907 0.801-0.135 0.122-0.301 0.243-0.336 0.43-0.027 0.272 0.257 0.465 0.336 0.707 0.081 0.186 0.309 0.357 0.52 0.294 0.115-0.046 0.068-0.133 0.005-0.221-0.336-0.489 0.481-0.44 0.092-1.129-0.166-0.29-0.135-0.452 0.129-0.69 0.067-0.069 0.145-0.1 0.168-0.183l-0.009-0.009zM17.654 9.252c0.103 0.039 0.247-0.113 0.249-0.188-0.013-0.094-0.133-0.415-0.2-0.541-0.044-0.063-0.207 0.015-0.305 0.003-0.033-0.005-0.067-0.016-0.1-0.030-0.342-0.2-0.641 0.042-0.631 0.414 0 0.186 0.122 0.051 0.28-0.005 0.13-0.050 0.18-0.111 0.264-0.070 0.166 0.115 0.347 0.233 0.426 0.403l0.017 0.012zM16.255 10.635c-0.064-0.067-0.182-0.079-0.248-0.149-0.139-0.134-0.173-0.338-0.285-0.496-0.158-0.205-0.357-0.413-0.234-0.695 0.042-0.125 0.148-0.24 0.147-0.373-0.007-0.123-0.144-0.205-0.26-0.186-0.485 0.145-0.464 1.461-0.197 1.776 0.258 0.173 0.655 0.442 0.974 0.336 0.081-0.038 0.152-0.138 0.114-0.196l-0.012-0.018zM16.932 9.573c0.074 0.023 0.158-0.060 0.218-0.101 0.131-0.089 0.295 0.085 0.313-0.163-0.053-0.079-0.245-0.191-0.325-0.262-0.029-0.023-0.066 0.012-0.118 0.055-0.16 0.111-0.2 0.294-0.107 0.456l0.019 0.015zM17.37 10.337c0.081-0.079 0.164-0.195 0.277-0.255 0.256-0.162 0.567-0.279 0.425-0.604l-0.036-0.063c0.012-0.011-0.108-0.084-0.108-0.064-0.042-0.003-0.087 0.018-0.131 0.048-0.113 0.070-0.166 0.217-0.286 0.251-0.2 0.045-0.44 0.151-0.636 0.118-0.083-0.007-0.166 0.012-0.219 0.083-0.086 0.11-0.094 0.27 0.083 0.303 0.208 0.008 0.43 0.255 0.609 0.198l0.021-0.013zM18.941 9.891c-0.023-0.025-0.070-0.030-0.142-0.037-0.172-0.006-0.362-0.066-0.509-0.011-0.311 0.225-0.619 0.456-0.9 0.725-0.135 0.12-0.28-0.017-0.413-0.083-0.108-0.058-0.295 0.009-0.282 0.137 0.040 0.302 1.007 0.443 1.194 0.263 0.237-0.209 0.543-0.447 0.874-0.565 0.198-0.034 0.23-0.278 0.188-0.414zM22.662 5.7c0.090 0.092 0.216 0.153 0.328 0.218 0.328 0.19 0.387 0.492 0.273 0.798-0.233 0.642-1.064 1.014-1.691 1.227-0.271 0.104-0.527-0.004-0.787-0.080-0.237-0.060-0.469 0.010-0.693-0.057-1.036-0.255-0.922-0.333-1.477-1.185-0.261-0.356-0.2-0.736-0.077-1.132 0.079-0.587 0.435-1.096 1.018-1.316 1.045-0.417 1.514 0.1 2.284 0.77 0.254 0.178 0.536 0.252 0.632 0.448 0.053 0.099 0.092 0.204 0.171 0.288l0.021 0.022zM21.023 4.572c-0.333-0.786-1.944-0.114-2.192 0.504-0.132 0.319-0.21 0.786-0.193 1.116 0.010 0.27 0.239 0.28 0.19 0.015-0.158-0.476 0.208-0.867 0.513-1.283 0.091-0.125 0.196-0.242 0.329-0.325 0.397-0.236 0.754-0.192 1.139-0.058 0.057 0.021 0.179 0.060 0.206 0.039l0.008-0.007zM19.474 6.739c0.114-0.128 0.055-0.382 0.132-0.542 0.075-0.203 0.249-0.311 0.257-0.532 0.003-0.041 0.008-0.089 0.013-0.13 0.050-0.382 0.508-0.408 0.707-0.688 0.046-0.069 0.044-0.134-0.004-0.172-0.217-0.179-0.96 0.022-1.1 0.462-0.047 0.087-0.111 0.161-0.186 0.224-0.464 0.338-0.297 0.881 0.047 1.29 0.029 0.032 0.080 0.091 0.118 0.089l0.015-0.003zM22.185 6.82c0.026 0.052 0.185-0.041 0.302-0.091 0.046-0.025 0.095-0.055 0.115-0.105 0.025-0.112-0.051-0.249-0.093-0.357-0.127-0.219-0.088-0.532-0.214-0.733-0.131-0.224-0.411-0.271-0.62-0.396-0.236-0.15-0.318-0.383-0.593-0.329-0.637 0.147-0.034 0.437 0.401 0.756 0.355 0.259 0.699 0.608 0.684 1.088 0.001 0.044-0.004 0.115 0.008 0.152l0.008 0.016zM20.723 5.291c-0.26-0.046-0.66 0.076-0.649 0.341 0.002 0.083 0.019 0.178-0.025 0.251-0.089 0.16-0.283 0.291-0.282 0.5 0.010 0.222 0.33 0.219 0.476 0.13 0.047-0.030 0.069-0.074 0.056-0.118-0.363-0.434 0.147-0.806 0.428-1.096l-0.005-0.009zM21.504 5.77c-0.264-0.134-0.711-0.384-0.918-0.116-0.031 0.091 0.104 0.067 0.179 0.086 0.117 0.016 0.256 0.045 0.36 0.1 0.1 0.055 0.126 0.118 0.146 0.176 0.043 0.199 0.277 0.179 0.466 0.176 0.022-0.005 0.066-0.014 0.089-0.019 0.006-0.013-0.025-0.039-0.060-0.071-0.087-0.082-0.173-0.26-0.245-0.321l-0.017-0.012zM20.345 6.003c-0.021 0.178 0.229 0.263 0.34 0.35 0.040 0.033 0.061-0.002 0.142-0.049l0.233-0.149c0.030-0.022 0.059-0.032 0.063-0.046 0.008-0.032-0.096-0.112-0.153-0.141-0.185-0.096-0.427-0.028-0.612 0.020zM21.152 7.801c0.819-0.025 2.846-1.323 1.582-1.782-0.063 0.066 0.057 0.217 0.067 0.306 0.136 0.443-0.188 0.704-0.662 0.712-0.071 0.007-0.152 0.019-0.21 0.059-0.152 0.099-0.173 0.312-0.299 0.426-0.118 0.131-0.317 0.189-0.475 0.274l-0.005 0.006zM21.905 6.416c-0.046-0.025-0.142 0.002-0.24-0.011-0.131-0.013-0.272-0.074-0.398-0.070-0.442 0.1-0.941 0.458-1.449 0.476-0.154 0.033 0.029 0.114 0.13 0.11 0.137 0.004 0.284-0.063 0.427-0.058 0.229 0.030 0.451 0.137 0.679 0.115 0.248-0.030 0.599 0.015 0.806-0.172 0.076-0.084 0.126-0.29 0.061-0.379l-0.016-0.011zM21.573 7.17c-0.122-0.070-0.301 0.012-0.436 0.033-0.194 0.054-0.37-0.028-0.549-0.093-0.119-0.040-0.246-0.030-0.367-0.008-0.377 0.083-0.725-0.103-1.053-0.301-0.194-0.068-0.023 0.288 0.012 0.362 0.117 0.297 0.384 0.214 0.623 0.272 0.188 0.074 0.347 0.248 0.568 0.211 0.32-0.036 1.196-0.082 1.212-0.462zM22.815 27.561c0.208-0.209 0.329-0.594 0.195-0.857-0.043-0.104-0.073-0.176-0.041-0.2 0.405 0.007 0.382 0.599 0.188 0.957-0.162 0.329-0.506 0.538-0.824 0.538-0.758 0.008-1.314-1.084-1.508-1.893-0.385-1.958 0.425-5.669-1.94-6.287-0.335-0.086-0.543-0.013-0.343 0.32 0.441 0.795 0.876 1.718 1.071 2.629 0.094 0.437 0.134 0.879 0.093 1.29-0.037 0.369-0.095 0.177-0.128-0.057-0.21-1.264-0.54-2.806-1.262-3.833-0.137-0.193-0.351-0.201-0.544-0.091-0.74 0.405-1.827 0.78-2.655 0.939-0.173 0.030-0.364 0.046-0.528-0.008-0.772-0.291-0.337-1.926-0.147-2.58 0.145-0.31 0.59 0.069 0.805 0.149 0.909 0.476 1.777 0.819 2.764 0.959 3.81-0.272 2.425 4.905 3.238 7.197 0.239 0.561 0.926 1.392 1.544 0.85l0.022-0.022zM17.736 19.711c-0.031-0.037-0.182-0.070-0.258-0.086-0.847-0.16-1.714-0.539-2.46-0.954-0.117-0.084-0.458-0.187-0.424 0.039 0.082 0.223 0.677 0.193 0.735 0.413-0.147 0.082-0.534-0.064-0.703-0.041-0.252 0.025-0.155 0.264-0.025 0.376 0.107 0.088-0.018 0.084-0.077 0.17-0.111 0.112-0.111 0.401 0.052 0.469 0.306 0.121 0.767 0.085 1.048 0.227 0.029 0.038-0.082 0.077-0.255 0.094-0.306 0.084-1.177-0.265-0.956 0.24 0.313 0.706 2.261-0.291 3.104-0.588 0.281-0.158-0.273-0.101-0.359-0.083-0.152 0.055-1.544 0.035-1.389-0.223 0.097-0.054 0.261-0.036 0.379-0.022 0.453 0.063 0.943 0.042 1.412 0.028 0.057-0.007 0.169-0.012 0.18-0.052l-0.002-0.006zM21.172 16.779c-0.622 1.195 0.008 3.319 1.235 3.9 0.575 0.288 1.416 0.257 1.163-0.605-0.304-1.002-1.347-2.509-2.174-3.208-0.056-0.049-0.147-0.116-0.209-0.093l-0.015 0.006zM18.296 15.124c0.722-0.205 1.763 0.362 2.132 1.003 0.219 0.364 0.093 0.769 0.104 1.162-0.030 0.367-0.639 0.7-1.050 0.815-0.295 0.086-0.578-0.032-0.87-0.063-0.202-0.019-0.424 0.021-0.625 0.016-0.397 0.006-0.483-0.384-0.751-0.659-0.2-0.225-0.476-0.349-0.692-0.551-0.444-0.492 0.021-1.226 0.565-1.434 0.238-0.101 0.506-0.057 0.726-0.111 0.15-0.036 0.285-0.119 0.431-0.169l0.028-0.010zM19.165 15.389c-0.713-0.43-2.688 0.764-1.609 1.221 0.081 0.039 0.189 0.050 0.233-0.042 0.094-0.258 0.311-0.447 0.553-0.587 0.175-0.146 0.994-0.393 0.836-0.583l-0.014-0.012zM17.373 15.583c-0.005-0.036-0.097-0.026-0.193 0.007-0.419 0.147-0.802 0.778-0.482 1.129 0.166 0.152 0.393 0.251 0.528 0.43 0.23 0.227 0.627 0.492 0.953 0.316 0.079-0.063-0.052-0.198-0.131-0.345-0.067-0.162-0.213-0.231-0.38-0.261-0.596-0.15-0.831-0.636-0.411-1.104 0.059-0.066 0.111-0.124 0.115-0.158zM19.353 15.66c-0.494 0.155-0.064 0.343 0.197 0.412 0.205 0.064 0.379 0.241 0.451 0.448 0.053 0.165-0.051 0.281-0.21 0.33-0.094 0.042-0.349 0.083-0.267 0.209 0.119 0.073 0.356-0.007 0.499-0.032 0.778-0.215 0.044-1.436-0.641-1.371l-0.029 0.005zM18.987 16.047c-0.141-0.11-0.45 0.064-0.599 0.144-0.219 0.137-0.445 0.292-0.332 0.545 0.059 0.141 0.147 0.307 0.25 0.412 0.049 0.040 0.127 0.015 0.272 0 0.14-0.017 0.318-0.039 0.466-0.056 0.152-0.032 0.292 0.009 0.29-0.104-0.046-0.138-0.235-0.082-0.366-0.064-0.17 0.029-0.376 0.052-0.484-0.074-0.233-0.394 0.45-0.469 0.506-0.786l-0.005-0.016zM19.477 16.208c-0.080 0-0.234 0.039-0.323 0.049-0.077 0.002-0.063 0.041-0.022 0.083 0.055 0.050 0.133 0.042 0.176 0.112 0.053 0.083 0.001 0.202 0.063 0.283 0.142 0.013 0.361-0.060 0.427-0.193-0.042-0.135-0.295-0.163-0.314-0.323l-0.007-0.011zM19.154 16.5c-0.149-0.017-0.381-0.012-0.38 0.2 0.002 0.009 0.008 0.026 0.010 0.034l0.353-0.144c0.023-0.009 0.028-0.009 0.028-0.037v-0.047c0 0-0.011-0.007-0.011-0.007zM17.787 17.827c0.707-0.081 1.646 0.368 2.199-0.236 0.128-0.103 0.4-0.162 0.371-0.359-0.069-0.136-0.262-0.031-0.379-0.018-0.592 0.104-1.221-0.069-1.643 0.325-0.124 0.159-0.381 0.232-0.551 0.287l0.003 0.001zM23.464 2.501c0.007-0.361 0.234-1.464-0.401-1.218-0.938 0.421-1.836 1.819-1.615 2.9 0.023 0.114 0.079 0.258 0.207 0.243 0.205-0.025 0.528-0.279 0.827-0.546 0.437-0.405 0.881-0.755 0.979-1.352zM1.085 9.635c-0.394 1.551 1.766 2.479 2.824 1.273 0.085-0.095 0.128-0.216 0.052-0.324-0.649-0.692-1.796-0.861-2.713-0.999-0.059-0.004-0.11 0.004-0.146 0.033zM0.573 18.077c-0.027-1.445 1.803-2.561 3.147-2.094 0.098 0.032 0.201 0.087 0.252 0.173 0.054 0.083 0.060 0.198 0.043 0.298-0.212 1.314-1.921 1.861-3.19 1.734-0.086-0.008-0.193-0.029-0.24-0.091l-0.012-0.019zM3.628 16.171c-1.117-0.29-2.323 0.363-2.738 1.428-0.023 0.067-0.066 0.149-0.018 0.141 0.248-0.133 1.751-0.969 2.305-1.273 0.24-0.134 0.422-0.231 0.476-0.265 0.009-0.012 0.008-0.018-0.011-0.025l-0.013-0.005zM3.816 16.454c0-0.011-0.002-0.018-0.008-0.019-0.13 0.050-0.316 0.165-0.493 0.249-0.542 0.281-2.060 1.043-2.229 1.263-0.016 0.067 0.149 0.040 0.205 0.045 1.021-0.032 2.222-0.504 2.523-1.526l0.002-0.013zM17.066 11.287c0.089 0.004 0.185 0.077 0.255 0.145 1.151 1.042 0.724 3.322-0.775 3.823-0.099-0.008-0.179-0.101-0.226-0.19-0.583-1.085-0.355-2.738 0.487-3.635 0.062-0.069 0.147-0.139 0.234-0.141h0.025zM16.602 14.945c0.418-0.945 0.577-2.031 0.444-3.073-0.010-0.067-0.029-0.184-0.090-0.194-0.795 0.572-0.951 2.31-0.483 3.147 0.026 0.047 0.069 0.125 0.117 0.123l0.013-0.004zM16.876 14.726c1.026-0.465 1.146-1.994 0.515-2.882-0.060-0.081-0.11-0.119-0.117-0.008 0.030 0.863 0.051 1.986-0.359 2.754-0.016 0.032-0.062 0.112-0.046 0.131l0.007 0.005zM3.398 18.237c0.949 0.613 0.879 2.689 0.135 3.546-0.124 0.134-0.277 0.312-0.472 0.308-1.525-0.67-1.168-2.884 0.029-3.725 0.082-0.064 0.188-0.133 0.284-0.131l0.023 0.001zM2.849 21.639c0.045-0.029 0.042-0.129 0.047-0.19 0.045-0.922 0.181-1.844 0.408-2.734 0.012-0.055 0.048-0.169-0.002-0.185-1.009 0.547-1.563 2.432-0.466 3.115zM3.159 21.733c0.919-0.403 0.704-2.049 0.472-2.95-0.028-0.092-0.063-0.121-0.107-0.016-0.315 0.867-0.4 1.832-0.411 2.759 0 0.063-0.005 0.162 0.033 0.199l0.012 0.008zM16.571 1.934c0.72 0.891 1.249 2.868 0.463 3.791-0.127 0.17-0.339 0.173-0.478 0.015-0.88-0.848-0.944-2.517-0.378-3.624 0.067-0.135 0.229-0.266 0.371-0.195l0.022 0.012zM16.66 5.451c-0.040-0.44-0.162-1.005-0.183-1.498-0.043-0.533-0.066-1.074-0.065-1.483-0.003-0.043 0.007-0.127-0.029-0.134-0.629 0.874-0.508 2.375 0.27 3.115h0.008zM16.869 5.529c0.636-0.665 0.261-2.012-0.084-2.823-0.2-0.326-0.138 1.212-0.101 1.351 0.070 0.488 0.091 1.015 0.176 1.468l0.010 0.003zM25.873 3.359c1.193 0.115-0.727 3.662-2.090 3.054-0.309-0.169-0.176-0.6-0.144-0.916 0.197-0.97 1.247-1.956 2.21-2.136h0.024zM25.854 3.561c-0.985 0.258-2.053 1.208-2.030 2.315 0.008 0.094 0.048 0.121 0.121 0.055 0.657-0.744 1.449-1.478 1.915-2.362zM24.044 6.314c0.999-0.244 1.749-1.111 1.919-2.131 0.009-0.057 0.030-0.182-0.008-0.202-0.573 0.496-1.426 1.583-1.881 2.215-0.017 0.028-0.063 0.093-0.040 0.112l0.009 0.005zM9.463 5.99c-0.083 0.029-0.192-0.015-0.274-0.063-1.135-0.643-1.121-2.339-0.667-3.543 0.029-0.079 0.083-0.181 0.157-0.195 0.073-0.019 0.17 0.049 0.232 0.104 0.924 0.835 1.26 2.22 0.75 3.452-0.036 0.090-0.095 0.201-0.176 0.236l-0.023 0.009zM9.25 5.672c0.012-0.011 0.009-0.042-0.002-0.088-0.126-0.413-0.254-0.847-0.335-1.273-0.117-0.483-0.087-0.989-0.14-1.476-0.061-0.209-0.165-0.1-0.197 0.043-0.275 1.003-0.221 2.169 0.666 2.798l0.008-0.003zM9.512 5.446c0.366-0.834 0.19-1.854-0.391-2.545-0.028-0.032-0.098-0.112-0.127-0.1-0.017 0.005-0.022 0.036-0.019 0.084 0.047 0.405 0.055 0.877 0.099 1.317 0.062 0.438 0.12 0.967 0.424 1.245zM12.915 19.239c0.723 1.003 0.144 2.655-0.535 3.573-0.048 0.066-0.126 0.148-0.201 0.134-0.069-0.009-0.133-0.091-0.174-0.155-0.727-1.072-0.51-3.379 0.888-3.562zM12.268 22.508c0.656-0.69 0.865-1.858 0.67-2.795-0.013-0.056-0.033-0.151-0.080-0.164-0.048-0.005-0.089 0.080-0.113 0.128-0.371 0.8-0.425 1.916-0.485 2.827zM12.063 22.344c0.010-0.851 0.217-1.712 0.394-2.552 0.015-0.101-0.015-0.122-0.091-0.050-0.636 0.65-0.78 1.832-0.309 2.605l0.007-0.002zM20.082 1.976c0.915 0.625-0.998 2.22-1.688 2.784-0.098 0.079-0.225 0.17-0.336 0.188-0.367 0.036-0.199-0.6-0.106-0.865 0.333-0.878 1.064-2.053 2.103-2.113zM18.082 4.415c0.137-0.104 1.517-1.913 1.714-2.164-0.854 0.376-1.555 1.226-1.713 2.151v0.013zM18.484 4.359c0.6-0.462 1.238-1.003 1.52-1.732 0.011-0.031 0.050-0.132 0.023-0.137-0.501 0.442-1.204 1.314-1.549 1.868h0.005zM31.422 19.95c-0.016 0.042-0.074 0.050-0.173 0.050-0.274-0.002-0.72 0.004-1.014-0.003-0.846-0.113-1.74-0.921-1.923-1.76-0.022-0.172 0.132-0.262 0.285-0.295 1.244-0.312 2.616 0.782 2.83 1.994l-0.005 0.015zM31.025 19.512c-0.252-0.819-1.157-1.595-2.070-1.488-0.080 0.015-0.17 0.094-0.079 0.163 0.733 0.398 1.425 0.918 2.142 1.33zM30.787 19.693c-0.541-0.534-1.309-0.99-2.009-1.294-0.087-0.028-0.111 0.012-0.089 0.090 0.2 0.689 1.337 1.388 2.096 1.214l0.002-0.012zM29.927 8.965c0.239-0.040 0.273 0.21 0.215 0.519-0.139 0.714-0.821 1.921-1.269 2.199-0.383 0.21-1.061 0.597-1.048-0.114 0.024-1.164 1.161-2.066 2.080-2.598l0.020-0.006zM28.248 11.686c0.912-0.205 1.562-1.359 1.61-2.257-0.461 0.44-1.193 1.606-1.589 2.164-0.012 0.022-0.049 0.071-0.030 0.088zM29.371 9.65c-0.614 0.325-1.353 1.125-1.29 1.859 0.161-0.24 1.078-1.494 1.3-1.864l-0.010 0.004zM12.945 0.036c0.073 0.048 0.144 0.155 0.197 0.238 0.674 1.067 1.074 1.471 0.28 2.515-0.192 0.214-0.362 0.57-0.679 0.546-0.301-0.051-0.498-0.473-0.631-0.744-0.362-0.72-0.025-2.213 0.628-2.562 0.062-0.033 0.123-0.039 0.183-0.007l0.022 0.013zM12.904 3.036c0.881-0.717 0.904-1.612 0.186-2.447-0.037-0.045-0.112-0.131-0.158-0.124-0.030 0.002-0.050 0.031-0.063 0.079-0.075 0.377-0.101 0.791-0.104 1.193 0.002 0.414 0.024 0.83 0.081 1.231 0.008 0.036 0.022 0.059 0.042 0.065l0.016 0.001zM12.687 3.021c-0.059-0.367-0.159-0.768-0.151-1.156-0.022-0.412 0.078-0.821 0.107-1.224-0.017-0.193-0.144-0.085-0.193 0.022-0.409 0.748-0.43 1.785 0.229 2.362zM19.713 31.805c-0.036-0.38-1.855-10.688-1.989-11.406-0.017-0.013-0.083 0.119-0.103 0.339 0.644 3.643 0.906 7.582 2.087 11.054zM27.415 20.993c-0.905 0.675-2.653 0.133-3.101-0.873-0.033-0.070-0.070-0.182-0.029-0.237 0.031-0.047 0.103-0.060 0.162-0.067 0.939-0.108 3.235 0.042 2.983 1.156l-0.013 0.020zM27.221 20.685c-0.419-0.599-1.405-0.625-2.122-0.677-0.073 0-0.080 0.021-0.020 0.064 0.613 0.376 1.426 0.618 2.138 0.622l0.005-0.010zM27.053 20.895c-0.428-0.020-0.879-0.101-1.279-0.284-0.404-0.142-0.813-0.431-1.212-0.5 0.469 0.741 1.682 1.258 2.493 0.791l-0.002-0.006zM17.048 31.944c-0.316-3.587-0.231-7.337-0.871-10.879-0.070 2.723 0.51 5.668 0.546 8.472 0.013 0.635 0.002 1.526 0.124 2.056 0.047 0.227 0.159 0.433 0.197 0.362zM27.92 12.702c1.422-0.244 2.579 0.862 3.328 1.94 0.115 0.149 0.129 0.313-0.084 0.357-1.158 0.279-2.512-1.146-3.425-1.869-0.247-0.17-0.166-0.354 0.149-0.42l0.032-0.007zM30.963 14.747c-0.36-0.935-1.657-1.886-2.75-1.858-0.064 0-0.182 0.006-0.203 0.054-0.019 0.050 0.066 0.123 0.11 0.164 0.779 0.679 1.737 1.728 2.835 1.652l0.009-0.012zM24.562 12.293c0.762 0.454 1.899 0.399 2.541-0.175 0.055-0.049 0.114-0.119 0.099-0.19-0.499-0.708-2.36-0.404-2.646 0.348zM3.148 9.252c-1.003-0.35-1.112-1.867-0.82-2.833 0.022-0.077 0.064-0.172 0.137-0.195 0.71 0.093 1.17 1.287 1.115 1.987-0.011 0.274-0.138 0.523-0.256 0.767-0.053 0.115-0.090 0.238-0.158 0.267zM3.201 8.794c0.335-0.713 0.162-1.506-0.383-2.055-0.060-0.058-0.094-0.066-0.081 0.025 0.136 0.647 0.079 1.551 0.451 2.034l0.013-0.004zM2.792 8.64c-0.103-0.524-0.038-1.281-0.328-1.688-0.018-0.019-0.032-0.029-0.045-0.022-0.147 0.574-0.044 1.259 0.366 1.712zM14.757 21.135c-0.033-0.022-0.038-0.001-0.058 0.024-0.050 0.096-0.060 0.232-0.065 0.354-0.070 3.071-0.599 6.206-0.521 9.278 0.417-3.152 0.641-6.471 0.65-9.647l-0.008-0.009zM14.235 21.192c-1.427 0.649-3.552 5.779-1.759 6.763 0.121 0.049 0.244 0.042 0.338-0.023 0.11-0.075 0.134-0.155 0.055-0.161-0.045-0.007-0.12 0.006-0.2 0.011-0.399 0.013-0.538-0.521-0.607-0.839-0.299-1.817 1.070-4.312 2.174-5.746l-0.001-0.005zM14.282 21.926c-0.121-0.025-0.173 0.301-0.183 0.426-0.029 0.239-0.961 9.35-0.359 7.141 0.151-0.849 0.021-1.752 0.146-2.605 0.106-1.552 0.373-3.106 0.45-4.659 0.007-0.090 0.001-0.258-0.045-0.297l-0.010-0.008zM8.536 14.881c-1.319-0.943-0.359 1.708 0.536 1.865 0.189 0.009 0.121-0.221 0.11-0.396-0.067-0.489-0.284-1.123-0.625-1.452zM9.124 8.515c-0.090 0.711 1.577 1.149 2.037 0.713 0.107-0.209-0.227-0.432-0.397-0.533-0.304-0.131-1.373-0.451-1.633-0.199zM22.063 9.538c-0.152-0.865-1.127-1.208-1.917-1.212-0.052 0.004-0.087 0.016-0.1 0.042 0.089 0.588 1.404 1.54 2.008 1.19l0.009-0.019zM10.475 19.208c0.641 0.239 0.604-1.594 0.356-2.012-0.307-0.428-0.553 0.435-0.595 0.687-0.071 0.419-0.090 0.998 0.217 1.31zM12.584 18.181c-1.915 0.486-3.382 3.654-3.132 5.551 0.024 0.168 0.050 0.169 0.070-0.025 0.149-2.407 1.242-4.137 3.062-5.519v-0.006zM11.059 3.706c0.23-0.674-0.554-1.912-1.299-1.817-0.182 0.489 0.758 1.915 1.285 1.829l0.013-0.013zM15.379 27.168c0.335-0.628 0.012-1.53 0.115-2.224 0.025-1.132 0.241-2.38 0.071-3.49-0.010-0.101-0.066-0.264-0.128-0.302-0.064-0.045-0.101 0.028-0.099 0.083 0 0.316 0 1.767 0 3.163 0 0.89-0.001 2.093 0 2.769 0.001 0.029 0.010 0.042 0.035 0.011l0.007-0.009zM14.995 25.71c-0.060 0.033-0.117 0.229-0.127 0.336-0.192 1.832-0.211 3.681-0.214 5.52-0.015 0.108 0.043 0.486 0.153 0.274 0.037-0.57 0.145-3.808 0.196-5.033 0.019-0.52 0.036-0.907 0.039-1.043 0-0.026-0.011-0.066-0.042-0.056l-0.008 0.004zM16.085 29.765c0.017-0.034 0.026-0.113 0.020-0.207-0.274-1.946 0.335-4.208-0.195-6.009-0.203 1.828-0.136 4.324 0.057 6.001 0.007 0.052 0.047 0.278 0.112 0.225l0.006-0.010zM18.374 20.622c-0.481 0.446 0.776 5.156 1.18 5.988 0.033 0.048-0.003-0.083-0.044-0.301-0.348-1.683-0.77-4.114-1.132-5.685h-0.004zM18.771 30.447c-0.176-1.532-0.294-3.231-0.711-4.695-0.069-0.261-0.192-0.295-0.189 0.045 0.052 0.523 0.285 1.033 0.322 1.562 0.179 1.006 0.051 2.236 0.573 3.091zM21.198 30.532c-0.301-1.355-0.872-3.418-1.223-4.853-0.040-0.155-0.056-0.241-0.069-0.202-0.074 0.731 0.795 4.812 1.289 5.057zM17.352 25.708c0.037-0.033 0.032-0.163 0.030-0.233-0.069-1.44 0.066-3.415-0.519-4.67-0.039 1.487 0.304 3.045 0.367 4.549 0.012 0.103 0.038 0.327 0.115 0.357zM15.468 31.993c0.021 0.017 0.026-0.002 0.026-0.022-0.016-0.368 0.019-1.305 0.025-1.755 0.006-0.577 0.055-2.223-0.122-2.393-0.072 0.007-0.073 0.179-0.091 0.26-0.138 1.088 0.029 2.393 0.042 3.497-0.001 0.122 0.052 0.34 0.112 0.405zM22.002 21.779c-0.21-0.735-1.242-2.707-2.021-2.799-0.019 0.025 0.040 0.077 0.065 0.106 0.581 0.565 1.503 2.059 1.952 2.693h0.003zM14.869 15.555c-0.415-0.062 0.224 3.037 0.486 2.816-0.13-0.812-0.32-2.041-0.479-2.812zM16.024 15.262c-0.070 0.006-0.165 0.179-0.149 0.278 0.040 0.826-0.021 1.686 0.080 2.514 0.009 0.059 0.029 0.213 0.1 0.153 0.288-0.312-0.048-2.336-0.020-2.946h-0.010zM19.958 29.981c-0.125-0.917-0.188-2.103-0.706-2.904-0.057-0.081-0.080-0.069-0.069 0.028 0.152 0.941 0.346 2.080 0.77 2.878zM17.75 26.546c-0.284-0.17-0.055 1.551-0.030 1.733 0.035 0.295 0.221 1.333 0.284 0.998 0.023-0.623-0.138-2.064-0.248-2.719zM17.606 22.27c-0.323-0.226-0.084 2.058 0.011 2.311 0.034 0.162 0.133 0.451 0.153 0.266-0.043-0.846-0.022-1.728-0.156-2.561l-0.007-0.016zM14.112 19.066c-0.046-0.496-0.803-1.92-1.189-2.17-0.088-0.049-0.039 0.086-0.019 0.135 0.261 0.672 0.742 1.474 1.201 2.033zM15.593 16.873c0.072-0.428-0.052-0.88-0.076-1.299-0.013-0.193 0.053-0.421-0.039-0.601-0.046-0.082-0.189-0.155-0.192-0.040 0.064 0.419 0 2.059 0.299 1.955l0.007-0.016zM16.45 17.474c-0.058 0.366 0.016 0.786 0.009 1.164-0.001 0.097-0.027 0.232 0.096 0.221 0.059-0.031 0.043-0.106 0.050-0.169 0.009-0.398 0.251-1.057 0.007-1.355-0.074-0.1-0.118 0.045-0.153 0.117l-0.008 0.022zM14.421 18.141c-0.033-0.161-0.229-0.527-0.317-0.759-0.117-0.268-0.217-0.5-0.315-0.727-0.023-0.047-0.031-0.086-0.041-0.064-0.010 0.047-0.105 0.265-0.039 0.349 0.272 0.353 0.265 1.070 0.701 1.201l0.012 0.001zM15.144 22.986c-0.047-0.002-0.123-0.011-0.131 0.042 0.029 0.243-0.142 1.517 0.152 1.511 0.025-0.363 0-0.886 0.008-1.258v-0.197c-0.004-0.059 0.010-0.089-0.014-0.096zM17.695 19.232c0.015-0.215 0.083-0.812 0.070-1.016-0.155 0.053-0.217 0.325-0.245 0.585-0.005 0.154-0.030 0.495 0.167 0.435l0.008-0.005zM18.487 19.233c0.232-0.192 0.329-0.544 0.373-0.835 0.005-0.041 0.014-0.093-0.004-0.099-0.295 0.153-0.355 0.624-0.377 0.93zM17.221 17.896c-0.229-0.131-0.193 0.646-0.217 0.775-0.007 0.063-0.015 0.092 0.043 0.093 0.253-0.070 0.171-0.641 0.181-0.854l-0.008-0.014z"></path>
</svg>
