<?xml version="1.0" encoding="UTF-8" standalone="no"?>
<svg
   version="1.0"
   width="688pt"
   height="771pt"
   viewBox="0 0 688 771"
   preserveAspectRatio="xMidYMid"
   id="svg618"
   sodipodi:docname="niklas1.svg"
   inkscape:version="1.2.2 (b0a84865, 2022-12-01)"
   xmlns:inkscape="http://www.inkscape.org/namespaces/inkscape"
   xmlns:sodipodi="http://sodipodi.sourceforge.net/DTD/sodipodi-0.dtd"
   xmlns="http://www.w3.org/2000/svg"
   xmlns:svg="http://www.w3.org/2000/svg">
  <defs
     id="defs622" />
  <sodipodi:namedview
     id="namedview620"
     pagecolor="#ffffff"
     bordercolor="#000000"
     borderopacity="0.25"
     inkscape:showpageshadow="2"
     inkscape:pageopacity="0.0"
     inkscape:pagecheckerboard="0"
     inkscape:deskcolor="#d1d1d1"
     inkscape:document-units="pt"
     showgrid="false"
     inkscape:zoom="0.18972552"
     inkscape:cx="-68.52004"
     inkscape:cy="363.68329"
     inkscape:window-width="1344"
     inkscape:window-height="880"
     inkscape:window-x="0"
     inkscape:window-y="25"
     inkscape:window-maximized="0"
     inkscape:current-layer="svg618" />
  <g
     transform="matrix(0.10323471,0,0,-0.10323471,-9.3363098,1146.0545)"
     fill="#000000"
     stroke="none"
     id="g616">
    <path
       d="m 3125,10977 c -15,-12 -37,-14 -92,-10 -88,7 -161,-7 -302,-58 -117,-42 -145,-65 -222,-174 -27,-38 -70,-97 -94,-130 -44,-59 -90,-164 -160,-360 -20,-55 -50,-140 -68,-188 -27,-76 -29,-92 -20,-118 11,-28 9,-33 -22,-65 -34,-34 -50,-73 -74,-184 -7,-30 -17,-69 -22,-86 -14,-47 -11,-179 7,-248 19,-78 36,-115 70,-151 25,-27 25,-29 8,-42 -10,-7 -43,-22 -73,-34 -125,-47 -305,-158 -418,-261 -101,-91 -100,-91 -193,-128 -122,-48 -167,-72 -238,-125 -60,-45 -73,-69 -32,-58 11,3 17,9 15,14 -7,10 84,79 143,108 23,12 75,33 115,47 76,28 131,64 236,159 80,71 289,205 321,205 6,0 -21,-30 -58,-67 -162,-161 -207,-308 -142,-470 16,-41 30,-82 30,-91 0,-9 9,-30 20,-47 32,-48 24,-63 -13,-27 -18,18 -43,32 -55,32 -37,0 -91,-27 -158,-80 -136,-107 -195,-139 -300,-160 -53,-11 -112,-29 -130,-41 -70,-43 -135,-143 -220,-338 -22,-52 -56,-112 -74,-134 l -33,-40 -81,6 -81,6 55,-15 c 75,-21 110,-12 159,41 23,25 41,49 41,54 0,11 57,138 102,226 73,144 145,203 265,219 29,4 73,15 98,26 45,19 155,93 232,154 23,19 63,42 89,52 l 46,18 54,-57 c 29,-31 71,-89 92,-129 22,-40 55,-98 74,-128 56,-91 111,-175 117,-180 3,-3 25,-30 48,-61 78,-102 229,-235 334,-294 109,-61 182,-96 192,-92 7,2 -22,20 -63,40 -220,106 -432,296 -555,496 -51,83 -119,199 -150,256 -21,39 -42,71 -46,73 -4,2 -5,10 -2,19 3,9 -3,34 -15,57 -30,59 -78,194 -86,242 -22,128 92,312 274,442 59,43 69,47 120,46 30,0 45,1 33,3 -13,3 -23,9 -23,14 0,12 47,12 55,-1 9,-15 25,-12 25,5 0,12 -13,15 -58,15 -58,0 -59,0 -93,47 -50,71 -60,106 -66,233 -4,94 -1,132 17,210 24,108 48,167 78,193 42,38 82,1 107,-98 9,-33 18,-68 21,-77 3,-10 1,-18 -5,-18 -6,0 -11,8 -12,18 0,21 -57,101 -82,116 -15,9 -21,7 -33,-9 -26,-36 -64,-178 -64,-243 v -61 l 80,-82 c 44,-45 83,-79 87,-75 4,3 -30,44 -75,90 -94,96 -96,104 -63,236 27,108 38,132 58,128 22,-4 91,-115 93,-148 0,-14 7,-34 15,-44 19,-25 19,-36 0,-36 -18,0 -20,-37 -3,-42 17,-6 29,-370 12,-380 -6,-4 -17,-52 -24,-105 -7,-54 -17,-104 -23,-110 -6,-9 -6,-17 0,-25 7,-8 8,-49 3,-108 -9,-119 15,-310 40,-310 4,0 -2,42 -13,93 -20,94 -18,163 10,457 6,73 20,84 28,24 13,-96 37,-209 51,-238 8,-16 14,-36 14,-44 0,-46 210,-355 312,-458 60,-61 104,-89 202,-126 66,-25 237,-35 258,-15 7,8 26,17 41,21 33,8 107,55 107,67 0,5 6,7 13,4 6,-2 29,19 50,46 44,58 57,59 29,2 -24,-48 -35,-90 -24,-97 5,-3 14,17 21,44 7,27 26,68 42,90 30,42 86,83 101,74 4,-3 8,-51 9,-107 0,-66 3,-95 9,-82 14,32 12,179 -3,198 -10,15 -16,16 -39,5 -16,-7 -28,-16 -28,-20 0,-5 -6,-8 -14,-8 -8,0 26,42 76,93 144,148 202,236 244,367 21,68 27,75 50,60 14,-8 27,-9 46,-1 28,11 102,97 113,132 7,20 12,21 79,15 55,-4 65,-3 46,5 -14,6 -50,11 -80,12 -47,2 -55,-1 -58,-18 -6,-31 -71,-114 -101,-130 -45,-23 -56,-7 -42,62 7,32 17,81 23,108 10,52 31,85 54,85 20,0 80,62 88,90 4,14 14,40 22,58 9,18 14,40 12,50 -2,9 -12,-8 -22,-38 -23,-70 -59,-126 -85,-133 -20,-5 -21,-1 -20,51 1,45 3,51 8,27 6,-25 9,-15 20,55 13,84 30,124 71,168 36,38 43,28 36,-45 -4,-47 -3,-63 4,-53 13,21 13,127 -1,136 -7,4 -27,-9 -46,-30 -19,-20 -36,-36 -38,-36 -11,0 17,76 40,105 25,34 23,48 -4,23 -11,-11 -12,-9 -8,7 3,11 12,46 19,78 7,31 16,57 19,57 10,0 59,-59 59,-71 0,-5 -9,-9 -20,-9 -11,0 -20,-5 -20,-11 0,-7 7,-8 18,-4 9,4 36,10 59,12 76,10 78,40 6,103 -22,20 -33,35 -25,38 28,9 -3,280 -67,593 -28,137 -182,306 -357,394 -54,27 -110,58 -124,67 -14,10 -52,23 -85,30 -33,6 -73,21 -90,33 -23,17 -50,24 -110,29 -44,3 -91,8 -105,11 -15,4 -33,0 -45,-8 z m 160,-23 c 47,-5 82,-14 105,-30 19,-12 54,-25 77,-29 49,-8 255,-111 325,-162 72,-52 166,-161 198,-228 30,-62 48,-133 81,-320 23,-132 43,-324 35,-333 -4,-3 -50,38 -104,91 -141,140 -226,202 -372,273 -133,65 -198,86 -320,104 -138,20 -507,0 -559,-30 -13,-8 -13,-9 5,-10 11,0 45,4 75,10 158,29 442,28 559,-1 239,-61 440,-181 633,-381 57,-60 69,-87 25,-54 -222,160 -269,191 -378,245 -139,68 -233,91 -380,91 -118,0 -207,-15 -310,-52 -30,-11 -101,-34 -157,-51 -57,-17 -103,-34 -103,-38 0,-4 17,-3 38,3 20,5 54,13 75,19 21,5 45,13 55,19 44,24 217,70 307,81 229,28 416,-31 690,-219 61,-42 128,-88 151,-103 56,-39 124,-106 124,-123 0,-8 -9,-18 -21,-21 -15,-5 -25,-1 -36,17 -30,46 -175,178 -250,228 -136,91 -379,191 -460,189 -37,-1 -36,-1 17,-15 241,-63 417,-155 566,-294 36,-33 43,-46 38,-63 -14,-43 -75,-274 -104,-392 -16,-66 -40,-154 -53,-195 -14,-41 -33,-109 -42,-150 -36,-156 -90,-285 -158,-375 -63,-84 -351,-375 -414,-419 -44,-30 -62,-36 -103,-36 -88,0 -170,60 -170,124 0,36 35,102 63,120 12,8 41,17 64,21 44,7 73,29 57,45 -5,5 -38,15 -74,23 -36,8 -74,18 -84,22 -12,5 -17,5 -13,-2 6,-9 42,-22 115,-40 46,-11 42,-27 -9,-35 -82,-14 -129,-69 -129,-151 0,-42 4,-51 41,-87 23,-22 49,-40 58,-40 9,0 23,-5 31,-11 30,-21 -142,-1 -213,25 -144,52 -186,96 -429,452 -38,57 -68,141 -99,284 -15,72 -23,156 -29,345 -10,300 -16,366 -37,469 -14,63 -24,86 -51,114 -32,35 -33,36 -14,52 24,18 115,160 108,167 -3,3 -28,-30 -56,-73 -46,-70 -70,-98 -70,-80 0,17 54,106 87,144 l 38,43 23,-23 c 12,-13 36,-40 53,-60 44,-54 101,-72 198,-64 43,3 98,12 122,20 288,91 397,116 524,125 93,6 104,8 72,15 -75,16 -316,-26 -437,-76 -14,-6 -38,-14 -55,-18 -16,-4 -64,-17 -105,-28 -105,-28 -154,-35 -200,-27 -59,10 -48,25 18,24 73,-1 150,10 159,24 4,6 -4,8 -23,3 -16,-3 -60,-9 -99,-12 -86,-8 -135,10 -165,58 -31,51 -26,64 36,93 65,31 67,42 4,20 -61,-22 -83,-43 -75,-74 6,-25 6,-25 -14,-7 -12,11 -27,15 -40,11 -24,-7 -101,-97 -121,-140 -9,-21 -14,-25 -17,-14 -2,9 19,74 47,145 29,71 67,172 85,224 59,166 86,216 188,345 4,6 24,35 45,65 48,70 98,103 224,147 91,32 115,36 207,37 l 104,1 1,-31 c 1,-22 -3,-31 -14,-30 -11,1 -14,-7 -12,-26 2,-16 -1,-28 -6,-28 -12,0 -36,-74 -30,-91 6,-16 48,66 68,131 8,25 22,58 33,73 17,25 24,28 56,23 20,-3 68,-9 106,-12 z"
       id="path400" />
    <path
       d="m 3196,10819 c -14,-11 -24,-25 -20,-30 3,-5 17,0 31,11 38,30 97,26 162,-10 30,-17 62,-30 73,-30 27,0 22,-19 -7,-26 -14,-3 -25,-10 -25,-15 0,-13 17,-11 51,7 17,8 38,13 46,10 9,-4 13,-1 11,6 -3,7 -15,15 -28,16 -13,2 -39,15 -59,28 -19,12 -38,21 -43,18 -5,-3 -7,0 -6,7 4,15 -39,26 -108,28 -38,1 -58,-4 -78,-20 z"
       id="path402" />
    <path
       d="m 3295,10770 c -3,-5 -1,-10 4,-10 6,0 11,5 11,10 0,6 -2,10 -4,10 -3,0 -8,-4 -11,-10 z"
       id="path404" />
    <path
       d="m 3177,10763 c -12,-12 -7,-23 11,-23 21,-1 48,-24 83,-70 15,-19 37,-45 48,-58 12,-12 19,-27 16,-32 -3,-6 3,-10 14,-10 22,0 28,14 12,25 -5,3 -9,18 -9,33 0,15 -5,38 -11,52 -10,24 -11,23 -5,-7 8,-47 -4,-58 -28,-26 -28,37 -111,123 -118,123 -4,0 -10,-3 -13,-7 z"
       id="path406" />
    <path
       d="m 3314,10725 c 8,-8 18,-15 22,-15 3,0 1,7 -6,15 -7,8 -17,15 -22,15 -5,0 -3,-7 6,-15 z"
       id="path408" />
    <path
       d="m 3352,10729 c 10,-28 36,-124 37,-139 0,-8 2,-37 5,-65 5,-55 -2,-65 -46,-65 -18,0 -31,8 -39,23 -15,27 -13,78 3,88 8,5 5,15 -12,32 l -25,25 1,-72 c 1,-96 0,-93 36,-112 26,-14 37,-14 68,-4 l 37,12 -3,57 c -2,31 -5,69 -8,85 -3,22 2,34 18,47 11,9 25,15 29,12 5,-3 7,-42 6,-87 -3,-59 0,-81 9,-80 6,1 18,2 25,2 9,2 12,31 12,112 0,60 -3,110 -7,110 -5,0 -8,-45 -8,-100 0,-60 -4,-100 -10,-100 -6,0 -10,37 -10,91 0,50 -3,89 -7,87 -5,-2 -20,-10 -36,-18 -25,-12 -29,-11 -42,6 -8,10 -15,27 -15,36 0,9 -5,20 -12,24 -7,5 -9,2 -6,-7 z"
       id="path410" />
    <path
       d="m 3285,10710 c 3,-5 8,-10 11,-10 2,0 4,5 4,10 0,6 -5,10 -11,10 -5,0 -7,-4 -4,-10 z"
       id="path412" />
    <path
       d="m 3095,10690 c -14,-16 -15,-23 -6,-34 7,-8 10,-20 7,-25 -4,-5 -2,-12 4,-16 5,-3 10,-11 10,-17 0,-7 -5,-6 -14,1 -8,7 -17,8 -20,3 -3,-6 0,-14 7,-19 40,-31 87,-17 87,25 0,31 -32,68 -49,57 -6,-3 -11,-2 -11,3 0,15 26,22 39,9 6,-6 14,-7 18,-3 9,8 -24,36 -42,36 -7,0 -20,-9 -30,-20 z m 55,-95 c -19,-23 -26,-18 -26,19 0,32 0,33 20,15 16,-15 17,-21 6,-34 z"
       id="path414" />
    <path
       d="m 2970,10690 c 0,-5 9,-10 19,-10 11,0 22,-8 24,-17 3,-11 5,-7 6,10 1,22 -3,27 -24,27 -14,0 -25,-4 -25,-10 z"
       id="path416" />
    <path
       d="m 3212,10678 c -7,-7 -11,-35 -11,-62 l 2,-51 6,42 c 9,51 16,60 36,43 25,-21 27,-5 2,18 -18,17 -26,19 -35,10 z"
       id="path418" />
    <path
       d="m 3000,10613 c 0,-6 -9,-13 -21,-16 -31,-8 -14,-25 21,-22 40,3 44,8 20,30 -11,10 -20,13 -20,8 z"
       id="path420" />
    <path
       d="m 3520,10605 c 0,-13 4,-14 20,-5 17,9 22,7 29,-12 5,-13 5,-25 0,-28 -8,-6 -29,-55 -29,-71 0,-19 19,-8 29,19 7,15 19,40 27,55 12,22 13,31 4,43 -17,20 -80,19 -80,-1 z"
       id="path422" />
    <path
       d="m 3658,10593 c -28,-7 -32,-52 -7,-79 12,-13 26,-21 30,-18 5,3 9,-2 9,-10 0,-9 -9,-16 -20,-16 -11,0 -20,7 -20,15 0,8 -7,15 -15,15 -16,0 -10,-29 9,-42 19,-13 53,-9 67,8 10,13 10,20 0,36 -9,14 -9,23 -1,33 22,26 -14,66 -52,58 z m 38,-50 c -4,-4 -11,-1 -16,7 -16,25 -11,35 7,17 9,-9 13,-20 9,-24 z"
       id="path424" />
    <path
       d="m 3185,10550 c -3,-5 3,-14 14,-19 26,-14 31,-14 31,3 0,16 -37,29 -45,16 z"
       id="path426" />
    <path
       d="m 2650,10267 c -19,-5 -28,-12 -20,-14 9,-2 33,3 55,11 46,17 17,20 -35,3 z"
       id="path428" />
    <path
       d="m 2535,10234 -30,-14 39,5 c 22,2 44,9 50,15 15,15 -23,12 -59,-6 z"
       id="path430" />
    <path
       d="m 2770,9760 c -44,-8 -105,-40 -150,-78 -44,-38 -33,-51 22,-26 57,26 181,26 220,0 15,-10 33,-16 40,-13 21,8 -83,48 -139,54 -29,3 -58,1 -65,-4 -21,-16 -47,-23 -53,-13 -7,12 89,57 140,65 63,10 225,-46 283,-98 23,-21 30,-57 11,-57 -24,0 -106,24 -127,38 -12,8 -25,12 -28,10 -9,-10 63,-46 105,-53 35,-6 41,-10 41,-32 0,-28 -17,-63 -30,-63 -6,0 -10,6 -10,14 0,8 -15,27 -34,44 -28,25 -46,31 -103,36 -67,7 -156,-4 -193,-24 -10,-5 -28,-10 -38,-10 -11,0 -30,-11 -43,-25 -21,-21 -33,-25 -91,-25 -37,0 -70,-5 -73,-11 -4,-6 -5,-12 -4,-13 10,-9 159,23 180,37 29,21 62,22 97,3 67,-36 117,-47 196,-45 45,1 91,-1 103,-5 20,-6 25,-1 42,36 34,79 43,116 31,137 -29,55 -249,135 -330,121 z m 130,-213 c 0,-31 -18,-47 -51,-47 -32,0 -59,23 -59,51 0,16 7,19 55,19 51,0 55,-2 55,-23 z m -126,-9 c 21,-30 13,-34 -30,-13 -28,13 -33,19 -23,26 22,14 37,10 53,-13 z m 211,-4 c 14,-9 25,-21 25,-26 0,-5 -13,0 -29,11 -16,12 -33,21 -37,21 -5,0 2,-7 14,-16 33,-23 27,-34 -19,-34 -33,0 -40,3 -35,16 3,9 6,19 6,24 0,7 17,15 43,19 4,0 19,-6 32,-15 z"
       id="path432" />
    <path
       d="m 3500,9596 c -66,-14 -100,-32 -100,-51 0,-8 -13,-29 -28,-47 -35,-40 -62,-121 -62,-184 0,-67 11,-48 20,36 7,66 35,140 51,140 4,0 10,-22 14,-48 l 6,-49 52,-13 c 29,-7 101,-14 162,-16 100,-3 110,-5 127,-26 l 18,-23 v 22 c 0,49 -136,124 -227,125 -29,0 -67,-5 -84,-12 -34,-15 -49,-4 -49,35 0,19 7,20 175,22 l 174,2 46,-34 c 25,-19 47,-35 50,-35 3,0 5,14 5,31 0,42 -69,112 -125,128 -51,14 -154,13 -225,-3 z m 234,-20 c 40,-17 96,-70 96,-91 0,-21 -6,-19 -47,12 l -36,28 -158,-3 c -160,-3 -185,2 -159,33 27,33 240,48 304,21 z m -96,-157 c 60,-25 66,-39 17,-39 -26,0 -33,3 -29,15 4,8 2,15 -4,15 -5,0 -12,-7 -16,-15 -8,-22 -53,-18 -78,7 -18,18 -20,18 -15,3 7,-16 3,-17 -35,-11 -51,8 -54,11 -39,30 26,31 118,28 199,-5 z"
       id="path434" />
    <path
       d="m 3311,9185 c -1,-28 3,-66 9,-85 13,-47 -18,-112 -71,-146 -55,-34 -82,-31 -133,16 -45,42 -96,55 -96,25 0,-22 -17,-18 -34,7 -20,28 -20,67 -1,92 22,30 17,45 -5,17 -31,-36 -27,-104 6,-130 36,-28 64,-28 57,0 -7,27 -1,24 64,-26 29,-22 50,-46 48,-52 -2,-7 3,-29 11,-48 17,-42 11,-75 -16,-75 -24,0 -30,20 -20,65 6,27 5,34 -2,27 -6,-6 -12,-31 -12,-54 -1,-43 -1,-43 34,-43 34,0 35,1 35,40 0,22 -4,50 -8,63 -7,17 -4,23 10,27 10,3 34,14 54,24 33,16 37,16 47,2 9,-13 13,-14 20,-2 7,10 11,10 14,1 7,-21 42,-2 57,30 8,20 10,41 5,58 -7,25 -8,23 -14,-18 -3,-25 -9,-51 -13,-57 -11,-18 -27,-16 -27,2 0,8 -7,15 -15,15 -19,0 -19,-2 5,45 23,45 24,75 5,165 l -13,65 z"
       id="path436" />
    <path
       d="m 2762,8788 c 3,-7 14,-14 26,-16 12,-2 27,-13 33,-24 13,-23 55,-74 82,-97 11,-9 33,-28 50,-44 30,-26 50,-35 90,-41 9,-1 20,-5 23,-9 10,-9 104,-8 129,2 13,5 -3,8 -45,8 -105,-1 -163,24 -244,105 -38,38 -66,71 -63,74 5,6 156,-39 186,-56 34,-17 146,-29 219,-21 40,4 75,4 77,1 6,-9 -42,-58 -74,-74 -34,-18 -39,-26 -16,-26 8,0 40,24 70,54 37,36 67,56 90,60 53,10 42,22 -19,22 -30,-1 -52,-4 -50,-7 8,-13 -44,-18 -146,-15 -92,3 -116,8 -195,39 -99,39 -97,44 20,50 33,2 8,4 -55,4 -64,0 -128,5 -143,11 -36,15 -50,15 -45,0 z"
       id="path438" />
    <path
       d="m 3080,8755 c 9,-11 32,-15 80,-15 39,0 84,-7 105,-16 53,-22 57,-8 4,15 -34,16 -57,19 -105,14 -40,-4 -64,-2 -68,6 -4,6 -12,11 -18,11 -7,0 -6,-6 2,-15 z"
       id="path440" />
    <path
       d="m 4065,9623 c 26,-26 27,-32 22,-93 -3,-36 -15,-94 -27,-130 -18,-59 -42,-166 -56,-260 -4,-29 -3,-32 6,-17 6,9 24,77 40,150 15,72 35,163 44,201 23,97 4,176 -42,176 -10,0 -6,-9 13,-27 z"
       id="path442" />
    <path
       d="m 2176,9597 c -19,-19 -26,-37 -26,-66 0,-22 3,-42 8,-44 4,-3 5,14 4,38 -3,36 0,45 24,64 15,12 24,24 21,27 -3,3 -17,-5 -31,-19 z"
       id="path444" />
    <path
       d="m 2240,9612 c 0,-12 19,-26 26,-19 2,2 -2,10 -11,17 -9,8 -15,8 -15,2 z"
       id="path446" />
    <path
       d="m 2240,9419 c 0,-8 7,-24 16,-35 14,-18 15,-18 8,6 -8,31 -24,50 -24,29 z"
       id="path448" />
    <path
       d="m 2203,9075 c -99,-33 -173,-181 -173,-347 0,-119 36,-203 213,-493 103,-170 143,-223 243,-322 193,-192 392,-269 626,-243 125,14 200,68 237,170 13,36 28,370 17,359 -4,-4 -11,-82 -15,-175 -6,-115 -14,-181 -25,-205 -21,-51 -94,-112 -150,-127 -58,-15 -188,-16 -275,-1 -93,16 -311,123 -311,153 0,2 37,-13 83,-36 113,-56 196,-78 292,-78 160,1 222,64 304,308 33,99 37,122 21,122 -5,0 -10,-8 -10,-19 0,-51 -77,-240 -128,-314 -44,-65 -87,-80 -211,-75 -122,6 -180,23 -294,85 -43,24 -82,41 -86,38 -5,-3 -43,29 -85,70 -72,72 -178,220 -260,365 -20,36 -47,83 -61,105 -63,105 -115,242 -115,307 0,42 35,200 51,230 15,28 80,98 91,98 5,0 6,-4 3,-10 -10,-16 8,-11 34,9 32,25 24,39 -16,26 z"
       id="path450" />
    <path
       d="m 4175,9053 c 11,-2 39,-13 62,-24 49,-22 53,-23 53,-10 0,11 -86,41 -114,40 -20,-1 -20,-1 -1,-6 z"
       id="path452" />
    <path
       d="m 4500,9012 c -16,-16 -33,-48 -40,-70 -10,-37 -30,-59 -30,-32 0,20 -89,100 -112,100 -18,0 -16,-4 17,-26 22,-14 55,-44 73,-66 l 32,-40 v -162 c 0,-140 4,-180 31,-311 27,-134 30,-168 30,-320 -1,-168 -14,-280 -46,-389 -30,-97 -15,-125 43,-79 20,16 63,46 95,67 32,21 56,40 54,43 -6,5 -72,-34 -131,-79 -28,-20 -53,-35 -56,-33 -4,2 2,37 12,77 35,138 48,240 48,382 0,135 -5,174 -47,396 -21,107 -24,373 -5,445 16,61 60,115 94,115 34,0 74,-40 88,-86 6,-22 17,-93 25,-159 16,-136 56,-348 80,-415 39,-113 100,-190 151,-190 40,0 81,27 112,73 16,23 31,49 34,57 17,42 112,168 179,237 42,43 93,101 113,128 49,65 83,93 124,101 82,16 152,-28 152,-96 0,-31 -11,-49 -67,-115 -38,-44 -83,-95 -101,-115 -18,-19 -47,-60 -64,-90 -18,-30 -54,-88 -82,-128 -106,-153 -106,-152 -37,-152 39,0 56,-6 81,-26 49,-42 70,-93 63,-152 -5,-48 -4,-51 24,-66 76,-39 155,-179 161,-287 4,-57 -2,-88 -43,-220 -26,-85 -51,-158 -56,-163 -5,-6 -9,-18 -9,-28 0,-10 -3,-18 -7,-18 -5,0 -19,-18 -32,-40 -14,-22 -26,-38 -28,-36 -6,5 59,211 84,266 14,30 26,66 26,80 2,22 -1,25 -28,22 l -30,-4 24,26 c 14,14 22,29 18,32 -3,4 -48,-33 -99,-81 -167,-158 -249,-195 -303,-140 -14,13 -25,29 -25,35 0,5 -4,10 -10,10 -40,0 29,-76 78,-86 46,-9 125,34 214,116 55,50 83,68 111,73 36,6 38,4 32,-16 -4,-12 -15,-41 -25,-63 -11,-23 -37,-101 -59,-172 -49,-159 -75,-212 -135,-276 -25,-27 -44,-52 -41,-54 3,-3 25,16 49,41 24,26 47,47 51,47 3,0 -6,-23 -21,-50 -34,-62 -105,-130 -172,-164 -44,-22 -65,-26 -149,-27 -78,-1 -92,-3 -68,-10 51,-17 173,-2 235,28 100,49 161,127 205,263 10,30 33,72 51,93 29,35 75,117 95,172 74,200 96,312 78,389 -27,111 -85,207 -151,250 -25,16 -28,24 -28,73 0,95 -62,170 -151,182 l -39,6 47,69 c 27,38 71,105 98,151 28,45 90,125 138,179 103,113 122,149 113,200 -10,51 -69,90 -136,90 -40,0 -56,-6 -99,-39 -28,-22 -51,-42 -51,-46 0,-3 -48,-57 -107,-120 -97,-103 -164,-194 -203,-274 -27,-54 -94,-115 -126,-115 -41,0 -98,58 -123,124 -33,90 -80,299 -91,408 -19,201 -36,260 -82,292 -36,26 -85,20 -118,-12 z"
       id="path454" />
    <path
       d="m 2146,9001 c -56,-62 -74,-277 -36,-427 27,-106 59,-168 88,-172 36,-5 41,28 20,162 -23,147 -21,275 5,303 18,21 22,33 9,33 -5,0 -19,-18 -31,-41 -20,-36 -22,-50 -18,-122 3,-45 12,-131 20,-191 22,-155 8,-178 -43,-72 -68,144 -73,417 -9,508 24,34 20,47 -5,19 z"
       id="path456" />
    <path
       d="m 1468,8603 c 17,-2 47,-2 65,0 17,2 3,4 -33,4 -36,0 -50,-2 -32,-4 z"
       id="path458" />
    <path
       d="m 1265,8584 -50,-13 53,5 c 29,2 62,9 75,14 22,9 22,9 -3,8 -14,0 -47,-6 -75,-14 z"
       id="path460" />
    <path
       d="m 1595,8590 c 11,-5 31,-9 45,-9 23,0 23,1 5,9 -11,5 -31,9 -45,9 -23,0 -23,-1 -5,-9 z"
       id="path462" />
    <path
       d="m 1715,8553 c 34,-17 85,-63 85,-75 0,-16 -33,-8 -113,27 -44,19 -88,35 -96,34 -18,0 16,-17 111,-53 97,-38 120,-33 96,19 -11,26 -73,65 -100,65 -7,-1 1,-8 17,-17 z"
       id="path464" />
    <path
       d="m 1285,8551 c -16,-4 38,-7 122,-7 83,1 146,4 140,8 -15,9 -220,8 -262,-1 z"
       id="path466" />
    <path
       d="M 1079,8516 C 917,8468 808,8399 672,8259 522,8104 444,7979 401,7830 c -11,-41 -33,-115 -47,-165 -36,-122 -45,-181 -39,-240 33,-313 47,-434 57,-474 6,-25 12,-113 13,-196 2,-148 28,-314 70,-448 19,-60 19,-9 0,57 -28,99 -45,192 -50,276 l -5,85 15,-45 15,-45 -4,45 -4,45 27,-59 c 68,-154 224,-457 263,-512 92,-131 123,-167 192,-223 80,-66 166,-121 187,-121 8,1 1,8 -16,17 -60,32 -174,124 -239,194 -96,101 -148,185 -260,414 -154,314 -186,429 -220,797 -15,151 -12,185 19,253 51,111 108,147 250,156 l 90,5 -90,2 c -76,2 -98,-2 -141,-22 -59,-27 -110,-84 -126,-141 -6,-22 -15,-44 -20,-50 -11,-13 -10,72 2,109 5,17 17,58 26,91 9,33 22,80 29,105 7,25 21,74 31,110 10,36 27,83 38,105 63,128 254,344 387,438 78,55 189,101 296,123 43,9 80,18 82,20 13,12 -85,-1 -150,-20 z"
       id="path468" />
    <path
       d="m 2290,8456 c 0,-3 19,-50 45,-111 7,-16 25,-59 40,-95 26,-60 42,-96 120,-265 31,-66 56,-108 61,-102 2,2 -13,39 -35,83 -21,43 -45,95 -54,114 -8,19 -42,96 -75,170 -32,74 -65,152 -73,173 -7,20 -17,37 -21,37 -4,0 -8,-2 -8,-4 z"
       id="path470" />
    <path
       d="m 3507,8018 c -15,-77 -26,-142 -24,-144 6,-7 35,114 48,199 19,128 5,96 -24,-55 z"
       id="path472" />
    <path
       d="m 3141,8133 c -2,-21 -93,-124 -120,-135 -22,-10 -23,-12 -7,-16 33,-7 145,120 133,151 -4,8 -6,8 -6,0 z"
       id="path474" />
    <path
       d="m 5167,8044 c -16,-18 -27,-39 -25,-44 2,-6 18,9 35,34 38,54 31,60 -10,10 z"
       id="path476" />
    <path
       d="m 2883,7974 c -14,-38 71,-59 111,-29 27,21 12,31 -16,11 -28,-20 -52,-20 -68,-1 -11,13 -6,15 31,15 32,0 40,3 29,10 -25,16 -80,12 -87,-6 z"
       id="path478" />
    <path
       d="m 5102,7899 c -13,-39 -21,-73 -19,-75 5,-5 21,30 37,81 7,22 15,46 17,53 3,6 1,12 -3,12 -5,0 -19,-32 -32,-71 z"
       id="path480" />
    <path
       d="m 3451,7796 c -49,-152 -129,-271 -214,-321 -62,-35 -135,-58 -192,-59 -56,-1 -176,19 -248,41 -26,8 -53,13 -60,10 -6,-2 8,-10 33,-17 25,-6 68,-19 95,-28 80,-25 246,-21 318,7 31,12 57,27 57,32 0,5 6,9 13,9 18,0 95,83 135,146 37,58 95,209 89,233 -1,9 -13,-15 -26,-53 z"
       id="path482" />
    <path
       d="m 4910,7836 c -32,-13 -33,-15 -9,-15 14,-1 30,4 36,10 24,24 83,-66 83,-127 0,-49 -30,-82 -81,-90 -38,-6 -61,12 -72,54 -8,33 11,94 36,114 12,9 19,20 15,23 -11,11 -65,-54 -71,-84 -12,-59 28,-131 73,-131 34,0 95,37 108,65 18,38 15,66 -13,120 -27,54 -26,62 3,46 42,-23 62,-61 62,-120 0,-92 -34,-130 -202,-227 -75,-44 -198,-156 -177,-162 5,-2 36,22 67,55 32,32 82,70 115,86 31,16 67,37 80,47 85,71 102,89 118,128 22,50 24,80 8,131 -22,71 -104,106 -179,77 z"
       id="path484" />
    <path
       d="m 4775,7794 c -33,-13 -72,-29 -87,-35 -16,-6 -28,-15 -28,-21 0,-5 3,-8 8,-6 49,25 116,53 155,64 26,8 47,17 47,19 0,10 -38,2 -95,-21 z"
       id="path486" />
    <path
       d="m 5361,7784 c -16,-21 -55,-86 -86,-146 -71,-136 -123,-227 -153,-263 -25,-31 -40,-28 -23,3 15,28 14,97 -1,110 -30,24 -93,18 -120,-13 -12,-14 -28,-23 -35,-21 -31,12 -17,-78 16,-99 6,-3 8,-12 4,-21 -3,-8 9,-45 27,-82 46,-95 49,-103 53,-142 3,-19 3,-10 2,21 -2,40 -12,73 -36,120 -19,35 -35,67 -37,72 -6,12 19,8 32,-6 8,-8 29,-11 55,-9 56,6 96,55 191,237 20,39 48,89 63,113 15,23 43,67 62,97 40,62 31,82 -14,29 z m -273,-344 c 5,-86 -39,-122 -98,-80 -41,29 -41,69 1,105 23,18 41,25 63,23 29,-3 31,-6 34,-48 z"
       id="path488" />
    <path
       d="m 4317,7646 c -21,-31 -34,-81 -19,-72 6,3 13,20 17,36 4,17 11,28 16,24 9,-5 4,-62 -8,-94 -7,-19 -102,-376 -109,-410 -4,-19 -3,-21 4,-10 14,21 55,157 80,260 11,47 27,110 36,140 17,61 21,136 7,144 -5,3 -16,-5 -24,-18 z"
       id="path490" />
    <path
       d="m 920,7581 c 0,-5 7,-12 16,-15 24,-9 28,-7 14,9 -14,17 -30,20 -30,6 z"
       id="path492" />
    <path
       d="m 4419,7554 c -10,-12 -14,-44 -13,-108 1,-140 61,-308 145,-402 29,-34 69,-59 69,-44 0,18 27,11 102,-29 116,-60 165,-73 213,-58 22,7 47,17 55,22 27,17 60,67 60,89 0,15 -6,9 -20,-20 -22,-45 -80,-84 -124,-84 -35,0 -134,35 -156,55 -22,20 -117,55 -147,55 -69,0 -206,328 -188,449 4,25 11,54 17,64 13,25 4,32 -13,11 z"
       id="path494" />
    <path
       d="m 970,7556 c 0,-8 101,-58 106,-53 6,5 -55,42 -85,52 -11,3 -21,4 -21,1 z"
       id="path496" />
    <path
       d="m 4267,7516 c -9,-27 -17,-57 -16,-65 0,-9 9,9 20,39 11,30 18,59 16,64 -2,6 -11,-11 -20,-38 z"
       id="path498" />
    <path
       d="m 1090,7496 c 0,-3 28,-19 63,-36 79,-41 216,-116 265,-147 15,-9 57,-41 95,-70 66,-53 93,-64 40,-16 -79,70 -169,128 -355,227 -81,42 -108,53 -108,42 z"
       id="path500" />
    <path
       d="m 4227,7378 c -4,-18 -9,-44 -13,-58 -5,-17 -3,-22 4,-15 6,6 13,31 17,58 8,53 1,65 -8,15 z"
       id="path502" />
    <path
       d="m 1062,7317 c -9,-10 -6,-24 9,-54 28,-57 125,-145 269,-245 93,-65 280,-205 340,-255 100,-83 247,-240 269,-284 20,-44 20,-79 -1,-79 -8,0 -75,46 -88,60 -29,33 -211,140 -237,140 -7,0 -25,7 -38,16 -13,8 -36,14 -52,12 -23,-2 -18,-6 32,-22 89,-28 179,-77 280,-151 106,-77 130,-81 129,-20 -1,52 -60,142 -135,205 -30,25 -87,76 -128,113 -41,38 -88,78 -106,90 -18,12 -78,56 -133,97 -54,41 -135,101 -178,132 -194,141 -296,297 -151,232 85,-39 206,-143 497,-429 113,-111 215,-204 227,-207 12,-3 30,0 39,6 36,27 -3,108 -102,211 -50,52 -93,111 -155,212 -32,53 -59,93 -59,87 0,-12 101,-185 130,-221 11,-14 41,-49 67,-78 89,-98 113,-136 113,-180 0,-58 -39,-30 -249,178 -238,236 -281,276 -375,350 -109,87 -187,117 -214,84 z"
       id="path504" />
    <path
       d="m 4191,7238 c -5,-29 -13,-78 -16,-108 -3,-30 -10,-82 -15,-115 -37,-246 -56,-619 -42,-825 9,-118 9,-112 11,128 1,198 4,253 14,250 6,-3 14,-16 17,-31 12,-63 99,-110 164,-89 29,9 28,10 -21,11 -28,1 -58,4 -67,7 -28,11 -6,24 39,24 24,0 46,4 49,8 3,5 -27,7 -67,4 l -73,-4 -11,38 c -22,74 -25,114 -13,165 13,53 16,56 159,193 129,123 146,232 21,139 -14,-10 -55,-49 -92,-88 -37,-38 -71,-66 -74,-62 -4,4 -2,44 5,90 7,45 12,102 12,127 -1,25 3,76 10,113 13,81 5,102 -10,25 z m 205,-229 c -12,-30 -95,-116 -191,-200 -17,-14 -36,-35 -43,-45 -11,-17 -12,-14 -8,21 3,22 6,50 6,62 0,15 5,20 18,17 11,-3 27,8 47,34 41,53 168,163 178,153 4,-4 1,-23 -7,-42 z"
       id="path506" />
    <path
       d="m 4584,6961 c 9,-60 45,-145 77,-184 45,-55 182,-123 231,-115 18,3 13,7 -22,17 -86,25 -141,55 -183,100 -45,48 -56,70 -82,164 -18,65 -31,76 -21,18 z"
       id="path508" />
    <path
       d="m 4639,6976 c 17,-21 182,-102 226,-111 17,-4 48,-13 70,-20 100,-33 156,-46 177,-42 20,4 20,4 -5,6 -15,0 -35,5 -45,10 -9,5 -51,19 -92,31 -117,34 -159,50 -245,94 -103,52 -103,52 -86,32 z"
       id="path510" />
    <path
       d="m 5410,6970 c 0,-5 4,-10 9,-10 17,0 41,-69 41,-120 0,-60 -49,-164 -103,-220 -76,-79 -239,-111 -377,-75 -150,38 -309,139 -340,216 -7,17 -19,28 -28,27 -8,-2 -17,3 -20,11 -3,8 0,11 7,7 16,-10 14,26 -3,50 -8,10 -18,16 -22,12 -9,-10 17,-126 34,-147 10,-14 11,-12 6,12 -7,31 11,38 21,7 11,-33 116,-120 190,-155 150,-72 289,-92 402,-57 113,35 166,85 227,211 30,63 33,122 10,181 -15,38 -54,74 -54,50 z"
       id="path512" />
    <path
       d="m 5153,6793 c 9,-2 25,-2 35,0 9,3 1,5 -18,5 -19,0 -27,-2 -17,-5 z"
       id="path514" />
    <path
       d="m 5478,6735 c -4,-16 -4,-67 1,-112 7,-72 13,-89 50,-143 22,-34 41,-66 41,-71 0,-5 4,-9 10,-9 14,0 -5,44 -34,83 -40,52 -50,86 -56,187 -4,70 -7,87 -12,65 z"
       id="path516" />
    <path
       d="m 4621,6673 c -1,-18 4,-33 9,-33 12,0 12,17 0,45 -7,17 -9,15 -9,-12 z"
       id="path518" />
    <path
       d="m 1405,6630 c -9,-15 22,-55 66,-85 22,-16 101,-47 177,-70 149,-46 169,-54 220,-94 38,-30 97,-130 107,-181 12,-64 26,-86 72,-116 73,-46 129,-106 137,-145 3,-20 2,-59 -4,-88 -16,-84 -12,-117 19,-174 16,-28 32,-74 36,-102 4,-27 18,-71 31,-97 27,-53 31,-118 13,-195 -26,-111 -186,-382 -267,-453 -61,-54 -153,-97 -247,-115 -84,-16 -106,-25 -59,-25 40,1 169,36 221,61 64,31 139,104 199,193 50,74 74,86 39,19 -24,-47 -65,-160 -70,-195 -3,-20 5,-7 19,32 12,36 31,83 40,105 10,22 26,60 37,84 10,24 19,52 19,62 0,11 5,19 10,19 6,0 10,5 10,12 0,6 14,40 31,75 17,35 28,70 25,78 -3,9 0,12 8,9 8,-3 16,5 20,20 6,25 31,56 45,56 13,0 40,-62 56,-130 35,-152 36,-166 14,-233 -12,-34 -25,-66 -29,-72 -4,-5 -19,-44 -33,-85 -29,-83 -43,-209 -29,-255 7,-24 10,-6 15,80 6,103 25,183 67,270 5,11 14,33 20,49 7,18 15,26 24,23 10,-4 17,4 21,24 7,31 34,39 53,16 14,-17 42,-140 42,-187 0,-21 5,-42 10,-45 13,-8 12,0 -4,105 -16,109 -33,144 -69,148 -17,2 -29,-2 -33,-12 -9,-24 -24,-9 -24,24 0,26 -16,98 -39,175 -5,17 -12,42 -15,57 -13,59 -65,77 -91,31 -14,-27 -15,-24 -9,48 6,68 4,81 -20,130 -14,30 -32,83 -40,118 -8,34 -26,81 -40,102 -30,45 -32,66 -11,148 12,46 14,69 6,98 -12,44 -71,104 -144,149 -30,19 -50,38 -53,54 -16,71 -47,146 -78,188 -47,64 -118,104 -260,147 -65,20 -133,43 -150,52 -48,25 -96,64 -96,79 0,7 14,15 33,17 l 32,4 -37,1 c -20,1 -40,-2 -43,-8 z"
       id="path520" />
    <path
       d="m 432,6605 c 0,-16 2,-22 5,-12 2,9 2,23 0,30 -3,6 -5,-1 -5,-18 z"
       id="path522" />
    <path
       d="m 4420,6555 c -97,-50 -92,-60 7,-15 36,17 67,29 69,27 7,-7 -62,-65 -101,-86 -22,-12 -32,-21 -22,-21 27,0 91,44 126,87 56,68 39,69 -79,8 z"
       id="path524" />
    <path
       d="m 4574,6543 c -20,-32 -50,-77 -66,-101 -28,-40 -34,-70 -9,-40 19,21 121,182 121,191 0,17 -12,3 -46,-50 z"
       id="path526" />
    <path
       d="m 4639,6581 c 6,-10 10,-84 9,-167 -2,-137 0,-153 22,-197 40,-83 160,-170 290,-209 89,-27 297,-30 353,-5 62,29 116,86 157,167 38,76 74,179 65,188 -2,3 -6,-1 -9,-9 -36,-121 -98,-241 -144,-278 -84,-66 -109,-73 -244,-68 -68,3 -141,9 -163,14 -96,23 -218,103 -273,180 -27,38 -40,142 -34,264 4,94 -5,139 -29,139 -6,0 -6,-6 0,-19 z"
       id="path528" />
    <path
       d="m 445,6516 c 10,-72 27,-105 20,-37 -4,30 -11,62 -16,70 -7,11 -8,1 -4,-33 z"
       id="path530" />
    <path
       d="m 471,6401 c -1,-14 3,-38 9,-55 5,-17 19,-74 31,-126 12,-52 26,-99 30,-104 5,-6 9,-21 8,-35 0,-21 -6,-14 -25,29 -14,30 -30,77 -36,103 -5,27 -12,46 -16,43 -17,-17 59,-233 78,-221 5,3 7,0 5,-8 -3,-7 12,-51 33,-98 21,-46 45,-102 52,-124 7,-22 16,-44 20,-50 4,-5 10,-23 13,-40 9,-49 104,-365 112,-373 12,-11 -16,110 -40,178 -42,115 -68,214 -59,217 7,2 -2,30 -20,67 -41,82 -66,149 -95,251 -58,205 -71,255 -72,271 0,11 -6,37 -14,59 -10,31 -13,35 -14,16 z"
       id="path532" />
    <path
       d="m 4467,6374 c -4,-4 -7,-17 -7,-28 1,-19 1,-20 11,-3 11,19 8,43 -4,31 z"
       id="path534" />
    <path
       d="m 5571,6348 c 1,-13 -6,-52 -15,-88 -43,-171 -75,-235 -142,-281 -78,-54 -136,-69 -254,-69 -119,1 -199,16 -282,53 -81,36 -125,73 -169,142 -21,33 -39,53 -39,44 0,-23 54,-103 86,-127 16,-12 35,-27 43,-33 41,-35 142,-71 269,-95 88,-17 96,-17 175,0 45,10 101,26 123,36 103,45 170,148 202,310 9,50 19,90 22,90 8,0 58,-109 74,-160 8,-25 23,-90 32,-145 14,-85 15,-111 5,-175 -28,-168 -71,-286 -159,-437 -32,-55 -45,-67 -105,-98 -37,-19 -102,-48 -145,-65 -107,-41 -182,-86 -182,-108 0,-16 9,-18 63,-18 87,1 156,38 261,137 56,53 108,92 156,116 40,19 98,53 129,73 141,94 145,95 346,96 99,0 212,4 251,8 69,8 75,7 145,-25 66,-30 82,-34 163,-34 89,0 91,0 100,-27 23,-65 -80,-178 -149,-163 -16,3 -50,7 -75,9 -25,1 -63,6 -85,10 -38,7 -39,6 -15,-7 14,-8 50,-18 80,-22 136,-16 211,-68 250,-173 19,-49 20,-62 10,-101 -22,-88 -38,-90 -146,-19 -81,52 -149,87 -171,88 -25,0 -13,-38 20,-62 49,-38 137,-80 155,-75 13,4 12,7 -7,13 -27,8 -129,61 -148,76 -20,16 -15,31 8,25 38,-10 179,-102 175,-114 -3,-6 8,-16 23,-21 66,-23 98,-158 56,-230 -25,-42 -80,-61 -116,-41 -13,8 -35,15 -49,15 -14,1 -41,4 -60,8 l -35,6 30,-14 c 17,-9 38,-15 48,-16 10,0 35,-9 57,-20 30,-15 40,-27 45,-53 12,-62 -41,-150 -101,-166 -31,-9 -43,-7 -83,14 -25,14 -55,25 -66,24 -14,0 -11,-4 12,-12 50,-19 53,-30 4,-23 -54,8 -68,16 -50,27 11,7 10,9 -3,9 -28,0 -21,-25 10,-40 15,-7 47,-14 71,-15 49,-4 61,-16 61,-62 0,-72 -130,-130 -302,-135 -42,-1 -72,3 -82,11 -21,18 -11,31 24,31 102,0 173,91 151,192 -11,46 -11,44 42,111 35,45 38,100 8,158 -12,23 -21,42 -19,43 119,67 150,131 109,223 -21,45 -49,60 -80,44 -11,-6 -53,-11 -93,-11 -65,1 -71,2 -55,15 11,7 49,17 85,20 91,9 94,10 121,51 20,32 23,46 19,107 -3,59 -7,72 -28,89 -14,11 -25,25 -25,31 0,17 -62,26 -101,15 -33,-9 -73,-52 -60,-65 3,-4 19,6 34,20 43,42 107,33 145,-19 28,-37 28,-134 1,-171 -18,-24 -30,-29 -88,-35 -70,-7 -131,-34 -131,-59 0,-19 84,-24 155,-9 53,12 55,12 77,-14 17,-20 23,-39 23,-75 0,-40 -5,-51 -32,-77 -18,-17 -48,-41 -65,-53 -36,-25 -39,-33 -20,-53 38,-38 45,-127 14,-160 -60,-63 -64,-74 -54,-126 9,-42 8,-57 -7,-89 -22,-50 -74,-85 -136,-91 -55,-5 -70,-24 -38,-46 12,-9 19,-18 16,-21 -3,-4 -70,-9 -149,-12 -190,-7 -344,20 -494,87 -69,31 -104,40 -155,40 h -58 l -7,68 c -8,83 -40,291 -60,392 -8,41 -20,100 -25,130 -5,30 -14,71 -20,90 -5,19 -10,47 -10,62 0,30 -25,92 -49,121 -17,21 -66,22 -141,3 -30,-7 -85,-16 -121,-19 -36,-3 -126,-18 -200,-33 -119,-23 -147,-26 -256,-20 -110,6 -126,5 -161,-13 -102,-52 -104,-168 -9,-471 11,-36 24,-69 29,-74 12,-15 10,9 -6,51 -74,199 -96,398 -49,445 32,32 43,15 44,-70 0,-42 4,-86 9,-97 6,-13 8,16 5,79 -2,54 -6,101 -9,104 -4,3 -6,11 -6,18 0,11 33,13 158,13 107,-1 178,3 222,14 36,8 121,22 190,32 69,9 152,23 186,31 33,8 67,14 76,14 24,0 48,-45 55,-100 3,-27 9,-47 14,-44 4,2 11,-12 14,-33 4,-21 24,-127 46,-235 38,-195 72,-435 63,-450 -10,-16 -44,13 -71,59 -15,27 -34,83 -44,132 -14,69 -17,78 -18,45 -1,-48 30,-155 58,-201 11,-17 32,-37 48,-45 23,-11 28,-20 26,-47 -3,-71 -64,-91 -276,-91 -137,0 -327,-15 -387,-31 -19,-5 -48,-20 -64,-34 -33,-28 -42,-31 -49,-12 -3,7 -6,5 -6,-5 -1,-12 -9,-18 -25,-18 -21,0 -26,7 -41,73 -9,39 -20,79 -24,87 -5,9 -12,30 -15,48 -4,17 -12,35 -18,38 -8,5 -9,-1 -4,-17 22,-69 56,-207 56,-226 0,-22 -28,-44 -60,-49 -8,-2 -32,-5 -53,-9 -21,-3 -118,-12 -215,-20 -199,-16 -266,-31 -437,-100 l -120,-48 -140,-2 c -77,-2 -151,-7 -165,-13 -34,-13 258,-5 320,10 25,5 88,27 140,48 143,58 190,70 313,80 299,25 352,32 389,51 21,11 38,24 38,29 0,5 14,7 31,3 25,-5 41,1 87,34 56,39 60,40 192,52 74,8 215,17 314,20 l 179,7 28,32 c 18,20 29,43 29,62 0,27 3,30 33,32 59,3 101,-3 142,-21 79,-36 181,-70 251,-86 123,-28 577,-7 695,31 110,36 159,87 145,154 -4,23 -2,30 10,30 38,0 82,33 108,79 26,50 35,124 16,136 -15,9 -12,25 4,25 24,0 75,34 88,59 7,14 13,56 12,96 0,57 -5,78 -22,103 -23,31 -23,31 -2,42 57,31 68,144 20,226 -30,54 -82,104 -106,104 -8,0 -14,7 -14,15 0,8 7,15 17,15 23,0 80,46 97,78 8,15 17,43 21,63 11,57 -15,72 -128,73 -75,1 -101,5 -142,25 -27,13 -60,28 -71,33 -12,6 -46,7 -75,4 -30,-4 -146,-10 -259,-14 -145,-5 -212,-11 -230,-21 -14,-8 -84,-49 -156,-92 -72,-44 -136,-79 -143,-79 -6,0 4,24 23,53 45,71 80,149 105,238 12,41 28,96 36,123 39,128 -5,403 -83,524 -40,62 -52,71 -51,40 z M 5415,5264 c -71,-64 -143,-109 -193,-121 -43,-11 -82,-7 -82,7 0,10 71,50 130,74 25,10 74,33 110,51 36,19 70,33 75,34 6,0 -12,-20 -40,-45 z"
       id="path536" />
    <path
       d="m 4443,6280 c 0,-25 2,-35 4,-22 2,12 2,32 0,45 -2,12 -4,2 -4,-23 z"
       id="path538" />
    <path
       d="m 4432,6195 c 0,-16 2,-22 5,-12 2,9 2,23 0,30 -3,6 -5,-1 -5,-18 z"
       id="path540" />
    <path
       d="m 1110,6176 c 0,-19 18,-31 75,-50 94,-30 150,-38 335,-45 206,-9 220,-12 432,-103 113,-48 154,-55 142,-25 -12,31 -115,99 -214,141 -109,47 -182,59 -365,62 -99,1 -214,5 -255,8 -61,4 -70,3 -50,-6 15,-7 125,-14 270,-18 273,-9 299,-14 452,-88 86,-43 166,-102 137,-102 -9,0 -65,21 -125,46 -197,83 -203,85 -399,94 -190,9 -357,37 -384,65 -13,13 -13,15 -1,16 10,0 8,4 -5,9 -30,13 -45,12 -45,-4 z"
       id="path542" />
    <path
       d="m 4431,6144 c 0,-11 3,-14 6,-6 3,7 2,16 -1,19 -3,4 -6,-2 -5,-13 z"
       id="path544" />
    <path
       d="m 466,6096 c -5,-21 -6,-105 -4,-187 4,-113 2,-153 -8,-168 -8,-10 -24,-47 -38,-82 -13,-35 -40,-105 -59,-155 -57,-145 -71,-234 -65,-409 10,-278 -16,-431 -99,-592 -61,-119 -73,-165 -59,-233 27,-129 145,-236 306,-277 86,-23 193,-44 203,-40 6,2 -27,11 -72,21 -230,49 -336,112 -402,238 -32,59 -31,154 0,221 13,26 27,47 31,47 7,0 25,42 71,170 14,40 38,208 40,285 1,39 -2,123 -6,188 -6,85 -5,133 5,175 13,58 44,161 59,197 26,59 80,193 86,214 11,37 23,12 33,-74 l 9,-80 2,78 c 0,43 -4,87 -9,98 -18,32 6,21 35,-16 56,-75 135,-273 135,-342 0,-33 -20,-72 -42,-78 -35,-12 -61,36 -98,180 -11,45 -18,60 -19,42 -1,-35 23,-126 50,-184 25,-57 53,-71 88,-46 64,48 25,239 -86,411 -20,31 -43,62 -52,69 -13,9 -17,42 -21,190 -4,133 -7,168 -14,139 z"
       id="path546" />
    <path
       d="m 4092,6105 c 0,-16 2,-22 5,-12 2,9 2,23 0,30 -3,6 -5,-1 -5,-18 z"
       id="path548" />
    <path
       d="m 4417,6075 c -14,-59 -25,-221 -17,-270 6,-40 8,-27 9,68 0,65 6,127 12,138 5,11 9,37 7,57 l -3,37 z"
       id="path550" />
    <path
       d="m 4121,5813 c 1,-250 7,-299 43,-330 39,-33 53,-29 15,5 l -32,28 -9,195 c -5,107 -6,218 -3,247 4,34 3,52 -4,52 -8,0 -11,-63 -10,-197 z"
       id="path552" />
    <path
       d="m 4060,5859 c -18,-96 -24,-170 -28,-324 -2,-110 -1,-197 3,-193 4,4 6,76 6,160 -1,143 3,183 39,391 21,121 5,93 -20,-34 z"
       id="path554" />
    <path
       d="m 4337,5856 c -4,-10 -7,-25 -6,-34 0,-11 4,-9 10,7 5,13 8,29 6,35 -2,5 -6,2 -10,-8 z"
       id="path556" />
    <path
       d="m 4321,5788 c 0,-9 -4,-25 -7,-35 -5,-17 -5,-17 6,0 6,10 9,25 7,35 -4,15 -5,15 -6,0 z"
       id="path558" />
    <path
       d="m 698,5725 c -9,-9 128,-212 206,-305 127,-152 258,-274 375,-349 35,-23 73,-41 85,-41 14,0 4,9 -29,26 -78,42 -187,128 -284,224 -108,108 -176,192 -266,330 -80,122 -80,122 -87,115 z"
       id="path560" />
    <path
       d="m 4294,5616 c -10,-114 -12,-120 -40,-142 -20,-16 -24,-24 -13,-24 18,0 42,25 54,55 7,18 9,18 21,-10 l 14,-30 -6,38 c -4,20 -9,81 -13,135 l -6,97 z"
       id="path562" />
    <path
       d="m 4411,5588 c -1,-139 -10,-188 -34,-188 -7,0 -21,15 -30,33 l -18,32 7,-30 c 10,-52 39,-70 63,-41 21,25 31,127 22,231 l -8,100 z"
       id="path564" />
    <path
       d="m 5931,5457 c -31,-15 -37,-33 -14,-42 37,-14 191,-35 264,-35 90,0 239,-24 280,-45 16,-9 29,-11 29,-6 0,25 -218,74 -325,72 -58,-2 -229,19 -238,29 -5,4 5,11 23,15 37,8 148,-3 156,-16 3,-5 15,-9 27,-9 37,0 5,16 -65,34 -80,19 -105,20 -137,3 z"
       id="path566" />
    <path
       d="m 790,5318 c 0,-20 40,-122 52,-133 8,-7 9,-4 3,10 -4,11 -16,46 -27,78 -19,56 -28,70 -28,45 z"
       id="path568" />
    <path
       d="m 4036,5229 c -15,-103 -87,-159 -249,-194 -85,-19 -128,-15 -190,16 -29,15 -51,19 -88,15 -85,-9 -91,-27 -24,-83 25,-20 45,-41 45,-46 0,-10 -43,20 -112,79 -62,53 -127,84 -175,84 -36,0 -103,-26 -103,-40 0,-5 -24,-14 -54,-21 -48,-10 -61,-10 -103,6 -32,13 -77,19 -138,19 l -89,1 -23,-34 c -21,-31 -23,-45 -23,-150 0,-64 5,-172 10,-241 5,-74 5,-162 0,-215 -13,-140 -21,-360 -10,-300 17,94 28,410 23,646 l -6,237 26,26 c 22,21 35,26 79,26 29,0 77,-9 107,-21 69,-26 137,-28 182,-4 99,52 112,56 138,50 29,-7 123,-53 131,-63 12,-17 117,-99 132,-105 38,-14 28,18 -21,67 -28,29 -48,55 -45,59 15,14 110,6 153,-13 54,-25 118,-25 212,-1 98,25 141,44 176,80 33,33 57,102 51,147 -3,22 -6,15 -12,-27 z"
       id="path570" />
    <path
       d="m 850,5161 c 0,-28 101,-177 189,-281 31,-36 59,-67 62,-70 16,-14 110,-164 144,-230 54,-106 82,-148 147,-221 118,-133 148,-171 263,-325 196,-263 288,-354 358,-354 15,0 27,-4 27,-9 0,-5 15,-12 33,-15 34,-6 59,0 192,49 64,23 66,25 26,20 -24,-3 -55,-12 -71,-20 -43,-22 -117,-38 -146,-31 -25,7 -26,8 -8,21 19,13 19,15 0,77 -10,35 -21,104 -23,154 -5,97 16,195 86,409 60,184 79,191 82,30 0,-38 7,-115 14,-170 l 13,-100 -5,140 c -5,164 -18,244 -40,252 -23,9 -38,-17 -73,-130 -17,-56 -46,-147 -63,-202 -27,-88 -31,-113 -30,-210 0,-78 5,-121 17,-147 31,-71 16,-114 -29,-84 -41,27 -50,82 -48,296 1,171 4,209 27,310 33,145 38,164 70,284 27,102 32,137 18,120 -5,-5 -26,-81 -46,-169 -21,-88 -43,-173 -48,-190 -20,-60 -30,-163 -35,-345 -5,-195 3,-249 39,-295 29,-37 2,-32 -56,9 -47,33 -108,100 -189,206 -23,30 -48,61 -55,68 -6,8 -17,23 -24,35 -18,33 -105,144 -195,245 -118,134 -162,195 -226,318 -54,104 -90,154 -218,311 -66,81 -159,216 -159,231 0,6 -4,14 -10,17 -5,3 -10,2 -10,-4 z"
       id="path572" />
    <path
       d="m 2540,5052 c 0,-4 25,-8 56,-8 80,0 88,-12 80,-136 -4,-60 -2,-99 4,-103 9,-5 17,142 11,195 -4,33 -50,60 -102,60 -27,0 -49,-4 -49,-8 z"
       id="path574" />
    <path
       d="m 5068,4853 c -3,-76 -2,-163 2,-193 5,-38 8,5 9,138 0,105 -1,192 -2,192 -2,0 -6,-62 -9,-137 z"
       id="path576" />
    <path
       d="m 2450,4893 c -6,-32 -16,-79 -21,-105 -6,-26 -17,-104 -24,-174 -13,-131 -27,-167 -44,-123 -6,14 -10,17 -10,8 -1,-8 5,-24 13,-35 23,-30 37,-5 46,78 12,109 29,223 46,316 9,46 14,85 11,88 -3,3 -10,-21 -17,-53 z"
       id="path578" />
    <path
       d="m 4210,4828 c 0,-23 29,-108 51,-150 5,-10 9,-22 9,-27 0,-6 17,-47 38,-93 22,-46 45,-101 52,-123 10,-28 15,-35 18,-21 2,10 -1,28 -6,40 -57,115 -129,291 -141,344 -11,51 -21,66 -21,30 z"
       id="path580" />
    <path
       d="m 2675,4583 c 0,-108 3,-184 6,-167 10,43 10,337 1,351 -4,7 -8,-76 -7,-184 z"
       id="path582" />
    <path
       d="m 6395,4740 c -9,-14 13,-40 34,-40 13,1 13,3 -4,16 -19,15 -18,16 15,9 19,-4 45,-14 57,-22 12,-8 28,-13 34,-11 14,5 -93,58 -116,58 -7,0 -17,-5 -20,-10 z"
       id="path584" />
    <path
       d="m 1515,4685 c -5,-1 -37,-9 -70,-16 -33,-7 -77,-23 -97,-36 -32,-19 -38,-29 -38,-57 0,-20 8,-40 20,-51 11,-10 20,-13 20,-7 0,7 -4,12 -10,12 -15,0 -23,46 -11,68 16,30 105,60 210,71 51,6 96,13 99,16 6,5 -105,6 -123,0 z"
       id="path586" />
    <path
       d="m 4210,4522 c 0,-6 11,-35 24,-64 14,-29 32,-71 41,-92 8,-22 18,-36 21,-33 4,4 -10,46 -31,94 -37,87 -55,119 -55,95 z"
       id="path588" />
    <path
       d="m 6195,4431 c -43,-19 -109,-85 -120,-121 -10,-30 2,-38 14,-9 14,36 78,99 117,115 19,8 34,19 34,24 0,12 2,13 -45,-9 z"
       id="path590" />
    <path
       d="m 4385,4373 c 4,-10 17,-63 30,-118 20,-83 24,-93 24,-57 1,48 -38,192 -52,192 -5,0 -6,-8 -2,-17 z"
       id="path592" />
    <path
       d="m 2647,4188 c -10,-123 -8,-206 4,-213 20,-13 49,26 48,64 l -1,36 -12,-39 c -7,-22 -18,-42 -25,-44 -11,-4 -12,23 -6,137 8,152 2,193 -8,59 z"
       id="path594" />
    <path
       d="m 2830,4093 c 0,-51 18,-160 30,-181 17,-30 40,-94 40,-109 0,-13 -8,-14 -42,-9 -50,8 -42,-10 9,-20 29,-6 33,-3 39,20 7,29 6,32 -30,129 -19,49 -26,87 -26,137 0,40 -4,70 -10,70 -5,0 -10,-17 -10,-37 z"
       id="path596" />
    <path
       d="m 2242,4050 c 0,-19 4,-46 8,-60 7,-21 8,-19 8,15 0,22 -3,49 -8,60 -7,16 -9,13 -8,-15 z"
       id="path598" />
    <path
       d="m 2414,3960 c 3,-19 11,-39 17,-45 8,-7 9,0 4,25 -4,19 -12,40 -17,45 -7,7 -9,-1 -4,-25 z"
       id="path600" />
    <path
       d="m 674,3941 c 3,-4 22,-11 43,-14 21,-3 81,-13 133,-22 63,-11 171,-18 325,-20 127,-1 250,-8 275,-13 62,-14 271,-20 258,-7 -3,3 -59,8 -124,10 -66,2 -143,9 -173,14 -29,6 -135,11 -235,11 -171,0 -363,17 -451,39 -50,13 -58,13 -51,2 z"
       id="path602" />
    <path
       d="m 2265,3918 c 9,-30 48,-98 72,-123 42,-48 79,-65 135,-64 29,1 41,4 25,6 -15,2 -25,9 -22,14 4,5 -10,9 -30,9 -20,0 -49,7 -64,16 -32,19 -87,97 -97,137 -3,15 -10,27 -16,27 -5,0 -6,-10 -3,-22 z"
       id="path604" />
    <path
       d="m 2440,3886 c 0,-8 11,-28 25,-43 l 26,-28 -21,43 c -21,44 -30,52 -30,28 z"
       id="path606" />
    <path
       d="m 2718,3826 c -15,-13 -37,-31 -49,-40 -13,-8 -20,-18 -17,-21 3,-3 27,11 53,31 42,31 51,35 72,25 36,-16 41,-13 14,9 -30,25 -40,25 -73,-4 z"
       id="path608" />
    <path
       d="m 3010,3787 c -47,-16 -114,-33 -150,-37 l -65,-7 54,-2 c 50,-1 152,19 196,39 11,5 37,14 58,20 20,6 37,13 37,16 0,10 -52,-1 -130,-29 z"
       id="path610" />
    <path
       d="m 2550,3780 c 0,-5 7,-10 16,-10 8,0 12,5 9,10 -3,6 -10,10 -16,10 -5,0 -9,-4 -9,-10 z"
       id="path612" />
    <path
       d="m 2680,3740 -45,-7 42,-1 c 23,-1 45,3 48,8 3,6 5,9 3,8 -2,0 -23,-4 -48,-8 z"
       id="path614" />
  </g>
</svg>
