<?xml version="1.0" encoding="UTF-8" standalone="no"?>
<svg
   version="1.0"
   width="688pt"
   height="1242pt"
   viewBox="0 0 688 1242"
   preserveAspectRatio="xMidYMid"
   id="svg768"
   sodipodi:docname="timo1.svg"
   inkscape:version="1.2.2 (b0a84865, 2022-12-01)"
   xmlns:inkscape="http://www.inkscape.org/namespaces/inkscape"
   xmlns:sodipodi="http://sodipodi.sourceforge.net/DTD/sodipodi-0.dtd"
   xmlns="http://www.w3.org/2000/svg"
   xmlns:svg="http://www.w3.org/2000/svg">
  <defs
     id="defs772" />
  <sodipodi:namedview
     id="namedview770"
     pagecolor="#ffffff"
     bordercolor="#000000"
     borderopacity="0.25"
     inkscape:showpageshadow="2"
     inkscape:pageopacity="0.0"
     inkscape:pagecheckerboard="0"
     inkscape:deskcolor="#d1d1d1"
     inkscape:document-units="pt"
     showgrid="false"
     inkscape:zoom="0.11523438"
     inkscape:cx="459.9322"
     inkscape:cy="1024"
     inkscape:window-width="1344"
     inkscape:window-height="456"
     inkscape:window-x="0"
     inkscape:window-y="25"
     inkscape:window-maximized="0"
     inkscape:current-layer="svg768" />
  <g
     transform="matrix(0.1,0,0,-0.1,0.16287013,1242.8606)"
     fill="#000000"
     stroke="none"
     id="g766">
    <path
       d="m 3471,12414 c -80,-21 -130,-46 -267,-130 -117,-72 -174,-120 -174,-148 0,-7 -42,-51 -93,-98 -114,-105 -138,-148 -166,-294 -12,-60 -35,-156 -51,-213 -34,-118 -55,-266 -46,-329 5,-39 4,-43 -12,-36 -60,27 -105,-6 -142,-103 -59,-157 -74,-314 -46,-478 21,-123 47,-185 97,-230 35,-31 45,-35 93,-35 62,0 66,-5 66,-83 0,-29 5,-81 11,-117 6,-36 12,-105 14,-155 5,-115 -12,-447 -25,-504 -10,-40 -7,-62 5,-49 12,12 35,278 35,413 v 150 l 41,-80 c 61,-118 115,-188 230,-300 183,-177 355,-302 471,-342 96,-33 274,-34 413,-3 113,25 231,90 344,189 55,48 63,52 58,31 -4,-14 -14,-79 -22,-145 -41,-310 -86,-482 -175,-657 -78,-155 -140,-225 -230,-265 -94,-41 -268,-93 -343,-103 -118,-16 -176,-3 -322,70 -172,86 -209,112 -261,182 -143,195 -293,491 -295,584 -1,16 12,75 27,131 16,56 27,104 24,106 -3,3 -17,8 -32,12 -24,6 -40,-6 -160,-122 -174,-169 -279,-248 -343,-258 -249,-37 -1424,-441 -1589,-546 -26,-16 -57,-29 -71,-29 -40,0 -82,-45 -104,-113 -23,-72 -30,-108 -71,-392 C 310,7582 274,7379 216,7120 113,6654 59,6381 40,6230 21,6072 0,5795 1,5715 l 2,-80 8,70 c 4,39 15,160 24,270 8,110 22,247 31,305 18,124 101,542 150,755 77,331 102,469 159,867 39,269 61,387 80,434 17,41 53,74 80,74 18,0 21,-5 18,-24 -10,-51 48,-286 189,-761 43,-148 86,-292 94,-320 160,-555 200,-695 220,-775 39,-151 24,-194 -92,-259 -95,-53 -124,-78 -124,-105 0,-12 29,-65 65,-119 92,-140 104,-178 131,-414 44,-392 55,-679 34,-898 -12,-118 -23,-156 -63,-213 -58,-81 -162,-152 -472,-325 -235,-130 -303,-177 -290,-198 11,-18 70,-9 201,31 291,88 358,102 514,107 133,4 148,3 177,-16 l 32,-20 -16,-38 c -8,-21 -34,-74 -57,-118 l -41,-80 1,-155 c 0,-85 5,-208 11,-272 16,-173 11,-186 -101,-299 -114,-116 -136,-159 -136,-266 0,-93 20,-142 110,-273 117,-171 153,-277 111,-319 -28,-28 -62,-27 -241,4 -186,33 -250,48 -389,91 -62,19 -116,32 -119,29 -19,-18 152,-106 323,-165 66,-23 134,-50 150,-61 65,-39 96,-148 56,-196 -27,-32 -101,-73 -231,-127 -317,-133 -425,-206 -302,-206 69,0 214,42 386,111 187,76 206,82 223,68 17,-15 16,-68 -2,-144 -32,-131 -10,-232 59,-274 20,-13 36,-27 36,-32 0,-18 -37,-83 -150,-264 C 686,852 642,789 602,753 c -26,-23 -32,-33 -20,-33 30,0 102,96 254,341 175,282 187,304 179,329 -4,12 0,20 12,24 28,10 53,49 174,271 45,81 94,226 111,324 l 12,68 24,-29 c 55,-65 194,-107 356,-108 75,0 78,-1 63,-17 -19,-22 -30,-67 -52,-203 -10,-58 -19,-108 -21,-111 -4,-8 -113,19 -244,59 -47,14 -111,27 -143,30 -57,4 -59,3 -96,-36 -51,-54 -81,-142 -131,-387 C 1010,930 924,658 818,446 775,359 706,260 689,260 c -6,0 10,26 35,58 44,55 57,80 37,67 -14,-8 -101,-126 -101,-136 0,-5 9,-9 19,-9 47,0 157,178 239,385 70,176 160,486 182,627 46,294 95,414 178,433 19,4 71,-7 158,-34 71,-22 157,-45 192,-52 57,-11 63,-14 58,-33 -38,-150 -33,-169 49,-187 44,-10 58,-10 68,0 7,7 14,60 18,139 6,118 42,344 59,373 7,10 31,8 117,-9 252,-49 539,-75 778,-71 l 140,3 7,-152 c 3,-84 9,-159 12,-167 3,-8 2,-16 -2,-18 -14,-8 -470,13 -612,27 -80,8 -216,27 -302,41 -176,28 -178,28 -178,17 0,-8 257,-50 440,-72 146,-17 359,-30 508,-30 h 142 l 10,-28 c 19,-53 25,-57 93,-62 36,-3 68,-8 72,-12 4,-4 12,-88 18,-188 13,-218 0,-513 -37,-810 -25,-205 -40,-367 -32,-360 4,5 36,241 61,455 35,296 41,697 14,854 -5,30 -7,56 -5,58 2,2 73,11 157,19 148,14 213,26 234,45 12,12 7,11 -67,-5 -84,-19 -316,-39 -403,-34 -66,3 -70,5 -79,30 -5,15 -7,30 -4,33 3,3 56,1 119,-3 121,-10 479,2 537,18 25,6 32,5 32,-6 0,-20 46,-28 79,-14 18,7 35,26 46,51 35,77 -5,314 -60,357 -24,19 -24,19 143,25 92,3 226,13 297,22 72,9 138,17 149,18 22,2 45,-57 72,-188 17,-79 17,-85 1,-103 -25,-27 -81,-41 -209,-53 -203,-17 -368,-53 -368,-80 0,-13 29,-11 186,11 232,32 405,85 418,128 7,22 -15,142 -43,232 l -18,58 30,6 c 82,17 79,20 116,-129 33,-133 33,-135 61,-135 49,0 430,152 519,208 73,45 111,84 111,112 0,16 -4,31 -8,34 -12,7 -235,-10 -474,-36 -193,-21 -244,-20 -208,2 20,12 74,18 340,35 298,20 343,19 369,-3 12,-9 53,-78 92,-152 72,-138 90,-165 122,-182 79,-42 133,208 131,607 0,127 -4,243 -8,258 l -7,28 -51,-40 c -84,-68 -115,-55 -143,61 -10,40 -38,138 -62,217 -24,80 -42,154 -39,166 3,11 24,32 47,45 70,42 182,134 237,194 29,32 56,56 59,52 4,-3 -6,-93 -20,-199 -27,-189 -34,-357 -19,-442 13,-69 20,-24 10,59 -10,83 -3,188 26,381 8,55 17,126 21,158 10,89 -8,86 -113,-18 -48,-47 -124,-112 -170,-142 -51,-34 -87,-66 -94,-82 -7,-21 -2,-48 26,-136 20,-60 48,-159 63,-220 18,-75 33,-116 49,-132 15,-15 19,-25 12,-29 -32,-20 -75,86 -146,356 -49,185 -49,176 -10,213 19,17 80,68 137,111 56,44 135,114 175,157 63,66 76,84 86,130 6,30 16,182 21,339 4,157 13,339 18,405 6,66 19,226 30,355 11,129 27,357 36,505 8,149 19,349 25,445 5,96 17,317 25,490 9,173 20,367 25,430 12,146 12,166 1,155 -9,-9 -15,-93 -41,-580 -6,-104 -15,-266 -20,-360 -5,-93 -16,-305 -25,-470 -16,-312 -36,-585 -60,-834 -22,-234 -26,-300 -34,-591 -7,-243 -10,-280 -28,-320 -22,-50 -123,-147 -273,-265 -158,-124 -155,-119 -121,-255 118,-465 137,-490 281,-386 l 47,34 7,-66 c 16,-177 5,-406 -30,-607 -20,-116 -33,-153 -58,-161 -28,-9 -53,25 -131,177 -36,69 -77,137 -91,150 -24,23 -31,24 -147,22 -174,-3 -526,-30 -564,-43 -18,-7 -35,-20 -38,-29 -6,-21 -57,-29 -367,-61 -138,-14 -269,-20 -433,-20 h -235 v 53 c 0,29 -11,125 -24,213 -55,354 -55,364 14,1454 11,173 29,459 40,635 11,176 27,426 35,555 51,819 66,1069 80,1350 17,355 52,1136 60,1370 8,193 29,351 61,455 19,58 24,92 20,125 -5,34 -1,53 14,77 41,68 231,193 293,193 53,0 104,-66 161,-205 27,-66 55,-135 62,-154 12,-28 18,-33 39,-29 25,5 25,4 20,-41 -3,-25 -10,-129 -15,-231 -21,-356 -50,-724 -75,-923 -92,-749 -117,-1266 -80,-1687 50,-583 132,-1220 185,-1446 27,-114 53,-168 167,-339 124,-188 127,-193 325,-585 91,-179 185,-359 210,-400 99,-164 179,-285 191,-285 23,0 19,67 -8,144 -47,134 -116,258 -412,741 -181,295 -297,609 -397,1070 -106,493 -70,928 148,1780 36,140 102,410 146,600 45,190 94,401 110,470 16,69 43,186 60,260 41,180 105,436 147,590 40,148 47,228 20,258 -10,11 -79,53 -153,92 -75,40 -132,76 -127,80 4,5 44,21 87,36 44,15 90,37 103,48 24,21 24,22 8,65 -37,106 -329,631 -350,631 -4,0 -4,-3 -2,-7 213,-372 347,-626 347,-657 0,-20 -9,-24 -120,-66 -53,-20 -96,-43 -98,-51 -1,-9 48,-41 143,-92 80,-43 149,-87 155,-97 18,-33 11,-69 -69,-390 -44,-173 -98,-396 -121,-495 -113,-500 -283,-1208 -335,-1395 -54,-194 -139,-649 -161,-865 -19,-189 -15,-463 11,-622 34,-215 131,-592 205,-793 45,-125 136,-309 220,-445 280,-456 351,-582 408,-720 31,-75 48,-145 35,-145 -9,0 -64,85 -158,240 -32,52 -141,259 -243,459 -135,265 -215,408 -295,530 -61,91 -121,191 -134,221 -72,161 -127,528 -230,1545 -35,354 -20,827 48,1430 62,554 70,637 94,1019 14,215 32,479 40,586 8,107 18,335 21,505 7,312 5,342 -32,523 -4,22 -3,32 5,32 14,0 19,-4 84,-82 26,-31 70,-73 97,-93 105,-77 378,-195 1045,-453 351,-136 520,-209 573,-249 38,-29 40,-48 12,-159 -10,-44 -31,-144 -45,-224 -70,-389 -107,-554 -198,-875 -30,-104 -67,-243 -83,-308 -25,-106 -30,-116 -43,-100 -13,17 -13,17 -7,0 3,-10 6,-25 6,-33 0,-23 14,-16 27,14 6,15 26,83 43,152 17,69 52,195 77,280 76,263 132,507 173,746 42,250 89,455 106,461 19,6 64,-38 88,-85 24,-49 44,-121 96,-357 17,-77 51,-222 75,-322 70,-283 133,-606 164,-834 6,-42 29,-288 51,-545 96,-1120 121,-1351 175,-1612 10,-46 11,-87 5,-145 -13,-123 -58,-443 -90,-642 -11,-66 -24,-214 -30,-330 -10,-211 -15,-245 -63,-431 -37,-140 -42,-216 -27,-416 14,-207 7,-258 -52,-391 l -41,-92 -8,-175 c -7,-153 -12,-192 -43,-310 -33,-126 -203,-648 -240,-734 l -16,-38 -53,48 c -84,76 -299,198 -467,264 -81,32 -97,45 -124,99 -32,63 -99,259 -115,336 -13,64 -13,65 37,190 11,28 28,77 38,110 29,93 73,103 151,35 19,-17 38,-30 43,-30 27,0 2,46 -92,170 -49,64 -75,127 -65,154 8,20 84,22 130,2 18,-7 86,-45 152,-85 191,-115 262,-144 273,-113 6,20 -94,112 -191,177 -108,71 -118,82 -80,90 89,18 104,26 101,48 -3,19 -23,29 -138,67 -170,57 -220,90 -220,149 0,42 70,53 156,24 48,-16 85,-34 254,-126 149,-81 270,-118 270,-82 0,20 -55,59 -230,162 -80,47 -180,107 -223,132 -112,66 -170,121 -206,193 -55,110 -45,163 81,433 42,88 92,206 113,262 20,56 49,118 63,137 27,33 92,77 283,189 172,101 157,139 -116,283 -76,40 -198,111 -280,163 -11,7 -29,24 -39,38 -19,25 -19,26 -1,39 11,8 42,14 71,14 53,0 100,8 317,54 100,21 127,23 180,15 73,-11 169,-56 286,-133 85,-57 121,-68 121,-41 0,23 -66,91 -136,141 -135,96 -302,151 -422,140 -112,-11 -377,-122 -432,-181 l -22,-24 21,-29 c 26,-37 132,-106 311,-202 166,-89 218,-124 233,-157 10,-24 8,-28 -25,-57 -20,-17 -81,-55 -135,-85 -134,-73 -199,-118 -229,-156 -14,-18 -49,-95 -78,-172 -29,-76 -79,-189 -110,-250 -109,-218 -128,-321 -76,-422 49,-97 117,-152 360,-291 202,-115 308,-184 288,-188 -21,-4 -170,54 -233,91 -27,16 -93,51 -145,77 -147,74 -216,87 -264,49 -30,-23 -33,-47 -11,-89 21,-41 91,-79 218,-116 149,-45 163,-63 60,-79 -84,-12 -69,-41 65,-132 92,-62 179,-139 169,-149 -9,-9 -103,37 -228,113 -139,84 -205,113 -257,113 -41,0 -72,-23 -72,-53 0,-37 36,-103 101,-185 38,-47 66,-88 64,-90 -2,-3 -20,9 -40,27 -71,62 -142,26 -166,-85 -7,-32 -26,-86 -42,-119 -43,-86 -40,-137 17,-305 26,-74 55,-153 66,-174 23,-47 17,-61 -11,-26 -33,42 -45,70 -98,230 -55,167 -96,253 -123,258 -23,4 -26,-21 -11,-103 28,-155 63,-388 78,-515 15,-137 22,-436 10,-448 -25,-25 -99,219 -136,453 -17,104 -22,198 -28,465 -6,298 -8,339 -25,373 -19,39 -46,66 -31,31 38,-91 38,-96 41,-399 2,-311 11,-417 54,-625 48,-231 122,-389 144,-308 24,93 -14,557 -74,883 -30,163 -31,175 -22,175 14,0 66,-121 113,-260 52,-156 79,-210 123,-246 43,-37 176,-197 216,-262 17,-27 45,-90 62,-138 27,-76 32,-103 33,-184 v -95 l -67,-133 c -60,-119 -68,-140 -68,-190 0,-41 3,-53 10,-42 5,8 10,35 10,58 0,34 14,72 65,169 36,69 65,133 65,143 0,27 11,51 21,45 20,-13 125,202 144,293 l 11,53 23,-32 c 22,-29 23,-36 12,-63 -23,-56 -20,-61 26,-59 60,3 94,22 120,68 22,42 159,436 217,628 64,209 77,281 83,452 5,159 5,160 46,255 61,143 68,196 55,380 -13,198 -6,319 27,445 42,159 55,247 65,455 5,107 17,240 25,295 43,277 95,664 95,709 0,28 -11,110 -24,181 -40,213 -84,633 -141,1325 -65,797 -102,1049 -231,1575 -29,121 -74,309 -98,417 -62,275 -103,358 -177,358 -19,0 -30,6 -34,21 -10,29 -205,121 -520,244 -1042,406 -1108,437 -1236,593 -59,71 -98,93 -100,55 0,-13 -2,-14 -6,-4 -5,13 4,81 33,250 14,75 20,90 58,135 59,70 105,146 142,236 29,73 31,75 70,81 81,11 100,42 127,204 8,50 29,142 45,205 36,140 63,295 56,315 -4,8 -15,15 -25,15 -18,0 -17,4 7,58 42,95 71,174 95,268 22,82 24,107 22,304 -2,284 -9,317 -118,536 -85,169 -86,171 -198,285 -121,124 -96,107 -458,292 -65,33 -170,51 -387,66 -193,14 -234,13 -301,-5 z m 504,-30 c 108,-14 114,-16 300,-110 215,-109 236,-124 356,-249 80,-84 92,-102 172,-265 65,-132 89,-191 96,-240 14,-91 21,-160 17,-160 -2,0 -13,27 -25,60 -12,33 -26,60 -32,60 -5,0 -3,-10 5,-22 8,-13 24,-57 35,-98 36,-129 25,-335 -28,-502 -21,-69 -80,-209 -81,-193 0,6 11,60 25,120 28,126 31,201 10,263 -12,33 -14,66 -9,135 4,58 2,114 -6,152 -15,75 -69,190 -110,233 -17,17 -28,32 -25,32 16,0 109,-54 140,-81 38,-34 63,-29 51,9 -10,30 -62,93 -99,117 -32,22 -121,47 -131,37 -11,-11 6,-22 34,-22 42,0 81,-17 118,-53 32,-30 69,-87 57,-87 -3,0 -26,15 -52,34 -48,34 -122,63 -287,112 -87,25 -88,26 -70,45 23,22 103,39 190,39 78,0 94,6 94,37 0,18 -9,28 -36,39 -34,14 -36,18 -31,50 12,70 -62,175 -136,195 -78,21 -138,2 -287,-90 -112,-70 -174,-93 -260,-98 -99,-5 -118,7 -71,47 32,27 96,51 298,109 128,37 107,65 -42,57 -159,-9 -299,-50 -380,-112 -25,-19 -45,-30 -45,-26 0,4 13,29 30,55 55,87 160,131 352,147 l 93,7 -80,1 c -98,2 -189,-12 -250,-38 -82,-35 -186,-163 -157,-192 8,-8 20,-3 43,16 47,40 140,84 211,101 90,20 235,35 259,27 21,-8 13,-11 -193,-71 -115,-34 -188,-78 -188,-112 0,-24 37,-34 120,-33 81,1 153,30 304,121 90,54 120,68 163,71 29,2 63,2 77,-2 36,-9 84,-53 106,-97 25,-48 25,-52 -2,-38 -38,20 -118,4 -236,-50 -147,-66 -200,-81 -289,-81 -86,0 -98,-18 -31,-45 65,-26 163,-30 249,-11 87,19 152,55 231,125 31,28 61,51 67,51 20,0 34,-41 22,-66 -9,-22 -8,-24 13,-24 28,0 75,-35 63,-47 -5,-4 -59,-11 -120,-14 -128,-6 -180,-25 -175,-62 2,-16 15,-26 48,-36 l 45,-15 -30,-8 c -40,-12 -173,0 -262,23 -124,31 -277,105 -444,215 -36,24 -90,55 -120,69 -47,23 -49,25 -19,20 24,-5 32,-4 25,3 -5,6 -26,12 -45,14 l -35,3 37,17 c 20,9 63,34 95,56 156,106 245,134 428,137 169,3 160,2 145,20 -21,26 -97,64 -156,80 -108,28 -207,-2 -381,-119 -95,-62 -168,-103 -226,-125 -35,-14 -36,2 -2,68 39,79 105,122 264,176 52,17 97,37 99,43 5,17 -94,15 -209,-4 -157,-26 -272,-93 -320,-186 -26,-51 -24,-84 7,-115 23,-23 31,-25 74,-20 37,5 51,2 63,-11 14,-16 11,-17 -51,-18 -95,-2 -145,-29 -239,-128 -101,-107 -130,-161 -144,-267 -11,-88 -24,-122 -59,-154 -41,-37 -90,-113 -109,-168 -10,-30 -31,-119 -46,-198 -16,-79 -31,-148 -36,-153 -4,-5 -11,9 -14,30 -12,70 -35,128 -68,169 l -32,40 1,115 c 2,94 8,136 33,230 17,63 42,168 56,232 34,162 53,194 188,319 47,43 60,50 67,39 11,-16 13,-9 10,31 -2,37 41,76 168,152 230,138 231,138 462,131 102,-3 235,-11 295,-20 z m -136,-48 c -2,-2 -33,-14 -69,-26 -181,-61 -267,-132 -294,-243 -8,-35 -45,-51 -83,-36 -34,13 -43,26 -43,64 0,54 59,124 141,165 72,37 146,57 244,68 108,13 109,13 104,8 z m 359,-87 67,-34 -150,-6 c -195,-7 -240,-24 -468,-171 -56,-35 -126,-48 -145,-26 -10,13 -1,19 57,42 38,15 124,64 192,108 207,137 307,157 447,87 z m -585,-305 c 27,-9 87,-42 135,-73 199,-131 341,-199 480,-232 67,-16 112,-20 226,-18 130,3 145,1 177,-18 55,-35 86,-73 125,-158 37,-78 38,-83 46,-245 4,-91 11,-195 14,-232 6,-73 -8,-161 -56,-338 -16,-58 -31,-125 -34,-150 -4,-25 -34,-124 -67,-220 -33,-96 -71,-212 -85,-258 -13,-45 -35,-110 -49,-144 -34,-83 -127,-245 -169,-295 -77,-89 -321,-227 -467,-264 -104,-27 -210,-22 -349,16 -163,45 -283,122 -473,304 -224,216 -297,390 -297,713 0,177 29,539 46,555 7,7 18,39 24,71 61,316 74,356 148,435 61,64 82,104 82,154 0,56 26,147 54,190 13,21 56,73 95,115 94,100 139,120 261,113 47,-2 107,-12 133,-21 z m 950,-38 c -14,-25 -116,-106 -159,-126 -56,-28 -170,-51 -219,-44 -65,9 -135,26 -135,32 0,4 30,7 68,8 73,1 145,21 234,65 52,26 192,78 211,79 4,0 4,-6 0,-14 z m -1884,-777 c 85,-61 111,-170 92,-387 -7,-81 -16,-228 -20,-327 -5,-99 -9,-162 -10,-140 -2,59 -12,69 -62,62 -68,-9 -125,34 -157,118 -44,114 -55,360 -22,489 34,132 80,216 120,216 9,0 36,-14 59,-31 z m 2134,-588 c -11,-85 -36,-203 -64,-301 -16,-58 -35,-146 -42,-195 -19,-125 -39,-155 -102,-155 -25,0 -26,2 -20,33 4,17 18,67 32,109 19,63 29,81 52,92 43,23 52,59 77,306 7,67 26,133 46,157 17,21 27,-2 21,-46 z m -103,-294 c -7,-46 -18,-79 -30,-91 -11,-11 -21,-18 -24,-15 -2,2 10,53 27,113 34,117 46,114 27,-7 z m -1953,-104 c -3,-10 -5,-2 -5,17 0,19 2,27 5,18 2,-10 2,-26 0,-35 z m 10,-55 c -3,-7 -5,-2 -5,12 0,14 2,19 5,13 2,-7 2,-19 0,-25 z m 10,-50 c -3,-8 -6,-5 -6,6 -1,11 2,17 5,13 3,-3 4,-12 1,-19 z m 1704,-325 c -12,-20 -14,-14 -5,12 4,9 9,14 11,11 3,-2 0,-13 -6,-23 z m -32,-58 c -12,-19 -26,-38 -32,-42 -11,-7 -5,6 25,50 27,38 31,34 7,-8 z M 3241,9443 c 13,-16 12,-17 -3,-4 -10,7 -18,15 -18,17 0,8 8,3 21,-13 z m 998,-9 c -13,-14 -56,-45 -94,-69 -167,-105 -387,-148 -562,-111 -88,19 -133,38 -215,93 -81,53 -89,66 -15,25 176,-100 427,-132 592,-76 62,21 228,104 275,138 45,32 49,32 19,0 z m -958,-21 c 13,-16 12,-17 -3,-4 -10,7 -18,15 -18,17 0,8 8,3 21,-13 z m -639,-110 c -32,-50 -69,-164 -103,-318 -29,-132 -35,-296 -16,-435 9,-63 18,-169 21,-235 4,-66 13,-201 21,-300 21,-260 83,-1073 95,-1255 31,-472 31,-1614 0,-1910 -15,-145 -46,-361 -65,-450 -58,-278 -193,-647 -390,-1065 -122,-259 -250,-401 -492,-545 -60,-35 -129,-85 -155,-111 -27,-27 -48,-45 -48,-42 0,4 22,55 50,114 89,191 262,586 275,628 5,16 3,22 -4,20 -7,-3 -65,-128 -130,-279 -65,-151 -129,-297 -143,-325 -77,-153 -231,-585 -248,-693 -31,-203 -80,-341 -186,-523 -74,-128 -90,-149 -114,-149 -33,0 -45,56 -45,210 0,167 13,228 95,454 27,74 53,155 56,178 4,26 16,52 30,66 26,25 43,78 109,342 32,126 45,197 42,223 -6,45 -81,207 -96,207 -5,0 10,-42 35,-94 27,-57 44,-107 44,-130 0,-34 -99,-437 -122,-499 -11,-30 -28,-37 -22,-9 2,9 13,65 24,124 11,59 38,166 60,237 22,72 40,140 40,153 0,21 -62,184 -75,196 -17,18 -36,-41 -95,-300 -31,-138 -32,-289 -1,-385 28,-85 25,-106 -45,-298 -55,-154 -80,-249 -94,-355 -13,-96 -5,-248 15,-297 13,-31 13,-32 -5,-20 -48,30 -61,127 -35,264 19,98 19,118 -1,137 -25,26 -55,19 -211,-43 -82,-32 -186,-71 -232,-85 -93,-29 -199,-47 -207,-35 -7,12 106,71 291,150 199,85 248,111 275,146 29,38 34,67 19,120 -22,79 -64,111 -219,167 -138,49 -265,104 -257,112 2,2 22,-2 45,-10 136,-48 530,-122 589,-111 68,12 84,93 39,192 -15,32 -61,109 -102,171 -97,144 -107,170 -107,262 -1,100 25,150 142,267 71,71 91,98 97,128 7,40 3,145 -16,373 -14,160 -7,197 54,325 24,51 47,102 51,115 9,32 22,27 37,-15 19,-55 14,-241 -12,-408 -26,-174 -38,-457 -20,-500 12,-28 14,-23 36,95 87,460 90,526 40,987 -94,869 -134,1597 -108,1971 4,52 4,98 1,103 -8,14 -29,-304 -29,-441 0,-339 66,-1212 135,-1795 19,-162 19,-337 0,-480 -23,-177 -59,-365 -69,-365 -14,0 2,215 27,375 30,188 32,446 4,489 -10,15 -21,25 -24,22 -3,-3 -20,4 -37,17 -25,18 -48,22 -128,25 -157,7 -276,-16 -581,-109 -71,-21 -141,-39 -155,-39 h -27 l 30,25 c 17,13 73,47 125,76 437,240 572,336 629,447 11,22 26,71 32,108 17,102 14,556 -6,744 -8,85 -20,202 -25,260 -18,190 -36,242 -141,402 -33,49 -49,85 -47,100 2,17 26,36 93,74 113,65 135,94 135,180 0,47 -13,106 -49,226 -27,90 -84,287 -126,438 -43,151 -106,372 -141,490 -154,527 -204,719 -204,790 0,58 44,86 276,178 289,114 645,240 836,296 46,14 144,43 218,64 128,38 291,82 304,82 4,0 -2,-17 -13,-37 -63,-126 -251,-636 -251,-684 0,-32 29,-58 128,-109 34,-18 62,-36 62,-41 0,-4 -47,-31 -104,-60 -134,-65 -150,-83 -143,-146 11,-99 115,-543 321,-1373 117,-470 223,-898 234,-950 81,-353 132,-678 132,-841 0,-64 3,-88 11,-83 8,5 9,42 4,128 -18,329 -69,572 -370,1781 -273,1096 -326,1333 -309,1382 8,23 32,39 127,86 67,33 117,63 117,71 0,17 -36,44 -105,79 -28,14 -61,34 -74,44 l -23,19 27,90 c 37,116 186,501 226,582 28,56 41,69 118,122 48,33 144,116 214,186 71,69 131,124 134,120 3,-3 -8,-27 -25,-53 z m 39,-5 c -7,-18 -14,-67 -18,-108 -4,-61 -1,-87 16,-138 56,-164 229,-460 326,-558 49,-49 83,-72 185,-122 188,-91 191,-92 300,-92 102,0 205,23 333,74 31,13 57,22 57,21 0,-1 -29,-22 -65,-45 -101,-66 -148,-131 -149,-209 -1,-43 -2,-45 -61,-77 -33,-19 -65,-34 -71,-34 -6,0 -24,33 -39,73 -36,92 -67,139 -113,171 -57,39 -347,176 -374,176 -58,0 -147,-93 -253,-265 -32,-53 -65,-101 -71,-106 -19,-16 -37,27 -77,186 -54,214 -61,273 -54,473 10,282 51,503 113,597 22,33 29,25 15,-17 z m 1639,-228 c 18,-82 25,-399 11,-526 -6,-60 -18,-205 -26,-323 -8,-117 -17,-216 -20,-219 -10,-10 -23,13 -55,103 -93,256 -151,320 -256,280 -67,-25 -187,-109 -233,-162 -38,-42 -41,-50 -42,-107 l -1,-61 -10,47 c -18,84 22,137 185,246 136,92 191,154 266,300 67,131 111,260 137,400 10,50 21,89 25,85 4,-5 12,-33 19,-63 z M 3134,8363 c 140,-65 246,-126 278,-160 14,-15 43,-70 63,-120 21,-51 42,-93 49,-93 6,-1 -2,-8 -19,-17 -121,-64 -195,-234 -229,-528 -15,-124 -22,-250 -46,-730 -10,-199 -44,-659 -55,-735 -4,-31 -15,-187 -45,-665 -13,-199 -45,-821 -65,-1225 -22,-459 -33,-672 -47,-930 -18,-317 -16,-776 5,-970 22,-198 22,-264 2,-280 -13,-11 -82,-9 -373,9 -196,12 -503,26 -682,31 -179,5 -347,12 -375,16 -154,17 -254,77 -255,151 0,44 93,320 141,419 50,102 112,165 232,235 249,146 371,276 492,524 35,71 75,157 88,190 14,33 46,107 72,165 101,225 226,611 260,805 59,342 75,605 75,1267 0,708 -11,950 -94,1988 -19,239 -37,480 -40,535 l -6,100 29,-109 c 47,-176 70,-220 101,-201 5,3 42,58 82,123 88,142 190,252 233,252 16,0 74,-21 129,-47 z m 537,-317 c -13,-16 -62,-40 -101,-50 -14,-4 0,7 30,24 30,17 59,35 64,40 15,15 20,2 7,-14 z m 5,-68 c -39,-107 -52,-250 -76,-848 -27,-663 -58,-1304 -90,-1810 -11,-173 -22,-355 -25,-405 -6,-113 -29,-468 -55,-870 -92,-1432 -95,-1521 -55,-1785 45,-298 48,-323 37,-351 -10,-25 -13,-26 -134,-33 -68,-4 -172,-15 -233,-24 -150,-22 -567,-21 -755,2 -141,17 -401,63 -410,73 -9,10 508,-7 812,-26 163,-11 309,-16 325,-12 43,12 49,42 34,199 -27,295 -30,344 -31,562 0,124 7,340 15,480 8,140 21,401 30,580 61,1308 105,2045 150,2525 8,88 24,331 35,540 35,683 45,778 101,951 20,62 44,112 73,151 43,59 59,69 168,108 26,9 58,25 70,35 29,24 34,11 14,-42 z M 6360,4492 c 78,-27 168,-74 226,-118 51,-38 116,-105 109,-112 -2,-2 -34,16 -72,40 -243,158 -324,174 -573,114 -106,-25 -251,-48 -258,-41 -11,11 197,101 303,131 64,18 191,11 265,-14 z M 1208,3001 c 39,-100 38,-116 -7,-260 -22,-73 -48,-173 -57,-224 -26,-149 -25,-143 -34,-127 -18,34 -32,166 -26,239 11,113 80,431 95,431 3,0 16,-27 29,-59 z M 5167,1994 c 6,-17 -56,-72 -122,-109 -101,-56 -495,-216 -495,-200 0,2 18,25 40,50 24,28 40,56 40,72 0,32 -47,76 -105,99 -25,9 -45,22 -45,29 0,13 49,20 345,49 83,9 166,17 185,19 64,7 153,2 157,-9 z m -3308,-80 c 2,-2 -8,-66 -24,-141 -17,-81 -31,-187 -34,-258 -6,-113 -7,-120 -27,-123 -12,-2 -39,4 -59,12 -37,16 -37,17 -32,59 3,23 15,85 26,137 12,52 28,138 36,190 20,123 22,128 48,133 21,4 57,-1 66,-9 z m 2697,-46 c 64,-43 67,-68 16,-127 l -38,-43 -25,101 c -17,70 -21,101 -13,101 6,0 34,-15 60,-32 z m -923,2 c -13,-5 -23,-13 -23,-18 0,-11 -118,-6 -133,6 -7,6 -23,12 -37,15 -14,2 29,5 95,5 81,0 113,-2 98,-8 z m -189,-18 c 3,-5 -7,-9 -23,-10 -15,0 -55,-5 -88,-11 -32,-6 -114,-15 -182,-21 -67,-5 -129,-14 -137,-21 -10,-8 -14,-33 -14,-79 0,-59 -2,-68 -20,-73 -28,-7 -25,-33 5,-53 21,-14 25,-24 25,-65 0,-46 -1,-48 -27,-46 -25,2 -29,7 -35,47 -6,42 -11,299 -5,301 1,1 74,9 162,19 177,19 331,25 339,12 z m 256,-2 c 35,-19 76,-197 68,-297 -5,-60 -30,-93 -69,-93 -28,0 -37,27 -49,151 -6,63 -15,141 -21,174 -6,44 -6,61 4,67 17,11 45,10 67,-2 z m -100,-36 c 9,-9 45,-313 37,-320 -18,-19 -467,-40 -552,-27 l -50,8 -3,51 c -3,48 -1,52 23,58 18,5 25,13 25,31 0,20 -6,27 -30,32 -29,5 -30,7 -30,62 0,31 5,62 12,69 7,7 40,12 76,12 36,0 110,7 166,15 174,25 306,29 326,9 z m -542,-201 c 2,-9 -9,-13 -37,-13 -40,0 -62,14 -39,24 22,9 71,2 76,-11 z m 1034,-68 c -52,-13 -207,-29 -187,-20 16,8 178,33 210,33 22,0 15,-4 -23,-13 z M 6017,912 c 33,-25 35,-29 31,-77 -5,-55 -107,-285 -127,-285 -6,0 -11,15 -11,33 -1,130 -96,331 -223,472 -20,22 -37,44 -37,48 0,11 323,-156 367,-191 z m 156,-82 c 26,-23 47,-48 47,-56 0,-16 -57,-44 -90,-44 -24,0 -25,8 -5,34 25,34 17,58 -37,109 l -53,50 45,-26 c 25,-15 66,-45 93,-67 z"
       id="path736" />
    <path
       d="m 3366,12304 c -85,-26 -164,-89 -181,-145 -12,-37 5,-86 46,-133 50,-57 47,-80 -8,-71 -50,9 -93,25 -93,37 0,19 -45,26 -73,11 -16,-8 -38,-13 -50,-11 -21,3 -20,4 8,31 24,21 39,27 77,27 36,0 47,-4 51,-17 4,-17 4,-17 12,0 9,22 3,30 -30,30 -19,0 -25,5 -25,21 0,34 -12,66 -21,60 -5,-3 -6,-23 -3,-45 6,-37 5,-39 -19,-39 -25,0 -87,-49 -87,-69 0,-6 9,-11 20,-11 11,0 20,-2 20,-5 0,-3 -18,-29 -41,-57 -61,-77 -91,-144 -93,-203 -1,-49 0,-50 27,-48 39,3 240,151 358,266 45,43 46,45 51,118 6,90 28,136 97,203 68,67 57,80 -43,50 z m 19,-51 c -62,-62 -85,-112 -85,-190 0,-34 -4,-64 -10,-68 -5,-3 -27,17 -50,46 -47,59 -52,104 -19,151 33,46 139,105 193,107 14,1 7,-11 -29,-46 z m -201,-306 c 26,-7 47,-16 47,-20 0,-10 -195,-166 -268,-215 -92,-61 -105,-22 -37,108 39,73 78,120 131,156 l 36,24 22,-20 c 12,-12 43,-26 69,-33 z"
       id="path738" />
    <path
       d="m 4370,11973 c -57,-72 -135,-116 -236,-133 -83,-14 -188,-8 -253,14 -22,9 -41,11 -41,6 0,-20 102,-42 195,-41 105,0 184,18 252,57 43,26 112,95 132,133 21,39 -4,21 -49,-36 z"
       id="path740" />
    <path
       d="m 3351,11129 c -138,-27 -241,-86 -241,-138 0,-57 60,-101 139,-101 26,0 64,-12 108,-35 57,-29 85,-37 173,-46 58,-6 107,-13 110,-16 8,-7 -23,-22 -79,-39 -99,-30 -209,-6 -314,68 -64,45 -122,41 -196,-12 -69,-50 -83,-82 -79,-175 4,-70 9,-90 43,-153 50,-95 110,-157 166,-172 61,-17 153,-7 227,22 34,14 62,24 62,22 0,-7 -36,-40 -107,-97 -104,-82 -117,-105 -121,-204 -4,-75 -1,-88 31,-165 20,-45 43,-110 53,-143 26,-91 44,-123 81,-140 82,-39 247,30 267,111 5,17 0,34 -15,56 l -22,31 64,-7 c 162,-17 191,-28 99,-39 -48,-6 -100,-31 -100,-48 0,-5 11,-2 26,7 14,9 51,22 82,28 37,8 58,17 60,27 2,13 -18,19 -97,32 -157,26 -174,22 -131,-33 28,-36 25,-66 -11,-97 -42,-38 -104,-62 -161,-62 -69,-1 -90,23 -129,144 -17,55 -43,123 -57,150 -21,41 -26,64 -26,130 -1,102 7,114 140,230 130,112 139,143 27,90 -96,-44 -199,-52 -264,-19 -41,20 -106,100 -141,172 -27,54 -32,77 -33,137 0,63 3,76 27,107 33,43 106,88 143,88 15,0 66,-22 114,-50 106,-61 172,-76 263,-60 57,11 158,56 158,71 0,8 -87,89 -120,111 l -25,17 33,-10 c 17,-6 54,-31 81,-55 49,-44 83,-55 97,-32 4,7 13,35 19,63 l 12,50 12,-39 c 21,-61 9,-193 -28,-328 -34,-121 -36,-124 -86,-119 -77,7 -128,-78 -93,-154 19,-43 96,-75 83,-35 -13,41 30,16 72,-42 l 32,-44 -25,-43 c -13,-24 -24,-52 -24,-62 0,-23 28,-69 42,-69 6,0 3,11 -6,25 -21,32 -20,50 4,101 20,40 22,42 59,37 25,-3 49,1 71,12 23,12 35,14 43,6 16,-16 69,-13 96,5 13,9 28,30 35,45 12,29 13,28 65,-86 85,-186 88,-202 66,-285 -6,-24 -6,-24 9,-6 20,24 21,89 2,147 -8,24 -48,118 -89,209 -90,200 -101,244 -94,364 5,100 29,176 77,247 34,51 29,68 -6,24 -87,-108 -119,-330 -69,-465 34,-90 32,-160 -7,-181 -17,-9 -23,-8 -30,5 -12,22 -51,20 -90,-4 -18,-11 -45,-20 -59,-20 -44,0 -56,19 -62,96 -5,66 -4,74 17,93 28,27 90,38 111,21 26,-22 36,-79 20,-116 -15,-36 -3,-48 15,-15 29,55 -1,142 -54,155 -27,7 -86,-15 -105,-38 -11,-13 -17,-11 -47,21 -39,41 -40,43 -19,43 38,0 98,211 99,351 1,91 -1,98 -31,148 -18,29 -33,58 -33,65 0,23 -42,68 -77,82 -90,38 -235,52 -332,33 z m 281,-34 c 61,-20 115,-65 103,-85 -10,-17 -68,-8 -189,30 -104,32 -218,39 -314,21 -60,-12 -40,3 38,27 36,12 72,23 80,26 34,12 226,-1 282,-19 z m -97,-74 c 55,-24 109,-71 131,-113 20,-38 17,-45 -9,-20 -35,33 -111,62 -180,69 -64,6 -129,-4 -225,-34 -63,-19 -93,-10 -117,37 -15,28 -15,34 -1,54 9,15 25,23 43,24 15,0 62,4 103,8 99,12 194,2 255,-25 z m 107,-32 c 11,-6 42,-11 69,-11 l 49,1 v -58 c 0,-102 -44,-122 -74,-35 -9,27 -31,63 -48,81 -33,34 -32,41 4,22 z m -250,-109 c 3,-16 3,-30 1,-30 -2,0 -20,11 -39,24 l -35,24 28,10 c 35,12 40,9 45,-28 z m 142,18 c 24,-38 -29,-69 -90,-54 -27,7 -48,40 -40,62 9,22 115,15 130,-8 z m 86,-48 45,-39 -70,6 c -38,3 -72,8 -74,10 -3,2 5,10 17,19 12,8 22,22 22,30 0,22 11,17 60,-26 z m 79,-424 c 15,-8 36,-27 45,-41 16,-25 42,-133 33,-141 -2,-3 -20,11 -40,31 -38,38 -58,43 -81,20 -22,-22 -52,-4 -59,35 -8,36 -1,57 26,88 24,26 38,27 76,8 z"
       id="path742" />
    <path
       d="m 4202,10938 c -19,-9 -22,-17 -17,-37 4,-14 10,-29 14,-34 4,-4 63,-19 132,-33 132,-27 239,-70 297,-120 31,-27 32,-31 22,-60 -10,-28 -44,-54 -70,-54 -5,0 -28,21 -52,46 -24,25 -62,57 -85,70 -48,29 -164,64 -210,64 -39,0 -65,24 -62,59 1,14 1,40 0,56 -2,43 -21,12 -21,-35 0,-51 20,-83 60,-96 l 35,-12 -40,-7 c -22,-4 -53,-14 -68,-22 -23,-12 -26,-17 -16,-29 6,-8 17,-14 23,-14 6,0 19,-13 29,-29 27,-45 91,-91 165,-117 86,-30 127,-30 187,1 59,29 68,24 91,-53 12,-43 15,-80 11,-148 -7,-120 -33,-174 -138,-289 -93,-102 -121,-141 -174,-244 -45,-86 -96,-144 -122,-139 -36,7 -48,55 -34,146 13,92 5,118 -32,108 -20,-5 -101,21 -212,68 -46,20 -70,24 -101,20 -33,-5 -52,0 -90,20 -44,23 -60,26 -159,26 -104,1 -168,8 -207,25 -38,15 -14,-13 68,-80 160,-133 261,-179 394,-179 63,-1 94,6 196,42 66,23 123,42 127,42 11,0 8,-41 -7,-98 -17,-62 -85,-186 -135,-244 -31,-36 -37,-39 -69,-33 -46,8 -116,44 -166,84 -21,17 -40,31 -42,31 -20,0 42,-56 91,-83 22,-12 62,-29 90,-39 47,-16 50,-16 77,3 40,29 74,77 119,166 l 38,78 1,-41 c 0,-47 23,-74 61,-74 32,0 65,36 116,125 22,39 52,90 66,115 14,25 56,77 92,115 139,147 172,225 163,390 -5,94 -26,161 -53,171 -8,4 -32,-2 -53,-12 -87,-44 -227,-13 -316,70 -41,38 -43,56 -5,35 39,-20 89,-31 189,-38 52,-4 116,-14 142,-21 61,-18 94,-7 121,40 28,50 17,82 -52,150 -116,113 -324,188 -409,148 z m 153,-22 c 77,-21 185,-79 239,-131 49,-47 61,-69 24,-41 -50,37 -157,79 -257,102 -58,13 -114,24 -123,24 -24,0 -45,40 -27,51 21,13 81,11 144,-5 z m 75,-211 c 48,-31 107,-85 94,-85 -6,0 -29,14 -50,30 -21,17 -59,44 -84,61 -53,36 -17,31 40,-6 z m -193,-9 3,-34 -40,16 c -44,19 -47,33 -9,43 41,12 44,10 46,-25 z m 121,18 c 27,-19 28,-36 3,-58 -17,-15 -25,-16 -55,-6 -38,12 -61,42 -52,66 7,19 75,18 104,-2 z m 86,-63 c 6,-9 -50,-21 -59,-13 -2,3 0,13 6,23 8,15 14,17 29,9 10,-6 21,-14 24,-19 z m -717,-647 c 39,-19 61,-23 86,-19 26,5 51,0 98,-20 35,-14 79,-31 97,-36 129,-39 -187,1 -343,43 -178,48 -215,58 -215,61 0,1 51,1 113,-1 94,-3 120,-7 164,-28 z m -103,-39 c 161,-43 286,-65 378,-65 69,0 53,-15 -49,-46 -150,-46 -266,-24 -420,80 -39,26 -80,57 -90,68 -18,21 -17,21 1,14 11,-4 92,-26 180,-51 z"
       id="path744" />
    <path
       d="m 2806,10668 c 44,-317 107,-461 219,-498 49,-16 65,-53 80,-186 14,-118 28,-160 58,-178 15,-9 23,-6 43,19 13,17 24,37 24,45 0,8 -9,0 -20,-17 -43,-72 -75,-21 -91,143 -5,59 -16,119 -24,134 -9,18 -39,42 -76,61 -74,40 -101,79 -140,199 -26,81 -59,248 -59,297 0,13 -5,23 -10,23 -6,0 -8,-17 -4,-42 z"
       id="path746" />
    <path
       d="m 2570,11078 c -50,-54 -88,-345 -59,-453 11,-39 35,-75 50,-75 13,0 39,31 39,47 0,12 -3,13 -15,3 -21,-18 -49,50 -49,125 -1,54 5,72 57,174 31,62 57,120 57,129 1,24 35,-44 54,-106 l 15,-54 -41,7 c -40,7 -41,7 -34,-19 4,-17 2,-26 -5,-26 -7,0 -10,-2 -7,-5 3,-4 18,-3 32,1 25,6 25,7 9,20 -14,11 -15,13 -3,14 17,0 51,-19 35,-20 -5,0 -2,-5 8,-11 23,-14 22,-50 -4,-94 -22,-36 -22,-41 -3,-142 4,-19 2,-33 -4,-33 -16,0 -122,113 -128,137 -4,13 -4,36 -2,53 2,16 1,27 -4,24 -11,-7 -10,-82 2,-104 14,-27 94,-106 120,-120 27,-14 44,3 35,35 -19,70 -18,117 4,156 12,21 20,43 17,47 -3,5 -10,39 -16,76 -20,126 -76,236 -120,236 -11,0 -28,-10 -40,-22 z m 68,-23 c 2,-11 -24,-74 -58,-140 l -60,-120 5,60 c 7,75 32,173 51,203 19,29 58,26 62,-3 z m -68,-481 c 0,-15 -22,1 -35,26 -26,49 -17,69 10,21 14,-23 25,-45 25,-47 z"
       id="path748" />
    <path
       d="m 1100,7075 c -47,-57 -36,-428 21,-679 l 12,-48 19,31 c 18,28 21,55 26,244 5,205 -3,320 -29,418 -10,41 -31,55 -49,34 z m 34,-32 c 3,-10 10,-53 15,-96 18,-130 8,-603 -11,-557 -12,27 -37,202 -48,324 -10,113 -2,284 16,329 8,22 21,22 28,0 z"
       id="path750" />
    <path
       d="m 2313,4325 c -47,-20 -67,-56 -59,-106 11,-66 33,-99 82,-121 83,-36 136,-2 137,90 1,58 -23,106 -66,132 -38,23 -51,24 -94,5 z m 81,-17 c 58,-26 83,-142 40,-189 -27,-30 -85,-25 -115,9 -57,63 -64,127 -18,166 34,29 55,32 93,14 z"
       id="path752" />
    <path
       d="m 5696,7157 c -25,-36 -44,-100 -56,-183 -17,-119 -36,-177 -68,-207 -56,-54 -285,-134 -547,-192 -173,-38 -266,-68 -290,-95 -24,-26 -48,-179 -36,-232 13,-56 33,-70 91,-62 70,10 378,90 560,145 193,59 270,94 287,129 6,14 23,77 37,140 20,95 22,117 12,128 -11,12 -20,10 -53,-12 -53,-36 -174,-76 -393,-130 -185,-47 -400,-90 -408,-82 -6,7 86,32 248,67 159,34 338,93 441,145 96,48 109,73 138,272 13,82 48,175 63,165 10,-5 8,-114 -6,-308 -9,-118 11,-16 24,126 16,169 -3,249 -44,186 z m -16,-446 c 0,-29 -62,-257 -72,-267 -21,-20 -247,-96 -428,-145 -236,-64 -337,-88 -385,-94 -47,-6 -54,-5 -69,16 -19,27 -21,92 -5,172 16,79 36,97 106,97 143,0 710,145 802,205 40,26 51,30 51,16 z"
       id="path754" />
    <path
       d="m 450,4521 c -41,-5 -111,-18 -156,-29 -83,-22 -270,-94 -288,-112 -20,-20 2,-20 35,-1 101,59 311,116 464,126 102,6 241,-7 259,-25 6,-6 7,-10 3,-10 -4,0 -46,-11 -94,-26 -106,-30 -417,-80 -566,-89 -61,-4 -107,-12 -107,-18 0,-11 104,-5 295,18 203,25 429,73 472,101 30,19 19,42 -26,53 -54,14 -206,20 -291,12 z"
       id="path756" />
    <path
       d="m 2,1840 c 0,-72 3,-106 8,-90 11,33 11,115 1,165 -7,30 -9,12 -9,-75 z"
       id="path758" />
    <path
       d="m 4534,1609 c 6,-33 4,-36 -29,-52 -50,-24 -63,-21 -80,16 l -15,32 5,-35 c 9,-56 36,-63 100,-27 34,20 40,27 37,53 -2,16 -8,34 -14,39 -7,7 -9,-1 -4,-26 z"
       id="path760" />
    <path
       d="m 1,1359 c -1,-55 114,-513 181,-719 35,-107 50,-130 87,-130 24,0 27,-5 38,-60 7,-35 43,-127 86,-218 41,-86 79,-174 86,-194 7,-21 17,-38 22,-38 13,0 5,25 -31,110 -69,160 -80,220 -59,322 10,49 73,191 101,230 10,14 10,20 1,29 -10,10 -22,10 -55,0 -98,-29 -218,-99 -218,-126 0,-21 2,-19 43,19 31,29 173,96 203,96 7,0 -8,-39 -33,-88 -47,-94 -78,-215 -69,-271 3,-21 2,-31 -4,-25 -15,15 -58,136 -65,186 -7,45 -9,47 -42,50 -34,3 -36,6 -59,68 -34,93 -85,279 -153,555 -33,133 -60,224 -60,204 z"
       id="path762" />
    <path
       d="m 530,700 c 0,-5 4,-10 9,-10 6,0 13,5 16,10 3,6 -1,10 -9,10 -9,0 -16,-4 -16,-10 z"
       id="path764" />
  </g>
</svg>
