<?xml version="1.0" encoding="UTF-8" standalone="no"?>
<svg
   version="1.0"
   width="812pt"
   height="1136pt"
   viewBox="0 0 812 1136"
   preserveAspectRatio="xMidYMid"
   id="svg839"
   sodipodi:docname="vany1.svg"
   inkscape:version="1.2.2 (b0a84865, 2022-12-01)"
   xmlns:inkscape="http://www.inkscape.org/namespaces/inkscape"
   xmlns:sodipodi="http://sodipodi.sourceforge.net/DTD/sodipodi-0.dtd"
   xmlns="http://www.w3.org/2000/svg"
   xmlns:svg="http://www.w3.org/2000/svg">
  <defs
     id="defs843" />
  <sodipodi:namedview
     id="namedview841"
     pagecolor="#ffffff"
     bordercolor="#000000"
     borderopacity="0.25"
     inkscape:showpageshadow="2"
     inkscape:pageopacity="0.0"
     inkscape:pagecheckerboard="0"
     inkscape:deskcolor="#d1d1d1"
     inkscape:document-units="pt"
     showgrid="false"
     inkscape:zoom="0.15377932"
     inkscape:cx="617.76836"
     inkscape:cy="767.33333"
     inkscape:window-width="1344"
     inkscape:window-height="456"
     inkscape:window-x="0"
     inkscape:window-y="25"
     inkscape:window-maximized="0"
     inkscape:current-layer="svg839" />
  <g
     transform="matrix(0.11187183,0,0,-0.11187183,-132.38184,1202.7382)"
     fill="#000000"
     stroke="none"
     id="g837">
    <path
       d="m 4275,10732 c -63,-22 -117,-62 -140,-106 -17,-31 -21,-33 -44,-24 -43,16 -151,10 -221,-11 -105,-33 -186,-87 -295,-196 -204,-204 -311,-408 -365,-695 -93,-498 -113,-551 -297,-804 -105,-145 -155,-233 -194,-346 -32,-92 -33,-259 -1,-381 27,-106 28,-190 3,-245 -10,-23 -46,-71 -79,-108 -33,-36 -70,-87 -82,-112 -21,-42 -22,-54 -15,-174 l 7,-128 -34,-34 c -35,-35 -93,-58 -145,-58 -16,0 -37,-6 -47,-13 -18,-13 -17,-15 9,-35 64,-50 169,-31 242,43 78,82 162,265 197,432 16,76 13,99 -4,32 -56,-220 -151,-420 -227,-475 -57,-41 -129,-55 -178,-32 -37,17 -31,25 27,31 81,10 139,44 166,98 21,43 22,51 11,120 -13,84 -7,154 16,200 9,17 43,60 75,94 108,116 125,195 79,365 -32,117 -32,267 -1,363 33,104 103,230 198,357 170,228 207,325 279,721 55,305 106,433 250,627 166,223 361,352 536,352 85,0 108,-10 102,-43 -6,-32 13,-44 23,-15 7,22 7,22 16,3 6,-14 7,-7 4,22 -6,59 24,99 99,138 55,28 66,30 164,29 90,0 117,-5 181,-29 177,-66 352,-170 466,-278 82,-77 183,-215 238,-325 45,-90 114,-191 195,-286 193,-228 241,-346 280,-686 30,-264 48,-304 229,-508 86,-98 115,-156 135,-272 21,-118 39,-154 117,-235 107,-110 125,-166 95,-294 -9,-35 -14,-66 -11,-68 11,-11 40,109 40,167 0,80 -16,113 -99,200 -79,82 -102,127 -125,251 -24,123 -48,169 -151,284 -145,162 -182,240 -200,408 -37,357 -92,518 -237,696 -131,162 -188,241 -237,332 -155,287 -302,433 -580,572 -188,93 -349,121 -470,79 z"
       id="path793" />
    <path
       d="m 4306,10619 c -54,-13 -99,-43 -138,-92 -28,-35 -33,-49 -33,-97 v -57 l -44,24 c -49,26 -111,30 -173,11 -42,-12 -117,-72 -106,-83 4,-4 35,0 70,9 36,9 77,16 92,16 49,0 113,-21 147,-49 26,-23 31,-32 25,-54 -3,-15 -19,-33 -34,-41 -20,-11 -22,-15 -9,-16 21,0 67,43 67,63 0,18 -18,115 -26,141 -4,11 -2,16 4,12 5,-3 13,-25 16,-48 19,-119 140,-164 286,-105 60,24 71,26 126,17 144,-23 252,-79 356,-182 87,-87 138,-180 193,-358 57,-180 87,-254 141,-351 24,-41 51,-95 59,-120 15,-39 70,-342 96,-523 18,-120 -15,-287 -88,-445 -14,-31 -28,-58 -32,-61 -4,-3 -60,-68 -124,-145 -135,-160 -186,-205 -276,-248 -56,-27 -79,-31 -170,-35 -122,-5 -188,8 -339,64 -210,79 -364,165 -435,244 -20,21 -64,87 -98,145 -34,58 -67,105 -75,105 -7,0 -29,-7 -48,-16 -42,-21 -66,-13 -66,21 0,18 -5,25 -19,25 -11,0 -22,-6 -25,-12 -6,-17 -44,25 -52,58 -3,13 1,84 10,157 23,189 20,268 -14,462 -51,286 -45,385 35,579 18,45 39,110 45,145 18,103 47,166 102,226 58,64 98,89 219,140 48,20 95,45 104,55 16,17 15,20 -3,38 -28,28 -118,38 -201,23 -173,-32 -330,-178 -451,-416 -116,-228 -127,-364 -59,-700 66,-327 64,-491 -10,-636 -15,-31 -60,-99 -98,-150 -177,-238 -193,-357 -78,-595 58,-120 70,-176 55,-251 -15,-75 -49,-142 -108,-215 -52,-64 -71,-75 -46,-26 23,44 29,136 14,210 -6,35 -34,122 -62,193 -91,235 -93,244 -93,400 v 140 l 37,75 c 20,41 69,113 109,160 190,224 210,300 179,690 -14,175 -10,257 20,415 24,121 90,332 138,437 16,36 59,111 95,165 99,149 203,248 316,302 81,38 150,47 215,27 46,-14 48,-14 32,2 -13,13 -35,17 -104,17 -82,0 -93,-3 -168,-39 -134,-66 -288,-237 -384,-426 -105,-208 -197,-578 -188,-761 2,-43 0,-79 -4,-79 -4,0 -3,-12 3,-27 6,-16 13,-105 16,-199 5,-155 4,-178 -15,-240 -25,-82 -72,-157 -171,-274 -123,-145 -157,-244 -148,-431 5,-110 13,-140 121,-433 41,-111 55,-217 37,-283 -13,-46 -61,-115 -102,-146 -57,-42 -160,-27 -196,30 -14,20 -12,22 32,42 74,33 106,61 131,115 32,69 31,131 -7,279 -33,133 -48,171 -49,123 0,-16 -20,-72 -44,-125 -41,-91 -66,-164 -50,-149 4,4 17,32 30,63 13,30 35,81 48,112 l 24,56 12,-44 c 6,-24 18,-67 26,-96 31,-113 9,-227 -54,-271 -24,-17 -45,-22 -97,-22 -61,0 -70,-3 -123,-40 -72,-50 -141,-65 -224,-49 -32,6 -58,16 -58,20 0,5 -4,9 -10,9 -20,0 -9,-20 18,-33 37,-19 120,-27 168,-17 21,5 40,7 42,6 1,-2 -21,-17 -50,-34 -102,-58 -187,-157 -291,-338 -90,-158 -367,-726 -367,-753 0,-29 40,-99 98,-169 19,-24 69,-101 111,-170 73,-121 266,-382 282,-382 5,0 -10,34 -33,76 -23,42 -60,118 -82,168 -100,222 -215,380 -311,426 -30,15 -45,28 -45,41 0,25 321,671 400,806 94,160 180,243 336,322 76,38 124,50 124,29 0,-23 45,-59 87,-68 46,-11 99,1 138,32 31,24 28,17 -24,-54 -20,-27 -43,-48 -53,-48 -10,0 -18,-4 -18,-10 0,-5 7,-10 15,-10 8,0 15,-2 15,-4 0,-2 -19,-35 -42,-72 -63,-103 -108,-212 -108,-262 0,-40 2,-44 38,-59 28,-12 58,-14 127,-10 111,7 221,44 358,123 102,58 172,91 165,77 -45,-90 -44,-96 24,-188 100,-135 188,-214 296,-269 194,-98 306,-228 354,-411 l 18,-70 -4,62 c -10,149 -125,301 -312,413 -60,35 -133,82 -162,104 -81,60 -222,236 -222,277 0,8 16,30 35,49 19,19 35,39 35,45 0,10 172,139 202,150 10,4 18,-6 27,-36 7,-23 61,-139 121,-258 119,-237 234,-506 276,-646 24,-79 28,-107 28,-225 0,-161 -13,-215 -135,-585 -181,-546 -170,-472 -179,-1130 -5,-297 -13,-610 -19,-695 -6,-85 -20,-288 -31,-450 -40,-585 -112,-1094 -219,-1550 -10,-47 -25,-132 -32,-188 -7,-61 -18,-110 -26,-118 -11,-11 -49,-14 -166,-14 -162,0 -308,17 -428,49 -156,41 -289,63 -421,70 -190,9 -179,-4 -173,220 9,288 43,780 60,871 16,82 75,752 75,852 0,15 4,15 46,2 26,-8 108,-16 183,-20 155,-6 189,3 225,64 11,20 39,134 67,278 80,404 98,538 134,984 18,221 51,430 96,605 17,66 35,138 38,160 4,22 20,67 35,100 36,76 45,135 22,135 -17,0 -48,-55 -102,-184 -42,-99 -93,-175 -134,-200 -51,-29 -163,-32 -330,-6 -171,26 -220,27 -236,6 -9,-13 -12,-4 -18,45 -17,169 4,417 43,484 45,79 157,84 381,16 74,-23 192,-55 263,-73 85,-21 127,-35 127,-44 0,-8 5,-14 10,-14 17,0 11,29 -8,39 -10,5 -80,25 -157,45 -77,19 -185,49 -240,66 -141,44 -239,57 -299,40 -53,-14 -96,-44 -96,-66 0,-8 -4,-14 -8,-14 -5,0 -12,46 -15,103 -6,94 -18,193 -91,723 -13,100 -31,198 -40,218 -13,32 -18,36 -35,27 -22,-12 -25,-20 -42,-109 -16,-86 -6,-326 20,-472 25,-139 45,-221 100,-407 55,-186 61,-244 38,-353 -9,-47 -20,-132 -23,-190 -6,-116 4,-153 44,-158 16,-3 21,-9 18,-20 -3,-9 -8,-35 -11,-57 -13,-79 -14,-80 -42,-54 -13,13 -33,38 -44,56 -13,20 -29,33 -41,33 -19,0 -20,-4 -15,-44 4,-24 20,-82 36,-129 39,-113 54,-188 45,-232 -9,-49 -30,-42 -66,23 -75,131 -122,304 -192,697 -60,335 -108,482 -154,473 -57,-11 -35,-329 53,-788 24,-124 57,-322 75,-440 46,-315 74,-451 126,-617 78,-246 113,-390 129,-527 20,-175 19,-246 -7,-473 -25,-221 -22,-218 -100,-90 -79,129 -138,281 -232,602 -47,161 -53,191 -70,345 -15,132 -31,180 -68,204 -60,37 -105,-95 -148,-429 -46,-368 -49,-569 -10,-748 36,-164 22,-210 -32,-111 -48,86 -91,297 -133,648 -23,197 -35,259 -35,188 0,-17 9,-111 20,-209 49,-425 122,-693 191,-693 31,0 32,38 4,170 -32,152 -35,326 -10,580 44,456 94,640 157,583 25,-22 45,-100 53,-203 8,-110 25,-186 91,-405 96,-322 166,-483 257,-596 l 47,-59 v -115 c 0,-65 -4,-115 -9,-115 -5,0 -22,5 -37,11 -16,5 -121,23 -234,39 -229,33 -260,41 -436,110 -68,27 -149,54 -181,61 -32,7 -61,15 -65,18 -4,3 6,73 22,155 16,82 38,208 49,280 92,593 98,647 131,1101 40,551 53,673 106,1000 42,254 119,620 153,723 14,41 15,52 5,52 -40,0 -181,-690 -233,-1140 -19,-162 -35,-360 -62,-735 -29,-412 -85,-833 -176,-1307 -21,-112 -29,-138 -43,-138 -24,0 -49,-32 -65,-82 -7,-24 -25,-62 -40,-83 -25,-37 -27,-46 -23,-112 3,-40 11,-79 18,-88 10,-11 10,-18 1,-29 -7,-8 -16,-53 -21,-101 -5,-48 -19,-120 -31,-160 -24,-81 -21,-113 13,-145 29,-27 80,-40 158,-40 h 65 l 5,-183 c 7,-248 3,-617 -10,-821 -9,-155 -8,-187 4,-175 23,23 42,1001 22,1133 l -8,49 94,-7 c 107,-9 192,-34 340,-104 57,-27 161,-68 231,-91 75,-25 127,-48 127,-56 0,-7 -7,-32 -16,-56 -30,-84 -102,-385 -127,-529 -48,-274 -44,-447 10,-490 31,-24 83,-26 129,-4 39,19 104,90 104,113 -1,12 -3,12 -12,-3 -16,-29 -79,-86 -106,-97 -72,-28 -128,5 -138,82 -9,68 12,299 41,449 47,246 126,530 147,530 5,0 -3,11 -19,23 -15,13 -82,42 -148,65 -66,22 -168,63 -226,91 -178,83 -219,93 -425,100 -148,6 -186,10 -208,25 -46,29 -51,56 -27,128 12,34 24,99 28,143 3,44 16,107 28,140 12,33 25,80 29,105 4,25 13,53 20,62 48,64 219,48 556,-53 233,-69 316,-89 380,-89 47,0 91,17 97,37 11,31 -95,91 -187,106 -41,7 -26,-1 63,-34 32,-11 70,-32 85,-45 40,-35 17,-46 -88,-40 -60,3 -125,16 -225,46 -291,87 -338,100 -423,111 -109,14 -126,20 -87,29 26,7 24,8 -17,9 -59,1 -151,-32 -171,-62 -8,-13 -20,-49 -27,-80 -16,-69 -30,-58 -30,22 0,43 6,64 29,100 16,25 32,60 36,77 3,17 17,42 30,54 l 24,22 83,-17 c 46,-9 119,-31 163,-49 173,-71 264,-95 462,-121 106,-14 213,-32 238,-41 78,-26 79,-24 72,134 -5,107 -1,172 15,297 16,132 19,194 15,355 -7,240 -30,359 -132,665 -53,157 -80,289 -130,630 -13,94 -38,244 -55,335 -81,433 -102,584 -101,744 0,162 26,167 75,14 23,-69 40,-153 121,-580 51,-274 154,-538 210,-538 48,0 44,123 -9,284 -20,60 -36,121 -36,135 0,22 5,19 55,-34 l 55,-60 v -115 c 0,-63 -7,-169 -15,-235 -19,-154 -19,-321 1,-509 13,-123 15,-193 8,-376 -5,-124 -8,-279 -6,-345 4,-180 -16,-425 -82,-1010 -8,-71 -20,-208 -27,-302 -7,-95 -16,-173 -19,-173 -4,0 -25,14 -46,31 -52,41 -105,67 -249,122 -126,47 -208,66 -219,49 -8,-14 24,-32 154,-86 168,-70 244,-113 291,-163 36,-39 40,-49 37,-84 -3,-39 7,-53 18,-24 23,58 -40,144 -144,198 -57,30 -235,108 -296,131 -10,3 -16,9 -13,12 8,8 240,-72 312,-108 33,-17 83,-47 110,-68 l 50,-39 -7,-223 c -5,-123 -6,-232 -3,-243 6,-28 56,-55 99,-55 32,0 35,-2 28,-17 -5,-10 -12,-68 -15,-129 -4,-61 -13,-131 -21,-155 -27,-82 -56,-203 -56,-236 0,-19 -3,-32 -8,-29 -4,2 -6,-13 -4,-35 2,-21 7,-39 11,-39 8,0 67,169 81,233 20,92 52,341 48,374 -4,32 -3,33 32,33 58,0 207,-26 345,-60 209,-50 284,-60 486,-60 165,0 188,2 202,18 9,10 20,53 26,112 6,52 22,145 36,205 55,243 94,450 120,640 15,110 28,205 30,211 2,8 28,4 82,-11 202,-59 560,-81 654,-41 14,6 19,-7 33,-86 44,-256 61,-583 52,-1049 -7,-400 -8,-393 50,-387 26,3 29,0 36,-42 18,-103 30,-150 39,-150 5,0 9,6 9,13 0,15 291,152 450,212 188,72 539,170 513,144 -19,-19 -198,-91 -418,-169 -290,-103 -350,-126 -396,-153 -62,-35 -45,-39 24,-5 34,17 139,58 232,91 426,148 435,151 536,202 68,35 82,50 56,61 -16,6 -193,-35 -317,-72 -192,-58 -510,-190 -654,-270 -22,-13 -30,-14 -36,-4 -8,12 -33,152 -28,154 49,20 128,68 163,98 126,111 164,286 151,693 -11,340 -45,704 -70,756 l -13,27 76,12 c 88,14 239,49 262,61 14,7 17,-4 23,-94 4,-56 12,-107 18,-114 15,-18 89,-16 116,3 17,12 22,25 23,62 0,43 1,45 11,22 80,-183 147,-278 214,-300 36,-12 36,-13 29,-56 -10,-69 -7,-322 5,-404 27,-188 48,-203 216,-159 43,11 120,33 169,49 50,15 135,35 190,44 92,14 453,36 587,36 h 57 l 7,-37 c 3,-21 14,-74 24,-118 48,-214 55,-273 52,-492 -1,-116 2,-214 7,-217 14,-9 23,320 11,424 -6,52 -26,171 -45,264 -19,93 -35,173 -35,177 0,5 12,9 26,9 83,0 115,90 85,242 -5,29 -12,85 -15,123 l -6,70 19,-50 c 10,-27 32,-77 48,-110 32,-64 58,-141 93,-268 11,-44 28,-93 36,-109 15,-29 18,-30 63,-25 l 46,6 -3,-37 c -2,-20 10,-91 27,-158 41,-162 61,-301 62,-431 0,-70 3,-101 9,-88 26,60 2,311 -50,518 -17,65 -30,130 -30,146 0,44 31,67 117,86 85,19 311,93 360,118 27,14 32,14 52,1 30,-22 26,-41 -11,-49 -48,-10 -165,-74 -204,-111 -46,-43 -47,-89 -3,-132 17,-17 38,-28 45,-25 8,3 21,0 28,-7 8,-6 40,-14 71,-17 34,-4 54,-10 52,-17 -7,-20 -57,-18 -92,4 -19,12 -41,20 -47,18 -15,-5 72,-58 95,-58 53,0 99,59 116,151 l 8,44 8,-40 c 10,-52 22,-75 40,-75 11,0 15,14 16,53 1,46 2,48 9,20 8,-36 36,-83 49,-83 4,0 14,-69 20,-152 13,-155 35,-316 45,-326 8,-7 7,4 -10,163 -19,179 -36,667 -23,679 5,6 39,13 75,17 39,4 72,13 82,23 32,32 3,37 -168,30 l -164,-7 -36,-34 c -53,-47 -134,-81 -247,-103 -120,-24 -181,-42 -274,-81 -107,-46 -109,-45 -154,113 -20,73 -39,140 -42,148 -3,12 9,18 49,27 29,6 134,45 233,86 99,41 213,85 253,98 118,38 87,66 -62,56 -133,-8 -311,-85 -424,-182 -65,-57 -42,-54 28,3 68,55 195,121 280,146 67,20 215,33 223,19 3,-5 -26,-20 -66,-32 -40,-13 -157,-59 -261,-103 -104,-44 -205,-82 -225,-85 l -36,-5 -37,73 c -58,118 -80,242 -48,273 30,29 528,232 638,261 78,20 272,20 327,0 66,-24 163,-45 213,-45 102,-1 135,-81 96,-234 -15,-61 -15,-65 5,-104 12,-23 21,-52 20,-64 -1,-18 -3,-16 -10,10 -11,37 -24,43 -126,61 -77,14 -92,25 -44,34 30,6 73,-2 110,-23 37,-19 36,-3 0,19 -40,25 -125,28 -155,7 -29,-22 -9,-35 95,-55 51,-10 94,-21 96,-23 3,-2 5,-57 6,-122 1,-90 -3,-122 -15,-141 -20,-31 -113,-65 -176,-65 -28,0 -50,-4 -50,-10 0,-15 90,-12 147,5 28,8 65,28 81,43 27,25 31,36 36,108 4,43 10,99 15,124 7,33 5,54 -6,82 -10,25 -13,53 -9,85 18,139 17,187 -2,222 -24,44 -74,71 -132,71 h -45 l 30,19 c 42,25 70,60 84,100 17,52 13,177 -9,268 -20,86 -35,196 -45,348 -11,151 -72,616 -115,875 -49,295 -173,932 -240,1235 -51,231 -63,319 -81,579 -10,155 -37,286 -59,286 -6,0 -10,30 -10,67 0,60 -4,74 -35,125 -20,31 -64,132 -99,225 -154,407 -209,517 -335,666 -57,67 -263,187 -528,308 -95,43 -175,79 -178,79 -3,0 -31,21 -63,47 -66,54 -178,109 -240,119 -54,8 -50,-9 11,-48 49,-31 222,-118 235,-118 11,0 268,-262 343,-350 61,-71 84,-108 74,-118 -11,-11 -325,-6 -386,6 -31,6 -98,27 -149,47 -102,40 -133,42 -138,8 -2,-15 13,-36 52,-74 38,-36 56,-61 56,-77 0,-26 -45,-74 -390,-427 -419,-427 -524,-548 -581,-669 -16,-35 -32,-81 -35,-102 -5,-32 0,-26 30,41 77,171 142,246 763,876 122,125 227,239 233,253 13,36 0,63 -59,119 -28,27 -49,53 -46,57 6,10 63,-5 131,-35 78,-35 144,-46 314,-52 227,-9 262,7 204,93 -30,44 -202,231 -282,307 -29,28 -51,52 -49,54 13,12 428,-194 547,-272 183,-120 271,-271 465,-797 24,-65 60,-144 79,-176 29,-47 36,-67 36,-110 0,-39 -4,-52 -14,-52 -22,0 -60,-55 -96,-140 -17,-41 -43,-100 -57,-130 -14,-30 -43,-91 -63,-135 -120,-256 -393,-725 -422,-725 -3,0 13,48 34,108 49,130 95,308 104,399 5,51 18,90 49,153 51,102 97,227 125,334 21,83 27,211 10,221 -5,3 -19,-27 -30,-67 -63,-215 -186,-454 -222,-432 -15,10 -8,70 17,145 80,233 136,806 79,804 -5,-1 -23,-86 -41,-190 -18,-105 -44,-244 -58,-310 -41,-186 -101,-325 -141,-325 -41,0 -29,145 32,378 39,151 46,193 48,281 1,124 -12,140 -49,59 -24,-53 -52,-160 -99,-375 -26,-117 -58,-203 -75,-203 -23,0 -44,67 -49,155 -3,70 3,132 27,275 40,242 51,342 51,473 0,91 -3,109 -16,114 -37,14 -53,-46 -79,-286 -16,-140 -38,-273 -69,-416 -33,-151 -18,-215 78,-323 31,-35 56,-66 56,-69 0,-2 -22,15 -48,39 -27,23 -71,54 -98,68 -43,22 -61,25 -154,25 -85,-1 -137,-8 -269,-38 -90,-21 -172,-42 -182,-48 -21,-11 -25,-54 -9,-79 7,-11 10,-6 10,21 0,24 5,39 15,43 9,3 100,24 203,47 314,69 360,58 568,-144 117,-114 150,-143 166,-146 15,-2 114,-69 127,-85 12,-14 6,-41 -42,-189 -31,-95 -70,-219 -87,-276 -58,-201 -85,-200 -134,2 -32,132 -62,193 -117,240 -90,77 -109,82 -342,82 -245,0 -235,-5 -263,123 -20,91 -59,209 -75,228 -6,8 -18,14 -25,14 -27,0 -16,-115 26,-277 85,-323 123,-656 140,-1218 13,-455 41,-664 99,-735 51,-63 75,-71 238,-79 156,-7 178,-14 252,-68 37,-28 54,-63 83,-168 11,-38 31,-90 45,-115 24,-43 25,-52 25,-215 0,-93 -5,-195 -11,-225 -26,-123 -25,-190 2,-290 25,-92 26,-101 20,-300 -5,-168 -3,-219 11,-284 27,-130 19,-190 -28,-221 -20,-13 -85,-19 -353,-30 -357,-16 -381,-19 -623,-90 -169,-49 -237,-56 -264,-26 -31,34 -49,231 -41,426 11,233 10,257 -24,403 -30,129 -41,201 -62,397 -6,65 -37,213 -74,365 -81,326 -143,633 -174,855 -6,39 -15,160 -21,270 -18,333 -40,570 -77,840 -12,86 -17,191 -17,370 0,244 0,252 27,340 29,93 74,193 151,329 24,44 63,134 86,200 23,67 84,209 135,316 51,107 105,231 118,276 25,77 49,224 64,389 l 8,80 38,3 c 48,4 61,-7 98,-81 17,-32 33,-57 35,-54 3,3 -9,31 -25,63 -17,31 -29,59 -27,62 7,6 106,-90 141,-137 17,-22 37,-40 45,-40 13,0 13,1 0,12 -24,20 -82,97 -72,97 4,0 13,-5 20,-12 6,-6 14,-10 16,-7 7,6 -87,79 -146,113 -26,15 -50,35 -53,45 -6,19 34,138 60,177 20,31 64,53 122,61 61,7 73,17 73,58 0,31 -2,33 -34,32 -39,-1 -83,25 -95,56 -5,12 -10,51 -13,87 -3,49 -2,60 6,46 28,-47 90,-119 119,-137 20,-11 50,-19 79,-19 67,0 82,25 76,124 -5,83 -31,137 -93,199 -35,35 -43,39 -96,51 -25,5 -26,9 -32,89 -9,132 -32,179 -153,311 -168,184 -186,238 -189,566 -2,239 -9,273 -72,390 -45,82 -50,89 -188,232 -122,127 -115,115 -247,398 -73,155 -147,233 -323,339 -188,114 -279,146 -389,139 -85,-6 -162,-41 -200,-91 -47,-61 -30,-87 58,-87 50,-1 57,-3 42,-12 -31,-17 -147,-21 -176,-6 -38,21 -35,93 7,150 47,66 119,101 220,106 91,5 135,-6 257,-62 39,-19 74,-32 79,-29 27,16 -41,87 -131,136 -103,56 -270,81 -376,56 z m 254,-30 c 81,-22 154,-60 210,-108 45,-39 25,-39 -51,-1 -170,86 -356,75 -450,-27 -31,-32 -69,-101 -69,-122 0,-26 -9,-5 -25,57 -9,35 -14,76 -10,92 8,38 62,89 116,111 62,25 185,24 279,-2 z m 101,-165 c 46,-14 149,-60 149,-67 0,-1 -39,-2 -88,-3 -67,0 -101,-6 -147,-24 -65,-26 -229,-40 -247,-22 -23,23 48,92 119,118 52,18 148,17 214,-2 z m -571,-43 c 31,-16 65,-59 55,-69 -2,-2 -16,5 -30,16 -39,31 -118,44 -190,32 -80,-13 -83,-13 -55,7 60,42 151,48 220,14 z m 775,-68 c 45,-24 101,-80 133,-133 17,-29 82,-228 82,-249 0,-3 -14,17 -32,44 -104,167 -257,275 -438,309 l -65,13 65,22 c 83,27 195,25 255,-6 z m 185,-109 c 82,-72 125,-130 172,-230 131,-285 118,-263 246,-398 233,-243 262,-315 262,-644 0,-296 26,-374 181,-538 119,-126 145,-176 158,-303 6,-56 18,-108 29,-130 132,-249 138,-266 109,-306 -13,-17 -15,-17 -45,0 -67,40 -160,205 -163,290 -1,30 -3,34 -7,18 -6,-20 -15,-15 -100,64 -93,86 -124,129 -136,192 -12,66 40,82 99,30 39,-34 124,-197 126,-239 0,-14 3,-19 6,-12 2,6 9,9 15,6 6,-4 9,-3 6,2 -2,5 -16,36 -31,69 -51,112 -62,129 -105,173 -40,40 -47,44 -82,39 l -38,-5 -9,52 -10,51 -17,-38 c -10,-24 -19,-77 -22,-145 -5,-89 -3,-122 15,-197 38,-160 136,-330 231,-404 l 45,-34 -54,6 c -140,16 -290,177 -346,372 -24,81 -22,229 3,315 11,36 31,105 46,154 45,154 33,308 -38,461 -30,66 -34,81 -29,133 12,129 -39,281 -133,398 -83,104 -186,224 -191,224 -8,0 68,-101 140,-184 123,-143 171,-258 165,-398 l -3,-73 -39,70 c -21,39 -67,113 -102,165 -68,102 -129,237 -171,384 -14,50 -47,141 -74,202 -27,61 -63,160 -80,220 -31,109 -55,165 -91,217 -30,42 -9,32 62,-29 z m -1001,26 23,-12 -27,-18 c -21,-14 -40,-17 -79,-13 -67,7 -187,-12 -237,-37 -53,-27 -108,-85 -131,-137 -13,-29 -22,-85 -29,-166 -11,-143 -25,-195 -86,-331 -62,-137 -79,-225 -63,-322 6,-41 30,-120 52,-176 68,-173 80,-237 75,-401 -4,-153 -31,-440 -48,-516 -6,-25 -26,-100 -45,-166 -46,-161 -46,-216 2,-315 57,-120 74,-181 74,-267 0,-136 -69,-235 -171,-249 -26,-3 -53,-10 -60,-15 -22,-13 11,-40 63,-49 134,-25 320,88 392,239 28,59 31,75 31,161 0,104 -13,151 -87,330 -75,177 -89,215 -113,305 -24,90 -38,231 -28,290 l 5,31 29,-29 c 18,-17 28,-36 25,-46 -16,-50 31,-131 75,-131 26,0 58,35 66,70 8,42 25,25 73,-71 50,-102 103,-178 220,-318 129,-155 155,-195 186,-287 31,-94 35,-183 11,-265 -22,-75 -85,-155 -105,-134 -3,3 0,49 6,103 14,112 15,308 2,337 -7,14 -8,9 -4,-20 l 5,-40 -33,60 c -19,33 -86,129 -150,214 -86,113 -122,169 -137,214 -12,34 -21,69 -21,79 0,10 -4,18 -10,18 -15,0 -12,-186 5,-255 17,-74 39,-125 102,-235 133,-233 152,-360 75,-518 -38,-77 -101,-126 -115,-88 -3,7 1,55 8,106 15,97 9,160 -14,168 -12,4 -13,-10 -7,-77 9,-111 -3,-153 -56,-191 -72,-52 -73,-45 -19,117 54,160 65,231 58,377 -6,146 -29,233 -96,366 -27,52 -57,121 -67,152 -9,32 -19,56 -21,54 -10,-9 22,-99 72,-207 63,-134 81,-197 97,-331 15,-131 1,-227 -56,-399 -26,-75 -46,-143 -47,-150 0,-19 -198,-156 -251,-174 -24,-9 -119,-54 -213,-101 -187,-94 -276,-120 -378,-111 -67,6 -87,19 -87,56 0,33 56,162 110,252 40,68 44,71 128,110 47,22 94,47 104,56 10,9 18,12 18,7 0,-20 -49,-80 -89,-109 -46,-34 -49,-41 -21,-50 33,-11 100,15 144,55 74,69 178,279 141,287 -5,1 -9,-7 -7,-18 4,-22 -62,-151 -114,-222 -35,-48 -96,-86 -139,-87 -15,0 -7,11 31,45 38,32 59,62 79,110 16,36 25,68 22,71 -3,4 -9,-4 -12,-17 -4,-14 -26,-36 -52,-52 -55,-33 -163,-80 -170,-73 -7,7 43,71 128,164 43,46 94,114 115,155 37,69 39,76 39,167 0,94 -1,97 -52,205 -63,135 -76,185 -71,272 5,89 49,182 155,326 87,119 124,200 143,317 18,105 7,215 -41,453 -64,309 -59,432 21,628 104,251 288,443 460,479 57,11 159,6 189,-10 z m -99,-64 c 0,-2 -29,-18 -65,-35 -88,-43 -177,-128 -211,-198 -14,-31 -33,-90 -41,-132 -9,-42 -36,-128 -60,-191 -61,-158 -71,-234 -50,-386 9,-65 26,-168 37,-229 10,-60 19,-146 19,-190 l -1,-80 -13,65 c -15,70 -33,128 -89,285 -58,162 -49,278 34,445 46,91 69,183 80,315 11,137 27,186 82,244 36,39 100,70 167,81 51,8 111,12 111,6 z m 1269,-588 c 21,-70 37,-128 35,-128 -11,0 -124,321 -124,354 0,27 54,-109 89,-226 z m 251,-513 c 72,-120 72,-120 66,-177 -3,-32 -22,-122 -42,-200 -33,-129 -37,-162 -45,-333 -5,-125 -15,-224 -28,-289 -36,-170 -23,-291 44,-432 69,-143 171,-221 333,-254 99,-19 107,-30 76,-97 -18,-36 -19,-36 -24,-13 -10,44 -50,54 -151,40 -118,-17 -201,-9 -267,24 -145,74 -217,226 -192,408 6,45 15,89 20,98 28,53 63,212 66,300 2,81 7,104 33,160 41,89 79,224 87,312 5,60 -1,118 -36,323 -22,138 -44,261 -47,275 l -6,25 20,-25 c 11,-14 53,-79 93,-145 z m 131,-257 c 31,-79 33,-89 33,-213 0,-124 -2,-135 -38,-240 -32,-92 -39,-127 -43,-219 -7,-132 5,-192 58,-303 49,-103 139,-203 219,-243 60,-30 169,-45 177,-24 2,6 -17,24 -43,40 -89,56 -193,229 -234,390 -21,81 -26,219 -11,304 9,48 11,39 17,-57 4,-72 45,-144 118,-207 141,-121 150,-139 161,-301 4,-55 12,-99 21,-113 17,-27 79,-57 107,-53 15,2 18,-2 12,-21 -10,-31 -8,-30 -60,-34 -26,-3 -59,-11 -74,-19 -39,-20 -88,-78 -96,-114 -7,-34 -22,-41 -27,-14 -2,13 -25,21 -91,34 -112,22 -169,50 -232,114 -62,62 -109,150 -135,251 -25,97 -25,156 -1,286 12,63 22,171 25,278 5,137 12,199 32,285 14,61 33,147 42,192 9,46 20,83 24,83 3,0 21,-37 39,-82 z M 3660,8366 c 0,-3 -4,-8 -10,-11 -5,-3 -10,-1 -10,4 0,6 5,11 10,11 6,0 10,-2 10,-4 z m 206,-162 c 42,-63 99,-134 127,-158 86,-76 356,-200 537,-247 70,-18 103,-21 199,-17 103,4 123,8 181,35 88,41 155,98 249,212 123,150 133,161 144,161 19,0 -2,-145 -37,-256 -19,-60 -40,-138 -46,-172 -37,-184 46,-371 197,-448 53,-26 67,-29 163,-29 58,1 133,3 167,5 74,6 93,-6 75,-44 -34,-76 -347,-175 -697,-220 -138,-18 -418,-21 -531,-5 -146,20 -329,75 -402,119 l -33,20 33,29 c 89,78 117,246 67,400 -29,88 -69,153 -174,276 -28,33 -103,139 -166,235 -64,96 -123,181 -132,188 -20,17 -57,6 -57,-17 0,-19 -18,-41 -35,-41 -13,0 -35,42 -35,65 0,10 11,15 33,15 18,0 42,6 53,14 26,19 30,14 120,-120 z m -224,99 c -3,-16 -7,-22 -10,-15 -4,13 4,42 11,42 2,0 2,-12 -1,-27 z m 47,-92 c -6,-2 -18,4 -27,13 -15,15 -15,15 10,4 15,-7 23,-15 17,-17 z m -66,-316 c 20,-49 55,-135 77,-190 55,-134 73,-214 66,-293 -15,-174 -174,-336 -343,-350 -89,-7 -113,6 -43,24 110,29 174,128 173,269 0,93 -9,124 -70,258 -42,92 -45,103 -40,160 2,34 21,116 40,182 19,66 38,147 42,180 l 8,60 27,-105 c 15,-58 43,-145 63,-195 z m 208,113 c 29,-57 89,-143 172,-248 131,-164 153,-243 122,-434 -10,-63 -14,-117 -10,-133 5,-15 7,-37 6,-49 -5,-55 162,-159 334,-208 326,-91 647,-94 910,-9 171,55 265,104 391,204 48,38 74,54 70,42 -3,-10 -10,-67 -17,-128 -24,-241 -60,-359 -178,-590 -43,-85 -95,-207 -120,-280 -24,-71 -66,-173 -94,-225 -168,-313 -191,-396 -190,-690 1,-135 8,-243 27,-400 43,-346 55,-479 71,-765 8,-148 22,-311 30,-360 32,-200 99,-531 146,-722 27,-111 49,-207 49,-215 0,-7 -9,-2 -19,11 l -19,25 -143,-13 c -78,-7 -156,-17 -172,-22 -52,-15 -40,-4 46,41 45,23 102,57 127,74 24,17 48,34 53,37 6,4 7,14 4,23 -9,22 -34,12 -288,-110 -120,-58 -248,-112 -288,-122 -77,-20 -99,-32 -59,-32 52,0 168,44 353,135 105,52 201,96 215,100 l 25,6 -25,-20 c -37,-30 -297,-161 -319,-161 -11,0 -23,-5 -27,-11 -4,-8 3,-9 26,-4 48,11 145,23 149,19 2,-2 1,-10 -2,-18 -7,-17 -103,-31 -194,-28 -49,2 -63,-1 -63,-12 0,-11 -27,-16 -125,-21 -69,-4 -129,-5 -132,-1 -4,3 5,6 20,6 31,0 57,9 57,20 0,5 -7,16 -16,24 -32,33 -226,14 -289,-28 -38,-25 -288,-18 -537,15 l -88,12 v 41 c 0,23 4,88 10,146 30,319 43,613 50,1135 8,599 8,596 59,786 12,42 64,209 117,370 53,162 107,341 120,399 33,145 33,282 -1,407 -45,168 -168,460 -316,748 -86,168 -111,236 -90,243 7,2 28,17 46,34 33,29 34,29 37,6 3,-20 9,-23 41,-22 47,2 70,22 107,98 73,148 64,264 -32,451 -33,66 -76,149 -95,185 -18,36 -39,92 -47,125 -16,68 -28,155 -21,155 3,0 14,-19 26,-42 z m 2328,-42 c 74,-39 133,-144 133,-239 0,-51 -4,-64 -22,-79 -38,-31 -45,-23 -45,50 0,63 -3,73 -57,168 -32,56 -58,105 -58,108 0,10 20,7 49,-8 z m 221,-441 c 29,-15 50,-29 47,-31 -5,-6 -147,63 -147,71 0,6 40,-10 100,-40 z M 2711,7229 c -46,-21 -86,-39 -89,-39 -11,0 63,52 93,66 17,7 41,13 55,13 17,0 -2,-13 -59,-40 z m 3197,11 c 11,-19 10,-20 -24,-20 -36,0 -37,0 -19,20 10,11 21,20 24,20 3,0 12,-9 19,-20 z m -175,-104 c -161,-135 -429,-231 -703,-251 -142,-11 -436,27 -598,77 -138,42 -292,136 -292,177 0,12 3,11 18,-2 51,-46 261,-116 412,-136 255,-35 586,-13 886,59 98,24 227,65 263,85 39,22 46,18 14,-9 z m 1127,-401 c 0,-77 -27,-303 -59,-491 -23,-132 -27,-305 -10,-367 12,-45 51,-70 73,-46 22,23 52,117 76,234 44,224 92,381 112,369 19,-12 -2,-162 -49,-343 -76,-299 -69,-490 14,-398 62,67 121,264 173,582 18,105 34,192 36,194 8,8 4,-169 -6,-270 -16,-160 -56,-373 -91,-487 -19,-64 -29,-112 -25,-128 26,-104 145,61 232,323 20,60 38,110 41,113 8,8 -8,-112 -24,-175 -22,-89 -65,-208 -113,-310 -34,-72 -44,-86 -51,-72 -6,9 -33,32 -62,51 -139,90 -395,366 -416,450 -12,47 -5,102 32,281 14,66 33,185 41,265 29,261 46,341 67,309 5,-8 9,-45 9,-84 z m -4496,-97 c 7,-18 19,-69 25,-113 89,-635 111,-819 110,-925 -1,-108 -12,-128 -27,-47 -7,36 -26,109 -42,163 -98,317 -143,620 -120,809 9,82 26,145 37,145 2,0 10,-15 17,-32 z m -382,-681 c 66,-51 130,-137 196,-265 63,-123 114,-232 107,-232 -8,0 -143,197 -186,270 -23,41 -68,108 -99,148 -81,108 -84,112 -72,112 6,0 30,-15 54,-33 z m 5732,-59 c 4,-40 14,-103 22,-140 28,-135 75,-446 84,-558 15,-174 12,-573 -6,-880 -9,-151 -16,-394 -16,-540 -1,-300 9,-395 72,-710 37,-190 54,-297 85,-549 9,-68 24,-147 33,-176 l 18,-53 -102,6 c -169,8 -246,-13 -612,-169 -102,-43 -188,-77 -190,-74 -5,5 6,76 29,199 5,26 23,68 41,92 41,58 42,99 2,127 -16,12 -51,42 -77,68 -39,38 -48,53 -45,76 3,25 10,30 63,46 81,25 125,45 125,57 0,11 -50,39 -93,51 -31,9 -117,-7 -117,-21 0,-4 21,-4 46,1 49,9 115,-4 134,-26 8,-9 -2,-15 -37,-25 -89,-22 -118,-36 -132,-61 -13,-23 -12,-30 6,-65 11,-21 46,-59 79,-85 33,-25 60,-55 62,-67 2,-11 -12,-43 -32,-72 -19,-28 -38,-66 -40,-83 -3,-18 -9,-59 -13,-92 l -8,-60 -27,110 c -15,61 -34,148 -42,194 -9,46 -20,89 -26,96 -7,8 -7,44 1,116 7,60 9,160 6,236 -5,111 -9,137 -26,160 -11,16 -30,64 -42,108 -34,129 -72,180 -169,231 -27,14 -68,20 -180,24 -108,5 -153,11 -178,24 -37,19 -76,75 -91,132 -24,91 -43,309 -51,599 -5,171 -14,373 -20,450 -13,171 -55,504 -75,602 -8,40 -15,75 -15,77 0,3 15,-3 33,-14 39,-24 113,-26 207,-5 87,19 176,19 234,-1 100,-34 203,-164 251,-314 10,-30 26,-71 35,-90 25,-49 51,-246 57,-430 4,-140 1,-179 -31,-400 -53,-369 -68,-591 -47,-710 6,-32 9,4 10,122 1,170 30,440 71,673 l 19,110 -4,-115 c -3,-63 -18,-198 -35,-300 -16,-102 -29,-207 -28,-235 1,-38 2,-42 5,-15 2,19 17,114 33,210 36,214 41,278 43,545 l 2,210 36,76 c 20,42 84,147 142,235 256,387 295,472 382,823 38,155 48,181 69,181 58,0 74,-451 26,-775 -61,-425 -139,-708 -264,-971 -95,-198 -187,-319 -277,-365 -50,-25 -59,-24 -59,7 0,45 32,96 115,184 72,75 74,80 26,40 -135,-111 -206,-260 -123,-260 56,0 153,84 231,199 96,141 213,428 269,656 93,383 126,624 126,925 0,293 -33,419 -97,363 -16,-15 -15,-9 8,37 27,54 62,100 75,100 4,0 11,-33 14,-72 z m 58,-131 c 5,-54 8,-101 5,-103 -5,-6 -35,145 -42,216 l -5,55 16,-35 c 9,-19 20,-79 26,-133 z m -227,-152 c -78,-310 -124,-402 -410,-838 -46,-71 -93,-154 -105,-185 -32,-88 -34,-90 -37,-52 -4,47 -32,227 -39,256 -5,19 -2,24 13,24 37,0 59,43 101,195 45,164 104,346 110,340 14,-13 -79,-346 -129,-462 -13,-30 -16,-49 -10,-51 7,-2 5,-14 -4,-33 -9,-16 -14,-29 -11,-29 7,0 133,174 173,240 84,138 322,601 364,709 22,55 15,7 -16,-114 z m -1425,-22 c 12,-32 31,-98 41,-148 33,-150 64,-171 221,-154 140,16 251,8 320,-25 68,-32 130,-99 152,-163 20,-59 13,-67 -12,-16 -32,61 -110,142 -166,170 -67,34 -162,41 -275,19 -175,-34 -223,-16 -254,91 -27,90 -65,283 -56,283 4,0 17,-26 29,-57 z M 3276,5320 c -78,-175 -143,-264 -211,-290 -46,-18 -170,-13 -265,10 -47,11 -67,18 -45,15 185,-23 294,-17 347,18 47,32 99,106 132,189 50,125 79,183 83,172 2,-7 -17,-58 -41,-114 z m -787,-197 c 1,-105 -10,-137 -30,-86 -11,28 -7,167 8,248 l 7,40 7,-50 c 4,-27 8,-96 8,-152 z m 746,38 c -8,-23 -33,-131 -55,-240 -31,-156 -45,-260 -65,-494 -31,-367 -53,-531 -111,-840 -83,-448 -73,-434 -304,-424 -132,6 -192,17 -218,42 -11,10 -12,57 -1,276 9,202 10,292 1,384 -38,389 -37,360 -18,530 10,88 22,241 26,340 5,99 13,194 18,211 15,49 40,91 57,98 32,12 107,6 221,-19 222,-48 315,-28 398,85 25,33 48,70 51,81 4,11 9,19 11,16 2,-2 -2,-23 -11,-46 z m 4695,-411 c 17,-91 51,-262 75,-380 99,-489 165,-941 220,-1505 9,-88 24,-196 35,-240 33,-132 22,-253 -27,-307 -36,-41 -71,-51 -122,-37 -25,6 -58,18 -73,25 -40,20 -39,18 -93,419 -8,66 -33,212 -55,325 -69,361 -75,414 -75,730 0,157 7,391 15,520 8,129 15,375 15,547 v 312 l 27,-122 c 15,-67 41,-196 58,-287 z m -5329,319 c -24,-5 -55,-19 -68,-31 -22,-21 -24,-21 -17,-3 14,38 26,45 78,44 l 51,-1 z M 5466,2801 c -4,-5 -30,-13 -59,-17 -67,-11 -67,-11 -69,1 -2,6 22,13 52,16 30,3 61,6 68,7 7,1 11,-2 8,-7 z m -156,-21 c 21,-13 12,-18 -49,-26 -44,-6 -53,-4 -49,7 3,8 20,17 39,20 19,4 36,7 39,8 3,0 12,-3 20,-9 z m 228,2 c 14,-9 39,-138 48,-253 5,-59 4,-78 -7,-85 -17,-10 -161,-34 -171,-27 -5,2 -8,19 -8,37 0,19 -9,88 -21,155 -11,67 -19,127 -17,133 3,7 35,19 74,29 84,20 86,21 102,11 z m -818,-51 c 0,-5 -24,-12 -52,-16 -124,-15 -177,-42 -226,-111 -23,-34 -72,-52 -72,-27 0,49 69,119 142,144 56,19 208,27 208,10 z m 624,-33 c 31,-187 66,-441 66,-480 0,-54 -19,-71 -73,-66 l -32,3 -12,151 c -7,101 -21,194 -42,278 -17,70 -31,131 -31,136 0,9 32,16 86,19 30,1 32,-2 38,-41 z m -1274,-7 c 63,-6 164,-11 223,-11 h 108 l -20,-29 c -43,-60 -43,-158 0,-227 17,-28 18,-34 5,-34 -41,0 -384,33 -475,45 -124,18 -111,17 -111,6 0,-16 285,-53 505,-66 142,-8 180,-24 194,-82 14,-55 15,-53 -16,-43 -16,5 -113,14 -218,20 -104,6 -254,20 -333,31 -80,11 -147,18 -150,15 -2,-3 1,-8 9,-10 40,-14 335,-48 488,-57 187,-11 226,-17 176,-29 -108,-27 -412,1 -624,57 l -63,17 5,40 c 3,23 13,115 23,206 9,91 18,170 19,176 2,8 22,8 72,-2 37,-7 120,-17 183,-23 z m 924,14 c 9,-9 21,-35 28,-58 17,-56 17,-232 1,-248 -7,-7 -15,-11 -17,-8 -3,3 -10,55 -16,116 -5,61 -17,130 -25,153 -8,24 -15,46 -15,51 0,14 27,10 44,-6 z m 229,-92 c 35,-150 51,-233 45,-239 -21,-20 -599,-123 -697,-124 -30,-1 -34,-3 -20,-13 26,-20 73,-310 100,-617 15,-169 7,-836 -10,-853 -15,-15 -14,-28 1,-25 6,2 14,-5 16,-14 3,-14 -3,-18 -26,-18 h -29 l 1,483 c 1,484 -5,617 -40,857 -8,58 -24,139 -35,182 -10,42 -19,80 -19,85 0,4 39,8 88,8 77,0 93,4 137,29 48,27 54,28 175,25 214,-4 352,0 345,11 -3,6 -50,10 -105,10 h -99 l 6,68 c 4,59 -3,123 -23,214 -7,29 -4,30 128,36 l 36,2 z m -269,-2 c 8,-36 17,-97 18,-136 l 3,-70 -94,-3 c -58,-2 -98,1 -107,8 -9,8 -44,9 -112,5 -117,-9 -159,2 -198,48 l -27,32 37,6 c 20,3 42,11 49,18 18,18 -5,45 -42,49 -17,2 -31,7 -31,11 0,12 71,82 91,89 10,4 103,8 208,8 l 189,2 z m -447,-73 c -3,-9 -22,-12 -58,-10 -82,5 -86,22 -5,22 50,0 67,-3 63,-12 z m -87,-42 c 0,-24 61,-85 97,-97 24,-8 71,-10 135,-6 106,6 123,-3 61,-30 -58,-26 -186,-22 -240,5 -48,25 -90,75 -99,119 -6,29 -4,30 20,26 14,-3 26,-11 26,-17 z m 2583,-73 c 4,-27 23,-121 44,-211 l 37,-163 -29,-24 c -17,-13 -31,-22 -33,-21 -1,2 3,37 8,79 10,71 9,85 -20,200 -30,124 -37,187 -21,187 4,0 11,-21 14,-47 z m -1393,1 c 0,-24 26,-168 46,-252 33,-144 32,-159 -9,-97 -51,76 -102,173 -127,243 -13,35 -27,59 -31,55 -19,-19 65,-197 147,-315 30,-43 54,-84 54,-93 0,-41 -86,5 -131,71 -53,78 -161,335 -146,350 3,3 38,10 78,16 41,5 81,14 89,19 17,10 30,11 30,3 z m -720,-204 c -15,-79 -12,-345 6,-584 25,-332 8,-565 -51,-690 -25,-53 -97,-126 -151,-154 l -21,-11 1,407 c 1,432 -5,527 -51,812 -13,85 -27,171 -30,191 l -5,36 118,18 c 66,10 135,21 154,25 19,3 36,6 38,5 1,-1 -2,-26 -8,-55 z m 3200,50 c 8,-5 11,-10 5,-10 -5,0 -17,5 -25,10 -8,5 -10,10 -5,10 6,0 17,-5 25,-10 z M 4944,2014 c 40,-399 45,-831 11,-972 -23,-94 -60,-164 -114,-215 -44,-42 -136,-97 -161,-97 -26,0 -5,28 46,60 58,36 110,91 136,145 55,110 75,359 53,656 -17,225 -22,581 -9,621 7,21 8,20 15,-13 4,-19 15,-103 23,-185 z m 3271,-444 c -3,-5 -21,-10 -38,-10 -48,-1 -109,-17 -119,-32 -5,-7 -7,-34 -6,-60 l 3,-46 -33,14 c -18,7 -39,13 -45,11 -24,-4 -18,40 7,57 15,9 26,21 26,26 0,16 -14,11 -42,-15 -30,-27 -65,-32 -92,-12 -16,12 -15,14 9,37 24,23 37,26 138,31 195,9 198,9 192,-1 z m -261,-136 c 9,-23 7,-54 -3,-54 -27,0 -41,15 -41,41 0,22 5,29 19,29 10,0 22,-7 25,-16 z m 85,-19 c 2,-2 -4,-11 -13,-20 -18,-18 -8,-48 19,-59 8,-3 15,-11 15,-17 0,-17 -49,30 -66,63 -21,41 -18,51 13,43 16,-4 30,-8 32,-10 z m -149,-12 c 0,-9 -11,-33 -23,-52 -13,-20 -31,-48 -41,-63 -11,-18 -25,-28 -41,-28 -36,0 -37,12 -5,61 17,24 27,51 25,61 -4,11 3,19 22,26 42,16 63,14 63,-5 z m -100,-35 c 0,-7 -14,-29 -29,-48 -29,-34 -30,-34 -50,-16 -28,25 -27,29 17,54 42,25 62,28 62,10 z m 260,-3 c 7,-9 8,-15 2,-15 -5,0 -12,7 -16,15 -3,8 -4,15 -2,15 2,0 9,-7 16,-15 z m -86,-26 c 3,-17 6,-57 5,-88 l -1,-56 -19,65 c -10,36 -19,75 -19,88 0,33 27,27 34,-9 z m -104,-82 c -16,-47 -30,-89 -30,-93 0,-15 31,36 45,73 l 14,38 v -37 c 1,-58 -14,-88 -45,-88 -26,0 -26,0 -19,58 6,51 50,151 61,139 2,-2 -9,-43 -26,-90 z m 196,16 c -6,-7 -55,48 -55,62 0,6 13,-5 30,-23 17,-19 28,-36 25,-39 z m -361,9 c -4,-4 -10,-1 -12,6 -4,10 -8,10 -19,1 -8,-7 -18,-9 -22,-5 -4,4 1,14 12,21 16,12 21,12 33,-1 9,-8 12,-18 8,-22 z m 365,-49 c 0,-3 -7,0 -15,7 -8,7 -15,8 -15,2 0,-5 7,-15 15,-22 17,-14 20,-40 4,-40 -12,0 -42,67 -34,80 3,5 1,11 -5,15 -5,3 -10,11 -10,18 0,6 14,-3 30,-21 17,-18 30,-36 30,-39 z m -334,33 c 8,-20 -23,-76 -41,-76 -20,0 -19,39 1,68 17,25 32,28 40,8 z m -56,-3 c 0,-5 -7,-16 -14,-26 -16,-20 -32,-6 -22,18 5,15 36,21 36,8 z m 100,-23 c 0,-25 -31,-69 -45,-64 -12,5 -12,11 2,40 16,32 43,47 43,24 z m 37,-36 c -7,-43 -11,-48 -32,-41 -13,6 -13,10 2,42 22,46 37,45 30,-1 z M 2461,1035 c -9,-40 -9,-39 -10,21 -1,34 2,77 7,95 6,31 7,30 10,-21 1,-30 -1,-73 -7,-95 z m -41,-252 c -22,-89 -39,-133 -40,-104 0,25 54,215 58,203 2,-6 -6,-51 -18,-99 z"
       id="path795" />
    <path
       d="m 4508,4270 c -179,-14 -498,-66 -516,-85 -4,-3 2,-13 13,-22 17,-13 43,-14 160,-9 77,3 203,13 280,21 181,21 420,20 619,0 122,-13 165,-14 184,-5 22,9 23,13 11,24 -64,60 -452,100 -751,76 z m 569,-39 c 106,-22 159,-38 151,-46 -2,-3 -76,2 -164,11 -217,22 -438,20 -683,-5 -191,-20 -371,-28 -359,-16 9,9 268,53 383,64 182,19 193,19 385,16 138,-3 211,-9 287,-24 z"
       id="path797" />
    <path
       d="m 6926,3443 c 11,-138 68,-423 84,-423 5,0 2,25 -6,55 -21,79 -64,340 -64,385 0,21 -4,42 -10,45 -6,4 -7,-20 -4,-62 z"
       id="path799" />
    <path
       d="m 7407,3358 c -13,-18 -35,-53 -49,-78 -14,-25 -46,-67 -69,-94 -48,-55 -178,-144 -222,-153 -15,-3 -30,-10 -33,-15 -12,-19 61,3 114,35 88,52 168,132 224,224 29,46 55,86 60,89 17,11 6,-75 -21,-166 -16,-52 -54,-164 -85,-248 -64,-175 -75,-236 -15,-87 59,147 126,351 140,426 18,100 0,127 -44,67 z"
       id="path801" />
    <path
       d="m 7010,4831 c 0,-5 -12,-14 -27,-19 -23,-9 -25,-11 -7,-11 11,-1 29,8 39,19 10,11 13,20 7,20 -7,0 -12,-4 -12,-9 z"
       id="path803" />
    <path
       d="m 4153,2573 c -18,-7 -16,-28 3,-43 12,-11 18,-10 31,3 28,27 4,56 -34,40 z m 27,-23 c 0,-5 -4,-10 -10,-10 -5,0 -10,5 -10,10 0,6 5,10 10,10 6,0 10,-4 10,-10 z"
       id="path805" />
    <path
       d="m 4767,2553 c -4,-3 -7,-15 -7,-25 0,-13 8,-18 29,-18 29,0 42,14 34,38 -5,13 -45,17 -56,5 z m 40,-19 c -3,-3 -12,-4 -19,-1 -8,3 -5,6 6,6 11,1 17,-2 13,-5 z"
       id="path807" />
    <path
       d="m 4800,9574 c -47,-14 -104,-36 -127,-49 -37,-22 -42,-29 -48,-75 -4,-27 -11,-52 -15,-55 -14,-9 -22,33 -10,55 6,11 7,20 1,20 -22,0 -29,-71 -8,-89 12,-9 10,-20 -11,-62 -34,-68 -35,-158 -4,-250 13,-36 29,-75 38,-85 13,-17 14,-16 1,11 -45,94 -59,225 -32,295 l 13,35 1,-47 c 2,-94 27,-102 83,-28 66,86 164,117 271,86 31,-9 59,-21 62,-26 4,-6 -11,-4 -32,4 -51,19 -107,26 -124,15 -8,-4 -14,-19 -14,-31 0,-31 -32,-37 -37,-7 -4,31 -19,33 -59,6 -39,-26 -112,-128 -100,-140 15,-15 116,-37 171,-37 30,0 73,5 95,11 37,11 105,66 105,87 0,5 -17,-7 -38,-28 -23,-24 -55,-43 -82,-50 -51,-14 -146,-7 -206,14 l -39,13 40,12 c 22,6 75,16 118,21 81,10 153,35 176,63 18,22 9,21 -31,-3 -45,-27 -53,-25 -53,15 0,40 8,42 70,20 67,-24 103,-19 141,19 29,29 34,41 34,83 0,26 -4,55 -9,62 -6,10 -8,1 -4,-25 11,-80 -52,-160 -95,-121 -56,51 -192,66 -272,30 -42,-18 -88,-59 -124,-108 -17,-24 -23,-20 -27,20 -6,75 1,115 19,115 9,0 69,29 132,65 164,93 212,103 315,64 30,-11 61,-19 68,-16 15,5 -52,71 -96,94 -54,28 -160,27 -257,-3 z m 210,-4 c 20,-5 44,-16 54,-23 15,-11 8,-12 -47,-9 -82,5 -114,-5 -257,-84 -63,-35 -118,-64 -123,-64 -13,0 2,62 22,90 28,39 191,98 276,99 22,1 56,-4 75,-9 z m -120,-289 c 0,-34 -31,-61 -70,-61 -41,0 -55,16 -51,58 2,19 18,14 24,-8 3,-13 14,-20 30,-20 29,0 52,23 43,45 -3,9 0,15 9,15 10,0 15,-10 15,-29 z m -140,-25 c 0,-8 2,-21 5,-28 4,-10 -6,-18 -32,-26 -20,-6 -38,-10 -40,-9 -5,5 50,77 59,77 4,0 8,-6 8,-14 z"
       id="path809" />
    <path
       d="m 3995,9358 c -78,-10 -180,-50 -227,-88 -40,-33 -105,-151 -93,-170 5,-8 25,5 59,38 85,83 117,94 296,103 85,4 164,9 174,11 25,4 66,-54 66,-93 0,-35 -4,-35 -65,-8 -58,26 -139,23 -200,-6 -60,-29 -132,-106 -140,-149 -6,-31 -12,-37 -44,-46 -25,-6 -49,-6 -71,0 -56,16 -95,12 -116,-11 -16,-17 -19,-36 -18,-103 1,-69 7,-96 41,-186 47,-122 112,-265 118,-259 2,3 -18,58 -44,124 -26,66 -58,149 -71,185 -28,80 -36,185 -18,220 15,27 16,27 125,14 57,-6 66,-5 103,20 33,22 51,26 110,26 45,0 89,7 123,19 115,43 167,67 172,79 8,21 -62,45 -142,50 -64,4 -77,1 -123,-24 -29,-16 -70,-48 -91,-73 -21,-24 -39,-39 -39,-32 0,22 84,103 132,127 59,30 129,31 199,4 29,-12 58,-19 66,-16 22,9 15,70 -14,112 -14,21 -29,52 -32,68 -14,64 -85,84 -236,64 z m 168,-11 c 33,-14 68,-47 49,-47 -6,0 -14,5 -17,10 -3,6 -23,19 -43,30 -43,22 -36,26 11,7 z m -23,-23 c 41,-22 64,-43 56,-51 -4,-4 -78,-10 -164,-13 -175,-7 -226,-21 -289,-82 -37,-36 -42,-28 -14,18 26,43 76,79 151,110 106,43 202,50 260,18 z m -20,-233 c 14,-28 13,-38 -10,-61 -30,-30 -85,-27 -106,6 -16,23 -16,27 -1,41 15,15 18,14 35,-7 16,-19 22,-21 40,-11 12,6 22,18 22,26 0,20 -16,19 -24,-2 -5,-12 -10,-13 -17,-6 -6,6 -8,16 -5,22 12,18 54,13 66,-8 z m 89,8 c 17,-6 31,-14 31,-18 0,-6 -84,-51 -96,-51 -3,0 -3,9 1,20 3,10 1,28 -5,40 -9,17 -8,20 13,20 13,0 38,-5 56,-11 z m -210,-84 c 24,-14 9,-25 -34,-25 -25,0 -45,3 -45,7 0,4 12,20 27,35 26,27 28,27 34,9 4,-10 12,-22 18,-26 z"
       id="path811" />
    <path
       d="m 3200,9250 c 0,-17 -93,-372 -107,-410 -26,-70 -61,-127 -141,-230 -42,-52 -89,-124 -106,-160 -29,-61 -31,-73 -34,-207 -5,-155 9,-288 33,-331 11,-18 14,-20 11,-7 -15,62 -25,144 -31,250 -11,196 15,285 127,430 127,165 158,235 219,490 18,77 36,142 40,145 5,3 4,12 -1,20 -6,8 -10,13 -10,10 z"
       id="path813" />
    <path
       d="m 4735,8874 c 72,-41 95,-104 53,-146 -20,-20 -23,-21 -26,-5 -2,9 -12,17 -21,17 -23,0 -71,-37 -71,-54 0,-7 -11,-25 -25,-40 -30,-32 -75,-34 -115,-6 -38,27 -86,36 -105,20 -9,-7 -14,-19 -11,-27 8,-20 -28,-16 -55,5 -23,20 -30,68 -15,107 8,20 7,20 -8,1 -26,-32 -20,-83 13,-117 32,-31 54,-35 98,-17 22,9 24,12 11,15 -10,3 -18,9 -18,15 0,16 58,1 87,-22 14,-11 38,-20 53,-20 22,0 33,-10 63,-57 43,-70 37,-83 -38,-83 -37,0 -64,-7 -96,-25 -100,-57 -185,-95 -211,-95 -15,0 -28,-4 -28,-10 0,-10 18,-14 50,-12 8,0 55,-16 105,-36 81,-33 99,-37 185,-37 88,0 101,3 163,33 55,27 79,48 134,115 38,44 83,96 102,114 41,38 37,50 -8,27 -22,-11 -77,-18 -174,-24 -78,-4 -142,-7 -142,-6 -1,0 -13,19 -28,42 -32,48 -33,59 -8,76 11,8 27,30 37,50 18,39 44,58 44,33 0,-23 44,-18 67,8 31,33 37,63 20,97 -14,27 -14,29 1,21 9,-5 31,-22 47,-38 54,-49 108,-90 172,-127 74,-43 91,-78 73,-146 -14,-53 -6,-64 10,-15 14,42 8,108 -11,131 -7,8 -42,32 -78,54 -36,21 -99,66 -140,100 -70,59 -105,79 -161,94 -22,6 -21,5 5,-10 z m 190,-383 c -3,-5 -36,-19 -73,-32 -37,-12 -92,-34 -122,-49 -36,-18 -79,-29 -125,-33 -38,-4 -101,-14 -140,-22 -95,-20 -98,-19 -40,13 28,16 66,38 85,50 25,16 51,22 92,22 46,0 61,4 78,23 18,19 35,23 118,28 53,3 105,6 115,7 10,1 16,-2 12,-7 z m 7,-48 c -139,-173 -270,-218 -462,-157 -49,16 -90,31 -90,34 0,7 216,41 258,40 18,0 52,10 75,22 41,21 224,95 240,97 5,0 -5,-16 -21,-36 z"
       id="path815" />
    <path
       d="m 2867,7845 c 3,-22 7,-42 9,-44 8,-9 2,45 -6,64 -7,14 -8,8 -3,-20 z"
       id="path817" />
    <path
       d="m 6088,7013 c 6,-2 18,-2 25,0 6,3 1,5 -13,5 -14,0 -19,-2 -12,-5 z"
       id="path819" />
    <path
       d="m 4141,5814 c 0,-11 3,-14 6,-6 3,7 2,16 -1,19 -3,4 -6,-2 -5,-13 z"
       id="path821" />
    <path
       d="m 4131,5774 c 0,-11 3,-14 6,-6 3,7 2,16 -1,19 -3,4 -6,-2 -5,-13 z"
       id="path823" />
    <path
       d="m 3737,5400 c -33,-27 -51,-79 -38,-113 24,-63 80,-84 140,-52 31,15 51,59 51,107 0,68 -95,104 -153,58 z m 117,-22 c 21,-29 20,-67 -1,-98 -23,-34 -33,-40 -70,-40 -61,0 -88,87 -42,136 30,32 91,33 113,2 z"
       id="path825" />
    <path
       d="m 3521,3696 c -79,-44 -61,-170 28,-197 34,-10 44,-9 66,5 63,41 59,150 -6,176 -16,7 -26,16 -23,21 8,14 -38,10 -65,-5 z m 94,-41 c 33,-32 33,-84 2,-121 -19,-22 -29,-26 -51,-20 -54,14 -88,73 -70,125 5,14 17,26 26,26 9,0 20,4 24,8 15,14 45,7 69,-18 z"
       id="path827" />
    <path
       d="m 3394,1951 c -63,-38 -69,-138 -13,-185 40,-34 71,-33 111,3 29,26 33,35 33,81 0,47 -3,55 -37,86 -44,39 -52,41 -94,15 z m 91,-41 c 41,-45 18,-127 -41,-144 -35,-11 -74,28 -74,74 0,49 16,85 44,98 24,11 42,4 71,-28 z"
       id="path829" />
    <path
       d="m 1680,1579 c 0,-6 -11,-8 -28,-4 -51,11 -113,-64 -67,-81 22,-9 18,-22 -6,-26 -24,-3 -30,-13 -48,-69 -17,-55 -14,-103 9,-124 11,-10 20,-26 20,-35 0,-10 8,-28 19,-41 27,-35 53,-132 43,-160 -8,-20 -12,-15 -40,45 -17,36 -38,69 -47,72 -27,11 -29,-5 -3,-26 24,-18 64,-97 55,-107 -2,-2 -10,10 -17,27 -11,27 -36,50 -54,50 -3,0 -6,-13 -6,-29 0,-21 9,-37 33,-55 17,-15 38,-31 45,-37 6,-5 12,-16 12,-25 0,-12 -3,-12 -24,1 -20,13 -29,14 -46,5 -21,-11 -23,-31 -3,-37 6,-2 17,3 26,11 13,13 17,13 32,-4 15,-17 17,-32 12,-89 -3,-39 -11,-79 -17,-90 -7,-13 -7,-21 -1,-21 10,0 24,44 37,115 4,22 12,51 19,65 7,14 16,48 21,75 6,44 15,59 72,118 36,37 63,70 59,73 -14,14 -72,-11 -107,-47 l -38,-39 -16,42 c -15,37 -16,43 -2,57 14,13 18,13 39,-7 l 24,-22 61,40 c 34,21 76,43 94,48 24,6 28,10 16,15 -9,3 -37,-4 -62,-17 -25,-13 -46,-21 -46,-19 0,16 25,44 53,61 34,19 34,21 36,93 1,41 2,84 2,97 1,28 -18,52 -41,52 -9,0 -29,14 -43,30 -27,29 -77,42 -77,19 z m 63,-27 c 25,-22 21,-49 -8,-56 -15,-4 -31,-19 -39,-39 -14,-32 -14,-32 -15,34 -1,87 14,102 62,61 z m -76,-67 c 3,-69 2,-69 -12,-37 -8,17 -26,37 -40,42 -14,5 -25,16 -25,24 0,23 30,47 54,44 19,-3 21,-10 23,-73 z m 151,23 c 15,-15 16,-54 2,-63 -6,-3 -10,4 -10,18 0,14 -10,31 -22,40 -22,15 -22,16 -2,16 11,1 25,-4 32,-11 z m -30,-53 c 2,-16 12,-35 23,-43 22,-15 25,-45 7,-60 -7,-6 -34,-10 -60,-10 l -47,1 v 55 c 1,40 6,59 21,74 27,27 52,19 56,-17 z m -143,-22 c 18,-42 12,-55 -11,-27 -15,19 -15,19 -8,-1 12,-31 8,-76 -7,-86 -8,-5 -24,-9 -36,-9 -29,0 -52,62 -32,87 7,8 13,25 14,37 0,15 6,21 23,20 12,0 22,3 22,8 0,21 21,4 35,-29 z m 42,-95 c -3,-8 -6,-5 -6,6 -1,11 2,17 5,13 3,-3 4,-12 1,-19 z m -22,2 c 3,-5 1,-10 -4,-10 -6,0 -11,5 -11,10 0,6 2,10 4,10 3,0 8,-4 11,-10 z m -95,-40 c 11,0 20,-4 20,-10 0,-14 -33,-13 -48,2 -7,7 -12,21 -11,33 0,19 1,19 9,-2 6,-13 18,-23 30,-23 z m 249,14 c 2,-2 -5,-7 -15,-10 -10,-4 -27,-14 -36,-22 -16,-13 -18,-13 -18,1 0,8 -3,23 -6,32 -6,14 -1,15 32,9 22,-3 41,-8 43,-10 z m -91,-8 c 17,-10 15,-52 -3,-86 -17,-32 -34,-37 -65,-18 -16,10 -24,10 -40,1 -16,-11 -21,-10 -30,6 -15,29 -12,56 9,75 32,29 99,41 129,22 z m -18,-198 c -37,-39 -55,-69 -69,-113 -15,-48 -19,-54 -20,-30 -1,42 51,147 85,173 53,39 55,23 4,-30 z m -164,-45 c 22,-29 18,-49 -6,-28 -19,17 -27,45 -14,45 4,0 13,-8 20,-17 z"
       id="path831" />
    <path
       d="m 1641,1133 c 0,-25 1,-26 9,-8 12,27 12,35 0,35 -5,0 -10,-12 -9,-27 z"
       id="path833" />
    <path
       d="m 3573,883 c -27,-5 -47,-28 -40,-47 12,-31 183,-76 417,-111 205,-30 399,-84 471,-132 23,-15 52,-43 65,-62 13,-20 24,-31 24,-25 0,6 -13,29 -29,52 -57,78 -209,131 -518,182 -340,55 -483,103 -380,126 174,39 584,-68 795,-207 21,-14 30,-16 27,-7 -7,18 -89,67 -186,112 -152,70 -396,127 -536,125 -48,-1 -98,-4 -110,-6 z"
       id="path835" />
  </g>
</svg>
