<?xml version="1.0" standalone="no"?>
<!DOCTYPE svg PUBLIC "-//W3C//DTD SVG 20010904//EN"
 "http://www.w3.org/TR/2001/REC-SVG-20010904/DTD/svg10.dtd">
<svg version="1.0" xmlns="http://www.w3.org/2000/svg"
 width="880.000000pt" height="1204.000000pt" viewBox="0 0 880.000000 1204.000000"
 preserveAspectRatio="xMidYMid meet">

<g transform="translate(0.000000,1204.000000) scale(0.100000,-0.100000)"
fill="#000000" stroke="none">
<path d="M4820 11954 c-211 -21 -418 -72 -557 -139 -125 -60 -193 -108 -290
-206 -148 -151 -260 -326 -452 -709 -142 -283 -213 -448 -274 -635 -127 -387
-156 -542 -177 -960 -14 -285 -23 -365 -77 -685 -74 -441 -65 -597 50 -843 25
-54 67 -129 92 -166 60 -92 214 -237 283 -269 30 -13 50 -27 45 -31 -27 -24
-129 -54 -208 -61 -100 -9 -104 -10 -195 -62 -85 -47 -132 -63 -325 -103 -202
-43 -294 -68 -398 -106 -45 -16 -145 -48 -222 -70 -286 -81 -387 -133 -531
-274 -169 -166 -281 -358 -549 -940 -138 -299 -211 -485 -304 -770 -44 -137
-114 -333 -156 -435 -41 -102 -75 -198 -75 -213 0 -15 7 -41 15 -56 27 -53
163 -156 181 -138 4 4 -14 29 -39 56 -59 63 -85 115 -71 139 13 20 98 29 118
12 22 -18 25 -88 9 -214 -13 -102 -13 -147 -3 -286 22 -309 93 -769 195 -1265
31 -148 80 -391 110 -540 59 -297 136 -626 142 -609 2 7 -17 101 -42 210 -26
110 -59 269 -75 354 -16 85 -52 265 -80 400 -103 495 -179 926 -216 1225 -18
149 -23 464 -9 614 8 88 -2 125 -34 135 -37 12 535 -4 660 -18 546 -61 1112
-186 1476 -326 131 -50 126 -43 113 -190 -6 -69 -26 -264 -45 -435 -51 -458
-64 -661 -75 -1165 -6 -250 -17 -522 -25 -605 -17 -176 -18 -206 -6 -185 17
32 42 455 51 885 10 466 21 623 70 1055 38 331 55 548 47 581 -8 31 -64 59
-243 120 -306 104 -683 188 -1139 253 -455 65 -914 74 -1002 19 -39 -23 -29
-62 34 -140 19 -24 31 -43 26 -43 -18 0 -107 86 -119 116 -16 37 -5 73 89 304
30 74 85 227 122 340 121 375 168 492 375 935 215 464 331 657 478 805 134
133 238 188 502 265 80 23 198 61 262 83 64 22 226 65 360 95 238 54 261 61
413 139 37 19 72 27 133 31 50 4 101 15 129 27 48 21 73 21 31 0 -42 -22 -78
-63 -84 -96 -12 -67 61 -296 154 -483 77 -152 338 -596 485 -823 30 -46 89
-144 132 -218 147 -254 258 -435 323 -530 134 -195 442 -561 512 -608 31 -21
36 -29 42 -82 17 -146 70 -277 157 -386 49 -61 174 -164 200 -164 8 0 -6 15
-30 34 -55 42 -156 171 -196 251 -17 33 -38 90 -47 126 -17 71 -22 219 -6 219
16 0 78 71 132 152 41 61 65 86 105 109 53 31 138 120 166 175 14 28 177 188
184 181 7 -8 -50 -205 -82 -282 -94 -225 -107 -272 -112 -395 -6 -138 11 -231
61 -337 54 -112 147 -243 175 -243 15 0 15 -3 -19 80 -44 108 -64 216 -57 324
5 92 35 246 47 246 4 0 12 -44 19 -97 22 -166 84 -324 235 -598 75 -135 119
-243 152 -372 26 -98 28 -124 29 -288 0 -136 -4 -201 -18 -265 -42 -197 -118
-395 -208 -539 -23 -36 -45 -68 -48 -71 -26 -22 -110 -130 -100 -130 6 0 42
23 80 51 70 51 140 126 219 232 23 31 44 57 47 57 2 0 -7 -19 -20 -42 -39 -71
-104 -238 -127 -327 -21 -84 -24 -191 -5 -191 6 0 25 35 44 78 42 97 123 216
226 330 44 50 81 89 83 87 1 -1 -13 -31 -31 -66 -77 -145 -141 -390 -123 -464
10 -38 25 -21 47 50 45 148 165 285 394 455 77 57 182 144 234 194 79 76 91
85 71 51 -78 -133 -153 -240 -320 -455 -100 -129 -136 -180 -127 -180 5 0 165
202 284 360 39 52 101 144 137 205 80 133 81 129 31 -147 -77 -417 -190 -784
-264 -859 -43 -44 -117 -69 -361 -124 -190 -43 -376 -89 -405 -100 -11 -5 9
13 45 40 138 101 400 399 400 455 0 27 -34 18 -97 -26 -288 -202 -427 -281
-813 -459 -349 -161 -495 -250 -488 -299 5 -36 80 -33 217 8 64 19 154 42 200
50 93 18 211 21 211 6 0 -5 -19 -22 -42 -36 -52 -33 -143 -107 -223 -183 -133
-125 -184 -157 -312 -193 -64 -18 -103 -22 -213 -22 -151 1 -186 7 -456 84
-99 28 -287 73 -419 101 -517 109 -554 123 -740 269 -183 145 -343 246 -415
261 -82 18 -213 7 -289 -24 -106 -43 -187 -106 -164 -127 4 -4 62 5 128 21
128 30 274 49 386 49 61 0 72 -3 101 -28 55 -47 280 -216 323 -242 49 -29 243
-190 345 -285 41 -38 165 -155 275 -260 304 -288 373 -339 518 -384 l68 -21
79 31 c111 42 290 134 390 200 209 137 406 262 535 339 77 45 190 112 250 148
142 85 317 203 447 300 213 161 233 176 238 182 24 25 188 125 240 145 130 52
160 55 545 56 389 1 486 7 493 27 11 36 -184 81 -383 89 -280 11 -541 -49
-698 -159 -88 -62 -1309 -669 -1400 -696 -7 -2 10 16 38 40 27 23 86 76 130
116 44 41 115 99 158 129 74 53 97 77 84 89 -11 12 -184 4 -252 -10 -38 -8
-125 -31 -193 -50 -139 -40 -170 -44 -179 -19 -15 38 131 123 556 322 272 127
434 216 574 314 175 121 218 149 224 144 9 -10 -27 -65 -100 -153 -106 -127
-190 -211 -286 -283 -51 -39 -79 -66 -72 -71 7 -4 47 3 89 16 42 12 172 43
287 68 116 26 254 60 307 77 85 26 101 34 135 73 43 49 94 170 142 336 17 58
49 152 72 210 64 165 118 317 145 410 l24 85 -4 -175 c-5 -189 -14 -245 -67
-380 -34 -89 -81 -163 -142 -227 -70 -73 -4 -54 123 35 426 300 535 773 322
1402 l-29 85 15 80 c9 50 15 139 15 235 0 140 -3 168 -32 290 -63 263 -65 276
-65 455 0 201 2 210 115 555 133 404 164 572 163 888 -1 112 2 200 6 195 20
-20 101 -231 138 -358 73 -250 110 -429 147 -713 28 -218 63 -375 119 -542 20
-58 36 -115 36 -127 0 -26 -66 -93 -113 -116 -18 -9 -65 -26 -106 -38 -84 -26
-311 -135 -356 -173 -16 -13 -27 -28 -22 -32 15 -15 237 80 397 171 43 25 83
45 89 45 12 0 18 -39 35 -235 20 -220 33 -456 46 -785 24 -633 50 -869 130
-1205 68 -284 86 -416 71 -514 -28 -179 -89 -271 -365 -547 -304 -303 -502
-464 -826 -670 -25 -16 -121 -68 -215 -116 -93 -48 -162 -87 -152 -88 21 0
202 90 323 161 286 168 575 395 854 670 303 298 386 428 397 620 7 107 -6 201
-62 444 -50 217 -80 380 -95 510 -11 109 -37 536 -45 770 -14 391 -56 951 -74
983 -7 12 2 24 34 48 23 18 50 49 59 69 17 35 17 37 -23 155 -57 170 -87 302
-111 485 -62 475 -164 876 -285 1115 -34 69 -46 106 -60 195 -21 130 -50 248
-112 445 -117 373 -170 604 -193 829 -5 57 -10 264 -10 460 0 196 -5 455 -10
576 -12 259 -59 692 -100 925 -55 311 -54 306 -26 406 44 159 51 206 50 344
-1 287 -93 623 -246 900 -189 342 -283 468 -433 582 -186 142 -380 210 -513
180 -43 -10 -98 -40 -89 -49 3 -2 17 3 31 13 38 24 146 29 236 10 176 -37 390
-188 530 -374 57 -77 189 -299 253 -427 79 -159 122 -274 157 -415 75 -310 79
-532 14 -740 l-17 -55 -24 185 c-47 380 -95 614 -155 757 -61 147 -235 379
-359 479 -100 81 -162 109 -238 109 -50 0 -66 -4 -75 -17 -18 -29 2 -48 125
-118 195 -111 319 -255 400 -465 36 -93 89 -273 149 -505 50 -192 125 -417
147 -442 15 -16 13 -29 -15 -145 -17 -71 -52 -240 -78 -378 -38 -208 -46 -272
-48 -380 0 -71 4 -138 9 -147 7 -11 9 20 7 102 -3 97 2 151 28 302 32 190 81
436 104 523 l13 50 7 -55 c4 -30 20 -125 36 -210 27 -143 68 -458 91 -710 5
-58 14 -366 19 -685 9 -603 10 -622 60 -888 20 -103 83 -332 170 -612 38 -122
80 -297 94 -392 l6 -41 -83 84 c-77 79 -85 84 -124 84 -32 0 -46 -5 -57 -22
-9 -12 -17 -20 -19 -17 -2 2 -11 42 -21 89 -36 172 -127 443 -143 427 -3 -4
-5 -85 -4 -180 4 -303 -23 -431 -182 -867 -130 -358 -169 -496 -212 -753 -85
-515 -49 -920 112 -1242 47 -93 177 -290 205 -309 40 -28 48 -21 48 42 0 71
-43 244 -120 477 -112 344 -141 554 -106 777 21 132 36 188 136 498 69 216
126 418 241 858 19 73 35 118 39 110 11 -20 28 -128 41 -268 26 -279 -5 -547
-107 -902 -95 -338 -122 -492 -110 -653 18 -256 104 -615 217 -904 27 -69 49
-134 49 -143 0 -61 -105 -323 -176 -439 l-36 -61 -43 109 c-35 86 -45 129 -54
213 -14 136 -22 164 -48 168 -38 6 -84 -71 -151 -253 -63 -171 -112 -262 -208
-390 -103 -136 -108 -140 -69 -53 99 223 137 387 136 598 0 161 -11 260 -40
380 -28 109 -57 181 -176 425 -168 344 -200 464 -198 755 3 402 78 673 284
1020 209 354 283 555 363 995 56 309 72 530 57 775 -6 96 -16 249 -21 340 -13
220 -21 283 -31 250 -4 -14 -7 -45 -8 -69 -2 -79 -50 -265 -110 -424 -101
-265 -142 -432 -196 -787 -104 -697 -232 -1092 -442 -1368 -52 -70 -206 -234
-271 -291 l-58 -49 3 169 3 169 93 93 c168 167 299 345 383 522 90 188 124
340 124 543 0 155 -16 168 -71 60 -17 -34 -55 -122 -85 -196 -211 -526 -307
-685 -608 -1015 -49 -53 -93 -97 -99 -97 -17 0 -1 255 22 345 23 91 100 251
137 286 l24 22 0 -129 c0 -117 12 -234 27 -258 13 -20 23 31 48 235 31 242 57
360 109 480 59 135 105 196 296 394 193 200 249 294 272 454 23 159 -15 257
-100 255 -164 -5 -464 -284 -542 -506 -11 -31 -37 -143 -59 -250 -52 -253 -86
-359 -181 -553 -100 -204 -131 -301 -137 -426 -6 -106 6 -193 41 -304 l23 -72
-65 -74 c-141 -162 -241 -315 -284 -435 -13 -35 -26 -64 -30 -64 -11 0 -110
118 -189 225 -181 246 -337 498 -511 830 -135 257 -276 498 -413 706 -313 475
-388 605 -391 677 l-2 44 -83 40 c-71 34 -99 56 -179 137 -134 137 -218 286
-273 486 -19 68 -22 104 -21 240 1 140 6 189 42 395 47 269 66 445 82 750 6
118 18 261 25 317 30 216 148 621 250 858 117 272 352 716 469 884 187 271
425 421 775 487 261 50 533 42 726 -21 105 -35 220 -93 261 -133 39 -38 74
-101 74 -133 0 -12 3 -20 6 -16 15 15 -10 91 -45 135 -64 80 -242 162 -431
197 -87 16 -299 26 -380 19z m1398 -621 c48 -20 137 -82 193 -135 114 -107
267 -327 313 -450 52 -137 107 -419 141 -713 8 -77 18 -156 21 -175 9 -63 -14
-12 -66 149 -28 84 -64 208 -81 275 -70 277 -138 495 -182 581 -84 167 -233
314 -400 395 -79 39 -111 82 -69 93 25 7 89 -3 130 -20z m577 -3579 c17 -234
19 -449 5 -595 -29 -291 -124 -728 -199 -919 -47 -119 -130 -280 -215 -420
-197 -323 -271 -576 -283 -971 -10 -333 24 -477 189 -804 167 -330 212 -481
225 -750 10 -219 -40 -444 -152 -681 -44 -94 -66 -126 -147 -215 -168 -186
-230 -273 -278 -391 -13 -32 -26 -56 -28 -53 -9 8 20 158 45 234 13 42 59 150
102 241 67 139 101 220 101 236 0 2 -4 4 -10 4 -5 0 -21 -23 -35 -50 -31 -61
-86 -148 -132 -210 -39 -52 -185 -202 -191 -196 -2 2 20 33 48 68 117 143 233
444 265 684 19 144 19 212 0 350 -28 209 -49 265 -247 644 -114 218 -147 320
-173 528 -19 149 -88 -49 -88 -253 0 -115 17 -211 53 -294 l20 -46 -31 35
c-84 96 -150 248 -169 393 -19 139 0 230 104 489 29 73 64 178 76 233 l23 100
118 113 c193 184 289 309 380 492 83 168 156 392 219 675 28 128 43 214 95
550 47 301 89 463 186 707 35 87 75 227 96 333 l8 40 3 -50 c1 -27 9 -140 17
-251z m-493 -265 c70 -37 63 -259 -12 -410 -38 -75 -89 -138 -226 -277 -223
-227 -308 -372 -358 -612 -12 -57 -51 -362 -57 -445 0 -5 -4 -1 -9 10 -5 11
-9 88 -9 171 -1 122 -4 154 -16 164 -12 10 -20 7 -42 -17 -37 -40 -119 -204
-137 -276 -20 -78 -40 -261 -31 -295 4 -17 3 -23 -3 -17 -23 24 -46 153 -46
260 0 99 4 120 34 209 18 54 66 165 106 247 91 185 133 316 180 550 55 279
101 382 240 529 79 84 163 146 255 190 68 32 98 36 131 19z m-2792 -231 c0
-63 65 -178 338 -595 215 -329 324 -514 499 -848 126 -239 159 -295 298 -505
144 -217 229 -334 315 -430 52 -59 61 -75 57 -98 -3 -15 -12 -63 -21 -107 -8
-44 -15 -98 -16 -121 0 -22 -3 -44 -6 -47 -12 -12 -62 33 -161 145 -244 276
-408 504 -593 823 -96 166 -188 318 -355 590 -324 526 -427 726 -491 955 -41
144 -32 176 66 239 59 39 70 38 70 -1z m2757 -658 c-3 -104 -11 -167 -26 -223
-69 -251 -212 -484 -443 -723 -120 -124 -124 -125 -128 -43 -3 52 -3 52 51
119 61 76 149 207 207 306 49 85 97 191 208 467 46 115 94 227 106 250 21 39
23 40 26 17 2 -14 2 -90 -1 -170z m778 -174 c37 -145 41 -176 26 -204 -9 -17
-44 -146 -141 -522 -48 -185 -74 -269 -169 -560 -104 -320 -132 -491 -112
-697 14 -139 41 -251 122 -502 33 -103 68 -218 79 -257 22 -87 44 -224 36
-232 -24 -23 -186 217 -255 378 -83 192 -112 338 -118 602 -7 289 20 533 92
820 40 160 77 272 175 538 130 352 178 603 166 863 l-6 112 35 -100 c19 -55
50 -162 70 -239z m158 -130 c36 -15 119 -99 162 -164 28 -43 28 -45 33 -227 9
-341 -33 -567 -182 -997 -126 -363 -132 -507 -40 -924 39 -179 44 -216 44
-326 0 -110 -10 -213 -26 -258 -7 -20 -12 -10 -59 115 -163 437 -234 854 -191
1128 10 60 40 188 68 285 68 244 105 396 124 521 21 142 21 438 0 591 -32 229
-32 230 -5 251 29 22 31 23 72 5z m-1544 -739 c1 -36 -7 -46 -132 -170 -74
-73 -152 -154 -173 -181 -21 -27 -51 -63 -65 -80 -40 -46 -136 -209 -165 -279
-14 -34 -27 -63 -29 -65 -2 -2 -13 2 -25 8 -29 16 -23 48 35 165 80 164 145
250 393 518 156 169 160 171 161 84z m13 -124 c2 -32 1 -107 -4 -168 -9 -123
5 -98 -123 -217 l-50 -46 -1 76 c0 53 -7 98 -23 144 l-22 67 103 100 c57 56
106 101 110 101 3 0 8 -26 10 -57z m-207 -249 c18 -68 20 -167 4 -196 -16 -29
-231 -237 -253 -244 -13 -4 -15 -8 -7 -14 8 -5 -5 -31 -43 -86 -57 -83 -102
-132 -112 -121 -13 12 43 240 57 231 5 -3 6 2 3 10 -15 38 128 282 249 424 78
93 77 93 102 -4z m-60 -308 c-34 -42 -80 -82 -115 -100 -8 -5 19 26 61 68 85
85 109 99 54 32z m-320 -125 c-15 -36 -45 -166 -45 -192 0 -41 -10 -59 -31
-59 -18 0 -19 5 -14 53 11 85 25 170 36 204 9 30 12 31 35 21 17 -8 23 -17 19
-27z m-35 -476 c14 -64 39 -118 84 -189 45 -70 40 -73 -10 -4 -71 99 -117 224
-127 345 -3 42 -1 53 12 55 13 3 17 -11 23 -77 3 -44 11 -102 18 -130z m2565
-165 c-63 -37 -296 -143 -302 -137 -2 3 47 31 109 63 176 90 300 137 193 74z
m-780 -810 c4 -6 13 -66 20 -134 10 -94 22 -144 48 -212 19 -49 38 -99 41
-111 18 -58 -138 -232 -348 -390 -178 -134 -230 -177 -284 -233 -62 -65 -132
-174 -158 -244 -21 -57 -23 -59 -23 -26 -2 141 127 459 239 590 90 105 148
185 203 278 50 83 67 123 137 307 53 141 103 211 125 175z m408 -131 c50 -162
69 -277 74 -439 4 -132 2 -170 -17 -260 -34 -169 -106 -318 -208 -431 -61 -67
-189 -173 -254 -209 l-43 -24 35 40 c161 179 225 517 165 874 l-17 105 36 60
c68 110 138 273 167 385 l11 44 13 -31 c7 -17 25 -68 38 -114z m-266 -462 c3
-38 1 -93 -6 -129 -12 -60 -126 -407 -138 -418 -3 -3 -3 4 0 15 16 54 79 419
84 485 6 74 29 138 45 122 5 -5 11 -38 15 -75z m414 -1122 c46 -8 108 -22 138
-30 110 -33 55 -39 -392 -41 -390 -1 -427 -3 -489 -21 -38 -11 -68 -19 -68
-17 0 7 79 44 141 64 126 43 234 58 415 59 110 1 201 -4 255 -14z m-4732 -196
c35 -5 80 -18 99 -28 l36 -19 -104 -7 c-150 -9 -281 -32 -425 -72 -20 -6 -20
-6 0 17 40 45 147 93 245 110 65 11 78 11 149 -1z m3570 -141 c-299 -228 -414
-306 -761 -512 -137 -80 -357 -217 -490 -303 -251 -162 -398 -243 -526 -289
l-74 -27 -83 26 c-143 47 -200 94 -665 542 -58 56 -157 146 -220 200 -63 54
-119 101 -124 106 -5 4 24 -3 65 -17 89 -30 209 -59 514 -124 127 -27 286 -65
355 -85 264 -77 310 -86 446 -92 117 -5 176 -1 284 22 80 17 -364 -162 -480
-193 -41 -12 -96 -24 -122 -28 -27 -3 -48 -10 -48 -15 0 -24 226 37 405 109
348 139 927 409 1345 627 162 84 299 153 304 154 4 1 -52 -45 -125 -101z"/>
<path d="M4958 11704 c-31 -9 -20 -42 25 -75 59 -44 142 -81 282 -124 137 -42
205 -77 205 -105 0 -33 -80 -46 -186 -30 -78 12 -145 35 -359 125 -145 61
-246 91 -325 100 -115 12 -245 -24 -344 -96 -42 -30 -46 -30 -67 -15 -102 71
-273 -109 -489 -519 -29 -55 -81 -152 -116 -215 -156 -290 -229 -494 -270
-762 -19 -122 -29 -622 -17 -798 7 -88 9 -33 9 240 0 460 21 639 104 892 52
157 104 264 342 702 158 290 297 456 384 456 18 0 39 -7 48 -15 13 -14 13 -19
-9 -52 -16 -23 -25 -49 -24 -72 l1 -36 8 34 c10 42 30 81 43 81 18 0 0 -86
-25 -123 -13 -20 -76 -83 -139 -140 -201 -183 -303 -328 -378 -540 -60 -171
-71 -252 -81 -600 -11 -364 -30 -526 -85 -719 -53 -184 -140 -376 -177 -386
-18 -4 -26 -42 -9 -42 5 0 -20 -57 -54 -128 -117 -236 -152 -342 -162 -496
-11 -164 30 -343 122 -531 74 -154 190 -289 350 -410 71 -54 156 -135 141
-135 -4 0 -38 27 -74 60 -37 33 -71 60 -76 60 -15 0 129 -130 191 -172 61 -42
75 -45 93 -23 11 13 11 32 0 100 -15 97 -9 197 20 359 22 120 26 290 10 376
-6 29 -8 55 -6 57 2 2 17 -20 34 -49 139 -245 429 -491 799 -676 176 -89 351
-132 533 -132 221 0 368 53 608 217 185 127 230 163 328 266 193 202 279 380
389 812 100 391 132 680 101 923 -10 74 -15 140 -12 148 3 8 15 14 26 14 13 0
24 10 30 26 16 41 -11 74 -60 74 -12 0 -20 10 -24 28 -24 113 -38 249 -46 447
-12 270 -27 372 -76 503 -74 200 -197 383 -333 497 -47 38 -111 95 -143 125
-58 54 -60 57 -73 134 -10 54 -24 95 -46 130 -35 58 -144 187 -173 205 -27 18
-38 0 -20 -34 96 -179 138 -282 127 -310 -18 -49 -94 -16 -218 95 -141 126
-263 202 -401 251 -58 20 -218 34 -256 23z m232 -35 c134 -37 279 -126 429
-264 86 -80 130 -105 179 -105 73 0 68 62 -22 242 l-65 133 59 -63 c32 -35 80
-94 105 -131 40 -58 47 -76 53 -137 10 -91 32 -118 204 -253 79 -61 133 -120
194 -212 99 -149 177 -329 205 -471 5 -29 14 -159 20 -287 5 -134 18 -292 30
-369 11 -74 19 -135 17 -137 -2 -2 -16 -4 -33 -6 -25 -3 -38 6 -84 54 -89 94
-186 129 -357 128 -235 -1 -430 -82 -515 -213 -38 -58 -59 -145 -59 -243 1
-368 273 -627 590 -563 109 23 166 53 240 129 72 72 125 163 160 274 29 91 38
285 17 362 -16 59 -12 63 46 63 76 0 107 -49 52 -80 -34 -19 -35 -26 -17 -165
40 -304 -25 -737 -185 -1228 -40 -123 -121 -288 -184 -374 -135 -184 -462
-439 -689 -536 -133 -56 -206 -71 -355 -70 -239 0 -417 59 -703 230 -376 226
-583 451 -695 753 -34 93 -41 126 -91 460 -65 429 -65 430 25 867 12 62 61
118 133 153 39 19 58 22 108 17 33 -3 65 -10 70 -15 7 -7 6 -28 -1 -62 -42
-197 30 -454 168 -603 97 -103 203 -147 353 -147 195 0 357 109 452 302 57
116 77 195 78 306 1 99 -22 174 -72 237 -17 21 -30 43 -30 49 0 33 -57 124
-108 175 l-58 57 60 -4 c49 -4 62 -2 73 14 50 69 -45 152 -238 207 -201 58
-294 58 -410 0 -75 -37 -211 -161 -224 -203 -13 -39 9 -40 70 -1 102 65 167
85 270 84 77 -1 108 -7 214 -42 126 -42 171 -64 227 -113 35 -31 88 -109 99
-148 l8 -24 -34 25 c-92 70 -248 118 -414 126 -163 8 -273 -22 -371 -103 -42
-34 -43 -34 -157 -37 -113 -2 -114 -2 -176 -41 -34 -21 -65 -35 -68 -32 -11
10 26 152 83 321 70 208 90 302 109 520 21 244 38 335 80 440 96 237 284 366
535 368 107 1 195 -19 411 -94 241 -82 286 -81 408 6 61 44 137 73 219 84 l67
8 -71 2 c-63 1 -78 -3 -150 -39 -43 -22 -101 -55 -127 -72 -78 -51 -129 -46
-367 35 -205 69 -282 87 -391 87 -224 0 -417 -115 -519 -311 -58 -111 -87
-235 -105 -452 -23 -270 -39 -351 -111 -562 -49 -144 -74 -239 -105 -400 -76
-395 -78 -401 -263 -787 -78 -166 -129 -298 -158 -416 -30 -122 -30 -319 1
-447 55 -230 130 -400 266 -610 18 -26 12 -24 -44 20 -74 58 -207 196 -252
262 -46 66 -125 238 -156 340 -24 80 -27 103 -27 253 l-1 165 37 107 c20 58
100 236 176 395 133 275 169 366 206 528 39 174 47 255 56 575 12 439 38 578
150 800 73 144 156 244 344 415 107 97 139 148 141 221 1 63 14 80 93 122 170
90 302 83 572 -28 315 -129 326 -133 440 -137 115 -4 153 6 158 44 5 36 -57
71 -225 128 -87 28 -178 62 -203 75 -62 31 -112 69 -105 81 11 17 157 10 235
-12z m-497 -1528 c186 -47 287 -106 287 -169 0 -56 -47 -54 -270 15 -145 45
-162 48 -265 48 -99 0 -116 -3 -168 -27 -32 -15 -78 -41 -103 -57 -24 -17 -44
-27 -44 -22 0 18 83 110 132 148 68 51 70 51 131 74 76 27 165 24 300 -10z
m-3 -326 c124 -27 230 -71 290 -121 30 -26 32 -31 27 -77 -7 -58 -43 -137 -62
-137 -7 0 -18 13 -23 29 -17 47 -91 120 -157 154 -53 27 -70 31 -140 31 -94 0
-168 -27 -265 -95 -79 -55 -69 -64 12 -11 134 87 244 112 347 77 55 -18 143
-81 162 -116 9 -18 4 -16 -27 9 -51 41 -122 72 -182 79 -71 8 -154 -13 -272
-71 -131 -63 -176 -67 -242 -20 -23 17 -49 43 -56 57 -9 19 -25 28 -63 36 -27
6 -60 11 -72 11 -61 -2 -162 -64 -198 -124 -22 -36 -23 -34 -9 31 10 47 12 49
93 93 l82 44 95 -2 c52 -2 97 -7 98 -12 2 -6 24 9 48 33 114 112 295 148 514
102z m1540 -44 c88 -15 165 -49 217 -95 75 -68 80 -83 50 -148 -48 -106 -131
-130 -229 -68 -98 62 -138 82 -191 96 -100 27 -193 14 -250 -34 -59 -50 -72
-57 -37 -18 19 21 55 50 80 64 40 24 55 27 140 27 87 0 100 -3 156 -32 33 -17
83 -50 112 -72 58 -47 68 -46 20 1 -73 72 -203 128 -294 128 -97 0 -229 -82
-274 -171 -31 -59 -27 -70 19 -63 24 4 73 -2 134 -16 154 -36 271 -18 346 51
22 20 24 21 65 5 79 -30 139 -16 190 45 15 18 30 45 33 60 9 46 20 34 32 -34
15 -85 14 -140 -3 -230 -43 -221 -169 -398 -328 -459 -65 -25 -196 -34 -266
-19 -158 33 -287 154 -352 328 -11 30 -25 99 -31 153 -31 282 106 444 416 495
98 16 173 18 245 6z m-1156 -196 c29 -55 31 -66 31 -159 -1 -183 -61 -332
-180 -452 -77 -78 -142 -114 -248 -140 -88 -22 -201 -8 -296 36 -203 95 -342
411 -298 674 l9 48 26 -25 c50 -46 82 -60 130 -59 26 0 58 4 71 9 18 7 38 1
95 -28 126 -66 256 -81 378 -44 25 7 65 11 91 8 29 -4 47 -2 47 5 0 5 9 12 19
15 26 6 71 97 71 143 0 50 17 40 54 -31z m-344 25 c25 -39 7 -116 -31 -135
-48 -25 -106 -19 -140 14 -38 38 -43 104 -11 129 24 19 169 12 182 -8z m-215
-51 c0 -45 4 -54 33 -80 20 -18 27 -29 17 -29 -22 0 -135 44 -175 68 l-34 21
74 35 c41 20 77 35 80 36 3 0 5 -23 5 -51z m307 12 c42 -27 88 -78 88 -98 0
-4 -20 -7 -43 -5 -24 2 -68 -3 -97 -12 -30 -9 -63 -16 -74 -16 -19 1 -18 2 5
15 31 17 59 71 59 114 0 17 4 31 8 31 4 0 29 -13 54 -29z m1231 -18 c4 -2 7
-25 7 -49 0 -37 -6 -51 -29 -75 -64 -63 -181 -22 -181 65 0 38 16 52 75 67 28
7 111 2 128 -8z m107 -38 c37 -19 71 -38 74 -43 8 -14 -34 -49 -86 -72 -25
-11 -75 -23 -110 -26 l-63 -6 31 20 c54 34 76 71 72 119 -2 24 0 43 5 43 4 0
39 -16 77 -35z m-324 -30 c0 -22 9 -44 25 -61 l24 -26 -40 8 c-22 4 -57 8 -77
7 l-38 0 31 38 c23 29 66 70 74 69 0 0 0 -16 1 -35z m-2119 -167 c-3 -8 -6 -5
-6 6 -1 11 2 17 5 13 3 -3 4 -12 1 -19z m-21 -97 c-27 -117 -30 -205 -12 -361
10 -80 23 -181 31 -225 7 -44 16 -105 19 -135 l6 -55 -16 60 c-17 70 -45 105
-72 89 -9 -5 -33 -42 -52 -82 -19 -39 -39 -72 -44 -72 -9 0 -2 243 9 290 5 21
4 22 -4 5 -20 -46 -33 -199 -23 -269 9 -57 8 -75 -4 -105 -54 -129 -58 -384
-9 -577 19 -72 69 -179 134 -288 58 -96 104 -187 120 -238 15 -46 2 -75 -36
-81 -28 -4 -28 -4 2 -6 93 -4 68 107 -80 348 -126 206 -150 296 -150 556 0
146 3 191 18 239 l18 59 30 -36 c36 -44 81 -61 128 -47 19 5 36 9 37 7 7 -8
88 -263 101 -317 22 -94 19 -287 -6 -435 -30 -176 -34 -249 -19 -336 16 -86
14 -99 -11 -99 -24 0 -103 58 -96 70 3 5 -14 32 -39 58 -26 27 -46 52 -46 55
0 4 -19 37 -43 74 -112 176 -175 316 -228 508 -24 88 -32 137 -36 245 -10 238
27 360 238 796 67 140 139 330 139 369 0 10 3 16 6 12 3 -3 -1 -37 -10 -76z
m-1 -675 c7 -17 20 -71 30 -120 15 -83 15 -89 -1 -107 -32 -36 -99 -18 -135
37 -26 39 -25 48 17 134 53 112 63 118 89 56z"/>
<path d="M6075 10090 c-77 -11 -213 -49 -254 -70 -108 -56 -246 -271 -282
-440 -8 -36 -14 -48 -22 -41 -44 35 -212 52 -289 29 -45 -13 -98 -58 -98 -82
0 -12 12 -4 38 22 50 53 120 70 223 53 39 -6 84 -18 101 -27 27 -14 29 -18 21
-47 -4 -18 -7 -77 -6 -132 3 -169 60 -342 178 -545 65 -112 70 -178 19 -240
-27 -32 -85 -55 -112 -45 -14 5 -12 8 8 18 14 7 25 21 25 32 0 32 -78 33 -135
1 -25 -14 -75 -41 -111 -60 -36 -19 -70 -40 -76 -48 -14 -18 -43 -119 -43
-153 0 -33 24 -81 46 -89 29 -11 28 3 -1 26 -26 20 -27 25 -22 82 10 99 22
123 81 153 28 14 76 41 106 59 33 20 71 35 94 37 45 2 60 -17 21 -27 -42 -11
-29 -40 20 -44 50 -4 92 17 124 63 20 30 23 43 19 102 -4 58 -10 78 -46 135
-116 188 -182 392 -182 565 0 163 99 421 209 545 38 42 39 42 34 14 -7 -37 16
-56 70 -56 21 0 109 16 195 36 227 52 300 41 408 -58 24 -22 44 -36 44 -31 0
11 -66 74 -102 96 -16 10 -54 24 -87 33 -67 17 -117 12 -288 -31 -126 -31
-197 -35 -219 -13 -12 12 -14 20 -5 36 33 62 126 100 312 128 151 22 198 11
280 -63 50 -45 120 -162 117 -193 -2 -16 3 -25 13 -28 14 -2 15 2 10 25 -20
86 -128 225 -204 262 -46 22 -130 26 -232 11z"/>
<path d="M5581 8864 c-2 -124 -61 -233 -159 -295 -68 -43 -117 -40 -204 12
-58 35 -78 42 -125 43 -63 1 -76 -11 -42 -43 l22 -20 -26 -6 c-16 -4 -42 1
-72 14 -37 16 -50 29 -66 67 -28 62 -19 119 27 179 21 28 29 45 20 45 -7 0
-26 -19 -42 -42 -36 -55 -44 -145 -17 -198 25 -48 76 -80 127 -80 57 0 73 17
44 47 l-21 23 41 0 c31 0 66 -12 128 -45 46 -25 97 -45 112 -45 71 0 186 90
234 184 25 49 37 122 28 177 -7 43 -8 43 -9 -17z"/>
<path d="M4587 8229 c-26 -15 -47 -63 -46 -106 1 -42 4 -37 14 21 4 22 17 48
32 62 28 26 28 38 0 23z"/>
<path d="M5400 8214 c-23 -10 -49 -13 -75 -9 -135 19 -177 17 -345 -21 -115
-25 -192 -37 -252 -38 -49 0 -88 -5 -88 -9 0 -4 15 -14 33 -22 17 -7 90 -45
162 -84 212 -116 330 -146 538 -139 110 4 143 10 199 31 71 27 184 94 175 104
-3 3 -18 -4 -34 -15 -152 -107 -388 -139 -608 -81 -78 20 -216 82 -320 145
l-60 35 50 -6 c28 -4 133 -10 235 -15 102 -4 210 -14 240 -20 36 -8 84 -10
145 -5 49 4 156 8 236 10 97 2 172 9 223 21 77 18 107 41 38 29 -27 -4 -69 4
-160 30 -112 32 -280 75 -292 75 -3 -1 -21 -8 -40 -16z m-119 -20 c66 -15 74
-15 115 1 57 22 70 19 404 -76 l45 -13 -50 -7 c-27 -4 -108 -8 -178 -8 -71 -1
-159 -6 -197 -12 -56 -10 -86 -9 -162 4 -51 9 -167 19 -258 22 -91 3 -183 9
-205 14 l-40 7 55 8 c30 4 100 18 155 31 200 49 222 51 316 29z"/>
<path d="M5960 8217 c0 -3 9 -26 21 -51 11 -26 18 -54 15 -62 -3 -8 -1 -14 4
-14 24 0 -2 108 -29 124 -6 4 -11 5 -11 3z"/>
<path d="M5140 7741 c-16 -6 25 -9 120 -10 287 -2 377 -58 388 -242 4 -66 1
-81 -21 -125 -30 -57 -83 -110 -150 -149 -56 -32 -57 -45 0 -17 56 29 130 98
161 150 23 41 27 58 27 127 0 132 -54 211 -168 250 -58 20 -313 31 -357 16z"/>
<path d="M6912 7460 c0 -14 2 -19 5 -12 2 6 2 18 0 25 -3 6 -5 1 -5 -13z"/>
<path d="M2430 6121 c0 -58 88 -275 248 -611 51 -107 187 -445 215 -535 9 -27
25 -83 37 -123 24 -84 38 -93 16 -11 -50 192 -168 497 -303 784 -94 198 -154
338 -178 415 -9 30 -18 61 -20 68 -3 6 1 12 9 12 32 0 179 -231 276 -433 87
-183 134 -310 177 -477 42 -165 102 -506 109 -615 l5 -80 -35 95 c-68 182
-223 472 -355 660 -122 175 -361 430 -403 430 -26 0 -22 -21 18 -105 51 -103
183 -275 349 -456 152 -165 233 -266 269 -338 41 -81 78 -212 83 -298 5 -75 4
-83 -12 -83 -10 0 -74 56 -144 125 -140 139 -214 198 -311 249 -61 32 -157 66
-187 66 -40 0 11 -58 122 -141 33 -25 132 -99 220 -164 170 -127 282 -227 318
-284 17 -29 23 -59 30 -161 4 -69 8 -136 9 -149 0 -13 4 -19 9 -14 15 15 -6
274 -26 313 -45 87 -138 167 -540 462 -49 37 -101 79 -115 94 l-25 27 35 -7
c51 -9 190 -78 257 -127 32 -23 119 -102 194 -176 75 -73 144 -133 153 -133
30 0 39 48 28 132 -9 65 -24 117 -66 233 -23 64 44 -76 73 -154 20 -52 42 -96
49 -99 17 -5 16 122 -3 228 -9 47 -29 159 -45 250 -60 334 -171 637 -333 910
-110 183 -207 287 -207 221z m-130 -491 c68 -59 202 -212 284 -322 64 -87 200
-307 241 -389 32 -63 27 -60 -53 41 -32 41 -105 125 -161 185 -175 189 -298
350 -360 472 -39 78 -29 81 49 13z"/>
<path d="M3324 5515 c-8 -19 -32 -135 -55 -257 -22 -123 -49 -259 -60 -303
-33 -131 -120 -415 -141 -464 -42 -96 -63 -230 -39 -245 26 -16 150 210 221
403 90 246 151 610 130 788 -14 121 -29 143 -56 78z m40 -47 c20 -173 -23
-489 -99 -723 -59 -180 -199 -475 -226 -475 -20 0 3 122 37 199 14 31 36 92
48 136 13 44 42 143 64 220 39 133 65 253 112 520 31 180 52 219 64 123z"/>
<path d="M5565 2455 c-77 -13 -192 -26 -255 -29 -311 -18 -481 -49 -686 -126
-112 -42 -284 -128 -360 -181 -90 -62 -29 -36 106 46 208 125 586 234 810 235
77 0 301 23 434 45 115 18 166 19 166 3 0 -39 -161 -148 -511 -345 -104 -58
-187 -108 -185 -111 6 -6 199 97 361 193 277 163 371 237 348 273 -15 25 -68
24 -228 -3z"/>
<path d="M5534 2054 c-262 -151 -327 -191 -621 -391 -304 -206 -445 -294 -593
-368 -84 -42 -223 -95 -251 -95 -20 0 15 33 93 85 222 150 433 337 506 449 44
68 44 119 0 146 -70 42 -316 68 -490 50 -210 -20 -295 -49 -509 -171 -351
-199 -528 -262 -656 -230 -26 7 -56 20 -66 29 -18 16 -18 17 0 23 10 4 77 5
148 2 72 -2 150 0 175 5 35 8 2 10 -148 11 -165 1 -193 -1 -199 -14 -17 -46
78 -80 200 -72 112 7 282 74 472 185 301 176 394 208 635 219 195 9 429 -24
444 -63 23 -59 -13 -122 -153 -263 -84 -85 -164 -148 -415 -326 -30 -22 -58
-46 -61 -54 -12 -32 14 -33 102 -5 138 43 401 185 583 312 216 152 600 402
750 489 166 97 222 132 209 133 -3 0 -72 -39 -155 -86z"/>
<path d="M1124 1273 c-16 -32 -19 -61 -19 -174 0 -150 9 -124 -82 -253 -23
-32 -28 -51 -28 -95 0 -31 4 -67 9 -81 9 -25 8 -25 -12 -7 -20 19 -21 18 -48
-25 -79 -123 -99 -253 -56 -370 28 -77 164 -280 178 -266 3 3 -17 35 -44 70
-153 203 -177 334 -92 505 41 83 42 84 62 66 31 -28 65 -102 87 -193 12 -46
26 -89 32 -97 17 -19 47 -16 54 6 9 31 -5 70 -61 169 -84 146 -94 168 -94 217
0 52 18 92 66 149 50 58 58 93 45 185 -12 78 -5 147 20 192 24 46 31 33 126
-239 79 -229 131 -343 193 -426 49 -66 87 -102 479 -450 36 -32 90 -81 120
-107 30 -27 59 -49 65 -49 6 0 -16 24 -49 53 -33 28 -109 97 -169 152 -60 55
-172 155 -248 223 -212 188 -254 255 -369 589 -70 204 -107 287 -130 291 -10
2 -23 -11 -35 -35z m-5 -807 c34 -63 40 -106 16 -106 -9 0 -20 21 -30 58 -9
31 -21 70 -26 86 -19 60 -3 45 40 -38z"/>
<path d="M3302 1171 c-42 -11 -49 -18 -36 -39 37 -58 447 -99 789 -79 105 7
264 12 355 12 144 0 174 -3 240 -24 90 -28 138 -51 207 -102 29 -22 55 -39 58
-39 13 0 -32 64 -71 100 -85 79 -219 110 -479 110 -203 0 -315 8 -570 41 -174
23 -441 33 -493 20z m478 -37 c113 -14 278 -29 367 -33 90 -4 165 -10 168 -13
3 -3 -88 -11 -201 -18 -314 -20 -602 -2 -776 46 -65 19 -73 31 -25 38 17 3 43
8 57 10 43 7 196 -4 410 -30z m869 -60 c75 -17 169 -65 203 -102 l23 -26 -25
17 c-93 65 -246 116 -355 118 -27 0 -70 4 -95 9 -32 7 -12 8 70 4 63 -2 143
-11 179 -20z"/>
<path d="M937 123 c-3 -5 -8 -35 -11 -68 -7 -69 7 -48 18 28 7 43 4 58 -7 40z"/>
</g>
</svg>
